<svg width="59" height="59" viewBox="0 0 59 59" fill="none" xmlns="http://www.w3.org/2000/svg">
<path fill-rule="evenodd" clip-rule="evenodd" d="M26.9285 0.0359537C19.8884 0.620632 13.4239 3.59637 8.50271 8.51748C4.00325 13.0169 1.21596 18.6125 0.202254 25.1806C-0.0677041 26.9299 -0.0673816 31.5429 0.203004 33.353C0.867485 37.803 2.35028 41.7519 4.69423 45.3135C11.7782 56.0778 24.8609 60.8869 37.2375 57.2761C47.4343 54.3014 55.5284 45.5104 57.6414 35.1157C58.2075 32.3306 58.3936 28.4176 58.0808 25.875C57.1654 18.4351 53.6644 11.8372 48.0808 7.02924C43.8494 3.38592 38.8954 1.12743 33.2848 0.28412C31.8794 0.0729173 28.2094 -0.0703418 26.9285 0.0359537ZM32.6439 5.20704C39.4936 6.21263 45.6357 10.1767 49.5221 16.1C50.3737 17.3981 51.6433 19.9993 52.1291 21.4415C54.582 28.7241 53.5575 36.6359 49.3451 42.9407C46.0284 47.9048 40.798 51.6264 35.1213 53.0612C32.7411 53.6627 31.9737 53.7494 29.0117 53.7512C25.949 53.753 24.676 53.5917 22.2532 52.8946C14.5563 50.6801 8.35283 44.7456 5.83464 37.1878C0.795375 22.0639 11.2107 6.29201 27.0953 4.99296C28.5764 4.87181 30.9964 4.96529 32.6439 5.20704ZM22.8138 22.3046C20.7877 27.7735 19.1139 32.2924 19.0943 32.3466C19.073 32.4055 20.606 32.445 22.9072 32.445C25.0238 32.445 26.7766 32.481 26.8021 32.5251C26.8276 32.5692 26.2519 34.1436 25.5227 36.0238C24.7935 37.904 23.4322 41.4133 22.4974 43.8223C20.4886 48.9993 20.5681 48.7899 20.6128 48.7899C20.6608 48.7899 24.4348 44.3655 33.3248 33.8872L40.7569 25.1271L36.3799 25.0993C33.9725 25.0839 32.0029 25.0475 32.0029 25.0182C32.0029 24.9889 34.0846 22.1892 36.6288 18.7965C39.1731 15.4038 41.2911 12.568 41.3356 12.4945C41.4001 12.3882 39.8965 12.361 33.9571 12.361H26.4978L22.8138 22.3046Z" fill="#61D16A"/>
</svg>
