<svg width="1127" height="702" viewBox="0 0 1127 702" fill="none" xmlns="http://www.w3.org/2000/svg">
<path opacity="0.0416667" d="M-65.9999 348.128C-25.0173 345.471 14.4363 344.243 55.3321 350.933C93.8638 357.236 130.581 371.268 165.849 384.412C212.281 401.717 255.485 422.28 297.32 445.586C397.047 501.142 495.352 558.09 596.2 612.455C655.156 644.237 714.723 674.867 779.606 698.957C812.962 711.342 840.576 720.501 875.478 730.158C920.417 742.592 964.808 748.109 1010.78 756.713" stroke="#61D16A" stroke-width="0.5" stroke-linecap="round"/>
<path opacity="0.0833333" d="M-70.9999 333.18C-29.6367 330.459 10.1833 329.2 51.4589 336.053C90.3485 342.51 127.407 356.883 163.002 370.347C209.865 388.074 253.471 409.137 295.694 433.01C396.347 489.92 495.565 548.254 597.35 603.943C656.854 636.499 716.974 667.874 782.459 692.551C816.125 705.238 843.995 714.619 879.221 724.511C924.578 737.248 969.381 742.899 1015.78 751.713" stroke="#61D16A" stroke-width="0.5" stroke-linecap="round"/>
<path opacity="0.125" d="M-75.9999 318.232C-34.2561 315.446 5.93027 314.157 47.5857 321.173C86.8331 327.783 124.233 342.498 160.155 356.282C207.45 374.43 251.457 395.995 294.068 420.435C395.648 478.697 495.778 538.418 598.5 595.43C658.551 628.76 719.224 660.881 785.312 686.145C819.288 699.133 847.414 708.738 882.965 718.865C928.738 731.904 973.954 737.69 1020.78 746.713" stroke="#61D16A" stroke-width="0.5" stroke-linecap="round"/>
<path opacity="0.166667" d="M-80.9999 303.284C-38.8755 300.433 1.67727 299.114 43.7125 306.293C83.3178 313.057 121.058 328.113 157.308 342.218C205.034 360.787 249.442 382.852 292.442 407.86C394.948 467.475 495.992 528.582 599.649 586.918C660.248 621.022 721.475 653.888 788.165 679.739C822.451 693.028 850.834 702.856 886.708 713.218C932.899 726.56 978.527 732.48 1025.78 741.713" stroke="#61D16A" stroke-width="0.5" stroke-linecap="round"/>
<path opacity="0.208333" d="M-85.9999 288.336C-43.4949 285.42 -2.57572 284.072 39.8393 291.413C79.8024 298.33 117.884 313.729 154.462 328.153C202.618 347.143 247.428 369.709 290.817 395.284C394.248 456.252 496.205 518.746 600.799 578.406C661.946 613.283 723.726 646.896 791.019 673.332C825.613 686.923 854.253 696.974 890.451 707.572C937.06 721.216 983.1 727.271 1030.78 736.713" stroke="#61D16A" stroke-width="0.5" stroke-linecap="round"/>
<path opacity="0.25" d="M-90.9999 273.387C-48.1143 270.407 -6.82871 269.029 35.9661 276.533C76.2871 283.604 114.71 299.344 151.615 314.088C200.203 333.5 245.414 356.566 289.191 382.709C393.548 445.029 496.418 508.909 601.949 569.893C663.643 605.545 725.976 639.903 793.872 666.926C828.776 680.819 857.672 691.093 894.195 701.925C941.221 715.873 987.673 722.061 1035.78 731.713" stroke="#61D16A" stroke-width="0.5" stroke-linecap="round"/>
<path opacity="0.291667" d="M-95.9999 258.439C-52.7337 255.394 -11.0817 253.986 32.0929 261.653C72.7717 268.878 111.535 284.959 148.768 300.023C197.787 319.857 243.399 343.424 287.565 370.134C392.849 433.807 496.631 499.073 603.099 561.381C665.34 597.806 728.227 632.91 796.725 660.52C831.939 674.714 861.092 685.211 897.938 696.278C945.382 710.529 992.246 716.852 1040.78 726.713" stroke="#61D16A" stroke-width="0.5" stroke-linecap="round"/>
<path opacity="0.333333" d="M-101 243.491C-57.3531 240.381 -15.3347 238.943 28.2197 246.773C69.2564 254.151 108.361 270.574 145.921 285.959C195.372 306.213 241.385 330.281 285.939 357.559C392.149 422.584 496.845 489.237 604.249 552.869C667.038 590.068 730.477 625.917 799.578 654.114C835.102 668.609 864.511 679.329 901.682 690.632C949.543 705.185 996.82 711.642 1045.78 721.713" stroke="#61D16A" stroke-width="0.5" stroke-linecap="round"/>
<path opacity="0.375" d="M-106 228.543C-61.9725 225.368 -19.5877 223.9 24.3465 231.894C65.741 239.425 105.187 256.189 143.074 271.894C192.956 292.57 239.37 317.138 284.313 344.983C391.449 411.362 497.058 479.401 605.399 544.356C668.735 582.329 732.728 618.925 802.431 647.708C838.265 662.505 867.93 673.447 905.425 684.985C953.703 699.841 1001.39 706.433 1050.78 716.713" stroke="#61D16A" stroke-width="0.5" stroke-linecap="round"/>
<path opacity="0.416667" d="M-111 213.595C-66.5919 210.356 -23.8407 208.858 20.4733 217.014C62.2257 224.698 102.012 241.805 140.227 257.829C190.54 278.926 237.356 303.995 282.687 332.408C390.75 400.139 497.271 469.565 606.548 535.844C670.433 574.591 734.978 611.932 805.284 641.301C841.428 656.4 871.35 667.566 909.169 679.339C957.864 694.497 1005.97 701.223 1055.78 711.713" stroke="#61D16A" stroke-width="0.5" stroke-linecap="round"/>
<path opacity="0.458333" d="M-116 198.646C-71.2113 195.343 -28.0937 193.815 16.6001 202.134C58.7103 209.972 98.8379 227.42 137.381 243.764C188.125 265.283 235.342 290.853 281.061 319.833C390.05 388.916 497.484 459.729 607.698 527.331C672.13 566.852 737.229 604.939 808.137 634.895C844.591 650.295 874.769 661.684 912.912 673.692C962.025 689.153 1010.54 696.013 1060.78 706.713" stroke="#61D16A" stroke-width="0.5" stroke-linecap="round"/>
<path opacity="0.5" d="M-121 183.698C-75.8307 180.33 -32.3467 178.772 12.7269 187.254C55.195 195.245 95.6636 213.035 134.534 229.7C185.709 251.64 233.327 277.71 279.436 307.257C389.35 377.694 497.698 449.893 608.848 518.819C673.827 559.113 739.479 597.946 810.99 628.489C847.754 644.191 878.188 655.802 916.656 668.046C966.186 683.81 1015.11 690.804 1065.78 701.713" stroke="#61D16A" stroke-width="0.5" stroke-linecap="round"/>
<path opacity="0.541667" d="M-126 168.75C-80.4501 165.317 -36.5997 163.729 8.85375 172.374C51.6796 180.519 92.4892 198.65 131.687 215.635C183.294 237.996 231.313 264.567 277.81 294.682C388.651 366.471 497.911 440.057 609.998 510.307C675.525 551.375 741.73 590.953 813.843 622.083C850.917 638.086 881.608 649.921 920.399 662.399C970.347 678.466 1019.68 685.594 1070.78 696.713" stroke="#61D16A" stroke-width="0.5" stroke-linecap="round"/>
<path opacity="0.583333" d="M-131 153.802C-85.0695 150.304 -40.8527 148.687 4.98055 157.494C48.1643 165.793 89.3149 184.266 128.84 201.57C180.878 224.353 229.299 251.424 276.184 282.107C387.951 355.249 498.124 430.221 611.148 501.794C677.222 543.636 743.98 583.961 816.697 615.676C854.079 631.981 885.027 644.039 924.143 656.752C974.507 673.122 1024.26 680.385 1075.78 691.713" stroke="#61D16A" stroke-width="0.5" stroke-linecap="round"/>
<path opacity="0.625" d="M-136 138.854C-89.6889 135.291 -45.1056 133.644 1.10736 142.614C44.6489 151.066 86.1405 169.881 125.993 187.505C178.462 210.709 227.284 238.282 274.558 269.531C387.251 344.026 498.337 420.385 612.298 493.282C678.919 535.898 746.231 576.968 819.55 609.27C857.242 625.877 888.446 638.157 927.886 651.106C978.668 667.778 1028.83 675.175 1080.78 686.713" stroke="#61D16A" stroke-width="0.5" stroke-linecap="round"/>
<path opacity="0.666667" d="M-141 123.906C-94.3083 120.278 -49.3586 118.601 -2.76584 127.734C41.1336 136.34 82.9661 155.496 123.146 173.441C176.047 197.066 225.27 225.139 272.932 256.956C386.551 332.803 498.551 410.549 613.447 484.769C680.617 528.159 748.482 569.975 822.403 602.864C860.405 619.772 891.866 632.276 931.63 645.459C982.829 662.434 1033.4 669.966 1085.78 681.713" stroke="#61D16A" stroke-width="0.5" stroke-linecap="round"/>
<path opacity="0.708333" d="M-146 108.957C-98.9277 105.265 -53.6116 103.558 -6.63904 112.854C37.6182 121.613 79.7918 141.111 120.3 159.376C173.631 183.422 223.255 211.996 271.306 244.381C385.852 321.581 498.764 400.713 614.597 476.257C682.314 520.421 750.732 562.982 825.256 596.458C863.568 613.667 895.285 626.394 935.373 639.813C986.99 657.091 1037.98 664.756 1090.78 676.713" stroke="#61D16A" stroke-width="0.5" stroke-linecap="round"/>
<path opacity="0.75" d="M-151 94.0091C-103.547 90.2526 -57.8647 88.5154 -10.5124 97.9745C34.1027 106.887 76.6173 126.726 117.453 145.311C171.215 169.779 221.241 198.853 269.68 231.806C385.152 310.358 498.977 390.877 615.747 467.745C684.011 512.682 752.982 555.989 828.109 590.051C866.731 607.562 898.704 620.512 939.116 634.166C991.151 651.747 1042.55 659.547 1095.78 671.713" stroke="#61D16A" stroke-width="0.5" stroke-linecap="round"/>
<path opacity="0.791667" d="M-156 79.061C-108.167 75.2397 -62.1177 73.4726 -14.3855 83.0946C30.5874 92.1604 73.443 112.342 114.606 131.246C168.8 156.136 219.227 185.711 268.054 219.23C384.452 299.136 499.19 381.041 616.897 459.232C685.709 504.944 755.233 548.997 830.962 583.645C869.894 601.458 902.123 614.631 942.86 628.52C995.311 646.403 1047.12 654.337 1100.78 666.713" stroke="#61D16A" stroke-width="0.5" stroke-linecap="round"/>
<path opacity="0.833333" d="M-161 64.1128C-112.786 60.2268 -66.3707 58.4298 -18.2587 68.2147C27.072 77.434 70.2686 97.9568 111.759 117.182C166.384 142.492 217.212 172.568 266.429 206.655C383.752 287.913 499.403 371.205 618.047 450.72C687.406 497.205 757.484 542.004 833.815 577.239C873.057 595.353 905.543 608.749 946.603 622.873C999.472 641.059 1051.7 649.128 1105.78 661.713" stroke="#61D16A" stroke-width="0.5" stroke-linecap="round"/>
<path opacity="0.875" d="M-166 49.1646C-117.405 45.214 -70.6237 43.387 -22.1319 53.3348C23.5567 62.7076 67.0942 83.572 108.912 103.117C163.968 128.849 215.198 159.425 264.803 194.08C383.053 276.69 499.617 361.369 619.196 442.208C689.103 489.466 759.734 535.011 836.668 570.833C876.219 589.248 908.962 602.867 950.347 617.226C1003.63 635.715 1056.27 643.918 1110.78 656.713" stroke="#61D16A" stroke-width="0.5" stroke-linecap="round"/>
<path opacity="0.916667" d="M-171 34.2164C-122.025 30.2011 -74.8767 28.3442 -26.0051 38.4549C20.0413 47.9811 63.9199 69.1872 106.065 89.052C161.553 115.205 213.183 146.282 263.177 181.504C382.353 265.468 499.83 351.533 620.346 433.695C690.801 481.728 761.985 528.018 839.521 564.427C879.382 583.144 912.381 596.986 954.09 611.58C1007.79 630.371 1060.84 638.709 1115.78 651.713" stroke="#61D16A" stroke-width="0.5" stroke-linecap="round"/>
<path opacity="0.958333" d="M-176 19.2682C-126.644 15.1882 -79.1297 13.3014 -29.8783 23.575C16.526 33.2547 60.7455 54.8024 103.219 74.9873C159.137 101.562 211.169 133.14 261.551 168.929C381.653 254.245 500.043 341.696 621.496 425.183C692.498 473.989 764.235 521.026 842.374 558.02C882.545 577.039 915.801 591.104 957.834 605.933C1011.95 625.028 1065.42 633.499 1120.78 646.713" stroke="#61D16A" stroke-width="0.5" stroke-linecap="round"/>
<path d="M-181 4.32005C-131.264 0.175351 -83.3827 -1.74134 -33.7515 8.69512C13.0106 18.5283 57.5712 40.4177 100.372 60.9225C156.722 87.9186 209.155 119.997 259.925 156.354C380.954 243.023 500.256 331.86 622.646 416.67C694.195 466.251 766.486 514.033 845.228 551.614C885.708 570.934 919.22 585.222 961.577 600.287C1016.12 619.684 1069.99 628.29 1125.78 641.713" stroke="#61D16A" stroke-width="0.5" stroke-linecap="round"/>
</svg>
