<svg width="117" height="29" viewBox="0 0 117 29" fill="none" xmlns="http://www.w3.org/2000/svg">
<path d="M0.52356 26.9621C1.52592 26.8962 2.24839 26.7512 2.69099 26.5272C3.47205 26.1186 3.86258 25.3739 3.86258 24.2931V4.32488C3.86258 3.28363 3.49158 2.55871 2.74957 2.15012C2.31999 1.91288 1.57799 1.74812 0.52356 1.65586V0.627793H12.7471C17.6808 0.627793 21.4429 1.95901 24.0334 4.62144C26.3896 7.04662 27.5677 10.3022 27.5677 14.3881C27.5677 18.0522 26.3831 21.1562 24.0139 23.7C21.3452 26.5601 17.7263 27.9902 13.1572 27.9902H0.52356V26.9621ZM10.3258 24.2536C10.3649 25.0839 10.5146 25.6836 10.7749 26.0527C11.0483 26.4217 11.6211 26.6062 12.4933 26.6062C14.8625 26.6062 16.8086 25.7627 18.3317 24.0756C19.8547 22.3754 20.6163 19.1198 20.6163 14.309C20.6163 11.4489 20.2062 8.99072 19.3861 6.93459C18.0583 3.62632 15.8193 1.97219 12.669 1.97219C11.6276 1.97219 10.9507 2.19625 10.6382 2.64439C10.43 2.93435 10.3258 3.49452 10.3258 4.32488V24.2536Z" fill="white"/>
<path d="M29.7546 18.7178C29.7546 15.8972 30.6073 13.5445 32.3126 11.6597C34.0309 9.77495 36.1853 8.83255 38.7758 8.83255C41.4184 8.83255 43.5793 9.79472 45.2586 11.719C46.9509 13.6434 47.797 15.9763 47.797 18.7178C47.797 21.4198 46.9639 23.7461 45.2977 25.6968C43.6314 27.6343 41.4575 28.6031 38.7758 28.6031C36.1723 28.6031 34.0179 27.6607 32.3126 25.7759C30.6073 23.8779 29.7546 21.5252 29.7546 18.7178ZM35.6321 18.7178C35.6321 21.5516 35.7753 23.5352 36.0617 24.6687C36.5173 26.4217 37.422 27.2982 38.7758 27.2982C40.0646 27.2982 40.9107 26.626 41.3143 25.2816C41.7178 23.9372 41.9196 21.7493 41.9196 18.7178C41.9196 15.6995 41.7048 13.5182 41.2752 12.1738C40.8587 10.8162 40.032 10.1374 38.7954 10.1374C37.4415 10.1374 36.5368 11.0139 36.0812 12.7669C35.7818 13.9399 35.6321 15.9236 35.6321 18.7178Z" fill="white"/>
<path d="M49.5935 27.0214C50.3615 26.9292 50.8952 26.7446 51.1946 26.4678C51.494 26.1911 51.6568 25.6573 51.6828 24.8664L51.7219 23.6802V12.668C51.7219 11.8245 51.5787 11.2511 51.2923 10.948C51.0059 10.6449 50.4396 10.4406 49.5935 10.3351V9.34659H57.1893V12.5296C58.0354 11.4093 58.875 10.5196 59.7082 9.86062C60.5413 9.2016 61.5046 8.8721 62.5981 8.8721C63.4182 8.8721 64.1537 9.14229 64.8046 9.68269C65.4685 10.2099 65.8004 10.9875 65.8004 12.0156C65.8004 12.8064 65.5661 13.4589 65.0975 13.9729C64.6418 14.4869 64.043 14.7439 63.301 14.7439C62.4549 14.7439 61.7194 14.3419 61.0945 13.5379C60.4827 12.7339 60.0531 12.3319 59.8058 12.3319C59.2721 12.3319 58.7318 12.668 58.1851 13.3402C57.6514 13.9992 57.3845 14.9482 57.3845 16.1872V23.8384C57.3845 25.1828 57.5733 26.0263 57.9508 26.369C58.3413 26.6985 59.1094 26.916 60.2549 27.0214V27.9902H49.5935V27.0214Z" fill="white"/>
<path d="M67.1868 27.0214C68.0069 26.9555 68.5927 26.771 68.9442 26.4678C69.3087 26.1647 69.4909 25.532 69.4909 24.5699V11.4027H67.1868V9.62337H69.4909V8.12082C69.4909 6.23603 69.7838 4.68734 70.3696 3.47475C71.4761 1.20773 73.5199 0.0742188 76.5009 0.0742188C78.089 0.0742188 79.4299 0.443268 80.5233 1.18137C81.6298 1.90629 82.1831 2.86845 82.1831 4.06786C82.1831 4.81914 81.9488 5.42544 81.4801 5.88675C81.0245 6.34806 80.4127 6.57872 79.6446 6.57872C79.0068 6.57872 78.46 6.36783 78.0044 5.94606C77.5488 5.52429 77.321 5.01685 77.321 4.42373C77.321 3.9756 77.4642 3.5077 77.7506 3.02002C78.05 2.51917 78.1997 2.21602 78.1997 2.11058C78.1997 1.78107 78.0825 1.57019 77.8482 1.47792C77.6139 1.38566 77.3601 1.33953 77.0867 1.33953C76.4358 1.33953 75.9346 1.53065 75.5832 1.91288C75.2317 2.29511 75.0559 3.11888 75.0559 4.38419V9.62337H78.5316V11.4027H75.0559V23.8384C75.0559 25.2355 75.2512 26.0922 75.6417 26.4085C76.0453 26.7249 76.9305 26.9292 78.2973 27.0214V27.9902H67.1868V27.0214Z" fill="white"/>
<path d="M88.1386 9.34659V23.0871C88.1386 23.9043 88.2363 24.504 88.4315 24.8862C88.77 25.5584 89.4404 25.8945 90.4428 25.8945C91.0806 25.8945 91.7055 25.6902 92.3173 25.2816C92.6688 25.0576 93.1114 24.6819 93.6451 24.1547V12.668C93.6451 11.8245 93.4759 11.238 93.1374 10.9085C92.812 10.5658 92.1481 10.3747 91.1457 10.3351V9.34659H99.1125V23.9175C99.1125 24.761 99.2687 25.3475 99.5811 25.677C99.8936 25.9934 100.505 26.1911 101.417 26.2701V27.1994C98.9433 27.4366 97.3812 27.6145 96.7303 27.7332C96.0924 27.8386 95.064 28.1154 93.6451 28.5635V25.8945C92.6948 26.7249 91.9072 27.3114 91.2824 27.6541C90.1889 28.2604 89.0499 28.5635 87.8653 28.5635C86.5765 28.5635 85.3724 28.1483 84.2529 27.318C83.1464 26.4876 82.5931 25.0114 82.5931 22.8894V12.668C82.5931 11.8113 82.4565 11.2511 82.1831 10.9875C81.9097 10.7239 81.3825 10.5065 80.6014 10.3351V9.34659H88.1386Z" fill="white"/>
<path d="M103.233 21.8613H104.346C104.736 23.7988 105.465 25.1696 106.533 25.9736C107.6 26.7644 108.693 27.1598 109.813 27.1598C110.841 27.1598 111.596 26.9292 112.078 26.4678C112.56 25.9934 112.801 25.3739 112.801 24.6094C112.801 23.8845 112.54 23.265 112.019 22.751C111.733 22.4742 111.271 22.1776 110.633 21.8613L107.665 20.3983C106.103 19.6207 104.983 18.7771 104.307 17.8677C103.617 16.9582 103.272 15.884 103.272 14.6451C103.272 13.0766 103.812 11.7256 104.892 10.5921C105.973 9.44544 107.483 8.8721 109.422 8.8721C110.269 8.8721 111.167 9.01708 112.117 9.30705C113.067 9.58383 113.66 9.72223 113.894 9.72223C114.219 9.72223 114.447 9.65633 114.577 9.52452C114.721 9.37954 114.838 9.18183 114.929 8.93141H115.808V14.7835H114.792C114.415 13.4127 113.796 12.3122 112.937 11.4818C112.078 10.6514 111.076 10.2363 109.93 10.2363C109.045 10.2363 108.381 10.4867 107.938 10.9875C107.509 11.4884 107.294 12.0288 107.294 12.6087C107.294 13.0832 107.489 13.5577 107.88 14.0322C108.257 14.5199 108.973 15.0207 110.028 15.5348L112.215 16.6024C113.569 17.2614 114.558 17.9006 115.183 18.5201C116.224 19.5745 116.745 20.8728 116.745 22.4149C116.745 23.9175 116.205 25.3212 115.124 26.626C114.057 27.9177 112.449 28.5635 110.301 28.5635C109.767 28.5635 109.227 28.5042 108.68 28.3856C108.147 28.2801 107.483 28.089 106.689 27.8122L106.005 27.575C105.758 27.4827 105.602 27.43 105.537 27.4168C105.485 27.4037 105.413 27.3971 105.322 27.3971C105.101 27.3971 104.905 27.4893 104.736 27.6739C104.58 27.8452 104.398 28.1418 104.189 28.5635H103.233V21.8613Z" fill="white"/>
</svg>
