<svg width="159" height="41" viewBox="0 0 159 41" fill="none" xmlns="http://www.w3.org/2000/svg">
<path fill-rule="evenodd" clip-rule="evenodd" d="M0.0300293 18.4461V25.8113L20.7346 8.48629V1.12109L0.0300293 18.4461Z" fill="white"/>
<path fill-rule="evenodd" clip-rule="evenodd" d="M0.0300293 32.8877V40.2527L20.7346 22.9277V15.5625L0.0300293 32.8877Z" fill="white"/>
<path fill-rule="evenodd" clip-rule="evenodd" d="M9.23303 18.4461V25.8113L29.9376 8.48629V1.12109L9.23303 18.4461Z" fill="#F4F4F5"/>
<path fill-rule="evenodd" clip-rule="evenodd" d="M9.23303 32.8877V40.2527L29.9376 22.9277V15.5625L9.23303 32.8877Z" fill="#F4F4F5"/>
<path d="M54.0475 26.2384C55.2831 26.2384 56.5412 26.1189 57.8218 25.8801C59.1023 25.6413 60.4222 25.283 61.7814 24.8053V16.6506L62.3206 16.1729L64.3256 16.0023V14.2793H54.2497V16.0023L56.8108 16.1729L57.35 16.6506V23.7817C56.9231 23.8158 56.5468 23.8414 56.2211 23.8585C55.8953 23.8755 55.6426 23.8841 55.4628 23.8841C52.7782 23.8841 50.6804 23.0055 49.1696 21.2483C47.6587 19.4911 46.9033 17.0544 46.9033 13.9381C46.9033 10.9014 47.6419 8.51581 49.119 6.78137C50.5962 5.04693 52.6265 4.17971 55.2101 4.17971C55.7268 4.17971 56.2211 4.22521 56.6929 4.31619C57.1646 4.40718 57.6252 4.54935 58.0745 4.7427L58.5968 5.37392L59.254 9.07595H61.7814V3.13905C60.5008 2.75236 59.2512 2.46233 58.0324 2.26899C56.8136 2.07564 55.6313 1.97897 54.4856 1.97897C50.6888 1.97897 47.6419 3.06797 45.3448 5.24597C43.0476 7.42397 41.899 10.3213 41.899 13.9381C41.899 17.5889 43.0223 20.5517 45.2689 22.8264C47.5155 25.101 50.4417 26.2384 54.0475 26.2384ZM73.8074 26.0848C76.5033 26.0848 78.6656 25.2887 80.2944 23.6964C81.9232 22.1041 82.7376 20.0001 82.7376 17.3842C82.7376 14.6205 81.9569 12.4283 80.3955 10.8075C78.8341 9.18684 76.728 8.37649 74.077 8.37649C71.3811 8.37649 69.2187 9.19253 67.5899 10.8246C65.9612 12.4567 65.1468 14.6205 65.1468 17.316C65.1468 19.9432 65.9415 22.0615 67.531 23.6708C69.1204 25.2802 71.2126 26.0848 73.8074 26.0848ZM73.9085 24.2423C72.6616 24.2423 71.6872 23.6225 70.9851 22.3828C70.2831 21.1431 69.932 19.4087 69.932 17.1795C69.932 14.9844 70.2859 13.2784 70.9935 12.0615C71.7012 10.8445 72.6841 10.236 73.9422 10.236C75.2115 10.236 76.2028 10.8559 76.9161 12.0956C77.6294 13.3353 77.986 15.064 77.986 17.2818C77.986 19.511 77.6322 21.2284 76.9245 22.434C76.2169 23.6396 75.2115 24.2423 73.9085 24.2423ZM90.1974 25.8119C91.5566 25.8119 92.7164 25.7465 93.6768 25.6157C94.6372 25.4849 95.432 25.283 96.061 25.01C97.8358 24.2025 99.1866 23.0624 100.113 21.5895C101.04 20.1166 101.503 18.368 101.503 16.3435C101.503 14.012 100.869 12.107 99.5994 10.6284C98.3301 9.14988 96.7013 8.41061 94.7131 8.41061C93.9604 8.41061 93.1741 8.53856 92.3541 8.79446C91.5341 9.05036 90.6523 9.44558 89.7088 9.98013V0H88.0575L82.9353 1.63777V3.00257H85.429V25.7436L89.2538 25.8119H90.1974ZM90.804 23.9523C90.5119 23.9523 90.2873 23.9495 90.13 23.9438C89.9727 23.9381 89.8323 23.9296 89.7088 23.9182V11.4132C90.1581 11.3222 90.5597 11.254 90.9135 11.2085C91.2673 11.163 91.5903 11.1402 91.8823 11.1402C93.4887 11.1402 94.7243 11.6662 95.5892 12.7183C96.4542 13.7703 96.8866 15.2801 96.8866 17.2477C96.8866 19.5451 96.3952 21.2369 95.4123 22.3231C94.4294 23.4092 92.8933 23.9523 90.804 23.9523ZM111.339 26.0848C114.035 26.0848 116.197 25.2887 117.826 23.6964C119.455 22.1041 120.269 20.0001 120.269 17.3842C120.269 14.6205 119.488 12.4283 117.927 10.8075C116.366 9.18684 114.26 8.37649 111.609 8.37649C108.913 8.37649 106.75 9.19253 105.122 10.8246C103.493 12.4567 102.678 14.6205 102.678 17.316C102.678 19.9432 103.473 22.0615 105.063 23.6708C106.652 25.2802 108.744 26.0848 111.339 26.0848ZM111.44 24.2423C110.193 24.2423 109.219 23.6225 108.517 22.3828C107.815 21.1431 107.464 19.4087 107.464 17.1795C107.464 14.9844 107.817 13.2784 108.525 12.0615C109.233 10.8445 110.216 10.236 111.474 10.236C112.743 10.236 113.734 10.8559 114.448 12.0956C115.161 13.3353 115.518 15.064 115.518 17.2818C115.518 19.511 115.164 21.2284 114.456 22.434C113.748 23.6396 112.743 24.2423 111.44 24.2423ZM129.751 25.8119V24.2423L128.234 24.1059L127.763 23.577V12.0444C128.437 11.8511 129.046 11.7032 129.591 11.6008C130.136 11.4985 130.616 11.4473 131.031 11.4473C132.11 11.4473 132.896 11.7515 133.39 12.36C133.885 12.9685 134.132 13.921 134.132 15.2176V23.577L133.66 24.1059L132.177 24.2423V25.8119H140.619V24.2423L138.799 24.1059L138.344 23.577V14.211C138.344 12.2548 137.957 10.799 137.181 9.84365C136.406 8.88829 135.233 8.41061 133.66 8.41061C132.952 8.41061 132.121 8.58121 131.166 8.92241C130.211 9.26361 129.077 9.80385 127.763 10.5431V8.47885H126.095L121.124 10.1166V11.5155H123.483V23.577L122.994 24.1059L121.225 24.2423V25.8119H129.751ZM145.787 26.1189C146.663 26.1189 147.579 25.937 148.534 25.573C149.488 25.2091 150.55 24.6233 151.718 23.8158L152.173 25.8119H158.323V24.2765L156.486 24.1059L156.032 23.6111V14.5693C156.032 12.2832 155.549 10.6796 154.582 9.75835C153.616 8.83711 151.948 8.37649 149.578 8.37649C147.466 8.37649 145.686 8.78024 144.237 9.58775C142.788 10.3953 142.063 11.3449 142.063 12.4368C142.063 12.8803 142.19 13.2045 142.442 13.4092C142.695 13.6139 143.097 13.7163 143.647 13.7163H146.832V10.4408C147.146 10.3725 147.438 10.3213 147.708 10.2872C147.977 10.2531 148.236 10.236 148.483 10.236C149.618 10.236 150.449 10.5261 150.977 11.1061C151.505 11.6861 151.769 12.6074 151.769 13.8698V14.9105C147.242 15.9455 144.36 16.9065 143.125 17.7936C141.889 18.6808 141.271 19.9432 141.271 21.581C141.271 22.9117 141.693 24.0007 142.535 24.848C143.378 25.6953 144.462 26.1189 145.787 26.1189ZM148.382 23.4405C147.596 23.4405 146.972 23.2045 146.512 22.7325C146.051 22.2605 145.821 21.6208 145.821 20.8133C145.821 19.7783 146.236 18.9594 147.068 18.3566C147.899 17.7538 149.449 17.1965 151.718 16.6847V22.3828C151.044 22.7354 150.429 22.9998 149.873 23.1761C149.317 23.3524 148.82 23.4405 148.382 23.4405Z" fill="white"/>
<path d="M45.975 38.3901V37.9888L45.3192 37.941L45.1635 37.8025V35.6004L47.1733 32.3426L47.763 32.2184V31.8267H45.791V32.2184L46.3807 32.3235L46.4703 32.462L44.8474 35.075L43.366 32.3856L43.4651 32.2757L44.0171 32.2184V31.8267H41.7714V32.2184L42.3611 32.314L44.286 35.7294V37.8025L44.1303 37.941L43.4745 37.9888V38.3901H45.975ZM48.9129 38.4761C49.5671 38.4761 50.1057 38.2476 50.5288 37.7906C50.9518 37.3336 51.1633 36.7468 51.1633 36.0303C51.1633 35.3138 50.9526 34.727 50.5311 34.2701C50.1097 33.8131 49.5703 33.5846 48.9129 33.5846C48.2524 33.5846 47.7138 33.8123 47.2971 34.2677C46.8803 34.7231 46.6719 35.3106 46.6719 36.0303C46.6719 36.75 46.8819 37.3376 47.3018 37.793C47.7217 38.2484 48.2587 38.4761 48.9129 38.4761ZM48.9129 38.0557C48.5135 38.0557 48.1911 37.8718 47.9458 37.504C47.7004 37.1362 47.5778 36.6449 47.5778 36.0303C47.5778 35.4157 47.6996 34.9245 47.9434 34.5567C48.1872 34.1889 48.5103 34.005 48.9129 34.005C49.3155 34.005 49.6403 34.1897 49.8872 34.5591C50.1341 34.9285 50.2575 35.4189 50.2575 36.0303C50.2575 36.6481 50.1348 37.1401 49.8895 37.5064C49.6442 37.8726 49.3187 38.0557 48.9129 38.0557ZM53.4314 38.4856C53.661 38.4856 53.9039 38.4331 54.1603 38.328C54.4166 38.2229 54.6957 38.0605 54.9977 37.8407V38.3901H56.4272V38.0366L55.9743 37.9888L55.7997 37.8312V33.5846H55.4317L54.3089 33.9476V34.2533H54.9977V37.5685C54.7964 37.6672 54.6037 37.7404 54.4197 37.7882C54.2357 37.836 54.0541 37.8598 53.8748 37.8598C53.554 37.8598 53.3181 37.7762 53.1672 37.6091C53.0162 37.4419 52.9407 37.1799 52.9407 36.8233V33.5846H52.5727L51.4499 33.9476V34.2533H52.1387V36.9905C52.1387 37.4745 52.2495 37.8447 52.4713 38.1011C52.693 38.3574 53.013 38.4856 53.4314 38.4856ZM58.9924 38.3901V38.0366L58.3178 37.9888L58.1527 37.8312V35.0367C58.3571 34.7915 58.545 34.6108 58.7164 34.4946C58.8879 34.3783 59.0506 34.3202 59.2047 34.3202C59.3054 34.3202 59.3974 34.3401 59.4807 34.3799C59.5641 34.4197 59.6372 34.4779 59.7001 34.5543H60.0068V33.7136C59.9061 33.669 59.8086 33.6363 59.7143 33.6156C59.6199 33.5949 59.524 33.5846 59.4265 33.5846C59.3604 33.5846 59.3109 33.5862 59.2779 33.5894C59.2448 33.5926 59.2142 33.5989 59.1859 33.6085C58.9971 33.7613 58.8171 33.9166 58.6457 34.0742C58.4743 34.2318 58.3099 34.3919 58.1527 34.5543V33.6371H57.7847L56.6618 33.9858V34.2916H57.3412V37.8312L57.1761 37.9888L56.6618 38.0366V38.3901H58.9924ZM66.2507 38.3901V37.9888L65.5996 37.941L65.4392 37.8025V32.2757H66.9159L67.0527 32.4238L67.1848 33.3314H67.7179V31.8267H62.2594V33.3314H62.7878L62.9246 32.4238L63.0614 32.2757H64.5381V37.8025L64.373 37.941L63.7266 37.9888V38.3901H66.2507ZM69.467 38.3901V38.0366L68.7923 37.9888L68.6272 37.8312V35.0367C68.8317 34.7915 69.0196 34.6108 69.191 34.4946C69.3624 34.3783 69.5252 34.3202 69.6793 34.3202C69.7799 34.3202 69.8719 34.3401 69.9553 34.3799C70.0386 34.4197 70.1118 34.4779 70.1747 34.5543H70.4813V33.7136C70.3807 33.669 70.2832 33.6363 70.1888 33.6156C70.0945 33.5949 69.9985 33.5846 69.901 33.5846C69.835 33.5846 69.7854 33.5862 69.7524 33.5894C69.7194 33.5926 69.6887 33.5989 69.6604 33.6085C69.4717 33.7613 69.2916 33.9166 69.1202 34.0742C68.9488 34.2318 68.7845 34.3919 68.6272 34.5543V33.6371H68.2592L67.1364 33.9858V34.2916H67.8157V37.8312L67.6506 37.9888L67.1364 38.0366V38.3901H69.467ZM72.4474 38.4856C72.677 38.4856 72.92 38.4331 73.1763 38.328C73.4326 38.2229 73.7118 38.0605 74.0137 37.8407V38.3901H75.4432V38.0366L74.9903 37.9888L74.8158 37.8312V33.5846H74.4478L73.3249 33.9476V34.2533H74.0137V37.5685C73.8124 37.6672 73.6198 37.7404 73.4358 37.7882C73.2518 37.836 73.0702 37.8598 72.8909 37.8598C72.5701 37.8598 72.3342 37.7762 72.1832 37.6091C72.0322 37.4419 71.9568 37.1799 71.9568 36.8233V33.5846H71.5888L70.4659 33.9476V34.2533H71.1547V36.9905C71.1547 37.4745 71.2656 37.8447 71.4873 38.1011C71.7091 38.3574 72.0291 38.4856 72.4474 38.4856ZM77.0508 38.4761C77.6169 38.4761 78.0596 38.3463 78.3788 38.0867C78.6981 37.8272 78.8577 37.4681 78.8577 37.0096C78.8577 36.8344 78.8262 36.6744 78.7633 36.5295C78.7004 36.3846 78.6092 36.2644 78.4897 36.1688C78.3261 36.0319 78.062 35.8791 77.6971 35.7103C77.5933 35.6625 77.5163 35.6259 77.4659 35.6004C77.1451 35.4444 76.9281 35.3027 76.8149 35.1753C76.7016 35.0479 76.645 34.8934 76.645 34.7119C76.645 34.489 76.7158 34.3154 76.8573 34.1912C76.9989 34.067 77.1954 34.005 77.4471 34.005C77.5634 34.005 77.6798 34.0225 77.7962 34.0575C77.9126 34.0925 78.0352 34.1451 78.1642 34.2151L78.2397 34.9078H78.7162V33.7995C78.5526 33.7295 78.3773 33.6761 78.1901 33.6395C78.003 33.6029 77.8009 33.5846 77.5839 33.5846C77.0397 33.5846 76.6183 33.704 76.3195 33.9429C76.0207 34.1817 75.8713 34.5193 75.8713 34.9555C75.8713 35.2421 75.9586 35.4826 76.1331 35.6768C76.3077 35.8711 76.6372 36.0781 77.1215 36.2978C77.5493 36.4953 77.8198 36.6585 77.933 36.7874C78.0462 36.9164 78.1028 37.0796 78.1028 37.2771C78.1028 37.5127 78.0203 37.703 77.8552 37.8479C77.69 37.9928 77.4706 38.0652 77.197 38.0652C77.0586 38.0652 76.921 38.0461 76.7842 38.0079C76.6474 37.9697 76.5114 37.9108 76.3761 37.8312L76.2582 37H75.7958V38.2706C75.9751 38.3407 76.1709 38.3925 76.3832 38.4259C76.5955 38.4593 76.818 38.4761 77.0508 38.4761ZM80.786 38.4187C80.9842 38.4187 81.1902 38.4004 81.4041 38.3638C81.6179 38.3272 81.835 38.2738 82.0551 38.2038V37.8407C81.9356 37.8694 81.82 37.8901 81.7084 37.9028C81.5967 37.9156 81.489 37.9219 81.3852 37.9219C81.0833 37.9219 80.8741 37.8495 80.7577 37.7046C80.6414 37.5597 80.5832 37.2755 80.5832 36.8519V34.2725H82.0551V33.8139H80.5832V32.7725H80.2246L79.8094 33.6849L79.1725 33.9667V34.2725H79.7811V37.4299C79.7811 37.8057 79.8558 38.0644 80.0052 38.2062C80.1546 38.3479 80.4149 38.4187 80.786 38.4187ZM84.3467 38.4761C84.6581 38.4761 84.9679 38.4267 85.2762 38.328C85.5844 38.2292 85.8816 38.0844 86.1678 37.8933V37.3535C85.8785 37.5478 85.6103 37.6911 85.3634 37.7834C85.1165 37.8758 84.8783 37.9219 84.6487 37.9219C84.1517 37.9219 83.757 37.7428 83.4645 37.3845C83.172 37.0263 83.0258 36.5398 83.0258 35.9252V35.8154H86.1537C86.16 35.7771 86.1639 35.7373 86.1655 35.6959C86.167 35.6545 86.1678 35.594 86.1678 35.5144C86.1678 34.9189 86.0114 34.4484 85.6984 34.1029C85.3855 33.7574 84.9616 33.5846 84.427 33.5846C83.7727 33.5846 83.2373 33.8163 82.8205 34.2796C82.4038 34.743 82.1954 35.3409 82.1954 36.0733C82.1954 36.7867 82.3943 37.3654 82.7922 37.8097C83.1901 38.2539 83.7083 38.4761 84.3467 38.4761ZM85.3045 35.4046H83.0729C83.1012 35.0065 83.2326 34.6777 83.4669 34.4181C83.7012 34.1586 83.9788 34.0288 84.2996 34.0288C84.6267 34.0288 84.8759 34.1339 85.0473 34.3441C85.2188 34.5543 85.3045 34.8568 85.3045 35.2517V35.4046ZM88.4736 38.4761C88.7347 38.4761 88.9847 38.4283 89.2237 38.3327C89.4628 38.2372 89.7081 38.0875 89.9597 37.8837V38.3901H91.3892V38.0366L90.9269 37.9888L90.7618 37.8312V31.1914H90.3985L89.219 31.5401V31.8458H89.9597V33.6849C89.8056 33.6499 89.6562 33.6228 89.5115 33.6037C89.3668 33.5846 89.23 33.575 89.1011 33.575C88.3619 33.575 87.762 33.8163 87.3012 34.2987C86.8404 34.7812 86.6101 35.4109 86.6101 36.188C86.6101 36.8567 86.7854 37.4052 87.1361 37.8336C87.4868 38.2619 87.9326 38.4761 88.4736 38.4761ZM88.9076 37.8598C88.4673 37.8598 88.1158 37.6942 87.8532 37.3631C87.5906 37.0319 87.4593 36.5844 87.4593 36.0208C87.4593 35.4157 87.611 34.9285 87.9145 34.5591C88.2181 34.1897 88.6167 34.005 89.1105 34.005C89.2206 34.005 89.3456 34.0185 89.4856 34.0456C89.6255 34.0726 89.7836 34.1116 89.9597 34.1626V37.5207C89.7773 37.6353 89.5988 37.7205 89.4242 37.7762C89.2497 37.832 89.0775 37.8598 88.9076 37.8598ZM97.4916 38.5095C97.8124 38.5095 98.1379 38.48 98.4682 38.4211C98.7984 38.3622 99.1224 38.277 99.4401 38.1656V36.6179H98.9211L98.6852 37.707L98.5342 37.8598C98.3927 37.9044 98.252 37.9371 98.112 37.9578C97.972 37.9785 97.8329 37.9888 97.6945 37.9888C96.905 37.9888 96.287 37.7269 95.8404 37.203C95.3937 36.6792 95.1704 35.9571 95.1704 35.0367C95.1704 34.1705 95.3843 33.4859 95.812 32.9827C96.2398 32.4796 96.8185 32.228 97.5482 32.228C97.7306 32.228 97.9099 32.2487 98.086 32.2901C98.2622 32.3315 98.443 32.3952 98.6286 32.4811L98.756 32.6579L98.9022 33.5464H99.4401V32.0417C99.0941 31.9302 98.7615 31.8466 98.4422 31.7909C98.123 31.7352 97.8187 31.7073 97.5293 31.7073C96.5229 31.7073 95.7122 32.0186 95.0973 32.6412C94.4824 33.2637 94.175 34.0846 94.175 35.1036C94.175 35.7405 94.3236 36.3273 94.6208 36.8639C94.918 37.4005 95.3261 37.8184 95.8451 38.1178C96.0715 38.2452 96.3231 38.3423 96.5999 38.4092C96.8767 38.4761 97.1739 38.5095 97.4916 38.5095ZM101.774 38.4856C102.004 38.4856 102.247 38.4331 102.503 38.328C102.759 38.2229 103.039 38.0605 103.34 37.8407V38.3901H104.77V38.0366L104.317 37.9888L104.142 37.8312V33.5846H103.775L102.652 33.9476V34.2533H103.34V37.5685C103.139 37.6672 102.947 37.7404 102.763 37.7882C102.579 37.836 102.397 37.8598 102.218 37.8598C101.897 37.8598 101.661 37.7762 101.51 37.6091C101.359 37.4419 101.283 37.1799 101.283 36.8233V33.5846H100.915L99.7926 33.9476V34.2533H100.481V36.9905C100.481 37.4745 100.592 37.8447 100.814 38.1011C101.036 38.3574 101.356 38.4856 101.774 38.4856ZM107.335 38.3901V38.0366L106.661 37.9888L106.495 37.8312V35.0367C106.7 34.7915 106.888 34.6108 107.059 34.4946C107.231 34.3783 107.393 34.3202 107.548 34.3202C107.648 34.3202 107.74 34.3401 107.824 34.3799C107.907 34.4197 107.98 34.4779 108.043 34.5543H108.35V33.7136C108.249 33.669 108.151 33.6363 108.057 33.6156C107.963 33.5949 107.867 33.5846 107.769 33.5846C107.703 33.5846 107.654 33.5862 107.621 33.5894C107.588 33.5926 107.557 33.5989 107.529 33.6085C107.34 33.7613 107.16 33.9166 106.988 34.0742C106.817 34.2318 106.653 34.3919 106.495 34.5543V33.6371H106.127L105.005 33.9858V34.2916H105.684V37.8312L105.519 37.9888L105.005 38.0366V38.3901H107.335ZM110.703 38.3901V38.0366L110.028 37.9888L109.863 37.8312V35.0367C110.067 34.7915 110.255 34.6108 110.427 34.4946C110.598 34.3783 110.761 34.3202 110.915 34.3202C111.015 34.3202 111.107 34.3401 111.191 34.3799C111.274 34.4197 111.347 34.4779 111.41 34.5543H111.717V33.7136C111.616 33.669 111.519 33.6363 111.424 33.6156C111.33 33.5949 111.234 33.5846 111.137 33.5846C111.07 33.5846 111.021 33.5862 110.988 33.5894C110.955 33.5926 110.924 33.5989 110.896 33.6085C110.707 33.7613 110.527 33.9166 110.356 34.0742C110.184 34.2318 110.02 34.3919 109.863 34.5543V33.6371H109.495L108.372 33.9858V34.2916H109.051V37.8312L108.886 37.9888L108.372 38.0366V38.3901H110.703ZM112.938 32.591C113.095 32.591 113.228 32.5369 113.336 32.4286C113.445 32.3203 113.499 32.1882 113.499 32.0321C113.499 31.8761 113.445 31.7423 113.336 31.6309C113.228 31.5194 113.095 31.4637 112.938 31.4637C112.783 31.4637 112.652 31.5186 112.544 31.6285C112.435 31.7384 112.381 31.8729 112.381 32.0321C112.381 32.1882 112.435 32.3203 112.544 32.4286C112.652 32.5369 112.783 32.591 112.938 32.591ZM113.961 38.3901V38.0366L113.442 37.9888L113.277 37.8312V33.6371H112.9L111.791 33.9858V34.2916H112.466V37.8312L112.301 37.9888L111.791 38.0366V38.3901H113.961ZM116.343 38.4761C116.654 38.4761 116.964 38.4267 117.272 38.328C117.58 38.2292 117.877 38.0844 118.164 37.8933V37.3535C117.874 37.5478 117.606 37.6911 117.359 37.7834C117.112 37.8758 116.874 37.9219 116.644 37.9219C116.148 37.9219 115.753 37.7428 115.46 37.3845C115.168 37.0263 115.022 36.5398 115.022 35.9252V35.8154H118.149C118.156 35.7771 118.16 35.7373 118.161 35.6959C118.163 35.6545 118.164 35.594 118.164 35.5144C118.164 34.9189 118.007 34.4484 117.694 34.1029C117.381 33.7574 116.957 33.5846 116.423 33.5846C115.769 33.5846 115.233 33.8163 114.816 34.2796C114.4 34.743 114.191 35.3409 114.191 36.0733C114.191 36.7867 114.39 37.3654 114.788 37.8097C115.186 38.2539 115.704 38.4761 116.343 38.4761ZM117.3 35.4046H115.069C115.097 35.0065 115.228 34.6777 115.463 34.4181C115.697 34.1586 115.975 34.0288 116.295 34.0288C116.622 34.0288 116.872 34.1339 117.043 34.3441C117.215 34.5543 117.3 34.8568 117.3 35.2517V35.4046ZM120.875 38.3901V38.0366L120.2 37.9888L120.035 37.8312V35.0367C120.24 34.7915 120.428 34.6108 120.599 34.4946C120.771 34.3783 120.933 34.3202 121.087 34.3202C121.188 34.3202 121.28 34.3401 121.363 34.3799C121.447 34.4197 121.52 34.4779 121.583 34.5543H121.889V33.7136C121.789 33.669 121.691 33.6363 121.597 33.6156C121.503 33.5949 121.407 33.5846 121.309 33.5846C121.243 33.5846 121.194 33.5862 121.161 33.5894C121.128 33.5926 121.097 33.5989 121.069 33.6085C120.88 33.7613 120.7 33.9166 120.528 34.0742C120.357 34.2318 120.193 34.3919 120.035 34.5543V33.6371H119.667L118.545 33.9858V34.2916H119.224V37.8312L119.059 37.9888L118.545 38.0366V38.3901H120.875Z" fill="#FAFAFA"/>
</svg>
