<svg width="146" height="37" viewBox="0 0 146 37" fill="none" xmlns="http://www.w3.org/2000/svg">
<path d="M47.8381 22.4904V10.3166C47.8381 9.60387 47.7818 8.1451 47.6692 5.94032L49.1756 11.286L52.7517 22.4904H55.7083L59.2844 11.286C59.3376 11.1181 59.3956 10.9287 59.4584 10.7177L59.5362 10.4543C59.8429 9.4049 60.2518 7.90023 60.7627 5.94032C60.6782 8.03106 60.6337 9.21423 60.629 9.48983C60.6243 9.76543 60.6219 10.041 60.6219 10.3166V22.4904H64.3106V2.40507H58.7776L55.1311 14.194L54.2441 17.4156L53.5683 14.7214L53.2586 13.6381L49.7106 2.40507H44.1494V22.4904H47.8381ZM71.7476 22.7755C73.9815 22.7755 75.6522 21.7634 76.7597 19.7392H76.8442C76.9381 20.6991 77.222 21.4261 77.696 21.9202C78.17 22.4144 78.9045 22.6615 79.8994 22.6615C80.181 22.6615 80.4273 22.652 80.6385 22.633C80.8497 22.614 81.0492 22.5902 81.2369 22.5617C81.4246 22.5332 81.6123 22.4952 81.8001 22.4477C81.9878 22.4002 82.199 22.3479 82.4336 22.2909V20.1241C82.152 20.1811 81.8611 20.2096 81.5607 20.2096C81.1102 20.2096 80.7887 20.0457 80.5963 19.7178C80.4039 19.39 80.3077 18.7936 80.3077 17.9288V12.3123C80.3077 10.5447 79.7867 9.18097 78.7449 8.22113C77.703 7.26129 76.22 6.78137 74.2959 6.78137C72.3905 6.78137 70.8864 7.16863 69.7836 7.94316C68.6807 8.71768 68.0026 9.85571 67.7491 11.3572L71.8743 11.5568C71.9588 10.7775 72.1723 10.2192 72.5149 9.88184C72.8575 9.54447 73.3948 9.37579 74.127 9.37579C74.9154 9.37579 75.4832 9.6205 75.8305 10.1099C76.1778 10.5993 76.3515 11.3477 76.3515 12.3551V13.1391L73.071 13.1961C71.1187 13.2152 69.6287 13.6428 68.6009 14.4791C67.5732 15.3154 67.0593 16.5318 67.0593 18.1284C67.0593 19.6014 67.4723 20.7442 68.2982 21.5567C69.1242 22.3693 70.274 22.7755 71.7476 22.7755ZM73.0147 19.9816C72.4609 19.9816 72.0174 19.8034 71.6842 19.447C71.351 19.0906 71.1844 18.5465 71.1844 17.8148C71.1844 17.2446 71.2853 16.7884 71.4871 16.4463C71.6889 16.1042 71.9822 15.85 72.3671 15.6837C72.7519 15.5173 73.4042 15.4152 74.3241 15.3772L76.3515 15.3487V16.1327C76.3515 16.8074 76.206 17.4465 75.915 18.05C75.624 18.6535 75.2228 19.1262 74.7112 19.4684C74.1997 19.8105 73.6342 19.9816 73.0147 19.9816ZM88.1952 22.4904V14.921C88.1952 13.3339 88.4697 12.1365 89.0188 11.3287C89.5679 10.5209 90.3352 10.1171 91.3207 10.1171C91.8088 10.1171 92.3719 10.1883 93.0102 10.3309V6.98094C92.7005 6.83839 92.2922 6.76711 91.7853 6.76711C91.1658 6.76711 90.6496 6.87403 90.2366 7.08785C89.8236 7.30168 89.467 7.62954 89.1666 8.07145C88.8663 8.51336 88.5237 9.276 88.1388 10.3594H88.0825C88.0825 10.0743 88.0591 9.49696 88.0121 8.6274C87.9652 7.75784 87.9277 7.23753 87.8995 7.06647H84.1263C84.1545 7.50362 84.1803 8.00493 84.2037 8.57038C84.2272 9.13583 84.2389 9.84145 84.2389 10.6873V22.4904H88.1952ZM99.3349 22.747C100.583 22.747 101.695 22.5855 102.672 22.2624V19.782C102.099 19.915 101.658 19.9816 101.348 19.9816C100.757 19.9816 100.32 19.8034 100.039 19.447C99.7573 19.0906 99.6165 18.537 99.6165 17.7863V9.77493H102.503V7.06647H99.6165V3.44569H97.1386L95.8996 7.06647H93.7737V9.77493H95.7025V18.8697C95.7025 20.1716 96.0169 21.1433 96.6458 21.7848C97.2747 22.4263 98.171 22.747 99.3349 22.747ZM108.968 4.28673V1.33594H105.012V4.28673H108.968ZM108.968 22.4904V7.06647H105.012V22.4904H108.968ZM116.954 22.4904V14.2225C116.954 12.9205 117.248 11.8538 117.834 11.0222C118.421 10.1907 119.193 9.77493 120.15 9.77493C121.962 9.77493 122.867 11.1292 122.867 13.8376V22.4904H126.81V12.6972C126.81 10.7585 126.378 9.28551 125.514 8.27815C124.651 7.27079 123.412 6.76711 121.797 6.76711C120.681 6.76711 119.718 7.03321 118.911 7.5654C118.104 8.09759 117.433 8.95289 116.898 10.1313H116.842C116.842 9.8367 116.818 9.29739 116.771 8.51336C116.724 7.72933 116.687 7.24703 116.659 7.06647H112.885C112.914 7.48462 112.939 7.95741 112.963 8.48485C112.986 9.01229 112.998 9.6894 112.998 10.5162V22.4904H116.954ZM137.316 22.7755C139.737 22.7755 141.633 22.0652 143.004 20.6444C144.374 19.2237 145.059 17.2636 145.059 14.7642C145.059 12.1888 144.405 10.2145 143.095 8.84122C141.786 7.46799 139.888 6.78137 137.4 6.78137C134.969 6.78137 133.078 7.49175 131.726 8.9125C130.375 10.3333 129.699 12.2838 129.699 14.7642C129.699 17.2541 130.375 19.2118 131.726 20.6373C133.078 22.0628 134.941 22.7755 137.316 22.7755ZM137.274 20.0386C136.166 20.0386 135.319 19.5895 134.732 18.6915C134.146 17.7934 133.852 16.4843 133.852 14.7642C133.852 11.2765 135.054 9.53259 137.457 9.53259C138.583 9.53259 139.442 9.94599 140.033 10.7728C140.624 11.5996 140.92 12.93 140.92 14.7642C140.92 18.2804 139.705 20.0386 137.274 20.0386Z" fill="#FAFAFA"/>
<path opacity="0.595853" d="M83.3658 35.0723C83.6662 35.0723 83.9444 35.0237 84.2004 34.9265C84.4565 34.8293 84.6719 34.6997 84.8467 34.5376C85.0215 34.3756 85.1667 34.2111 85.2824 34.0441C85.3981 33.8771 85.4929 33.7038 85.5668 33.5243L84.6953 33.2477C84.5869 33.5219 84.4134 33.7537 84.1746 33.9431C83.9358 34.1326 83.6613 34.2273 83.3511 34.2273C82.8734 34.2273 82.4919 34.0254 82.2063 33.6216C81.9207 33.2177 81.7779 32.6694 81.7779 31.9764C81.7779 31.2934 81.9195 30.7487 82.2026 30.3424C82.4857 29.9361 82.8685 29.733 83.3511 29.733C83.8582 29.733 84.2694 30.0196 84.5845 30.5929L85.4191 30.3163C85.2467 29.9124 84.9845 29.5734 84.6325 29.2992C84.2804 29.025 83.8582 28.8879 83.3658 28.8879C82.6026 28.8879 81.9798 29.1659 81.4972 29.7218C81.0147 30.2776 80.7734 31.0292 80.7734 31.9764C80.7734 32.9386 81.0184 33.6951 81.5083 34.246C81.9982 34.7969 82.6174 35.0723 83.3658 35.0723ZM87.9671 35.0723C88.2626 35.0723 88.5272 35.0225 88.7611 34.9227C88.995 34.823 89.1833 34.6947 89.3261 34.5376C89.4689 34.3806 89.5871 34.1986 89.6806 33.9917C89.7742 33.7848 89.8394 33.5817 89.8764 33.3823C89.9133 33.1829 89.9318 32.9834 89.9318 32.784C89.9318 32.1409 89.7643 31.5975 89.4295 31.1538C89.0947 30.7101 88.6072 30.4883 87.9671 30.4883C87.3221 30.4883 86.8322 30.7101 86.4974 31.1538C86.1626 31.5975 85.9952 32.1409 85.9952 32.784C85.9952 32.9934 86.0136 33.1991 86.0505 33.401C86.0875 33.6029 86.1539 33.8073 86.25 34.0142C86.346 34.2211 86.4666 34.4005 86.6119 34.5526C86.7571 34.7046 86.9467 34.8293 87.1806 34.9265C87.4144 35.0237 87.6766 35.0723 87.9671 35.0723ZM87.9671 34.2647C87.6963 34.2647 87.46 34.1425 87.2581 33.8983C87.0562 33.654 86.9553 33.2826 86.9553 32.784C86.9553 32.2755 87.0575 31.9004 87.2618 31.6586C87.4661 31.4168 87.7013 31.2959 87.9671 31.2959C88.233 31.2959 88.4669 31.4168 88.6688 31.6586C88.8707 31.9004 88.9716 32.2755 88.9716 32.784C88.9716 33.2826 88.8707 33.654 88.6688 33.8983C88.4669 34.1425 88.233 34.2647 87.9671 34.2647ZM91.7117 34.9377V28.8281H90.7811V34.9377H91.7117ZM94.5331 35.0723C94.8285 35.0723 95.0932 35.0225 95.327 34.9227C95.5609 34.823 95.7493 34.6947 95.892 34.5376C96.0348 34.3806 96.153 34.1986 96.2466 33.9917C96.3401 33.7848 96.4054 33.5817 96.4423 33.3823C96.4792 33.1829 96.4977 32.9834 96.4977 32.784C96.4977 32.1409 96.3303 31.5975 95.9955 31.1538C95.6606 30.7101 95.1732 30.4883 94.5331 30.4883C93.8881 30.4883 93.3981 30.7101 93.0633 31.1538C92.7285 31.5975 92.5611 32.1409 92.5611 32.784C92.5611 32.9934 92.5795 33.1991 92.6165 33.401C92.6534 33.6029 92.7199 33.8073 92.8159 34.0142C92.9119 34.2211 93.0325 34.4005 93.1778 34.5526C93.323 34.7046 93.5126 34.8293 93.7465 34.9265C93.9804 35.0237 94.2426 35.0723 94.5331 35.0723ZM94.5331 34.2647C94.2623 34.2647 94.0259 34.1425 93.824 33.8983C93.6222 33.654 93.5212 33.2826 93.5212 32.784C93.5212 32.2755 93.6234 31.9004 93.8277 31.6586C94.0321 31.4168 94.2672 31.2959 94.5331 31.2959C94.799 31.2959 95.0328 31.4168 95.2347 31.6586C95.4366 31.9004 95.5375 32.2755 95.5375 32.784C95.5375 33.2826 95.4366 33.654 95.2347 33.8983C95.0328 34.1425 94.799 34.2647 94.5331 34.2647ZM98.2038 34.9377V32.7392C98.2038 32.3204 98.2887 31.9851 98.4586 31.7334C98.6285 31.4816 98.8734 31.3557 99.1935 31.3557C99.3757 31.3557 99.5603 31.3856 99.7474 31.4454V30.5855C99.6046 30.5207 99.42 30.4883 99.1935 30.4883C98.9522 30.4883 98.7442 30.5481 98.5694 30.6677C98.3946 30.7874 98.2604 30.927 98.1669 31.0865V30.6229H97.2658V34.9377H98.2038ZM101.764 35.0723C102.3 35.0723 102.715 34.9489 103.008 34.7021C103.301 34.4554 103.448 34.155 103.448 33.801C103.448 33.2277 103.009 32.799 102.133 32.5148C102.108 32.5048 102.069 32.4924 102.015 32.4774C101.808 32.4076 101.648 32.3503 101.535 32.3054C101.422 32.2606 101.312 32.1895 101.206 32.0923C101.1 31.9951 101.047 31.8842 101.047 31.7595C101.047 31.61 101.108 31.4891 101.228 31.3968C101.349 31.3046 101.522 31.2585 101.749 31.2585C102.163 31.2585 102.515 31.4604 102.805 31.8642L103.426 31.4828C103.273 31.1937 103.041 30.9556 102.731 30.7687C102.421 30.5817 102.091 30.4883 101.742 30.4883C101.274 30.4883 100.882 30.6029 100.567 30.8322C100.252 31.0616 100.095 31.3657 100.095 31.7446C100.095 31.939 100.129 32.1097 100.198 32.2568C100.267 32.4039 100.368 32.526 100.501 32.6232C100.634 32.7205 100.76 32.7977 100.881 32.8551C101.002 32.9124 101.151 32.971 101.328 33.0308C101.348 33.0358 101.38 33.0458 101.424 33.0607C101.67 33.1405 101.855 33.204 101.978 33.2514C102.101 33.2988 102.218 33.3698 102.329 33.4645C102.44 33.5592 102.495 33.6689 102.495 33.7936C102.495 33.9481 102.427 34.0715 102.292 34.1637C102.156 34.256 101.973 34.3021 101.742 34.3021C101.269 34.3021 100.885 34.0827 100.589 33.644L99.9173 34.0403C100.09 34.3594 100.337 34.6112 100.66 34.7956C100.982 34.9801 101.35 35.0723 101.764 35.0723ZM107.754 35.0723C108.049 35.0723 108.314 35.0225 108.548 34.9227C108.781 34.823 108.97 34.6947 109.113 34.5376C109.255 34.3806 109.373 34.1986 109.467 33.9917C109.561 33.7848 109.626 33.5817 109.663 33.3823C109.7 33.1829 109.718 32.9834 109.718 32.784C109.718 32.1409 109.551 31.5975 109.216 31.1538C108.881 30.7101 108.394 30.4883 107.754 30.4883C107.109 30.4883 106.619 30.7101 106.284 31.1538C105.949 31.5975 105.782 32.1409 105.782 32.784C105.782 32.9934 105.8 33.1991 105.837 33.401C105.874 33.6029 105.94 33.8073 106.036 34.0142C106.132 34.2211 106.253 34.4005 106.398 34.5526C106.544 34.7046 106.733 34.8293 106.967 34.9265C107.201 35.0237 107.463 35.0723 107.754 35.0723ZM107.754 34.2647C107.483 34.2647 107.246 34.1425 107.045 33.8983C106.843 33.654 106.742 33.2826 106.742 32.784C106.742 32.2755 106.844 31.9004 107.048 31.6586C107.253 31.4168 107.488 31.2959 107.754 31.2959C108.019 31.2959 108.253 31.4168 108.455 31.6586C108.657 31.9004 108.758 32.2755 108.758 32.784C108.758 33.2826 108.657 33.654 108.455 33.8983C108.253 34.1425 108.019 34.2647 107.754 34.2647ZM111.749 34.9377V31.4305H112.636V30.6229H111.749V30.2265C111.749 30.0171 111.785 29.8651 111.856 29.7704C111.928 29.6756 112.04 29.6283 112.192 29.6283H112.732V28.8281H112.059C111.661 28.8281 111.352 28.939 111.133 29.1609C110.913 29.3827 110.804 29.7155 110.804 30.1592V30.6229H110.154V31.4305H110.804V34.9377H111.749ZM115.361 36.7025C115.73 36.7025 116.039 36.6128 116.288 36.4333C116.536 36.2538 116.74 35.9447 116.897 35.506L118.662 30.6229H117.643L116.971 32.8438C116.813 33.4172 116.722 33.7487 116.698 33.8384H116.668C116.604 33.5842 116.511 33.2526 116.387 32.8438L115.656 30.6229H114.63L116.225 34.833L116.085 35.2593C116.001 35.4986 115.889 35.6668 115.749 35.764C115.608 35.8612 115.427 35.9099 115.206 35.9099H115.073V36.7025H115.361ZM120.952 35.0723C121.247 35.0723 121.512 35.0225 121.746 34.9227C121.98 34.823 122.168 34.6947 122.311 34.5376C122.454 34.3806 122.572 34.1986 122.665 33.9917C122.759 33.7848 122.824 33.5817 122.861 33.3823C122.898 33.1829 122.916 32.9834 122.916 32.784C122.916 32.1409 122.749 31.5975 122.414 31.1538C122.079 30.7101 121.592 30.4883 120.952 30.4883C120.307 30.4883 119.817 30.7101 119.482 31.1538C119.147 31.5975 118.98 32.1409 118.98 32.784C118.98 32.9934 118.998 33.1991 119.035 33.401C119.072 33.6029 119.139 33.8073 119.235 34.0142C119.331 34.2211 119.451 34.4005 119.597 34.5526C119.742 34.7046 119.931 34.8293 120.165 34.9265C120.399 35.0237 120.661 35.0723 120.952 35.0723ZM120.952 34.2647C120.681 34.2647 120.445 34.1425 120.243 33.8983C120.041 33.654 119.94 33.2826 119.94 32.784C119.94 32.2755 120.042 31.9004 120.247 31.6586C120.451 31.4168 120.686 31.2959 120.952 31.2959C121.218 31.2959 121.452 31.4168 121.654 31.6586C121.855 31.9004 121.956 32.2755 121.956 32.784C121.956 33.2826 121.855 33.654 121.654 33.8983C121.452 34.1425 121.218 34.2647 120.952 34.2647ZM125.066 35.0723C125.356 35.0723 125.599 35.005 125.793 34.8704C125.988 34.7358 126.119 34.5912 126.188 34.4367H126.196V34.9377H127.097V30.6229H126.166V33.0383C126.166 33.3723 126.087 33.6602 125.93 33.902C125.772 34.1438 125.553 34.2647 125.273 34.2647C124.805 34.2647 124.571 33.9282 124.571 33.2551V30.6229H123.633V33.3748C123.633 33.6988 123.677 33.978 123.766 34.2123C123.854 34.4466 123.973 34.6224 124.12 34.7395C124.268 34.8567 124.419 34.9414 124.575 34.9938C124.73 35.0461 124.893 35.0723 125.066 35.0723ZM129.054 34.9377V32.7392C129.054 32.3204 129.139 31.9851 129.309 31.7334C129.479 31.4816 129.724 31.3557 130.044 31.3557C130.226 31.3557 130.411 31.3856 130.598 31.4454V30.5855C130.455 30.5207 130.27 30.4883 130.044 30.4883C129.802 30.4883 129.594 30.5481 129.42 30.6677C129.245 30.7874 129.111 30.927 129.017 31.0865V30.6229H128.116V34.9377H129.054ZM133.943 34.9377V28.8281H133.013V34.9377H133.943ZM136.093 29.9797V28.9403H135.088V29.9797H136.093ZM136.056 34.9377V30.6229H135.132V34.9377H136.056ZM138.427 34.9377V31.4305H139.313V30.6229H138.427V30.2265C138.427 30.0171 138.462 29.8651 138.534 29.7704C138.605 29.6756 138.717 29.6283 138.87 29.6283H139.409V28.8281H138.737C138.338 28.8281 138.029 28.939 137.81 29.1609C137.591 29.3827 137.481 29.7155 137.481 30.1592V30.6229H136.831V31.4305H137.481V34.9377H138.427ZM141.698 35.0723C142.161 35.0723 142.548 34.9651 142.858 34.7508C143.168 34.5364 143.392 34.2697 143.53 33.9506L142.747 33.6814C142.654 33.8658 142.517 34.0167 142.337 34.1338C142.158 34.251 141.95 34.3095 141.713 34.3095C141.373 34.3095 141.106 34.1911 140.912 33.9543C140.717 33.7175 140.62 33.4346 140.62 33.1056H143.574C143.589 32.9809 143.597 32.8538 143.597 32.7242C143.597 32.0611 143.414 31.5227 143.05 31.1089C142.686 30.6951 142.223 30.4883 141.661 30.4883C141.09 30.4883 140.616 30.6939 140.24 31.1052C139.863 31.5165 139.675 32.0686 139.675 32.7616C139.675 33.4645 139.863 34.0254 140.24 34.4442C140.616 34.8629 141.103 35.0723 141.698 35.0723ZM142.644 32.44H140.635C140.64 32.121 140.735 31.843 140.919 31.6062C141.104 31.3694 141.351 31.251 141.661 31.251C141.972 31.251 142.213 31.3669 142.385 31.5987C142.558 31.8306 142.644 32.111 142.644 32.44Z" fill="white"/>
<path d="M9.13142 4.83103L9.13142 34.6135C9.13128 34.8985 8.98631 35.1622 8.75027 35.3067C8.51422 35.4513 8.22231 35.4552 7.98279 35.317L1.02139 31.2923C0.775684 31.1505 0.623191 30.8812 0.623047 30.5888L0.623047 0.806381C0.623188 0.521358 0.768162 0.257664 1.0042 0.113094C1.24025 -0.0314751 1.53216 -0.0353622 1.77168 0.102875L8.73308 4.12752C8.97878 4.26933 9.13128 4.53864 9.13142 4.83103Z" fill="white"/>
<path d="M20.476 4.83103V34.6135C20.4759 34.8985 20.3309 35.1622 20.0949 35.3067C19.8588 35.4513 19.5669 35.4552 19.3274 35.317L12.366 31.2923C12.1203 31.1505 11.9678 30.8812 11.9677 30.5888L11.9677 0.806381C11.9678 0.521358 12.1128 0.257664 12.3488 0.113094C12.5849 -0.0314751 12.8768 -0.0353622 13.1163 0.102875L20.0777 4.12752C20.3234 4.26933 20.4759 4.53864 20.476 4.83103Z" fill="white"/>
<path d="M31.8188 4.83103V34.6135C31.8187 34.8985 31.6737 35.1622 31.4376 35.3067C31.2016 35.4513 30.9097 35.4552 30.6702 35.317L23.7088 31.2923C23.4631 31.1505 23.3106 30.8812 23.3104 30.5888V0.806381C23.3106 0.521358 23.4555 0.257664 23.6916 0.113094C23.9276 -0.0314751 24.2195 -0.0353622 24.4591 0.102875L31.4205 4.12752C31.6662 4.26933 31.8187 4.53864 31.8188 4.83103Z" fill="white"/>
</svg>
