<svg width="126" height="39" viewBox="0 0 126 39" fill="none" xmlns="http://www.w3.org/2000/svg">
<path d="M43.3737 24.2782V15.3579H45.4098C46.9379 15.3579 48.2398 14.8047 49.3155 13.6983C50.3912 12.5919 50.929 11.2607 50.929 9.70486V6.26896C50.929 4.65258 50.4552 3.32144 49.5076 2.27554C48.4917 1.17779 47.1258 0.628906 45.4098 0.628906H39.865V24.2782H43.3737ZM45.4994 11.8312H43.3737V4.27225H45.4994C46.1141 4.27225 46.6029 4.46025 46.9657 4.83626C47.3285 5.21226 47.5099 5.71144 47.5099 6.33379V9.78265C47.5099 10.3445 47.3157 10.8264 46.9273 11.2283C46.5388 11.6303 46.0629 11.8312 45.4994 11.8312ZM56.5223 24.2782L57.3803 18.8456H61.0555L61.8879 24.2782H65.5759L61.6702 0.628906H56.8169L52.86 24.2782H56.5223ZM60.5305 15.3708H57.9182L59.2243 6.04855L60.5305 15.3708ZM73.4358 24.2782V15.3579H75.4719C77 15.3579 78.3019 14.8047 79.3776 13.6983C80.4533 12.5919 80.9911 11.2607 80.9911 9.70486V6.26896C80.9911 4.65258 80.5173 3.32144 79.5697 2.27554C78.5538 1.17779 77.1878 0.628906 75.4719 0.628906H69.9271V24.2782H73.4358ZM75.5615 11.8312H73.4358V4.27225H75.5615C76.1762 4.27225 76.665 4.46025 77.0278 4.83626C77.3906 5.21226 77.572 5.71144 77.572 6.33379V9.78265C77.572 10.3445 77.3778 10.8264 76.9894 11.2283C76.6009 11.6303 76.125 11.8312 75.5615 11.8312ZM95.2026 24.2782V20.7127H88.6974V14.2428H93.4482V10.6643H88.6974V4.19446H95.2026V0.628906H85.1886V24.2782H95.2026ZM102.525 24.2782V15.3579H104.548C104.659 15.3579 104.766 15.3536 104.868 15.3449L107.019 24.2782H110.823L108.21 13.9446C109.465 12.795 110.093 11.3817 110.093 9.70486V6.26896C110.093 4.56614 109.687 3.235 108.876 2.27554C107.963 1.17779 106.524 0.628906 104.561 0.628906H99.016V24.2782H102.525ZM104.65 11.8312H102.525V4.27225H104.65C105.991 4.27225 106.661 4.95943 106.661 6.33379V9.78265C106.661 10.3445 106.467 10.8264 106.078 11.2283C105.69 11.6303 105.214 11.8312 104.65 11.8312ZM125.29 24.2782V20.7386H118.811L125.29 4.19446V0.628906H115.02V4.19446H121.513L115.02 20.7386V24.2782H125.29Z" fill="white"/>
<path d="M42.4652 36.3925V35.8726H39.9227V30.6736H39.3015V36.3925H42.4652ZM44.8089 36.5266C45.2175 36.5266 45.5709 36.4442 45.869 36.2793C46.1672 36.1143 46.4073 35.8865 46.5895 35.5958L46.1423 35.294C46.0098 35.5176 45.8345 35.6923 45.6164 35.8181C45.3983 35.9438 45.1236 36.0067 44.7924 36.0067C44.3838 36.0067 44.0608 35.8642 43.8234 35.5791C43.586 35.294 43.4562 34.9502 43.4342 34.5477H46.6227C46.6282 34.4918 46.6309 34.4107 46.6309 34.3045C46.6309 33.9355 46.5509 33.6015 46.3908 33.3025C46.2307 33.0034 46.0098 32.7672 45.7282 32.5939C45.4466 32.4206 45.1319 32.3339 44.7841 32.3339C44.4142 32.3339 44.0843 32.4234 43.7944 32.6023C43.5045 32.7812 43.2782 33.0299 43.1153 33.3486C42.9524 33.6672 42.871 34.0278 42.871 34.4303C42.871 34.8328 42.9538 35.1934 43.1194 35.512C43.2851 35.8306 43.5142 36.0794 43.8068 36.2583C44.0995 36.4372 44.4335 36.5266 44.8089 36.5266ZM46.0678 34.0781H43.4673C43.528 33.7259 43.6729 33.4338 43.9021 33.2018C44.1312 32.9698 44.4252 32.8538 44.7841 32.8538C45.154 32.8538 45.4466 32.9559 45.662 33.1599C45.8773 33.3639 46.0126 33.67 46.0678 34.0781ZM49.1486 36.5266C49.4247 36.5266 49.6787 36.4637 49.9105 36.338C50.1424 36.2122 50.3384 36.0375 50.4986 35.8139V36.3925H51.0617V32.4681H50.4986V33.0551C50.3384 32.8259 50.1411 32.6484 49.9064 32.5226C49.6718 32.3968 49.4136 32.3339 49.1321 32.3339C48.7621 32.3339 48.4322 32.4234 48.1424 32.6023C47.8525 32.7812 47.6261 33.0285 47.4633 33.3444C47.3004 33.6602 47.2189 34.0194 47.2189 34.4219C47.2189 34.83 47.3018 35.1934 47.4674 35.512C47.633 35.8306 47.8622 36.0794 48.1548 36.2583C48.4474 36.4372 48.7787 36.5266 49.1486 36.5266ZM49.1321 36.0067C48.8726 36.0067 48.6407 35.9396 48.4364 35.8055C48.2321 35.6713 48.072 35.484 47.956 35.2437C47.8401 35.0033 47.7821 34.7294 47.7821 34.4219C47.7821 34.12 47.8401 33.8503 47.956 33.6127C48.072 33.3751 48.2321 33.1893 48.4364 33.0551C48.6407 32.9209 48.8726 32.8538 49.1321 32.8538C49.3971 32.8538 49.6331 32.9209 49.8402 33.0551C50.0472 33.1893 50.2087 33.3765 50.3246 33.6169C50.4406 33.8573 50.4986 34.1284 50.4986 34.4303C50.4986 34.7322 50.4406 35.0033 50.3246 35.2437C50.2087 35.484 50.0472 35.6713 49.8402 35.8055C49.6331 35.9396 49.3971 36.0067 49.1321 36.0067ZM53.7947 36.5266C54.0708 36.5266 54.3248 36.4637 54.5567 36.338C54.7885 36.2122 54.9846 36.0375 55.1447 35.8139V36.3925H55.7078V30.3047H55.1447V33.0551C54.9846 32.8259 54.7872 32.6484 54.5525 32.5226C54.3179 32.3968 54.0597 32.3339 53.7782 32.3339C53.4082 32.3339 53.0783 32.4234 52.7885 32.6023C52.4986 32.7812 52.2723 33.0285 52.1094 33.3444C51.9465 33.6602 51.8651 34.0194 51.8651 34.4219C51.8651 34.83 51.9479 35.1934 52.1135 35.512C52.2792 35.8306 52.5083 36.0794 52.8009 36.2583C53.0935 36.4372 53.4248 36.5266 53.7947 36.5266ZM53.7782 36.0067C53.5187 36.0067 53.2868 35.9396 53.0825 35.8055C52.8782 35.6713 52.7181 35.484 52.6021 35.2437C52.4862 35.0033 52.4282 34.7294 52.4282 34.4219C52.4282 34.12 52.4862 33.8503 52.6021 33.6127C52.7181 33.3751 52.8782 33.1893 53.0825 33.0551C53.2868 32.9209 53.5187 32.8538 53.7782 32.8538C54.0432 32.8538 54.2792 32.9209 54.4863 33.0551C54.6933 33.1893 54.8548 33.3765 54.9707 33.6169C55.0867 33.8573 55.1447 34.1284 55.1447 34.4303C55.1447 34.7322 55.0867 35.0033 54.9707 35.2437C54.8548 35.484 54.6933 35.6713 54.4863 35.8055C54.2792 35.9396 54.0432 36.0067 53.7782 36.0067ZM57.3394 31.705C57.4608 31.705 57.5657 31.6603 57.6541 31.5709C57.7424 31.4814 57.7866 31.3752 57.7866 31.2522C57.7866 31.1237 57.7424 31.016 57.6541 30.9294C57.5657 30.8427 57.4608 30.7994 57.3394 30.7994C57.2124 30.7994 57.1061 30.8427 57.0205 30.9294C56.9349 31.016 56.8921 31.1209 56.8921 31.2438C56.8921 31.3724 56.9349 31.4814 57.0205 31.5709C57.1061 31.6603 57.2124 31.705 57.3394 31.705ZM57.6209 36.3925V32.4681H57.0578V36.3925H57.6209ZM59.534 36.3925V34.4303C59.534 33.9495 59.6334 33.5666 59.8322 33.2815C60.031 32.9964 60.3291 32.8538 60.7266 32.8538C61.4113 32.8538 61.7536 33.2424 61.7536 34.0194V36.3925H62.3167V33.7678C62.3167 33.4716 62.2491 33.2144 62.1138 32.9964C61.9786 32.7784 61.7964 32.6135 61.5672 32.5017C61.3381 32.3898 61.0883 32.3339 60.8177 32.3339C60.5306 32.3339 60.278 32.4024 60.0599 32.5394C59.8418 32.6763 59.6665 32.8706 59.534 33.1222V32.4681H58.9709V36.3925H59.534ZM65.3148 38.0695C65.646 38.0695 65.9414 37.9913 66.2009 37.8347C66.4604 37.6782 66.6619 37.4616 66.8055 37.1849C66.949 36.9082 67.0208 36.5937 67.0208 36.2415V32.4681H66.4577V33.0551C66.2975 32.8259 66.1002 32.6484 65.8655 32.5226C65.6308 32.3968 65.3727 32.3339 65.0912 32.3339C64.7212 32.3339 64.3913 32.4234 64.1015 32.6023C63.8116 32.7812 63.5852 33.0285 63.4224 33.3444C63.2595 33.6602 63.178 34.0194 63.178 34.4219C63.178 34.83 63.2609 35.1934 63.4265 35.512C63.5921 35.8306 63.8213 36.0794 64.1139 36.2583C64.4065 36.4372 64.7378 36.5266 65.1077 36.5266C65.3838 36.5266 65.6378 36.4637 65.8696 36.338C66.1015 36.2122 66.2975 36.0375 66.4577 35.8139V36.2415C66.4577 36.6217 66.3514 36.9347 66.1388 37.1807C65.9262 37.4267 65.6516 37.5496 65.3148 37.5496H63.7081V38.0695H65.3148ZM65.0912 36.0067C64.8317 36.0067 64.5998 35.9396 64.3955 35.8055C64.1912 35.6713 64.0311 35.484 63.9151 35.2437C63.7992 35.0033 63.7412 34.7294 63.7412 34.4219C63.7412 34.12 63.7992 33.8503 63.9151 33.6127C64.0311 33.3751 64.1912 33.1893 64.3955 33.0551C64.5998 32.9209 64.8317 32.8538 65.0912 32.8538C65.3562 32.8538 65.5922 32.9209 65.7992 33.0551C66.0063 33.1893 66.1678 33.3765 66.2837 33.6169C66.3997 33.8573 66.4577 34.1284 66.4577 34.4303C66.4577 34.7322 66.3997 35.0033 66.2837 35.2437C66.1678 35.484 66.0063 35.6713 65.7992 35.8055C65.5922 35.9396 65.3562 36.0067 65.0912 36.0067ZM70.6731 36.3925V34.2039H71.874C72.3985 34.2039 72.8195 34.0474 73.137 33.7343C73.4544 33.4212 73.6132 32.9908 73.6132 32.443C73.6132 31.8895 73.4613 31.4563 73.1577 31.1432C72.854 30.8302 72.4482 30.6736 71.9402 30.6736H70.052V36.3925H70.6731ZM71.8574 33.684H70.6731V31.1935H71.8574C72.2273 31.1935 72.5089 31.2998 72.7022 31.5122C72.8954 31.7246 72.992 32.0349 72.992 32.443C72.992 32.851 72.8954 33.1599 72.7022 33.3695C72.5089 33.5792 72.2273 33.684 71.8574 33.684ZM76.0315 36.5266C76.3075 36.5266 76.5615 36.4637 76.7934 36.338C77.0253 36.2122 77.2213 36.0375 77.3814 35.8139V36.3925H77.9446V32.4681H77.3814V33.0551C77.2213 32.8259 77.0239 32.6484 76.7892 32.5226C76.5546 32.3968 76.2965 32.3339 76.0149 32.3339C75.645 32.3339 75.3151 32.4234 75.0252 32.6023C74.7353 32.7812 74.509 33.0285 74.3461 33.3444C74.1832 33.6602 74.1018 34.0194 74.1018 34.4219C74.1018 34.83 74.1846 35.1934 74.3502 35.512C74.5159 35.8306 74.745 36.0794 75.0376 36.2583C75.3303 36.4372 75.6615 36.5266 76.0315 36.5266ZM76.0149 36.0067C75.7554 36.0067 75.5235 35.9396 75.3192 35.8055C75.1149 35.6713 74.9548 35.484 74.8389 35.2437C74.7229 35.0033 74.665 34.7294 74.665 34.4219C74.665 34.12 74.7229 33.8503 74.8389 33.6127C74.9548 33.3751 75.1149 33.1893 75.3192 33.0551C75.5235 32.9209 75.7554 32.8538 76.0149 32.8538C76.2799 32.8538 76.5159 32.9209 76.723 33.0551C76.93 33.1893 77.0915 33.3765 77.2075 33.6169C77.3234 33.8573 77.3814 34.1284 77.3814 34.4303C77.3814 34.7322 77.3234 35.0033 77.2075 35.2437C77.0915 35.484 76.93 35.6713 76.723 35.8055C76.5159 35.9396 76.2799 36.0067 76.0149 36.0067ZM79.5595 38.0695V35.8055C79.7196 36.0347 79.917 36.2122 80.1517 36.338C80.3863 36.4637 80.6444 36.5266 80.926 36.5266C81.2959 36.5266 81.6258 36.4372 81.9157 36.2583C82.2056 36.0794 82.4319 35.832 82.5948 35.5162C82.7577 35.2003 82.8391 34.8412 82.8391 34.4387C82.8391 34.0306 82.7563 33.6672 82.5907 33.3486C82.425 33.0299 82.1959 32.7812 81.9033 32.6023C81.6107 32.4234 81.2794 32.3339 80.9095 32.3339C80.6334 32.3339 80.3794 32.3968 80.1475 32.5226C79.9156 32.6484 79.7196 32.8231 79.5595 33.0467V32.4681H78.9964V38.0695H79.5595ZM80.926 36.0067C80.661 36.0067 80.425 35.9396 80.2179 35.8055C80.0109 35.6713 79.8494 35.484 79.7334 35.2437C79.6175 35.0033 79.5595 34.7322 79.5595 34.4303C79.5595 34.1284 79.6175 33.8573 79.7334 33.6169C79.8494 33.3765 80.0109 33.1893 80.2179 33.0551C80.425 32.9209 80.661 32.8538 80.926 32.8538C81.1855 32.8538 81.4174 32.9209 81.6217 33.0551C81.826 33.1893 81.9861 33.3765 82.102 33.6169C82.218 33.8573 82.276 34.1312 82.276 34.4387C82.276 34.7405 82.218 35.0103 82.102 35.2479C81.9861 35.4854 81.826 35.6713 81.6217 35.8055C81.4174 35.9396 81.1855 36.0067 80.926 36.0067ZM85.332 36.5266C85.7405 36.5266 86.0939 36.4442 86.392 36.2793C86.6902 36.1143 86.9303 35.8865 87.1125 35.5958L86.6653 35.294C86.5328 35.5176 86.3575 35.6923 86.1394 35.8181C85.9213 35.9438 85.6467 36.0067 85.3154 36.0067C84.9068 36.0067 84.5838 35.8642 84.3464 35.5791C84.109 35.294 83.9793 34.9502 83.9572 34.5477H87.1457C87.1512 34.4918 87.154 34.4107 87.154 34.3045C87.154 33.9355 87.0739 33.6015 86.9138 33.3025C86.7537 33.0034 86.5328 32.7672 86.2512 32.5939C85.9697 32.4206 85.6549 32.3339 85.3071 32.3339C84.9372 32.3339 84.6073 32.4234 84.3174 32.6023C84.0276 32.7812 83.8012 33.0299 83.6383 33.3486C83.4754 33.6672 83.394 34.0278 83.394 34.4303C83.394 34.8328 83.4768 35.1934 83.6425 35.512C83.8081 35.8306 84.0372 36.0794 84.3298 36.2583C84.6225 36.4372 84.9565 36.5266 85.332 36.5266ZM86.5908 34.0781H83.9903C84.051 33.7259 84.196 33.4338 84.4251 33.2018C84.6542 32.9698 84.9482 32.8538 85.3071 32.8538C85.677 32.8538 85.9697 32.9559 86.185 33.1599C86.4003 33.3639 86.5356 33.67 86.5908 34.0781ZM88.5453 36.3925V34.5141C88.5453 34.1675 88.6074 33.8671 88.7316 33.6127C88.8559 33.3584 89.0201 33.1641 89.2244 33.0299C89.4287 32.8958 89.6496 32.8287 89.887 32.8287C90.025 32.8287 90.152 32.8566 90.2679 32.9125V32.3926C90.1465 32.3535 90.0195 32.3339 89.887 32.3339C89.5999 32.3339 89.3417 32.415 89.1126 32.5771C88.8835 32.7392 88.6944 32.9656 88.5453 33.2563V32.4681H87.9821V36.3925H88.5453ZM94.8726 36.5266C95.3254 36.5266 95.716 36.412 96.0445 36.1828C96.373 35.9536 96.6367 35.621 96.8354 35.185L96.3137 34.8663C96.1259 35.2409 95.923 35.5162 95.705 35.6923C95.4869 35.8684 95.1818 35.9564 94.7898 35.9564C94.4751 35.9564 94.199 35.86 93.9616 35.6671C93.7242 35.4743 93.542 35.1961 93.415 34.8328C93.288 34.4694 93.2245 34.039 93.2245 33.5414C93.2245 32.7812 93.364 32.1872 93.6428 31.7595C93.9216 31.3319 94.3067 31.1181 94.7981 31.1181C95.1404 31.1181 95.4303 31.1893 95.6677 31.3319C95.9051 31.4744 96.1121 31.7106 96.2888 32.0405L96.7857 31.747C96.598 31.3668 96.3371 31.0719 96.0031 30.8623C95.6691 30.6527 95.2674 30.5479 94.7981 30.5479C94.3398 30.5479 93.9437 30.6667 93.6096 30.9042C93.2756 31.1418 93.0189 31.4856 92.8394 31.9356C92.66 32.3857 92.5703 32.9237 92.5703 33.5498C92.5703 34.1703 92.6628 34.7028 92.8477 35.1472C93.0327 35.5917 93.2977 35.9327 93.6428 36.1702C93.9879 36.4078 94.3978 36.5266 94.8726 36.5266ZM99.3365 36.5266C99.7065 36.5266 100.036 36.4372 100.326 36.2583C100.616 36.0794 100.842 35.8306 101.005 35.512C101.168 35.1934 101.25 34.8328 101.25 34.4303C101.25 34.0278 101.167 33.6672 101.001 33.3486C100.836 33.0299 100.606 32.7812 100.314 32.6023C100.021 32.4234 99.6899 32.3339 99.32 32.3339C98.9501 32.3339 98.6202 32.4234 98.3303 32.6023C98.0404 32.7812 97.8141 33.0285 97.6512 33.3444C97.4883 33.6602 97.4069 34.0194 97.4069 34.4219C97.4069 34.8244 97.4897 35.1864 97.6553 35.5078C97.821 35.8292 98.0501 36.0794 98.3427 36.2583C98.6353 36.4372 98.9666 36.5266 99.3365 36.5266ZM99.32 36.0067C99.0605 36.0067 98.8286 35.9396 98.6243 35.8055C98.42 35.6713 98.2599 35.484 98.144 35.2437C98.028 35.0033 97.97 34.7294 97.97 34.4219C97.97 34.12 98.028 33.8503 98.144 33.6127C98.2599 33.3751 98.42 33.1893 98.6243 33.0551C98.8286 32.9209 99.0605 32.8538 99.32 32.8538C99.585 32.8538 99.821 32.9209 100.028 33.0551C100.235 33.1893 100.397 33.3765 100.513 33.6169C100.629 33.8573 100.686 34.1284 100.686 34.4303C100.686 34.7322 100.629 35.0033 100.513 35.2437C100.397 35.484 100.235 35.6713 100.028 35.8055C99.821 35.9396 99.585 36.0067 99.32 36.0067ZM102.608 36.3925V34.4303C102.608 33.9495 102.692 33.5666 102.86 33.2815C103.029 32.9964 103.281 32.8538 103.618 32.8538C103.867 32.8538 104.068 32.9447 104.223 33.1264C104.377 33.308 104.455 33.6057 104.455 34.0194V36.3925H105.018V34.1787C105.045 33.7706 105.143 33.4478 105.312 33.2102C105.48 32.9726 105.716 32.8538 106.02 32.8538C106.268 32.8538 106.47 32.9447 106.625 33.1264C106.779 33.308 106.856 33.6057 106.856 34.0194V36.3925H107.42V33.7678C107.42 33.3206 107.301 32.9698 107.063 32.7155C106.826 32.4611 106.528 32.3339 106.169 32.3339C105.893 32.3339 105.65 32.4122 105.44 32.5687C105.23 32.7253 105.065 32.9433 104.943 33.2228C104.861 32.9377 104.714 32.7183 104.504 32.5645C104.295 32.4108 104.049 32.3339 103.767 32.3339C103.513 32.3339 103.288 32.3982 103.092 32.5268C102.896 32.6554 102.735 32.8399 102.608 33.0802V32.4681H102.045V36.3925H102.608ZM108.993 38.0695V35.8055C109.153 36.0347 109.351 36.2122 109.585 36.338C109.82 36.4637 110.078 36.5266 110.36 36.5266C110.73 36.5266 111.059 36.4372 111.349 36.2583C111.639 36.0794 111.866 35.832 112.028 35.5162C112.191 35.2003 112.273 34.8412 112.273 34.4387C112.273 34.0306 112.19 33.6672 112.024 33.3486C111.859 33.0299 111.63 32.7812 111.337 32.6023C111.044 32.4234 110.713 32.3339 110.343 32.3339C110.067 32.3339 109.813 32.3968 109.581 32.5226C109.349 32.6484 109.153 32.8231 108.993 33.0467V32.4681H108.43V38.0695H108.993ZM110.36 36.0067C110.095 36.0067 109.859 35.9396 109.652 35.8055C109.445 35.6713 109.283 35.484 109.167 35.2437C109.051 35.0033 108.993 34.7322 108.993 34.4303C108.993 34.1284 109.051 33.8573 109.167 33.6169C109.283 33.3765 109.445 33.1893 109.652 33.0551C109.859 32.9209 110.095 32.8538 110.36 32.8538C110.619 32.8538 110.851 32.9209 111.055 33.0551C111.26 33.1893 111.42 33.3765 111.536 33.6169C111.652 33.8573 111.71 34.1312 111.71 34.4387C111.71 34.7405 111.652 35.0103 111.536 35.2479C111.42 35.4854 111.26 35.6713 111.055 35.8055C110.851 35.9396 110.619 36.0067 110.36 36.0067ZM114.757 36.5266C115.033 36.5266 115.287 36.4637 115.519 36.338C115.751 36.2122 115.947 36.0375 116.107 35.8139V36.3925H116.67V32.4681H116.107V33.0551C115.947 32.8259 115.75 32.6484 115.515 32.5226C115.28 32.3968 115.022 32.3339 114.741 32.3339C114.371 32.3339 114.041 32.4234 113.751 32.6023C113.461 32.7812 113.235 33.0285 113.072 33.3444C112.909 33.6602 112.828 34.0194 112.828 34.4219C112.828 34.83 112.91 35.1934 113.076 35.512C113.242 35.8306 113.471 36.0794 113.763 36.2583C114.056 36.4372 114.387 36.5266 114.757 36.5266ZM114.741 36.0067C114.481 36.0067 114.249 35.9396 114.045 35.8055C113.841 35.6713 113.681 35.484 113.565 35.2437C113.449 35.0033 113.391 34.7294 113.391 34.4219C113.391 34.12 113.449 33.8503 113.565 33.6127C113.681 33.3751 113.841 33.1893 114.045 33.0551C114.249 32.9209 114.481 32.8538 114.741 32.8538C115.006 32.8538 115.242 32.9209 115.449 33.0551C115.656 33.1893 115.817 33.3765 115.933 33.6169C116.049 33.8573 116.107 34.1284 116.107 34.4303C116.107 34.7322 116.049 35.0033 115.933 35.2437C115.817 35.484 115.656 35.6713 115.449 35.8055C115.242 35.9396 115.006 36.0067 114.741 36.0067ZM118.277 36.3925V34.4303C118.277 33.9495 118.376 33.5666 118.575 33.2815C118.774 32.9964 119.072 32.8538 119.47 32.8538C120.154 32.8538 120.497 33.2424 120.497 34.0194V36.3925H121.06V33.7678C121.06 33.4716 120.992 33.2144 120.857 32.9964C120.722 32.7784 120.539 32.6135 120.31 32.5017C120.081 32.3898 119.831 32.3339 119.561 32.3339C119.274 32.3339 119.021 32.4024 118.803 32.5394C118.585 32.6763 118.41 32.8706 118.277 33.1222V32.4681H117.714V36.3925H118.277ZM123.263 38.0695L125.358 32.4681H124.828L123.594 35.7216L122.31 32.4681H121.722L123.312 36.4679L122.7 38.0695H123.263Z" fill="white"/>
<path fill-rule="evenodd" clip-rule="evenodd" d="M19.7844 6.10938V33.3145C17.6583 34.6401 15.1272 35.7322 12.3304 36.449C10.0212 37.0416 7.75188 37.3215 5.63074 37.3215C3.5856 37.3215 1.67824 37.0616 0 36.5688V9.36392C0.000902038 9.36392 0.0024806 9.36461 0.00338264 9.36461C0.628269 9.54769 1.28473 9.69889 1.96892 9.81636C2.60193 9.92535 3.25838 10.0054 3.93446 10.0547C4.48741 10.0965 5.05344 10.1174 5.63074 10.1174C7.75279 10.1174 10.0212 9.83655 12.3304 9.24461C15.1272 8.52694 17.6583 7.43574 19.7844 6.10938ZM15.8529 12.3548C15.6867 12.4121 15.5196 12.4682 15.3517 12.5231L15.8528 12.5228L15.8529 12.3548Z" fill="#F4F4F5"/>
<path fill-rule="evenodd" clip-rule="evenodd" d="M27.1464 0.0546875V30.1021C24.7731 31.5663 21.9477 32.7725 18.8257 33.5641C16.248 34.2187 13.7148 34.5278 11.347 34.5278C9.06405 34.5278 6.93491 34.2407 5.06152 33.6964V3.64926C5.06253 3.64926 5.06429 3.65002 5.0653 3.65002C5.76285 3.85223 6.49564 4.01923 7.25939 4.14897C7.966 4.26934 8.69879 4.35778 9.45348 4.41226C10.0707 4.45838 10.7026 4.48144 11.347 4.48144C13.7158 4.48144 16.248 4.17127 18.8257 3.51748C21.9477 2.72483 24.7731 1.51963 27.1464 0.0546875Z" fill="white"/>
</svg>
