<svg width="120" height="379" viewBox="0 0 120 379" fill="none" xmlns="http://www.w3.org/2000/svg">
<path d="M87.4472 498.376C99.6643 477.215 109.362 471.857 113.145 447.432C113.973 442.092 116.783 423.057 116.817 417.679C116.879 407.861 118.096 399.374 116.448 389.662C115.532 375.457 113.014 366.699 110.4 356.859C107.593 346.294 102.382 335.12 96.855 325.605C91.3876 316.193 85.7624 307.05 78.4242 298.915C75.5827 295.765 72.3093 292.877 68.8354 290.44C64.5213 287.414 60.0192 284.175 55.076 282.496C48.5797 280.289 36.4644 281.892 30.5968 286.296C15.588 297.56 21.3956 323.891 37.8433 330.604C45.2184 333.614 54.766 331.642 61.8621 328.836C70.9698 325.234 77.6887 317.962 82.7774 309.83C89.2731 299.449 94.0074 288.73 96.4231 276.642C99.5565 260.963 99.2861 249.915 98.9043 234.07C98.0208 197.411 81.563 158.601 61.4361 129.365C40.2352 98.569 13.7369 71.398 -14.1091 46.2279C-25.433 35.9921 -38.0751 26.6956 -51.7414 19.9798C-64.0889 13.9122 -76.7754 7.054 -89.9783 3.29129" stroke="#61D16A" stroke-width="5" stroke-linecap="round"/>
</svg>
