<svg width="151" height="36" viewBox="0 0 151 36" fill="none" xmlns="http://www.w3.org/2000/svg">
<path d="M52.8165 23.0602C57.13 23.0602 59.9941 21.0337 59.9941 17.5398C59.9941 14.0334 57.1482 12.936 54.4161 12.1107L54.1016 12.0166C51.6963 11.3022 49.4693 10.7365 49.4693 8.84003C49.4693 7.33765 50.6771 6.3943 52.782 6.3943C54.6109 6.3943 55.9222 7.16295 56.5088 8.80509L59.304 7.68704C58.5103 5.24131 56.1293 3.87869 52.8165 3.87869C48.8136 3.87869 46.2256 5.83527 46.2256 9.01472C46.2256 15.3387 56.6814 13.3472 56.6814 17.7844C56.6814 19.4964 55.1976 20.4747 52.9201 20.4747C50.401 20.4747 48.7101 19.3567 48.1235 17.47L45.3284 18.588C46.2946 21.5229 49.0552 23.0602 52.8165 23.0602ZM79.6865 28.93V4.26302H76.9604V7.68704C75.5111 5.31119 73.0955 3.87869 70.0589 3.87869C64.8827 3.87869 61.1904 8.00149 61.1904 13.4869C61.1904 18.9723 64.9862 23.0602 70.1279 23.0602C72.992 23.0602 75.304 21.7675 76.7533 19.6362V28.93H79.6865ZM70.4729 20.4398C66.8151 20.4398 64.089 17.47 64.089 13.4869C64.089 9.46893 66.8151 6.49911 70.4729 6.49911C74.2343 6.49911 76.8569 9.39905 76.8569 13.4869C76.8569 17.5748 74.2688 20.4398 70.4729 20.4398ZM90.4414 23.0602C93.133 23.0602 95.3069 21.7675 96.5147 20.0554V22.6759H99.3098V4.26302H96.3767V15.8278C96.3422 18.1687 94.2717 20.4048 91.2005 20.4048C88.0949 20.4398 86.1279 18.3784 86.1279 15.2688V4.26302H83.1948V15.6182C83.1948 19.9856 85.7828 23.0602 90.4414 23.0602ZM110.858 23.0602C113.93 23.0602 116.311 21.5928 117.691 19.147V22.6759H120.417V4.26302H117.691V7.8268C116.311 5.45094 113.93 4.05338 110.858 4.05338C105.717 4.05338 101.921 8.00149 101.921 13.452C101.921 18.9723 105.682 23.0602 110.858 23.0602ZM111.203 20.4398C107.546 20.4398 104.82 17.47 104.82 13.452C104.82 9.50387 107.546 6.49911 111.203 6.49911C114.999 6.49911 117.587 9.36411 117.587 13.452C117.587 17.5748 114.965 20.4398 111.203 20.4398ZM127.1 22.6759V11.5653C127.1 8.94484 129.412 6.67381 132.725 6.63887V3.87869C130.171 3.87869 128.101 5.24131 126.927 6.95332V4.26302H124.167V22.6759H127.1ZM141.858 23.0951C146.171 23.0951 148.69 21.2084 150.036 18.588L147.483 17.0158C146.585 19.147 144.929 20.3 141.961 20.3C138.614 20.3 135.957 17.994 135.439 14.57H150.554C150.588 14.2206 150.623 13.5917 150.623 13.0676C150.623 8.21112 147.137 3.84375 141.651 3.84375C136.509 3.84375 132.472 8.14125 132.472 13.4869C132.472 18.9723 136.268 23.0951 141.858 23.0951ZM147.621 11.9845H135.474C136.026 8.49064 138.683 6.42924 141.754 6.42924C144.791 6.42924 147.172 8.52557 147.621 11.9845Z" fill="white"/>
<path d="M87.5092 33.9194C87.6035 33.9194 87.7033 33.9132 87.8084 33.901C87.9136 33.8887 88.0281 33.8703 88.1521 33.8457V33.5263H88.0794C87.737 33.5263 87.493 33.4847 87.3474 33.4014C87.2018 33.3182 87.0873 33.1619 87.0037 32.9326C86.9659 32.8371 86.9147 32.644 86.85 32.3533C86.7853 32.0626 86.7071 31.8422 86.6155 31.692C86.5346 31.5555 86.4241 31.4416 86.2839 31.3501C86.1437 31.2587 85.9698 31.1843 85.7622 31.127C86.207 31.0287 86.5413 30.8629 86.7651 30.6295C86.9889 30.3961 87.1007 30.0979 87.1007 29.7349C87.1007 29.2245 86.9376 28.8457 86.6114 28.5987C86.2852 28.3517 85.7838 28.2282 85.1071 28.2282H82.9962V28.5639L83.4653 28.613L83.6068 28.7318V33.3503L83.4653 33.469L82.9962 33.5099V33.8539H84.9656V33.5099L84.4924 33.469L84.3509 33.3503V31.3563L84.3792 31.3522C84.5571 31.344 84.6866 31.3399 84.7674 31.3399C85.1476 31.3399 85.4313 31.4054 85.6187 31.5364C85.806 31.6675 85.955 31.9036 86.0655 32.2448C86.0952 32.3348 86.1343 32.4713 86.1828 32.6542C86.3122 33.1619 86.4753 33.5031 86.6721 33.6778C86.7664 33.7597 86.8817 33.8204 87.0178 33.86C87.154 33.8996 87.3178 33.9194 87.5092 33.9194ZM84.8079 30.9591C84.7378 30.9591 84.665 30.9584 84.5895 30.9571C84.514 30.9557 84.4345 30.9537 84.3509 30.9509V28.613H84.7513C85.2877 28.613 85.676 28.7072 85.9159 28.8955C86.1558 29.0839 86.2758 29.3869 86.2758 29.8045C86.2758 30.2085 86.1592 30.5019 85.926 30.6848C85.6928 30.8677 85.3201 30.9591 84.8079 30.9591ZM89.6513 33.9276C89.9182 33.9276 90.1838 33.8853 90.448 33.8006C90.7122 33.716 90.9669 33.5918 91.2123 33.4281V32.9654C90.9642 33.1319 90.7344 33.2547 90.5228 33.3339C90.3112 33.413 90.1069 33.4526 89.9101 33.4526C89.4842 33.4526 89.1459 33.2991 88.8951 32.992C88.6444 32.6849 88.5191 32.268 88.5191 31.7412V31.647H91.2001C91.2055 31.6142 91.2089 31.5801 91.2102 31.5446C91.2116 31.5091 91.2123 31.4573 91.2123 31.389C91.2123 30.8786 91.0781 30.4753 90.8099 30.1791C90.5417 29.883 90.1784 29.7349 89.7201 29.7349C89.1593 29.7349 88.7004 29.9335 88.3431 30.3306C87.9859 30.7278 87.8073 31.2403 87.8073 31.8681C87.8073 32.4795 87.9778 32.9756 88.3189 33.3564C88.6599 33.7372 89.1041 33.9276 89.6513 33.9276ZM90.4722 31.2949H88.5595C88.5838 30.9537 88.6963 30.6718 88.8972 30.4494C89.098 30.2269 89.3359 30.1157 89.6109 30.1157C89.8913 30.1157 90.1049 30.2058 90.2518 30.3859C90.3988 30.5661 90.4722 30.8254 90.4722 31.1638V31.2949ZM92.6993 33.9112C92.8934 33.9112 93.1017 33.8668 93.3241 33.7781C93.5465 33.6894 93.7912 33.5523 94.0581 33.3666L94.1673 33.8539H95.3319V33.5509L94.8952 33.5099L94.7536 33.3748V30.9427C94.7536 30.5197 94.6552 30.2126 94.4584 30.0215C94.2616 29.8304 93.9462 29.7349 93.5122 29.7349C93.0188 29.7349 92.6164 29.825 92.3051 30.0051C91.9937 30.1853 91.838 30.4118 91.838 30.6848C91.838 30.7831 91.8562 30.8506 91.8926 30.8875C91.929 30.9243 91.9971 30.9427 92.0968 30.9427H92.667V30.2385C92.7775 30.1948 92.884 30.1621 92.9865 30.1402C93.0889 30.1184 93.1927 30.1075 93.2978 30.1075C93.5782 30.1075 93.775 30.1757 93.8882 30.3122C94.0015 30.4487 94.0581 30.693 94.0581 31.0451V31.3112C93.0255 31.5624 92.3644 31.7903 92.0746 31.995C91.7847 32.1997 91.6398 32.4809 91.6398 32.8385C91.6398 33.1606 91.7362 33.4199 91.929 33.6164C92.1217 33.8129 92.3785 33.9112 92.6993 33.9112ZM93.0309 33.4608C92.8287 33.4608 92.6677 33.3987 92.5477 33.2745C92.4277 33.1503 92.3677 32.9831 92.3677 32.7729C92.3677 32.5109 92.4762 32.2994 92.6933 32.1383C92.9103 31.9773 93.3652 31.7998 94.0581 31.606V33.0841C93.8397 33.2097 93.6463 33.3039 93.4778 33.3666C93.3093 33.4294 93.1603 33.4608 93.0309 33.4608ZM97.3851 33.8539V33.5509L96.912 33.5099L96.7623 33.3748V27.6836H96.4469L95.436 27.9825V28.2445H96.0749V33.3748L95.9333 33.5099L95.444 33.5509V33.8539H97.3851ZM103.837 33.8539V32.4863H103.408L103.267 33.3339L103.149 33.469H100.929V31.1188H102.288L102.405 31.2457L102.486 31.8517H102.879V30.0051H102.486L102.405 30.6152L102.288 30.7339H100.929V28.613H102.846L102.959 28.74L103.077 29.4524H103.542V28.2282H99.5747V28.5639L100.044 28.613L100.185 28.7318V33.3503L100.044 33.469L99.5747 33.5099V33.8539H103.837ZM105.219 33.9276C105.704 33.9276 106.084 33.8163 106.357 33.5939C106.631 33.3714 106.768 33.0637 106.768 32.6706C106.768 32.5205 106.741 32.3833 106.687 32.2591C106.633 32.1349 106.555 32.0319 106.452 31.95C106.312 31.8326 106.086 31.7016 105.773 31.5569C105.684 31.516 105.618 31.4846 105.575 31.4627C105.3 31.329 105.114 31.2075 105.017 31.0983C104.92 30.9892 104.871 30.8568 104.871 30.7012C104.871 30.5101 104.932 30.3613 105.053 30.2549C105.174 30.1484 105.343 30.0952 105.559 30.0952C105.658 30.0952 105.758 30.1102 105.858 30.1402C105.958 30.1703 106.063 30.2153 106.173 30.2754L106.238 30.869H106.646V29.9191C106.506 29.8591 106.356 29.8134 106.195 29.782C106.035 29.7506 105.862 29.7349 105.676 29.7349C105.209 29.7349 104.848 29.8373 104.592 30.042C104.336 30.2467 104.208 30.536 104.208 30.91C104.208 31.1557 104.283 31.3617 104.432 31.5282C104.582 31.6948 104.864 31.8722 105.28 32.0605C105.646 32.2298 105.878 32.3696 105.975 32.4802C106.072 32.5907 106.121 32.7306 106.121 32.8999C106.121 33.1019 106.05 33.265 105.908 33.3892C105.767 33.5134 105.579 33.5755 105.344 33.5755C105.226 33.5755 105.108 33.5591 104.99 33.5263C104.873 33.4936 104.757 33.4431 104.641 33.3748L104.539 32.6624H104.143V33.7515C104.297 33.8116 104.465 33.8559 104.647 33.8846C104.829 33.9132 105.019 33.9276 105.219 33.9276ZM108.421 33.8784C108.59 33.8784 108.767 33.8627 108.95 33.8314C109.134 33.8 109.32 33.7542 109.508 33.6942V33.383C109.406 33.4076 109.307 33.4253 109.211 33.4362C109.115 33.4472 109.023 33.4526 108.934 33.4526C108.675 33.4526 108.496 33.3905 108.396 33.2663C108.297 33.1421 108.247 32.8985 108.247 32.5355V30.3245H109.508V29.9314H108.247V29.0388H107.939L107.583 29.8209L107.038 30.0624V30.3245H107.559V33.0309C107.559 33.353 107.623 33.5748 107.751 33.6962C107.879 33.8177 108.102 33.8784 108.421 33.8784ZM110.728 33.9112C110.923 33.9112 111.131 33.8668 111.353 33.7781C111.576 33.6894 111.82 33.5523 112.087 33.3666L112.196 33.8539H113.361V33.5509L112.924 33.5099L112.783 33.3748V30.9427C112.783 30.5197 112.684 30.2126 112.488 30.0215C112.291 29.8304 111.975 29.7349 111.541 29.7349C111.048 29.7349 110.646 29.825 110.334 30.0051C110.023 30.1853 109.867 30.4118 109.867 30.6848C109.867 30.7831 109.885 30.8506 109.922 30.8875C109.958 30.9243 110.026 30.9427 110.126 30.9427H110.696V30.2385C110.807 30.1948 110.913 30.1621 111.016 30.1402C111.118 30.1184 111.222 30.1075 111.327 30.1075C111.607 30.1075 111.804 30.1757 111.917 30.3122C112.031 30.4487 112.087 30.693 112.087 31.0451V31.3112C111.055 31.5624 110.394 31.7903 110.104 31.995C109.814 32.1997 109.669 32.4809 109.669 32.8385C109.669 33.1606 109.765 33.4199 109.958 33.6164C110.151 33.8129 110.408 33.9112 110.728 33.9112ZM111.06 33.4608C110.858 33.4608 110.697 33.3987 110.577 33.2745C110.457 33.1503 110.397 32.9831 110.397 32.7729C110.397 32.5109 110.505 32.2994 110.722 32.1383C110.939 31.9773 111.394 31.7998 112.087 31.606V33.0841C111.869 33.2097 111.675 33.3039 111.507 33.3666C111.338 33.4294 111.189 33.4608 111.06 33.4608ZM114.832 33.8784C115.002 33.8784 115.178 33.8627 115.362 33.8314C115.545 33.8 115.731 33.7542 115.92 33.6942V33.383C115.817 33.4076 115.718 33.4253 115.623 33.4362C115.527 33.4472 115.434 33.4526 115.346 33.4526C115.087 33.4526 114.907 33.3905 114.808 33.2663C114.708 33.1421 114.658 32.8985 114.658 32.5355V30.3245H115.92V29.9314H114.658V29.0388H114.351L113.995 29.8209L113.449 30.0624V30.3245H113.971V33.0309C113.971 33.353 114.035 33.5748 114.163 33.6962C114.291 33.8177 114.514 33.8784 114.832 33.8784ZM117.884 33.9276C118.151 33.9276 118.416 33.8853 118.681 33.8006C118.945 33.716 119.2 33.5918 119.445 33.4281V32.9654C119.197 33.1319 118.967 33.2547 118.755 33.3339C118.544 33.413 118.34 33.4526 118.143 33.4526C117.717 33.4526 117.379 33.2991 117.128 32.992C116.877 32.6849 116.752 32.268 116.752 31.7412V31.647H119.433C119.438 31.6142 119.442 31.5801 119.443 31.5446C119.444 31.5091 119.445 31.4573 119.445 31.389C119.445 30.8786 119.311 30.4753 119.043 30.1791C118.774 29.883 118.411 29.7349 117.953 29.7349C117.392 29.7349 116.933 29.9335 116.576 30.3306C116.219 30.7278 116.04 31.2403 116.04 31.8681C116.04 32.4795 116.21 32.9756 116.552 33.3564C116.893 33.7372 117.337 33.9276 117.884 33.9276ZM118.705 31.2949H116.792C116.816 30.9537 116.929 30.6718 117.13 30.4494C117.331 30.2269 117.569 30.1157 117.844 30.1157C118.124 30.1157 118.338 30.2058 118.484 30.3859C118.631 30.5661 118.705 30.8254 118.705 31.1638V31.2949ZM123.539 33.9562C124.186 33.9562 124.705 33.8013 125.096 33.4915C125.487 33.1817 125.682 32.7743 125.682 32.2693C125.682 32.0865 125.652 31.9172 125.591 31.7616C125.531 31.606 125.44 31.4682 125.318 31.3481C125.106 31.1352 124.758 30.9332 124.275 30.7421C124.184 30.7066 124.115 30.6793 124.069 30.6602C123.578 30.4501 123.262 30.2706 123.121 30.1218C122.979 29.9731 122.908 29.7854 122.908 29.5588C122.908 29.2477 123.009 29.0013 123.212 28.8198C123.414 28.6383 123.687 28.5475 124.033 28.5475C124.178 28.5475 124.313 28.5618 124.437 28.5905C124.561 28.6192 124.676 28.6635 124.781 28.7236L124.902 28.8628L125.027 29.6612H125.46V28.3633C125.217 28.2841 124.979 28.2247 124.746 28.1852C124.513 28.1456 124.281 28.1258 124.049 28.1258C123.472 28.1258 123.009 28.2739 122.66 28.57C122.311 28.8662 122.136 29.2545 122.136 29.7349C122.136 30.0761 122.228 30.3538 122.411 30.5681C122.594 30.7824 122.969 31.0137 123.535 31.2621C123.581 31.2812 123.647 31.3099 123.733 31.3481C124.526 31.6893 124.922 32.0742 124.922 32.5027C124.922 32.8112 124.81 33.0561 124.585 33.2377C124.359 33.4192 124.054 33.5099 123.669 33.5099C123.485 33.5099 123.315 33.4936 123.159 33.4608C123.003 33.4281 122.864 33.3803 122.743 33.3175L122.633 33.1742L122.536 32.212H122.047V33.686C122.244 33.7734 122.47 33.8402 122.724 33.8866C122.979 33.933 123.251 33.9562 123.539 33.9562ZM128.108 33.9276C128.668 33.9276 129.13 33.7317 129.493 33.34C129.855 32.9483 130.037 32.4454 130.037 31.8312C130.037 31.2171 129.856 30.7141 129.495 30.3224C129.133 29.9307 128.671 29.7349 128.108 29.7349C127.542 29.7349 127.08 29.9301 126.723 30.3204C126.365 30.7107 126.187 31.2143 126.187 31.8312C126.187 32.4481 126.367 32.9517 126.727 33.3421C127.087 33.7324 127.547 33.9276 128.108 33.9276ZM128.108 33.5673C127.765 33.5673 127.489 33.4096 127.279 33.0944C127.068 32.7791 126.963 32.358 126.963 31.8312C126.963 31.3044 127.068 30.8834 127.277 30.5681C127.486 30.2528 127.763 30.0952 128.108 30.0952C128.453 30.0952 128.731 30.2535 128.943 30.5702C129.154 30.8868 129.26 31.3071 129.26 31.8312C129.26 32.3608 129.155 32.7825 128.945 33.0964C128.734 33.4103 128.455 33.5673 128.108 33.5673ZM132.239 33.8539V33.5509L131.766 33.5099L131.617 33.3748V27.6836H131.301L130.29 27.9825V28.2445H130.929V33.3748L130.788 33.5099L130.298 33.5509V33.8539H132.239ZM134.042 33.9358C134.239 33.9358 134.447 33.8907 134.667 33.8006C134.886 33.7106 135.126 33.5714 135.384 33.383V33.8539H136.61V33.5509L136.222 33.5099L136.072 33.3748V29.7349H135.757L134.794 30.0461V30.3081H135.384V33.1496C135.212 33.2343 135.047 33.297 134.889 33.338C134.731 33.3789 134.576 33.3994 134.422 33.3994C134.147 33.3994 133.945 33.3277 133.815 33.1844C133.686 33.0411 133.621 32.8166 133.621 32.5109V29.7349H133.306L132.343 30.0461V30.3081H132.934V32.6542C132.934 33.0691 133.029 33.3864 133.219 33.6062C133.409 33.8259 133.683 33.9358 134.042 33.9358ZM138.153 33.8784C138.323 33.8784 138.5 33.8627 138.683 33.8314C138.867 33.8 139.053 33.7542 139.241 33.6942V33.383C139.139 33.4076 139.04 33.4253 138.944 33.4362C138.848 33.4472 138.756 33.4526 138.667 33.4526C138.408 33.4526 138.229 33.3905 138.129 33.2663C138.029 33.1421 137.98 32.8985 137.98 32.5355V30.3245H139.241V29.9314H137.98V29.0388H137.672L137.316 29.8209L136.77 30.0624V30.3245H137.292V33.0309C137.292 33.353 137.356 33.5748 137.484 33.6962C137.612 33.8177 137.835 33.8784 138.153 33.8784ZM140.328 28.8833C140.463 28.8833 140.577 28.8369 140.67 28.744C140.763 28.6512 140.809 28.538 140.809 28.4042C140.809 28.2705 140.763 28.1558 140.67 28.0603C140.577 27.9647 140.463 27.917 140.328 27.917C140.196 27.917 140.083 27.9641 139.99 28.0582C139.897 28.1524 139.851 28.2677 139.851 28.4042C139.851 28.538 139.897 28.6512 139.99 28.744C140.083 28.8369 140.196 28.8833 140.328 28.8833ZM141.205 33.8539V33.5509L140.761 33.5099L140.619 33.3748V29.7799H140.296L139.345 30.0788V30.3409H139.924V33.3748L139.782 33.5099L139.345 33.5509V33.8539H141.205ZM143.323 33.9276C143.884 33.9276 144.346 33.7317 144.708 33.34C145.071 32.9483 145.252 32.4454 145.252 31.8312C145.252 31.2171 145.072 30.7141 144.71 30.3224C144.349 29.9307 143.887 29.7349 143.323 29.7349C142.757 29.7349 142.296 29.9301 141.938 30.3204C141.581 30.7107 141.403 31.2143 141.403 31.8312C141.403 32.4481 141.583 32.9517 141.942 33.3421C142.302 33.7324 142.763 33.9276 143.323 33.9276ZM143.323 33.5673C142.981 33.5673 142.705 33.4096 142.494 33.0944C142.284 32.7791 142.179 32.358 142.179 31.8312C142.179 31.3044 142.283 30.8834 142.492 30.5681C142.701 30.2528 142.978 30.0952 143.323 30.0952C143.668 30.0952 143.947 30.2535 144.158 30.5702C144.37 30.8868 144.476 31.3071 144.476 31.8312C144.476 32.3608 144.371 32.7825 144.16 33.0964C143.95 33.4103 143.671 33.5673 143.323 33.5673ZM147.346 33.8539V33.5509L146.95 33.5099L146.808 33.3748V30.5661C146.986 30.4733 147.152 30.4043 147.306 30.3593C147.459 30.3143 147.602 30.2917 147.734 30.2917C148.036 30.2917 148.251 30.3572 148.379 30.4883C148.507 30.6193 148.571 30.8418 148.571 31.1557V33.3748L148.43 33.5099L148.033 33.5509V33.8539H149.845V33.5509L149.4 33.5099L149.259 33.3748V31.0124C149.259 30.5975 149.163 30.2808 148.972 30.0624C148.78 29.8441 148.504 29.7349 148.143 29.7349C147.989 29.7349 147.811 29.7724 147.609 29.8475C147.407 29.9226 147.14 30.0529 146.808 30.2385V29.7799H146.493L145.53 30.0788V30.3409H146.121V33.3748L145.979 33.5099L145.53 33.5509V33.8539H147.346Z" fill="white"/>
<path fill-rule="evenodd" clip-rule="evenodd" d="M0.363281 0.3125H34.8709V35.2515H0.363281V0.3125ZM26.0461 9.24726L9.18627 9.24543V26.3176L9.18068 26.323L9.18084 26.3242H26.0538L26.0525 9.24119L26.0517 9.24104L26.0461 9.24726Z" fill="white"/>
</svg>
