<svg width="83" height="29" viewBox="0 0 83 29" fill="none" xmlns="http://www.w3.org/2000/svg">
<path fill-rule="evenodd" clip-rule="evenodd" d="M20.7532 0.784977C22.8097 0.784977 24.477 2.45175 24.477 4.50846C24.477 6.56543 22.8097 8.2322 20.7532 8.2322H3.72388C1.66717 8.2322 0 6.56543 0 4.50846C0 2.45175 1.66717 0.784977 3.72375 0.784977H20.7532ZM19.0415 10.5423C21.0984 10.5423 22.7655 12.2094 22.7655 14.2661C22.7655 16.3228 21.0984 17.9898 19.0415 17.9898H9.34906C8.52238 17.9928 7.84575 18.6468 7.8141 19.4651V24.3185C7.8141 26.3749 6.14693 28.0419 4.09076 28.0419C2.03405 28.0419 0.366877 26.3749 0.366877 24.3185V16.0589C0.366877 13.0123 2.83659 10.5422 5.88331 10.5422L19.0415 10.5423ZM26.168 3.72375C26.168 1.66731 27.8352 0 29.8918 0C31.9486 0 33.6155 1.66731 33.6155 3.72375V24.3445C33.6155 26.4012 31.9487 28.0682 29.8918 28.0682C27.8353 28.0682 26.168 26.4011 26.168 24.3445V3.72375ZM71.9991 20.6824L73.4955 20.6787C73.8013 20.6784 74.0491 20.4305 74.0493 20.1247C74.0516 20.052 74.0383 19.9796 74.0102 19.9125L68.4459 10.5622L59.7532 25.6139C59.0817 26.7779 57.8759 27.4416 56.6245 27.475C56.5872 27.4802 56.5496 27.4829 56.5119 27.4829H42.3652C39.3183 27.4829 36.8485 25.0129 36.8485 21.9664V3.72401C36.8485 1.66744 38.5158 0.000134092 40.5722 0.000134092C42.6285 0.000134092 44.296 1.66744 44.296 3.72388V18.5001C44.2986 19.3271 44.9525 20.0042 45.7714 20.035H53.685C53.8885 19.9724 54.511 19.7608 54.7006 19.4662L64.6405 2.25946C65.3947 0.964393 66.7977 0.0925238 68.4036 0.0925238C70.0103 0.0925238 71.4136 0.965733 72.1645 2.26348L81.8503 18.5251C82.5975 19.4966 83.0018 20.6883 83 21.9139C83 24.9896 80.5067 27.4826 77.4315 27.4826H66.1414C64.2627 27.4826 62.7412 25.9602 62.7412 24.0821C62.7412 22.2046 64.2629 20.6824 66.1414 20.6824H71.9991Z" fill="#3D3D3D"/>
</svg>
