<svg width="83" height="42" viewBox="0 0 83 42" fill="none" xmlns="http://www.w3.org/2000/svg">
<path fill-rule="evenodd" clip-rule="evenodd" d="M44.7331 0.14026C45.0056 0.0964274 45.4598 1.10009 45.7308 1.01143C46.0177 0.912809 46.4187 0.0685339 46.8097 0.118842C46.977 0.140758 47.6415 1.47118 47.6415 1.47118C52.9941 1.73517 59.6018 8.22238 60.4531 8.87888C60.8625 9.19567 62.5959 10.9888 65.7638 12.378C67.0663 12.9498 68.3748 13.1954 69.5877 13.1052C71.2065 12.9887 73.0171 11.5671 74.1303 9.631C75.527 7.20926 76.1197 2.99037 80.1498 0.599007C80.7142 0.264286 81.9923 -0.483856 82.7315 0.459042C83.3262 1.22263 82.8341 2.48281 82.2159 3.08601C81.8239 3.46705 81.1146 3.85258 79.7643 4.48865C79.307 4.70632 78.5609 5.26468 78.27 5.49231C76.823 6.59361 75.775 9.09605 74.6095 11.8361C74.6095 11.8361 74.1119 13.1824 71.9217 14.6304C71.5517 14.8695 71.8844 15.0737 72.2878 15.5892C72.8034 16.2721 73.8384 19.053 73.7039 23.2848C73.6825 24.036 73.9864 24.3622 74.3286 24.9774C74.9203 26.0383 76.0923 25.8012 76.0624 27.1934C76.0226 29.0623 77.4038 29.4603 76.9605 30.323C76.6367 30.9516 76.7493 31.5617 76.7503 32.1754C76.7503 32.4847 76.9177 32.937 76.2771 32.9041C73.6506 32.7457 73.826 29.2232 73.8753 28.0108C73.9171 27.8504 73.7966 27.5635 73.7762 27.5496C73.6457 27.4554 72.0104 26.1833 71.9013 26.0752C69.9149 24.0554 68.6054 22.2388 67.8737 20.373C67.3886 19.1287 66.8895 17.9019 66.0367 17.1134C65.0814 16.2422 63.9118 15.7521 62.8843 15.7456C55.5782 15.7083 54.0744 12.503 52.087 10.9056C52.0267 10.8618 51.8454 10.7592 51.7403 10.7502C51.6288 10.7587 51.5426 10.8902 51.4699 10.9515C50.7033 11.7559 49.9293 12.0184 48.8902 12.0184C46.4217 12.0184 43.7658 9.85465 43.2981 10.3368C42.941 10.7129 43.2513 11.4869 42.5948 11.6164C41.6449 11.8067 40.6627 10.8693 40.7404 10.0753C40.8843 8.65324 42.3383 8.23683 43.6144 8.09138C44.6708 7.97981 45.5326 8.26871 45.7303 8.29112C46.3186 8.37381 46.4217 7.66153 46.3255 7.20129C46.2155 6.70319 45.7507 6.59909 45.2651 6.45464C44.6743 6.27781 44.0168 6.76894 43.576 6.61901C43.0575 6.43322 43.0167 6.16923 42.5903 5.78769C42.0434 5.3125 41.4128 5.18449 41.4148 4.51455C41.4148 3.89392 42.1684 3.84361 42.3831 3.27479C42.4927 2.98987 42.4618 2.69301 42.5589 2.52017C42.8139 2.05594 43.2916 2.07786 43.6766 1.70279C44.2001 1.18078 44.4617 0.181104 44.7331 0.14026ZM21.1661 38.8524C21.6722 38.8399 22.1011 38.4265 22.1006 37.9155L22.1051 21.2167H27.604V39.6234C27.604 40.5255 26.8818 41.2617 25.9793 41.2617H16.36C15.4624 41.2617 14.7317 40.526 14.7317 39.6234V21.2167H20.2352L20.2342 37.9155C20.2342 38.4265 20.6621 38.8399 21.1661 38.8524ZM31.2631 21.2167H47.9229C48.3987 21.2175 48.8546 21.4074 49.1904 21.7444C49.5261 22.0815 49.7141 22.5381 49.7131 23.0139V41.2617H44.2036V24.5236C44.1996 24.0106 43.7793 23.6041 43.2707 23.6041C42.7572 23.6041 42.3457 24.0006 42.3378 24.5092V41.2622H36.8527V24.5097C36.8408 24.0011 36.4283 23.6046 35.9143 23.6046C35.6689 23.6029 35.4328 23.6989 35.2582 23.8713C35.0835 24.0438 34.9847 24.2787 34.9834 24.5241V41.2617H29.4744V23.0139C29.4729 22.5383 29.6607 22.0816 29.9962 21.7445C30.3317 21.4074 30.7875 21.2175 31.2631 21.2167ZM11.0607 36.2249H5.50099V41.2617H0V21.2167H11.0956C12.0888 21.2167 12.8644 22.0242 12.8644 23.0218V34.4173C12.8658 34.8965 12.6764 35.3565 12.3379 35.6957C11.9995 36.0349 11.5399 36.2253 11.0607 36.2249ZM7.36736 24.5585C7.37081 24.3084 7.27459 24.0672 7.09993 23.8881C6.92527 23.7091 6.68653 23.6069 6.43641 23.6041H5.50099V33.7429H6.43641C6.92106 33.7429 7.37184 33.3574 7.36736 32.801V24.5585ZM58.9483 41.2617V36.2289H57.077V41.2617H51.58V23.0139C51.58 22.0177 52.3819 21.2167 53.3691 21.2167H62.6566C63.1326 21.2171 63.5888 21.4068 63.9247 21.7439C64.2606 22.0811 64.4486 22.538 64.4473 23.0139L64.4473 41.2617H58.9483ZM58.9483 33.7469V24.5166C58.9349 24.0066 58.5229 23.6141 58.0099 23.6141C57.5005 23.6132 57.0849 24.0217 57.077 24.5311V33.7469H58.9483Z" fill="#3D3D3D"/>
</svg>
