<svg width="201" height="56" viewBox="0 0 201 56" fill="none" xmlns="http://www.w3.org/2000/svg">
<path d="M193.093 56H7.90741C3.83519 56 0.5 52.8482 0.5 49V7C0.5 3.15175 3.83519 2.95956e-06 7.90741 2.95956e-06H193.093C197.165 2.95956e-06 200.5 3.15175 200.5 7V49C200.5 52.8482 197.165 56 193.093 56Z" fill="#0F0F0F"/>
<path d="M70.7481 14.3416C70.7481 15.5106 70.3778 16.4468 69.6481 17.1451C68.8092 17.9728 67.7166 18.3893 66.3778 18.3893C65.0981 18.3893 64.0055 17.9658 63.1092 17.1311C62.2111 16.2841 61.7629 15.2446 61.7629 14.0003C61.7629 12.7561 62.2111 11.7166 63.1092 10.8766C64.0055 10.0348 65.0981 9.61133 66.3778 9.61133C67.0148 9.61133 67.6222 9.73558 68.2018 9.96658C68.7796 10.1993 69.25 10.5143 69.5907 10.9028L68.8166 11.6413C68.2222 10.9781 67.4129 10.6508 66.3778 10.6508C65.4444 10.6508 64.6352 10.9588 63.9481 11.5801C63.2685 12.2031 62.9278 13.0098 62.9278 14.0003C62.9278 14.9908 63.2685 15.8046 63.9481 16.4276C64.6352 17.0418 65.4444 17.3568 66.3778 17.3568C67.3685 17.3568 68.2018 17.0418 68.8592 16.4206C69.2926 16.0093 69.5389 15.4423 69.6037 14.7178H66.3778V13.7063H70.6815C70.7333 13.9251 70.7481 14.1368 70.7481 14.3416Z" fill="white" stroke="white" stroke-width="0.16" stroke-miterlimit="10"/>
<path d="M77.576 10.8335H73.5334V13.4935H77.1778V14.505H73.5334V17.165H77.576V18.1957H72.3889V9.80273H77.576V10.8335Z" fill="white" stroke="white" stroke-width="0.16" stroke-miterlimit="10"/>
<path d="M82.3943 18.1957H81.2499V10.8335H78.7703V9.80273H84.8758V10.8335H82.3943V18.1957Z" fill="white" stroke="white" stroke-width="0.16" stroke-miterlimit="10"/>
<path d="M89.2944 18.1957V9.80273H90.437V18.1957H89.2944Z" fill="white" stroke="white" stroke-width="0.16" stroke-miterlimit="10"/>
<path d="M95.5017 18.1957H94.3666V10.8335H91.8777V9.80273H97.9906V10.8335H95.5017V18.1957Z" fill="white" stroke="white" stroke-width="0.16" stroke-miterlimit="10"/>
<path d="M109.55 17.1171C108.674 17.9658 107.589 18.3893 106.294 18.3893C104.993 18.3893 103.907 17.9658 103.031 17.1171C102.157 16.2701 101.722 15.2306 101.722 14.0003C101.722 12.7701 102.157 11.7306 103.031 10.8836C103.907 10.0348 104.993 9.61133 106.294 9.61133C107.581 9.61133 108.667 10.0348 109.543 10.8906C110.424 11.7446 110.859 12.7771 110.859 14.0003C110.859 15.2306 110.424 16.2701 109.55 17.1171ZM103.878 16.4136C104.537 17.0418 105.339 17.3568 106.294 17.3568C107.243 17.3568 108.052 17.0418 108.704 16.4136C109.361 15.7853 109.694 14.9786 109.694 14.0003C109.694 13.0221 109.361 12.2153 108.704 11.5871C108.052 10.9588 107.243 10.6438 106.294 10.6438C105.339 10.6438 104.537 10.9588 103.878 11.5871C103.22 12.2153 102.887 13.0221 102.887 14.0003C102.887 14.9786 103.22 15.7853 103.878 16.4136Z" fill="white" stroke="white" stroke-width="0.16" stroke-miterlimit="10"/>
<path d="M112.465 18.1957V9.80273H113.854L118.172 16.3302H118.222L118.172 14.7167V9.80273H119.315V18.1957H118.122L113.6 11.3462H113.55L113.6 12.9667V18.1957H112.465Z" fill="white" stroke="white" stroke-width="0.16" stroke-miterlimit="10"/>
<path d="M101.441 30.454C97.9611 30.454 95.1186 32.9565 95.1186 36.4092C95.1186 39.834 97.9611 42.3627 101.441 42.3627C104.928 42.3627 107.77 39.834 107.77 36.4092C107.77 32.9565 104.928 30.454 101.441 30.454ZM101.441 40.0177C99.5315 40.0177 97.8889 38.5285 97.8889 36.4092C97.8889 34.262 99.5315 32.799 101.441 32.799C103.35 32.799 105 34.262 105 36.4092C105 38.5285 103.35 40.0177 101.441 40.0177ZM87.6463 30.454C84.1593 30.454 81.3241 32.9565 81.3241 36.4092C81.3241 39.834 84.1593 42.3627 87.6463 42.3627C91.1315 42.3627 93.9686 39.834 93.9686 36.4092C93.9686 32.9565 91.1315 30.454 87.6463 30.454ZM87.6463 40.0177C85.7352 40.0177 84.0871 38.5285 84.0871 36.4092C84.0871 34.262 85.7352 32.799 87.6463 32.799C89.5556 32.799 91.1982 34.262 91.1982 36.4092C91.1982 38.5285 89.5556 40.0177 87.6463 40.0177ZM71.2315 32.2792V34.8097H77.626C77.4389 36.2237 76.9389 37.2632 76.1723 37.9877C75.2389 38.8627 73.7852 39.834 71.2315 39.834C67.2963 39.834 64.2149 36.8327 64.2149 33.114C64.2149 29.3952 67.2963 26.394 71.2315 26.394C73.3593 26.394 74.9075 27.1797 76.05 28.1982L77.9371 26.415C76.3389 24.973 74.213 23.8652 71.2315 23.8652C65.8352 23.8652 61.3 28.0145 61.3 33.114C61.3 38.2135 65.8352 42.3627 71.2315 42.3627C74.1482 42.3627 76.3389 41.4597 78.0612 39.7657C79.826 38.098 80.376 35.753 80.376 33.8595C80.376 33.2715 80.3241 32.7307 80.2315 32.2792H71.2315ZM138.354 34.241C137.833 32.9092 136.228 30.454 132.957 30.454C129.717 30.454 127.019 32.8672 127.019 36.4092C127.019 39.7447 129.689 42.3627 133.269 42.3627C136.163 42.3627 137.833 40.695 138.52 39.7237L136.372 38.371C135.656 39.3615 134.68 40.0177 133.269 40.0177C131.867 40.0177 130.861 39.4105 130.217 38.2135L138.644 34.9182L138.354 34.241ZM129.761 36.2237C129.689 33.9277 131.648 32.7517 133.052 32.7517C134.152 32.7517 135.085 33.2715 135.396 34.0152L129.761 36.2237ZM122.911 42.0005H125.682V24.5005H122.911V42.0005ZM118.374 31.7805H118.282C117.659 31.084 116.472 30.454 114.969 30.454C111.813 30.454 108.928 33.072 108.928 36.4285C108.928 39.7657 111.813 42.3627 114.969 42.3627C116.472 42.3627 117.659 41.7275 118.282 41.01H118.374V41.864C118.374 44.1407 117.087 45.364 115.011 45.364C113.319 45.364 112.269 44.209 111.835 43.2377L109.426 44.188C110.12 45.7665 111.959 47.709 115.011 47.709C118.259 47.709 121 45.903 121 41.5087V30.8162H118.374V31.7805ZM115.206 40.0177C113.296 40.0177 111.698 38.5075 111.698 36.4285C111.698 34.3302 113.296 32.799 115.206 32.799C117.087 32.799 118.57 34.3302 118.57 36.4285C118.57 38.5075 117.087 40.0177 115.206 40.0177ZM151.324 24.5005H144.698V42.0005H147.461V35.3697H151.324C154.393 35.3697 157.402 33.2715 157.402 29.9342C157.402 26.5987 154.385 24.5005 151.324 24.5005ZM151.396 32.9355H147.461V26.9347H151.396C153.459 26.9347 154.637 28.5535 154.637 29.9342C154.637 31.2887 153.459 32.9355 151.396 32.9355ZM168.476 30.4207C166.48 30.4207 164.404 31.2537 163.55 33.1L166.002 34.0712C166.53 33.1 167.5 32.785 168.526 32.785C169.959 32.785 171.413 33.5987 171.435 35.0355V35.2192C170.935 34.9462 169.865 34.542 168.548 34.542C165.907 34.542 163.217 35.9157 163.217 38.4795C163.217 40.8245 165.38 42.3347 167.811 42.3347C169.67 42.3347 170.696 41.542 171.341 40.6197H171.435V41.9725H174.104V35.2595C174.104 32.1567 171.652 30.4207 168.476 30.4207ZM168.143 40.0107C167.239 40.0107 165.98 39.5872 165.98 38.5285C165.98 37.174 167.55 36.6542 168.909 36.6542C170.126 36.6542 170.696 36.908 171.435 37.2422C171.219 38.8627 169.743 40.0107 168.143 40.0107ZM183.826 30.804L180.65 38.3902H180.556L177.272 30.804H174.293L179.226 41.4055L176.411 47.3047H179.298L186.9 30.804H183.826ZM158.92 42.0005H161.691V24.5005H158.92V42.0005Z" fill="white"/>
<path d="M15.9593 10.5539C15.5241 10.9844 15.2722 11.6546 15.2722 12.5226V43.4836C15.2722 44.3516 15.5241 45.0219 15.9593 45.4524L16.0667 45.5469L34.4259 28.2044V27.7949L16.0667 10.4524L15.9593 10.5539Z" fill="url(#paint0_linear_1722_5004)"/>
<path d="M40.5387 33.9883L34.4258 28.2045V27.795L40.5462 22.0113L40.6832 22.0865L47.9313 25.9838C49.9999 27.0898 49.9999 28.9098 47.9313 30.0228L40.6832 33.913L40.5387 33.9883Z" fill="url(#paint1_linear_1722_5004)"/>
<path d="M40.6833 33.9135L34.4259 28.0002L15.9592 45.453C16.6463 46.1355 17.7666 46.2177 19.0407 45.5352L40.6833 33.9135Z" fill="url(#paint2_linear_1722_5004)"/>
<path d="M40.6833 22.0868L19.0407 10.465C17.7666 9.78951 16.6463 9.87175 15.9592 10.5543L34.4259 28L40.6833 22.0868Z" fill="url(#paint3_linear_1722_5004)"/>
<defs>
<linearGradient id="paint0_linear_1722_5004" x1="32.7958" y1="43.806" x2="9.33802" y2="18.983" gradientUnits="userSpaceOnUse">
<stop stop-color="#00A0FF"/>
<stop offset="0.0066" stop-color="#00A1FF"/>
<stop offset="0.2601" stop-color="#00BEFF"/>
<stop offset="0.5122" stop-color="#00D2FF"/>
<stop offset="0.7604" stop-color="#00DFFF"/>
<stop offset="1" stop-color="#00E3FF"/>
</linearGradient>
<linearGradient id="paint1_linear_1722_5004" x1="50.6249" y1="27.9978" x2="14.7776" y2="27.9978" gradientUnits="userSpaceOnUse">
<stop stop-color="#FFE000"/>
<stop offset="0.4087" stop-color="#FFBD00"/>
<stop offset="0.7754" stop-color="#FFA500"/>
<stop offset="1" stop-color="#FF9C00"/>
</linearGradient>
<linearGradient id="paint2_linear_1722_5004" x1="37.2807" y1="24.7857" x2="5.47001" y2="-8.87645" gradientUnits="userSpaceOnUse">
<stop stop-color="#FF3A44"/>
<stop offset="1" stop-color="#C31162"/>
</linearGradient>
<linearGradient id="paint3_linear_1722_5004" x1="11.3108" y1="55.7533" x2="25.5157" y2="40.7218" gradientUnits="userSpaceOnUse">
<stop stop-color="#32A071"/>
<stop offset="0.0685" stop-color="#2DA771"/>
<stop offset="0.4762" stop-color="#15CF74"/>
<stop offset="0.8009" stop-color="#06E775"/>
<stop offset="1" stop-color="#00F076"/>
</linearGradient>
</defs>
</svg>
