<svg width="201" height="57" viewBox="0 0 201 57" fill="none" xmlns="http://www.w3.org/2000/svg">
<path d="M200.135 50.4997C200.135 53.601 197.56 56.1132 194.375 56.1132H5.90142C2.71835 56.1132 0.134644 53.601 0.134644 50.4997V5.734C0.134644 2.63413 2.71835 0.11319 5.90142 0.11319H194.374C197.56 0.11319 200.133 2.63413 200.133 5.734L200.135 50.4997Z" fill="#0F0F0F"/>
<path d="M44.1467 27.7989C44.1033 23.1098 48.1003 20.8285 48.2831 20.7223C46.0194 17.5171 42.5108 17.0792 41.2778 17.0443C38.331 16.7431 35.4726 18.7567 33.9714 18.7567C32.4404 18.7567 30.1287 17.0734 27.6374 17.1229C24.4314 17.1709 21.4321 18.9735 19.7872 21.7727C16.3924 27.4803 18.9243 35.8678 22.1767 40.4813C23.8037 42.7408 25.7048 45.2636 28.1932 45.1748C30.6276 45.0773 31.537 43.6675 34.4748 43.6675C37.3857 43.6675 38.2396 45.1748 40.7774 45.1181C43.3902 45.0773 45.0351 42.8484 46.6052 40.5686C48.4853 37.9789 49.2404 35.4284 49.2703 35.2975C49.2089 35.2771 44.1962 33.4192 44.1467 27.7989Z" fill="white"/>
<path d="M39.3527 14.0094C40.6621 12.4192 41.558 10.2557 41.3093 8.06027C39.4141 8.14175 37.0441 9.33331 35.6793 10.8886C34.4718 12.2591 33.3932 14.5055 33.6718 16.618C35.8007 16.7722 37.9864 15.5748 39.3527 14.0094Z" fill="white"/>
<path d="M79.3781 44.8504H75.9758L74.1122 39.1631H67.6343L65.859 44.8504H62.5466L68.9646 25.4885H72.9286L79.3781 44.8504ZM73.5504 36.7771L71.865 31.7213C71.6867 31.2048 71.3526 29.9885 70.8597 28.0739H70.7998C70.6036 28.8974 70.2875 30.1137 69.853 31.7213L68.1976 36.7771H73.5504Z" fill="white"/>
<path d="M95.8829 37.6981C95.8829 40.0725 95.2222 41.9493 93.9009 43.3271C92.7173 44.5536 91.2477 45.1661 89.4934 45.1661C87.5997 45.1661 86.2394 44.5056 85.411 43.1845H85.3511V50.5391H82.157V35.4852C82.157 33.9925 82.1166 32.4604 82.0387 30.8892H84.8477L85.026 33.1021H85.0859C86.1511 31.4347 87.7675 30.6025 89.9368 30.6025C91.6327 30.6025 93.0484 31.2529 94.181 32.555C95.3166 33.8586 95.8829 35.5725 95.8829 37.6981ZM92.629 37.8116C92.629 36.4527 92.3144 35.3324 91.6821 34.4508C90.9915 33.5313 90.0642 33.0715 88.9016 33.0715C88.1136 33.0715 87.3975 33.3276 86.7578 33.8324C86.1166 34.3416 85.6971 35.0065 85.5009 35.83C85.402 36.2141 85.3526 36.5284 85.3526 36.7757V39.1035C85.3526 40.1191 85.6732 40.976 86.3144 41.6758C86.9556 42.3756 87.7885 42.7248 88.8132 42.7248C90.0162 42.7248 90.9526 42.2738 91.6222 41.3746C92.2934 40.474 92.629 39.2868 92.629 37.8116Z" fill="white"/>
<path d="M112.418 37.6981C112.418 40.0725 111.757 41.9493 110.434 43.3271C109.252 44.5536 107.783 45.1661 106.028 45.1661C104.135 45.1661 102.774 44.5056 101.947 43.1845H101.887V50.5391H98.6934V35.4852C98.6934 33.9925 98.653 32.4604 98.5751 30.8892H101.384L101.562 33.1021H101.622C102.686 31.4347 104.302 30.6025 106.473 30.6025C108.168 30.6025 109.583 31.2529 110.719 32.555C111.85 33.8586 112.418 35.5725 112.418 37.6981ZM109.164 37.8116C109.164 36.4527 108.848 35.3324 108.216 34.4508C107.525 33.5313 106.601 33.0715 105.437 33.0715C104.647 33.0715 103.932 33.3276 103.291 33.8324C102.65 34.3416 102.232 35.0065 102.036 35.83C101.938 36.2141 101.887 36.5284 101.887 36.7757V39.1035C101.887 40.1191 102.208 40.976 102.846 41.6758C103.487 42.3742 104.32 42.7248 105.348 42.7248C106.551 42.7248 107.487 42.2738 108.157 41.3746C108.828 40.474 109.164 39.2868 109.164 37.8116Z" fill="white"/>
<path d="M130.905 39.4207C130.905 41.0676 130.316 42.4076 129.134 43.442C127.835 44.5725 126.027 45.137 123.703 45.137C121.558 45.137 119.838 44.7354 118.536 43.9309L119.276 41.3455C120.678 42.169 122.217 42.5822 123.893 42.5822C125.096 42.5822 126.033 42.3174 126.705 41.7907C127.375 41.264 127.709 40.557 127.709 39.6753C127.709 38.8896 127.434 38.2277 126.881 37.6908C126.331 37.1539 125.413 36.6549 124.13 36.1937C120.64 34.9294 118.896 33.0773 118.896 30.6418C118.896 29.0501 119.507 27.7451 120.731 26.7296C121.95 25.7126 123.577 25.2048 125.612 25.2048C127.426 25.2048 128.933 25.5118 130.136 26.1243L129.338 28.653C128.214 28.0594 126.944 27.7626 125.522 27.7626C124.398 27.7626 123.52 28.0317 122.891 28.5671C122.359 29.0458 122.093 29.6292 122.093 30.3203C122.093 31.0855 122.397 31.7184 123.008 32.216C123.54 32.6758 124.506 33.1733 125.908 33.7102C127.624 34.3809 128.884 35.1651 129.694 36.0642C130.502 36.9604 130.905 38.0822 130.905 39.4207Z" fill="white"/>
<path d="M141.465 33.2169H137.944V39.9953C137.944 41.7194 138.565 42.5807 139.808 42.5807C140.379 42.5807 140.852 42.5327 141.227 42.4367L141.315 44.7921C140.686 45.0206 139.858 45.1355 138.831 45.1355C137.57 45.1355 136.584 44.7616 135.873 44.0152C135.164 43.2674 134.807 42.0133 134.807 40.2514V33.214H132.71V30.8862H134.807V28.3299L137.944 27.4104V30.8862H141.465V33.2169Z" fill="white"/>
<path d="M157.35 37.7548C157.35 39.9008 156.717 41.6627 155.456 43.0405C154.133 44.459 152.377 45.1661 150.189 45.1661C148.079 45.1661 146.4 44.4866 145.147 43.1278C143.895 41.7689 143.269 40.0536 143.269 37.9861C143.269 35.8227 143.913 34.0506 145.206 32.6728C146.496 31.2936 148.236 30.604 150.425 30.604C152.535 30.604 154.232 31.2834 155.513 32.6437C156.738 33.9633 157.35 35.667 157.35 37.7548ZM154.036 37.8552C154.036 36.5676 153.753 35.4633 153.179 34.5424C152.509 33.4279 151.552 32.8722 150.311 32.8722C149.027 32.8722 148.052 33.4294 147.383 34.5424C146.809 35.4648 146.526 36.5865 146.526 37.9134C146.526 39.201 146.809 40.3053 147.383 41.2248C148.073 42.3392 149.038 42.895 150.283 42.895C151.502 42.895 152.46 42.3276 153.15 41.1957C153.739 40.2572 154.036 39.1413 154.036 37.8552Z" fill="white"/>
<path d="M167.732 33.6171C167.416 33.5604 167.079 33.5313 166.725 33.5313C165.601 33.5313 164.732 33.943 164.121 34.7679C163.589 35.4954 163.323 36.4149 163.323 37.525V44.8504H160.13L160.16 35.2859C160.16 33.6767 160.12 32.2117 160.04 30.8906H162.822L162.939 33.5618H163.028C163.365 32.6438 163.896 31.9047 164.625 31.3504C165.336 30.8513 166.105 30.6025 166.933 30.6025C167.228 30.6025 167.495 30.6229 167.732 30.6593V33.6171Z" fill="white"/>
<path d="M182.016 37.2092C182.016 37.765 181.979 38.2335 181.899 38.6161H172.317C172.355 39.9954 172.818 41.0502 173.708 41.7776C174.515 42.428 175.559 42.7539 176.842 42.7539C178.26 42.7539 179.555 42.5342 180.719 42.0933L181.219 44.2466C179.859 44.8227 178.253 45.1093 176.4 45.1093C174.171 45.1093 172.421 44.4721 171.147 43.1991C169.877 41.926 169.24 40.2165 169.24 38.072C169.24 35.9667 169.832 34.2136 171.017 32.8154C172.257 31.3227 173.934 30.5763 176.043 30.5763C178.115 30.5763 179.684 31.3227 180.749 32.8154C181.592 34.0012 182.016 35.4677 182.016 37.2092ZM178.971 36.4047C178.992 35.4852 178.783 34.6908 178.35 34.0201C177.798 33.1573 176.948 32.7267 175.805 32.7267C174.761 32.7267 173.911 33.1471 173.263 33.991C172.731 34.6617 172.415 35.4662 172.317 36.4032H178.971V36.4047Z" fill="white"/>
<path d="M72.4942 13.5773C72.4942 15.2897 71.9653 16.5788 70.9092 17.4444C69.9309 18.2432 68.5406 18.6433 66.7399 18.6433C65.847 18.6433 65.0829 18.6054 64.4432 18.5298V9.1733C65.2777 9.04236 66.1766 8.97543 67.1474 8.97543C68.8627 8.97543 70.1556 9.3377 71.0275 10.0622C72.0043 10.8814 72.4942 12.0526 72.4942 13.5773ZM70.8387 13.6195C70.8387 12.5094 70.5361 11.6583 69.9309 11.0647C69.3256 10.4725 68.4417 10.1757 67.2777 10.1757C66.7833 10.1757 66.3623 10.2077 66.0133 10.2747V17.3877C66.2065 17.4168 66.5601 17.4299 67.074 17.4299C68.2755 17.4299 69.2028 17.1054 69.856 16.4565C70.5092 15.8077 70.8387 14.862 70.8387 13.6195Z" fill="white"/>
<path d="M81.2717 15.0729C81.2717 16.1277 80.9616 16.9919 80.3414 17.6699C79.6912 18.3668 78.8298 18.7145 77.7541 18.7145C76.7174 18.7145 75.8919 18.3814 75.2762 17.7121C74.662 17.0443 74.3549 16.2019 74.3549 15.1864C74.3549 14.1243 74.671 13.2528 75.3062 12.5763C75.9414 11.8998 76.7953 11.5608 77.871 11.5608C78.9077 11.5608 79.7406 11.894 80.3713 12.5618C80.9706 13.2106 81.2717 14.0487 81.2717 15.0729ZM79.6433 15.1224C79.6433 14.4895 79.5024 13.9468 79.2223 13.4944C78.8927 12.9473 78.4238 12.6738 77.814 12.6738C77.1833 12.6738 76.7039 12.9473 76.3743 13.4944C76.0927 13.9468 75.9534 14.4982 75.9534 15.15C75.9534 15.7829 76.0942 16.3256 76.3743 16.7781C76.7144 17.3251 77.1878 17.5986 77.7991 17.5986C78.3983 17.5986 78.8687 17.3207 79.2073 16.7635C79.4979 16.3023 79.6433 15.7553 79.6433 15.1224Z" fill="white"/>
<path d="M93.041 11.7005L90.8313 18.5589H89.3931L88.4777 15.5807C88.2455 14.8372 88.0568 14.0981 87.91 13.3649H87.8815C87.7452 14.1185 87.5564 14.8562 87.3137 15.5807L86.3414 18.5589H84.8867L82.8088 11.7005H84.4223L85.2208 14.9609C85.4141 15.732 85.5729 16.4667 85.7002 17.1622H85.7287C85.8455 16.5889 86.0388 15.8586 86.3115 14.9755L87.3137 11.7019H88.5931L89.5534 14.9056C89.7856 15.6869 89.9744 16.4391 90.1197 17.1636H90.1631C90.2695 16.458 90.4298 15.7058 90.6425 14.9056L91.4995 11.7019H93.041V11.7005Z" fill="white"/>
<path d="M101.18 18.5589H99.6103V14.6306C99.6103 13.4202 99.1369 12.8149 98.1871 12.8149C97.7212 12.8149 97.3452 12.9808 97.053 13.3139C96.7639 13.6471 96.6171 14.0399 96.6171 14.4895V18.5574H95.047V13.6602C95.047 13.0579 95.0276 12.4046 94.9901 11.6976H96.3699L96.4433 12.7698H96.4867C96.6695 12.4366 96.9422 12.1617 97.3002 11.942C97.7257 11.6859 98.2021 11.5564 98.7234 11.5564C99.3826 11.5564 99.9309 11.763 100.367 12.1777C100.909 12.6854 101.18 13.4434 101.18 14.4502V18.5589Z" fill="white"/>
<path d="M105.51 18.5589H103.941V8.5535H105.51V18.5589Z" fill="white"/>
<path d="M114.753 15.0729C114.753 16.1277 114.443 16.9919 113.823 17.6699C113.173 18.3668 112.31 18.7145 111.236 18.7145C110.197 18.7145 109.372 18.3814 108.758 17.7121C108.144 17.0443 107.836 16.2019 107.836 15.1864C107.836 14.1243 108.153 13.2528 108.788 12.5763C109.423 11.8998 110.277 11.5608 111.351 11.5608C112.389 11.5608 113.221 11.894 113.853 12.5618C114.452 13.2106 114.753 14.0487 114.753 15.0729ZM113.123 15.1224C113.123 14.4895 112.982 13.9468 112.702 13.4944C112.374 12.9473 111.904 12.6738 111.296 12.6738C110.663 12.6738 110.184 12.9473 109.856 13.4944C109.574 13.9468 109.435 14.4982 109.435 15.15C109.435 15.7829 109.576 16.3256 109.856 16.7781C110.196 17.3251 110.669 17.5986 111.281 17.5986C111.88 17.5986 112.349 17.3207 112.687 16.7635C112.979 16.3023 113.123 15.7553 113.123 15.1224Z" fill="white"/>
<path d="M122.352 18.5589H120.942L120.825 17.7689H120.782C120.299 18.3988 119.612 18.7145 118.719 18.7145C118.052 18.7145 117.513 18.5065 117.107 18.0933C116.738 17.7179 116.554 17.2509 116.554 16.6966C116.554 15.8586 116.914 15.2199 117.637 14.7776C118.359 14.3353 119.375 14.1185 120.683 14.1287V14.0007C120.683 13.0972 120.195 12.6461 119.216 12.6461C118.52 12.6461 117.905 12.8164 117.375 13.1539L117.056 12.1529C117.712 11.7587 118.523 11.5608 119.478 11.5608C121.324 11.5608 122.25 12.5065 122.25 14.3978V16.9236C122.25 17.6088 122.284 18.1544 122.352 18.5589ZM120.722 16.2019V15.1442C118.99 15.1151 118.124 15.5763 118.124 16.5264C118.124 16.8843 118.223 17.152 118.425 17.3309C118.627 17.5099 118.885 17.5986 119.192 17.5986C119.537 17.5986 119.859 17.4924 120.153 17.2815C120.448 17.069 120.629 16.7999 120.696 16.4696C120.713 16.3954 120.722 16.3052 120.722 16.2019Z" fill="white"/>
<path d="M131.273 18.5589H129.88L129.807 17.4575H129.763C129.318 18.2955 128.56 18.7145 127.495 18.7145C126.644 18.7145 125.935 18.3901 125.374 17.7412C124.812 17.0923 124.532 16.2499 124.532 15.2155C124.532 14.1054 124.836 13.2063 125.447 12.5196C126.039 11.8794 126.764 11.5593 127.627 11.5593C128.575 11.5593 129.239 11.8692 129.616 12.4905H129.646V8.5535H131.218V16.7111C131.218 17.3789 131.236 17.9944 131.273 18.5589ZM129.646 15.6665V14.523C129.646 14.3251 129.631 14.1651 129.603 14.0428C129.514 13.6762 129.324 13.3678 129.035 13.119C128.743 12.8702 128.391 12.7451 127.985 12.7451C127.399 12.7451 126.941 12.9706 126.604 13.4231C126.269 13.8755 126.1 14.4531 126.1 15.1588C126.1 15.8367 126.26 16.3867 126.583 16.8101C126.923 17.2611 127.381 17.4866 127.955 17.4866C128.47 17.4866 128.882 17.2989 129.195 16.9221C129.498 16.5744 129.646 16.1554 129.646 15.6665Z" fill="white"/>
<path d="M144.701 15.0729C144.701 16.1277 144.391 16.9919 143.771 17.6699C143.12 18.3668 142.26 18.7145 141.183 18.7145C140.148 18.7145 139.323 18.3814 138.705 17.7121C138.091 17.0443 137.784 16.2019 137.784 15.1864C137.784 14.1243 138.1 13.2528 138.735 12.5763C139.371 11.8998 140.225 11.5608 141.302 11.5608C142.337 11.5608 143.171 11.894 143.801 12.5618C144.4 13.2106 144.701 14.0487 144.701 15.0729ZM143.074 15.1224C143.074 14.4895 142.933 13.9468 142.653 13.4944C142.322 12.9473 141.854 12.6738 141.243 12.6738C140.614 12.6738 140.135 12.9473 139.804 13.4944C139.522 13.9468 139.383 14.4982 139.383 15.15C139.383 15.7829 139.523 16.3256 139.804 16.7781C140.144 17.3251 140.617 17.5986 141.228 17.5986C141.828 17.5986 142.299 17.3207 142.638 16.7635C142.927 16.3023 143.074 15.7553 143.074 15.1224Z" fill="white"/>
<path d="M153.143 18.5589H151.574V14.6306C151.574 13.4202 151.101 12.8149 150.15 12.8149C149.684 12.8149 149.308 12.9808 149.017 13.3139C148.726 13.6471 148.581 14.0399 148.581 14.4895V18.5574H147.01V13.6602C147.01 13.0579 146.992 12.4046 146.954 11.6976H148.332L148.406 12.7698H148.449C148.634 12.4366 148.906 12.1617 149.263 11.942C149.69 11.6859 150.165 11.5564 150.687 11.5564C151.345 11.5564 151.893 11.763 152.329 12.1777C152.873 12.6854 153.143 13.4434 153.143 14.4502V18.5589Z" fill="white"/>
<path d="M163.709 12.8426H161.98V16.1743C161.98 17.021 162.287 17.4444 162.896 17.4444C163.177 17.4444 163.411 17.4211 163.595 17.3731L163.636 18.5298C163.326 18.6432 162.918 18.7 162.416 18.7C161.796 18.7 161.314 18.5167 160.965 18.15C160.614 17.7834 160.44 17.1665 160.44 16.3009V12.8426H159.408V11.7005H160.44V10.4434L161.979 9.9924V11.699H163.708V12.8426H163.709Z" fill="white"/>
<path d="M172.021 18.5589H170.449V14.6597C170.449 13.4303 169.976 12.8149 169.028 12.8149C168.299 12.8149 167.802 13.1714 167.529 13.8843C167.483 14.0341 167.456 14.2174 167.456 14.4328V18.5574H165.887V8.5535H167.456V12.6869H167.486C167.98 11.9347 168.689 11.5593 169.607 11.5593C170.258 11.5593 170.795 11.7659 171.222 12.1806C171.754 12.6971 172.021 13.4652 172.021 14.4808V18.5589Z" fill="white"/>
<path d="M180.595 14.8052C180.595 15.0787 180.574 15.3086 180.536 15.4963H175.828C175.849 16.1743 176.073 16.6908 176.509 17.0487C176.908 17.3688 177.422 17.5288 178.051 17.5288C178.747 17.5288 179.383 17.4211 179.955 17.2044L180.201 18.2635C179.531 18.5458 178.743 18.6869 177.831 18.6869C176.737 18.6869 175.875 18.3741 175.252 17.7485C174.626 17.1229 174.316 16.2834 174.316 15.2301C174.316 14.1956 174.605 13.3343 175.188 12.6476C175.796 11.9143 176.619 11.5477 177.657 11.5477C178.672 11.5477 179.444 11.9143 179.965 12.6476C180.386 13.2296 180.595 13.9497 180.595 14.8052ZM179.096 14.4109C179.108 13.9585 179.005 13.5686 178.792 13.2397C178.52 12.8164 178.105 12.604 177.543 12.604C177.031 12.604 176.613 12.8106 176.293 13.2252C176.033 13.5555 175.878 13.9497 175.828 14.4109H179.096Z" fill="white"/>
</svg>
