<svg width="555" height="500" viewBox="0 0 555 500" fill="none" xmlns="http://www.w3.org/2000/svg">
<path fill-rule="evenodd" clip-rule="evenodd" d="M60 30H495V470H60V30Z" fill="#ECECEC"/>
<g clip-path="url(#clip0_1312_11704)">
<path d="M115.5 220.5H554.5V429.5H115.5V220.5Z" fill="#F5F5F5" stroke="#9FB2C2"/>
<path fill-rule="evenodd" clip-rule="evenodd" d="M460 390C495.899 390 525 360.899 525 325C525 289.101 495.899 260 460 260C424.101 260 395 289.101 395 325C395 360.899 424.101 390 460 390Z" stroke="#E1E9F0" stroke-width="2"/>
<path d="M412.555 369.43C424.415 382.09 441.284 390 460 390V390C477.828 390 493.98 382.822 505.723 371.199C517.626 359.418 525 343.07 525 325C525 289.101 495.898 260 460 260" stroke="#9FB2C2" stroke-width="4"/>
<path d="M436.707 320.725L435.937 321.652C436.381 321.454 436.859 321.302 437.372 321.197C437.886 321.092 438.44 321.04 439.035 321.04C439.98 321.04 440.901 321.197 441.8 321.512C442.698 321.827 443.497 322.3 444.197 322.93C444.897 323.56 445.457 324.353 445.877 325.31C446.309 326.255 446.525 327.369 446.525 328.652C446.525 329.831 446.303 330.945 445.86 331.995C445.428 333.045 444.81 333.961 444.005 334.742C443.211 335.524 442.255 336.142 441.135 336.597C440.026 337.052 438.79 337.28 437.425 337.28C436.036 337.28 434.794 337.064 433.697 336.632C432.601 336.189 431.667 335.571 430.897 334.777C430.127 333.984 429.538 333.039 429.13 331.942C428.721 330.834 428.517 329.615 428.517 328.285C428.517 327.06 428.756 325.817 429.235 324.557C429.725 323.297 430.466 322.002 431.457 320.672L437.355 312.727C437.588 312.424 437.932 312.162 438.387 311.94C438.842 311.718 439.361 311.607 439.945 311.607H444.232L436.707 320.725ZM437.337 333.395C437.967 333.395 438.551 333.284 439.087 333.062C439.624 332.841 440.085 332.532 440.47 332.135C440.855 331.738 441.158 331.277 441.38 330.752C441.601 330.216 441.712 329.632 441.712 329.002C441.712 328.314 441.607 327.696 441.397 327.147C441.187 326.599 440.89 326.138 440.505 325.765C440.12 325.38 439.659 325.088 439.122 324.89C438.586 324.692 437.991 324.592 437.337 324.592C436.719 324.592 436.153 324.703 435.64 324.925C435.126 325.135 434.683 325.438 434.31 325.835C433.948 326.22 433.662 326.681 433.452 327.217C433.254 327.754 433.155 328.343 433.155 328.985C433.155 329.65 433.242 330.257 433.417 330.805C433.592 331.342 433.855 331.802 434.205 332.187C434.555 332.572 434.986 332.87 435.5 333.08C436.025 333.29 436.637 333.395 437.337 333.395Z" fill="#9FB2C2"/>
<path d="M449.257 318.765C449.444 317.528 449.794 316.443 450.307 315.51C450.821 314.577 451.462 313.801 452.232 313.182C453.002 312.564 453.877 312.103 454.857 311.8C455.849 311.485 456.917 311.327 458.06 311.327C459.273 311.327 460.358 311.502 461.315 311.852C462.283 312.191 463.1 312.657 463.765 313.252C464.43 313.847 464.937 314.542 465.287 315.335C465.649 316.128 465.83 316.98 465.83 317.89C465.83 318.695 465.742 319.407 465.567 320.025C465.404 320.632 465.153 321.162 464.815 321.617C464.488 322.072 464.08 322.457 463.59 322.772C463.112 323.087 462.557 323.35 461.927 323.56C464.844 324.517 466.302 326.459 466.302 329.387C466.302 330.682 466.063 331.826 465.585 332.817C465.107 333.797 464.465 334.62 463.66 335.285C462.855 335.95 461.916 336.452 460.842 336.79C459.781 337.117 458.667 337.28 457.5 337.28C456.263 337.28 455.172 337.14 454.227 336.86C453.282 336.58 452.448 336.16 451.725 335.6C451.013 335.04 450.401 334.34 449.887 333.5C449.374 332.648 448.925 331.657 448.54 330.525L450.675 329.65C451.235 329.417 451.754 329.352 452.232 329.457C452.722 329.562 453.072 329.819 453.282 330.227C453.516 330.671 453.761 331.079 454.017 331.452C454.286 331.826 454.583 332.152 454.91 332.432C455.237 332.701 455.604 332.911 456.012 333.062C456.432 333.214 456.911 333.29 457.447 333.29C458.124 333.29 458.713 333.179 459.215 332.957C459.717 332.736 460.137 332.45 460.475 332.1C460.813 331.738 461.064 331.336 461.227 330.892C461.402 330.437 461.49 329.988 461.49 329.545C461.49 328.962 461.437 328.437 461.332 327.97C461.227 327.492 460.982 327.089 460.597 326.762C460.224 326.424 459.664 326.167 458.917 325.992C458.182 325.806 457.179 325.712 455.907 325.712V322.317C456.969 322.317 457.838 322.23 458.515 322.055C459.192 321.88 459.722 321.635 460.107 321.32C460.492 321.005 460.755 320.626 460.895 320.182C461.047 319.739 461.122 319.255 461.122 318.73C461.122 317.622 460.831 316.776 460.247 316.192C459.676 315.609 458.859 315.317 457.797 315.317C457.331 315.317 456.899 315.387 456.502 315.527C456.117 315.656 455.767 315.837 455.452 316.07C455.149 316.303 454.887 316.577 454.665 316.892C454.443 317.207 454.28 317.552 454.175 317.925C453.953 318.508 453.667 318.899 453.317 319.097C452.967 319.284 452.46 319.325 451.795 319.22L449.257 318.765Z" fill="#9FB2C2"/>
<path d="M481.04 317.75C481.04 318.695 480.877 319.552 480.55 320.322C480.224 321.092 479.78 321.757 479.22 322.317C478.672 322.866 478.036 323.292 477.313 323.595C476.589 323.887 475.837 324.032 475.055 324.032C474.192 324.032 473.399 323.887 472.675 323.595C471.952 323.292 471.322 322.866 470.785 322.317C470.26 321.757 469.846 321.092 469.543 320.322C469.251 319.552 469.105 318.695 469.105 317.75C469.105 316.77 469.251 315.889 469.543 315.107C469.846 314.314 470.26 313.643 470.785 313.095C471.322 312.535 471.952 312.103 472.675 311.8C473.399 311.497 474.192 311.345 475.055 311.345C475.919 311.345 476.718 311.497 477.453 311.8C478.188 312.103 478.818 312.535 479.343 313.095C479.879 313.643 480.294 314.314 480.585 315.107C480.889 315.889 481.04 316.77 481.04 317.75ZM477.33 317.75C477.33 317.12 477.272 316.595 477.155 316.175C477.039 315.743 476.875 315.399 476.665 315.142C476.467 314.886 476.228 314.705 475.948 314.6C475.668 314.483 475.37 314.425 475.055 314.425C474.74 314.425 474.443 314.483 474.163 314.6C473.894 314.705 473.661 314.886 473.463 315.142C473.276 315.399 473.124 315.743 473.008 316.175C472.903 316.595 472.85 317.12 472.85 317.75C472.85 318.368 472.903 318.882 473.008 319.29C473.124 319.698 473.276 320.031 473.463 320.287C473.661 320.532 473.894 320.707 474.163 320.812C474.443 320.917 474.74 320.97 475.055 320.97C475.37 320.97 475.668 320.917 475.948 320.812C476.228 320.707 476.467 320.532 476.665 320.287C476.875 320.031 477.039 319.698 477.155 319.29C477.272 318.882 477.33 318.368 477.33 317.75ZM489.265 312.342C489.429 312.156 489.621 311.987 489.843 311.835C490.076 311.683 490.397 311.607 490.805 311.607H494.323L475.335 336.3C475.172 336.498 474.974 336.667 474.74 336.807C474.507 336.936 474.221 337 473.883 337H470.295L489.265 312.342ZM495.495 331.032C495.495 331.977 495.332 332.835 495.005 333.605C494.679 334.375 494.235 335.04 493.675 335.6C493.127 336.148 492.491 336.574 491.768 336.877C491.044 337.169 490.292 337.315 489.51 337.315C488.647 337.315 487.854 337.169 487.13 336.877C486.407 336.574 485.777 336.148 485.24 335.6C484.715 335.04 484.301 334.375 483.998 333.605C483.706 332.835 483.56 331.977 483.56 331.032C483.56 330.052 483.706 329.172 483.998 328.39C484.301 327.597 484.715 326.926 485.24 326.377C485.777 325.817 486.407 325.392 487.13 325.1C487.854 324.797 488.647 324.645 489.51 324.645C490.374 324.645 491.173 324.797 491.908 325.1C492.643 325.392 493.273 325.817 493.798 326.377C494.334 326.926 494.749 327.597 495.04 328.39C495.344 329.172 495.495 330.052 495.495 331.032ZM491.785 331.032C491.785 330.402 491.727 329.877 491.61 329.457C491.494 329.026 491.33 328.682 491.12 328.425C490.922 328.168 490.683 327.987 490.403 327.882C490.123 327.766 489.825 327.707 489.51 327.707C489.195 327.707 488.898 327.766 488.618 327.882C488.349 327.987 488.116 328.168 487.918 328.425C487.731 328.682 487.579 329.026 487.463 329.457C487.358 329.877 487.305 330.402 487.305 331.032C487.305 331.651 487.358 332.164 487.463 332.572C487.579 332.981 487.731 333.313 487.918 333.57C488.116 333.815 488.349 333.99 488.618 334.095C488.898 334.2 489.195 334.252 489.51 334.252C489.825 334.252 490.123 334.2 490.403 334.095C490.683 333.99 490.922 333.815 491.12 333.57C491.33 333.313 491.494 332.981 491.61 332.572C491.727 332.164 491.785 331.651 491.785 331.032Z" fill="#9FB2C2"/>
<rect x="145" y="255" width="110" height="25" fill="#E1E9F0"/>
<rect x="145" y="375" width="65" height="20" fill="#E1E9F0"/>
<rect x="145" y="300" width="200" height="15" fill="#E1E9F0"/>
<rect x="145" y="325" width="150" height="15" fill="#E1E9F0"/>
</g>
<g clip-path="url(#clip1_1312_11704)">
<path d="M0.5 70.5H439.5V279.5H0.5V70.5Z" fill="white" stroke="#9FB2C2"/>
<path fill-rule="evenodd" clip-rule="evenodd" d="M345 240C380.899 240 410 210.899 410 175C410 139.101 380.899 110 345 110C309.101 110 280 139.101 280 175C280 210.899 309.101 240 345 240Z" stroke="#E1E9F0" stroke-width="2"/>
<path d="M329.355 182.572C329.88 182.572 330.288 182.718 330.58 183.01C330.883 183.302 331.035 183.687 331.035 184.165V187H313.43V185.425C313.43 185.122 313.494 184.795 313.622 184.445C313.751 184.083 313.966 183.757 314.27 183.465L321.795 175.922C322.436 175.281 323.002 174.668 323.492 174.085C323.982 173.49 324.391 172.912 324.717 172.352C325.044 171.781 325.289 171.203 325.452 170.62C325.616 170.037 325.697 169.424 325.697 168.782C325.697 167.651 325.406 166.793 324.822 166.21C324.239 165.615 323.416 165.317 322.355 165.317C321.888 165.317 321.456 165.387 321.06 165.527C320.675 165.656 320.325 165.837 320.01 166.07C319.706 166.303 319.444 166.577 319.222 166.892C319.001 167.207 318.837 167.552 318.732 167.925C318.522 168.508 318.236 168.899 317.875 169.097C317.525 169.284 317.023 169.325 316.37 169.22L313.815 168.765C314.001 167.528 314.351 166.443 314.865 165.51C315.378 164.577 316.02 163.801 316.79 163.182C317.56 162.564 318.441 162.103 319.432 161.8C320.424 161.485 321.491 161.327 322.635 161.327C323.836 161.327 324.927 161.508 325.907 161.87C326.899 162.22 327.745 162.716 328.445 163.357C329.145 163.987 329.687 164.752 330.072 165.65C330.457 166.548 330.65 167.54 330.65 168.625C330.65 169.558 330.516 170.422 330.247 171.215C329.979 172.008 329.611 172.767 329.145 173.49C328.69 174.202 328.159 174.896 327.552 175.572C326.946 176.249 326.304 176.932 325.627 177.62L320.237 183.132C320.832 182.957 321.421 182.823 322.005 182.73C322.588 182.625 323.136 182.572 323.65 182.572H329.355Z" fill="#9FB2C2"/>
<path d="M339.927 170.707C340.452 170.602 340.954 170.527 341.432 170.48C341.922 170.433 342.395 170.41 342.85 170.41C344.18 170.41 345.352 170.614 346.367 171.022C347.394 171.419 348.252 171.967 348.94 172.667C349.64 173.367 350.165 174.19 350.515 175.135C350.865 176.08 351.04 177.095 351.04 178.18C351.04 179.533 350.801 180.77 350.322 181.89C349.844 182.998 349.179 183.955 348.327 184.76C347.487 185.553 346.478 186.172 345.3 186.615C344.133 187.058 342.856 187.28 341.467 187.28C340.662 187.28 339.892 187.192 339.157 187.017C338.422 186.854 337.734 186.632 337.092 186.352C336.462 186.061 335.873 185.728 335.325 185.355C334.777 184.982 334.287 184.591 333.855 184.182L335.342 182.152C335.657 181.721 336.066 181.505 336.567 181.505C336.882 181.505 337.192 181.598 337.495 181.785C337.798 181.972 338.142 182.182 338.527 182.415C338.912 182.637 339.362 182.841 339.875 183.027C340.388 183.214 341.012 183.307 341.747 183.307C342.506 183.307 343.165 183.185 343.725 182.94C344.285 182.683 344.746 182.339 345.107 181.907C345.481 181.464 345.755 180.945 345.93 180.35C346.117 179.743 346.21 179.096 346.21 178.407C346.21 177.089 345.831 176.074 345.072 175.362C344.326 174.639 343.235 174.277 341.8 174.277C340.622 174.277 339.437 174.499 338.247 174.942L335.255 174.102L337.39 161.607H350.13V163.637C350.13 163.976 350.077 164.285 349.972 164.565C349.879 164.833 349.716 165.072 349.482 165.282C349.261 165.481 348.969 165.638 348.607 165.755C348.257 165.86 347.826 165.912 347.312 165.912H340.75L339.927 170.707Z" fill="#9FB2C2"/>
<path d="M366.04 167.75C366.04 168.695 365.877 169.552 365.55 170.322C365.223 171.092 364.78 171.757 364.22 172.317C363.672 172.866 363.036 173.292 362.313 173.595C361.589 173.887 360.837 174.032 360.055 174.032C359.192 174.032 358.398 173.887 357.675 173.595C356.952 173.292 356.322 172.866 355.785 172.317C355.26 171.757 354.846 171.092 354.543 170.322C354.251 169.552 354.105 168.695 354.105 167.75C354.105 166.77 354.251 165.889 354.543 165.107C354.846 164.314 355.26 163.643 355.785 163.095C356.322 162.535 356.952 162.103 357.675 161.8C358.398 161.497 359.192 161.345 360.055 161.345C360.918 161.345 361.718 161.497 362.453 161.8C363.188 162.103 363.818 162.535 364.343 163.095C364.879 163.643 365.293 164.314 365.585 165.107C365.888 165.889 366.04 166.77 366.04 167.75ZM362.33 167.75C362.33 167.12 362.272 166.595 362.155 166.175C362.038 165.743 361.875 165.399 361.665 165.142C361.467 164.886 361.228 164.705 360.948 164.6C360.668 164.483 360.37 164.425 360.055 164.425C359.74 164.425 359.443 164.483 359.163 164.6C358.894 164.705 358.661 164.886 358.463 165.142C358.276 165.399 358.124 165.743 358.008 166.175C357.903 166.595 357.85 167.12 357.85 167.75C357.85 168.368 357.903 168.882 358.008 169.29C358.124 169.698 358.276 170.031 358.463 170.287C358.661 170.532 358.894 170.707 359.163 170.812C359.443 170.917 359.74 170.97 360.055 170.97C360.37 170.97 360.668 170.917 360.948 170.812C361.228 170.707 361.467 170.532 361.665 170.287C361.875 170.031 362.038 169.698 362.155 169.29C362.272 168.882 362.33 168.368 362.33 167.75ZM374.265 162.342C374.428 162.156 374.621 161.987 374.843 161.835C375.076 161.683 375.397 161.607 375.805 161.607H379.323L360.335 186.3C360.172 186.498 359.973 186.667 359.74 186.807C359.507 186.936 359.221 187 358.883 187H355.295L374.265 162.342ZM380.495 181.032C380.495 181.977 380.332 182.835 380.005 183.605C379.678 184.375 379.235 185.04 378.675 185.6C378.127 186.148 377.491 186.574 376.768 186.877C376.044 187.169 375.292 187.315 374.51 187.315C373.647 187.315 372.853 187.169 372.13 186.877C371.407 186.574 370.777 186.148 370.24 185.6C369.715 185.04 369.301 184.375 368.998 183.605C368.706 182.835 368.56 181.977 368.56 181.032C368.56 180.052 368.706 179.172 368.998 178.39C369.301 177.597 369.715 176.926 370.24 176.377C370.777 175.817 371.407 175.392 372.13 175.1C372.853 174.797 373.647 174.645 374.51 174.645C375.373 174.645 376.173 174.797 376.908 175.1C377.643 175.392 378.273 175.817 378.798 176.377C379.334 176.926 379.748 177.597 380.04 178.39C380.343 179.172 380.495 180.052 380.495 181.032ZM376.785 181.032C376.785 180.402 376.727 179.877 376.61 179.457C376.493 179.026 376.33 178.682 376.12 178.425C375.922 178.168 375.683 177.987 375.403 177.882C375.123 177.766 374.825 177.707 374.51 177.707C374.195 177.707 373.898 177.766 373.618 177.882C373.349 177.987 373.116 178.168 372.918 178.425C372.731 178.682 372.579 179.026 372.463 179.457C372.358 179.877 372.305 180.402 372.305 181.032C372.305 181.651 372.358 182.164 372.463 182.572C372.579 182.981 372.731 183.313 372.918 183.57C373.116 183.815 373.349 183.99 373.618 184.095C373.898 184.2 374.195 184.252 374.51 184.252C374.825 184.252 375.123 184.2 375.403 184.095C375.683 183.99 375.922 183.815 376.12 183.57C376.33 183.313 376.493 182.981 376.61 182.572C376.727 182.164 376.785 181.651 376.785 181.032Z" fill="#9FB2C2"/>
<path d="M410 175C410 139.101 380.899 110 345 110" stroke="#9FB2C2" stroke-width="4"/>
<rect x="30" y="105" width="110" height="25" fill="#E1E9F0"/>
<rect x="30" y="225" width="65" height="20" fill="#E1E9F0"/>
<rect x="30" y="150" width="200" height="15" fill="#E1E9F0"/>
<rect x="30" y="175" width="150" height="15" fill="#E1E9F0"/>
</g>
<defs>
<clipPath id="clip0_1312_11704">
<rect width="440" height="210" fill="white" transform="translate(115 220)"/>
</clipPath>
<clipPath id="clip1_1312_11704">
<rect width="440" height="210" fill="white" transform="translate(0 70)"/>
</clipPath>
</defs>
</svg>
