<svg width="322" height="400" viewBox="0 0 322 400" fill="none" xmlns="http://www.w3.org/2000/svg">
<path opacity="0.0416667" d="M-166.494 233.606C-139.585 231.382 -113.681 230.353 -86.83 235.954C-61.5309 241.231 -37.423 252.978 -14.2672 263.982C16.219 278.469 44.586 295.684 72.0536 315.195C137.532 361.705 202.077 409.38 268.291 454.893C307 481.501 346.111 507.143 388.711 527.311C410.612 537.679 428.742 545.346 451.658 553.431C481.164 563.84 510.31 568.459 540.494 575.662" stroke="#54D699" stroke-width="0.5" stroke-linecap="round"/>
<path opacity="0.0833333" d="M-169.776 221.093C-142.618 218.814 -116.473 217.761 -89.3728 223.498C-63.8389 228.903 -39.507 240.936 -16.1362 252.208C14.6331 267.048 43.2636 284.682 70.9863 304.668C137.073 352.311 202.217 401.147 269.046 447.768C308.115 475.023 347.589 501.289 390.585 521.948C412.689 532.569 430.988 540.423 454.116 548.705C483.896 559.367 513.313 564.098 543.777 571.477" stroke="#54D699" stroke-width="0.5" stroke-linecap="round"/>
<path opacity="0.125" d="M-173.06 208.578C-145.652 206.246 -119.266 205.167 -91.9162 211.041C-66.1473 216.575 -41.5916 228.893 -18.0057 240.433C13.0467 255.626 41.9406 273.679 69.9184 294.14C136.613 342.916 202.356 392.912 269.801 440.642C309.229 468.544 349.066 495.435 392.458 516.585C414.765 527.458 433.232 535.499 456.574 543.977C486.628 554.894 516.315 559.737 547.059 567.291" stroke="#54D699" stroke-width="0.5" stroke-linecap="round"/>
<path opacity="0.166667" d="M-176.342 196.064C-148.684 193.677 -122.058 192.574 -94.4591 198.584C-68.4552 204.246 -43.6756 216.851 -19.8747 228.659C11.4608 244.204 40.6182 262.676 68.8511 283.612C136.154 333.52 202.497 384.678 270.556 433.515C310.344 462.066 350.544 489.581 394.331 511.222C416.842 522.348 435.477 530.575 459.032 539.25C489.36 550.42 519.318 555.376 550.342 563.106" stroke="#54D699" stroke-width="0.5" stroke-linecap="round"/>
<path opacity="0.208333" d="M-179.625 183.55C-151.717 181.109 -124.851 179.98 -97.002 186.126C-70.7631 191.917 -45.7596 204.808 -21.7437 216.884C9.87496 232.782 39.2958 251.674 67.7838 273.085C135.694 324.125 202.637 376.443 271.311 426.389C311.458 455.587 352.021 483.727 396.204 505.859C418.919 517.237 437.723 525.651 461.49 534.523C492.092 545.946 522.321 551.014 553.625 558.92" stroke="#54D699" stroke-width="0.5" stroke-linecap="round"/>
<path opacity="0.25" d="M-182.908 171.036C-154.751 168.541 -127.643 167.387 -99.5453 173.669C-73.0716 179.589 -47.8442 192.766 -23.6132 205.109C8.28862 221.36 37.9729 240.671 66.716 262.557C135.235 314.73 202.776 368.209 272.066 419.263C312.572 449.109 353.499 477.873 398.077 500.496C420.995 512.126 439.967 520.727 463.947 529.796C494.824 541.472 525.323 546.653 556.908 554.734" stroke="#54D699" stroke-width="0.5" stroke-linecap="round"/>
<path opacity="0.291667" d="M-186.191 158.521C-157.783 155.972 -130.436 154.793 -102.088 161.212C-75.3795 167.26 -49.9282 180.723 -25.4822 193.335C6.70274 209.938 36.6504 229.668 65.6486 252.029C134.775 305.335 202.917 359.974 272.821 412.136C313.687 442.63 354.977 472.018 399.951 495.133C423.072 507.016 442.213 515.803 466.405 525.069C497.556 536.999 528.326 542.292 560.191 550.548" stroke="#54D699" stroke-width="0.5" stroke-linecap="round"/>
<path opacity="0.333333" d="M-189.474 146.007C-160.816 143.404 -133.228 142.2 -104.631 148.755C-77.6874 154.932 -52.0123 168.681 -27.3512 181.56C5.11687 198.517 35.328 218.665 64.5813 241.502C134.316 295.939 203.057 351.739 273.576 405.01C314.802 436.152 356.454 466.164 401.824 489.77C425.149 501.905 444.458 510.879 468.863 520.341C500.288 532.525 531.328 537.931 563.474 546.362" stroke="#54D699" stroke-width="0.5" stroke-linecap="round"/>
<path opacity="0.375" d="M-192.757 133.493C-163.85 130.836 -136.021 129.607 -107.174 136.298C-79.9958 142.603 -54.0968 156.638 -29.2206 169.785C3.5305 187.095 34.0051 207.663 63.5134 230.974C133.856 286.544 203.197 343.505 274.33 397.883C315.916 429.673 357.932 460.31 403.697 484.406C427.225 496.794 446.703 505.955 471.321 515.614C503.019 528.051 534.331 533.569 566.757 542.176" stroke="#54D699" stroke-width="0.5" stroke-linecap="round"/>
<path opacity="0.416667" d="M-196.04 120.979C-166.882 118.267 -138.813 117.013 -109.717 123.841C-82.3038 130.274 -56.1808 144.595 -31.0896 158.011C1.94465 175.673 32.6827 196.66 62.4461 220.446C133.397 277.149 203.337 335.27 275.086 390.757C317.03 423.195 359.41 454.456 405.571 479.043C429.302 491.683 448.948 501.031 473.779 510.887C505.751 523.578 537.333 529.208 570.04 537.99" stroke="#54D699" stroke-width="0.5" stroke-linecap="round"/>
<path opacity="0.458333" d="M-199.322 108.465C-169.915 105.699 -141.605 104.42 -112.26 111.384C-84.6117 117.946 -58.2649 132.553 -32.9586 146.236C0.358771 164.251 31.3603 185.657 61.3788 209.918C132.938 267.753 203.477 327.036 275.841 383.631C318.145 416.716 360.887 448.602 407.444 473.68C431.379 486.573 451.193 496.107 476.237 506.16C508.483 519.104 540.336 524.847 573.323 533.804" stroke="#54D699" stroke-width="0.5" stroke-linecap="round"/>
<path opacity="0.5" d="M-202.605 95.9503C-172.948 93.1303 -144.398 91.8263 -114.804 98.927C-86.9201 105.617 -60.3494 120.51 -34.8281 134.461C-1.22759 152.829 30.0373 174.654 60.3109 199.391C132.478 258.358 203.617 318.801 276.595 376.504C319.259 410.238 362.365 442.747 409.317 468.317C433.455 481.462 453.438 491.183 478.695 501.433C511.215 514.63 543.338 520.486 576.605 529.618" stroke="#54D699" stroke-width="0.5" stroke-linecap="round"/>
<path opacity="0.541667" d="M-205.888 83.4361C-175.981 80.5619 -147.19 79.2328 -117.346 86.4699C-89.228 93.2887 -62.4334 108.468 -36.6971 122.687C-2.81345 141.407 28.7149 163.651 59.2436 188.863C132.019 248.963 203.757 310.567 277.351 369.378C320.374 403.759 363.843 436.893 411.191 462.954C435.532 476.351 455.683 486.259 481.153 496.706C513.947 510.156 546.341 516.124 579.889 525.433" stroke="#54D699" stroke-width="0.5" stroke-linecap="round"/>
<path opacity="0.583333" d="M-209.171 70.9218C-179.014 67.9935 -149.982 66.6394 -119.889 74.0129C-91.536 80.9601 -64.5175 96.4252 -38.5661 110.912C-4.39932 129.985 27.3925 152.649 58.1763 178.335C131.56 239.568 203.897 302.332 278.106 362.252C321.488 397.281 365.32 431.039 413.064 457.591C437.609 471.241 457.928 481.335 483.611 491.978C516.679 505.683 549.344 511.763 583.172 521.247" stroke="#54D699" stroke-width="0.5" stroke-linecap="round"/>
<path opacity="0.625" d="M-212.454 58.4076C-182.047 55.4252 -152.775 54.046 -122.433 61.5558C-93.8444 68.6315 -66.602 84.3826 -40.4356 99.1374C-5.98569 118.563 26.0696 141.646 57.1085 167.807C131.1 230.172 204.037 294.098 278.86 355.125C322.602 390.802 366.798 425.185 414.937 452.228C439.685 466.13 460.173 476.411 486.068 487.251C519.411 501.209 552.346 507.402 586.454 517.061" stroke="#54D699" stroke-width="0.5" stroke-linecap="round"/>
<path opacity="0.666667" d="M-215.737 45.8934C-185.08 42.8568 -155.567 41.4525 -124.976 49.0987C-96.1523 56.3029 -68.686 72.34 -42.3046 87.3628C-7.57156 107.141 24.7471 130.643 56.0411 157.28C130.641 220.777 204.177 285.863 279.615 347.999C323.717 384.324 368.276 419.331 416.811 446.864C441.762 461.019 462.418 471.487 488.526 482.524C522.143 496.735 555.349 503.04 589.737 512.875" stroke="#54D699" stroke-width="0.5" stroke-linecap="round"/>
<path opacity="0.708333" d="M-219.02 33.3791C-188.113 30.2884 -158.36 28.8591 -127.519 36.6416C-98.4602 43.9743 -70.7701 60.2974 -44.1736 75.5881C-9.15742 95.7193 23.4247 119.64 54.9738 146.752C130.182 211.382 204.317 277.629 280.37 340.873C324.832 377.845 369.753 413.477 418.684 441.501C443.839 455.909 464.663 466.563 490.984 477.797C524.875 492.261 558.352 498.679 593.02 508.689" stroke="#54D699" stroke-width="0.5" stroke-linecap="round"/>
<path opacity="0.75" d="M-222.303 20.8649C-191.146 17.72 -161.152 16.2656 -130.062 24.1846C-100.769 31.6457 -72.8546 48.2548 -46.043 63.8134C-10.7438 84.2974 22.1018 108.638 53.906 136.224C129.722 201.986 204.457 269.394 281.125 333.746C325.946 371.367 371.231 407.622 420.557 436.138C445.915 450.798 466.908 461.639 493.442 473.07C527.606 487.788 561.354 494.318 596.303 504.503" stroke="#54D699" stroke-width="0.5" stroke-linecap="round"/>
<path opacity="0.791667" d="M-225.585 8.35064C-194.179 5.15159 -163.945 3.67221 -132.605 11.7275C-103.077 19.3171 -74.9386 36.2123 -47.912 52.0388C-12.3297 72.8755 20.7794 97.6349 52.8386 125.697C129.263 192.591 204.597 261.16 281.88 326.62C327.06 364.888 372.709 401.768 422.43 430.775C447.992 445.687 469.153 456.715 495.9 468.343C530.338 483.314 564.357 489.957 599.586 500.317" stroke="#54D699" stroke-width="0.5" stroke-linecap="round"/>
<path opacity="0.833333" d="M-228.869 -4.1636C-197.212 -7.4168 -166.737 -8.92123 -135.148 -0.729568C-105.385 6.98856 -77.0232 24.1697 -49.7815 40.2641C-13.916 61.4536 19.4565 86.6321 51.7708 115.169C128.803 183.196 204.737 252.925 282.635 319.493C328.175 358.41 374.186 395.914 424.303 425.412C450.068 440.576 471.398 451.791 498.357 463.615C533.07 478.84 567.359 485.595 602.868 496.131" stroke="#54D699" stroke-width="0.5" stroke-linecap="round"/>
<path opacity="0.875" d="M-232.151 -16.6778C-200.245 -19.9852 -169.53 -21.5147 -137.691 -13.1866C-107.693 -5.34003 -79.1072 12.1271 -51.6505 28.4895C-15.5019 50.0317 18.134 75.6293 50.7035 104.641C128.344 173.801 204.877 244.691 283.39 312.367C329.289 351.931 375.664 390.06 426.177 420.049C452.145 435.466 473.643 446.867 500.815 458.888C535.802 474.367 570.362 481.234 606.151 491.945" stroke="#54D699" stroke-width="0.5" stroke-linecap="round"/>
<path opacity="0.916667" d="M-235.434 -29.1921C-203.278 -32.5536 -172.322 -34.1081 -140.234 -25.6437C-110.001 -17.6686 -81.1913 0.0845506 -53.5195 16.7148C-17.0877 38.6098 16.8116 64.6266 49.6361 94.1134C127.884 164.405 205.017 236.456 284.145 305.241C330.404 345.453 377.142 384.206 428.05 414.686C454.222 430.355 475.889 441.943 503.273 454.161C538.534 469.893 573.364 476.873 609.434 487.76" stroke="#54D699" stroke-width="0.5" stroke-linecap="round"/>
<path opacity="0.958333" d="M-238.717 -41.7063C-206.311 -45.122 -175.115 -46.7015 -142.777 -38.1008C-112.309 -29.9972 -83.2758 -11.958 -55.389 4.94018C-18.6741 27.1878 15.4887 53.6238 48.5683 83.5857C127.425 155.01 205.157 228.222 284.9 298.114C331.518 338.974 378.619 378.351 429.923 409.322C456.298 425.244 478.133 437.019 505.731 449.434C541.266 465.419 576.367 472.511 612.717 483.574" stroke="#54D699" stroke-width="0.5" stroke-linecap="round"/>
<path d="M-242 -54.2205C-209.344 -57.6904 -177.907 -59.295 -145.32 -50.5578C-114.617 -42.3258 -85.3598 -24.0006 -57.258 -6.83447C-20.26 15.7659 14.1662 42.621 47.5009 73.058C126.965 145.615 205.297 219.987 285.655 290.988C332.632 332.495 380.097 372.497 431.797 403.959C458.375 420.134 480.378 432.095 508.189 444.707C543.998 460.945 579.369 468.15 616 479.388" stroke="#54D699" stroke-width="0.5" stroke-linecap="round"/>
</svg>
