<svg width="200" height="56" viewBox="0 0 200 56" fill="none" xmlns="http://www.w3.org/2000/svg">
<path d="M192.593 56H7.40741C3.33519 56 0 52.8482 0 49V7C0 3.15175 3.33519 2.95956e-06 7.40741 2.95956e-06H192.593C196.665 2.95956e-06 200 3.15175 200 7V49C200 52.8482 196.665 56 192.593 56Z" fill="#0F0F0F"/>
<path d="M70.2481 14.3413C70.2481 15.5103 69.8778 16.4465 69.1481 17.1448C68.3092 17.9725 67.2166 18.389 65.8778 18.389C64.5981 18.389 63.5055 17.9655 62.6092 17.1308C61.7111 16.2838 61.2629 15.2443 61.2629 14C61.2629 12.7558 61.7111 11.7163 62.6092 10.8763C63.5055 10.0345 64.5981 9.61102 65.8778 9.61102C66.5148 9.61102 67.1222 9.73527 67.7018 9.96627C68.2796 10.199 68.75 10.514 69.0907 10.9025L68.3166 11.641C67.7222 10.9778 66.9129 10.6505 65.8778 10.6505C64.9444 10.6505 64.1352 10.9585 63.4481 11.5798C62.7685 12.2028 62.4278 13.0095 62.4278 14C62.4278 14.9905 62.7685 15.8043 63.4481 16.4273C64.1352 17.0415 64.9444 17.3565 65.8778 17.3565C66.8685 17.3565 67.7018 17.0415 68.3592 16.4203C68.7926 16.009 69.0389 15.442 69.1037 14.7175H65.8778V13.706H70.1815C70.2333 13.9248 70.2481 14.1365 70.2481 14.3413Z" fill="white" stroke="white" stroke-width="0.16" stroke-miterlimit="10"/>
<path d="M77.076 10.8342H73.0334V13.4942H76.6778V14.5057H73.0334V17.1657H77.076V18.1965H71.8889V9.8035H77.076V10.8342Z" fill="white" stroke="white" stroke-width="0.16" stroke-miterlimit="10"/>
<path d="M81.8943 18.1965H80.7499V10.8342H78.2703V9.8035H84.3758V10.8342H81.8943V18.1965Z" fill="white" stroke="white" stroke-width="0.16" stroke-miterlimit="10"/>
<path d="M88.7944 18.1965V9.8035H89.937V18.1965H88.7944Z" fill="white" stroke="white" stroke-width="0.16" stroke-miterlimit="10"/>
<path d="M95.0019 18.1965H93.8667V10.8342H91.3778V9.8035H97.4908V10.8342H95.0019V18.1965Z" fill="white" stroke="white" stroke-width="0.16" stroke-miterlimit="10"/>
<path d="M109.05 17.1168C108.174 17.9655 107.089 18.389 105.794 18.389C104.493 18.389 103.407 17.9655 102.531 17.1168C101.657 16.2698 101.222 15.2303 101.222 14C101.222 12.7698 101.657 11.7303 102.531 10.8833C103.407 10.0345 104.493 9.61102 105.794 9.61102C107.081 9.61102 108.167 10.0345 109.043 10.8903C109.924 11.7443 110.359 12.7768 110.359 14C110.359 15.2303 109.924 16.2698 109.05 17.1168ZM103.378 16.4133C104.037 17.0415 104.839 17.3565 105.794 17.3565C106.743 17.3565 107.552 17.0415 108.204 16.4133C108.861 15.785 109.194 14.9783 109.194 14C109.194 13.0218 108.861 12.215 108.204 11.5868C107.552 10.9585 106.743 10.6435 105.794 10.6435C104.839 10.6435 104.037 10.9585 103.378 11.5868C102.72 12.215 102.387 13.0218 102.387 14C102.387 14.9783 102.72 15.785 103.378 16.4133Z" fill="white" stroke="white" stroke-width="0.16" stroke-miterlimit="10"/>
<path d="M111.965 18.1965V9.8035H113.354L117.672 16.331H117.722L117.672 14.7175V9.8035H118.815V18.1965H117.622L113.1 11.347H113.05L113.1 12.9675V18.1965H111.965Z" fill="white" stroke="white" stroke-width="0.16" stroke-miterlimit="10"/>
<path d="M100.941 30.4535C97.4611 30.4535 94.6186 32.956 94.6186 36.4088C94.6186 39.8335 97.4611 42.3623 100.941 42.3623C104.428 42.3623 107.27 39.8335 107.27 36.4088C107.27 32.956 104.428 30.4535 100.941 30.4535ZM100.941 40.0173C99.0315 40.0173 97.3889 38.528 97.3889 36.4088C97.3889 34.2615 99.0315 32.7985 100.941 32.7985C102.85 32.7985 104.5 34.2615 104.5 36.4088C104.5 38.528 102.85 40.0173 100.941 40.0173ZM87.1463 30.4535C83.6593 30.4535 80.8241 32.956 80.8241 36.4088C80.8241 39.8335 83.6593 42.3623 87.1463 42.3623C90.6315 42.3623 93.4686 39.8335 93.4686 36.4088C93.4686 32.956 90.6315 30.4535 87.1463 30.4535ZM87.1463 40.0173C85.2352 40.0173 83.5871 38.528 83.5871 36.4088C83.5871 34.2615 85.2352 32.7985 87.1463 32.7985C89.0556 32.7985 90.6982 34.2615 90.6982 36.4088C90.6982 38.528 89.0556 40.0173 87.1463 40.0173ZM70.7315 32.2788V34.8093H77.126C76.9389 36.2233 76.4389 37.2628 75.6723 37.9873C74.7389 38.8623 73.2852 39.8335 70.7315 39.8335C66.7963 39.8335 63.7149 36.8323 63.7149 33.1135C63.7149 29.3948 66.7963 26.3935 70.7315 26.3935C72.8593 26.3935 74.4075 27.1793 75.55 28.1978L77.4371 26.4145C75.8389 24.9725 73.713 23.8648 70.7315 23.8648C65.3352 23.8648 60.8 28.014 60.8 33.1135C60.8 38.213 65.3352 42.3623 70.7315 42.3623C73.6482 42.3623 75.8389 41.4593 77.5612 39.7653C79.326 38.0975 79.876 35.7525 79.876 33.859C79.876 33.271 79.8241 32.7303 79.7315 32.2788H70.7315ZM137.854 34.2405C137.333 32.9088 135.728 30.4535 132.457 30.4535C129.217 30.4535 126.519 32.8668 126.519 36.4088C126.519 39.7443 129.189 42.3623 132.769 42.3623C135.663 42.3623 137.333 40.6945 138.02 39.7233L135.872 38.3705C135.156 39.361 134.18 40.0173 132.769 40.0173C131.367 40.0173 130.361 39.41 129.717 38.213L138.144 34.9178L137.854 34.2405ZM129.261 36.2233C129.189 33.9273 131.148 32.7513 132.552 32.7513C133.652 32.7513 134.585 33.271 134.896 34.0148L129.261 36.2233ZM122.411 42H125.182V24.5H122.411V42ZM117.874 31.78H117.782C117.159 31.0835 115.972 30.4535 114.469 30.4535C111.313 30.4535 108.428 33.0715 108.428 36.428C108.428 39.7653 111.313 42.3623 114.469 42.3623C115.972 42.3623 117.159 41.727 117.782 41.0095H117.874V41.8635C117.874 44.1403 116.587 45.3635 114.511 45.3635C112.819 45.3635 111.769 44.2085 111.335 43.2373L108.926 44.1875C109.62 45.766 111.459 47.7085 114.511 47.7085C117.759 47.7085 120.5 45.9025 120.5 41.5083V30.8158H117.874V31.78ZM114.706 40.0173C112.796 40.0173 111.198 38.507 111.198 36.428C111.198 34.3298 112.796 32.7985 114.706 32.7985C116.587 32.7985 118.07 34.3298 118.07 36.428C118.07 38.507 116.587 40.0173 114.706 40.0173ZM150.824 24.5H144.198V42H146.961V35.3693H150.824C153.893 35.3693 156.902 33.271 156.902 29.9338C156.902 26.5983 153.885 24.5 150.824 24.5ZM150.896 32.935H146.961V26.9343H150.896C152.959 26.9343 154.137 28.553 154.137 29.9338C154.137 31.2883 152.959 32.935 150.896 32.935ZM167.976 30.4203C165.98 30.4203 163.904 31.2533 163.05 33.0995L165.502 34.0708C166.03 33.0995 167 32.7845 168.026 32.7845C169.459 32.7845 170.913 33.5983 170.935 35.035V35.2188C170.435 34.9458 169.365 34.5415 168.048 34.5415C165.407 34.5415 162.717 35.9153 162.717 38.479C162.717 40.824 164.88 42.3343 167.311 42.3343C169.17 42.3343 170.196 41.5415 170.841 40.6193H170.935V41.972H173.604V35.259C173.604 32.1563 171.152 30.4203 167.976 30.4203ZM167.643 40.0103C166.739 40.0103 165.48 39.5868 165.48 38.528C165.48 37.1735 167.05 36.6538 168.409 36.6538C169.626 36.6538 170.196 36.9075 170.935 37.2418C170.719 38.8623 169.243 40.0103 167.643 40.0103ZM183.326 30.8035L180.15 38.3898H180.056L176.772 30.8035H173.793L178.726 41.405L175.911 47.3043H178.798L186.4 30.8035H183.326ZM158.42 42H161.191V24.5H158.42V42Z" fill="white"/>
<path d="M15.4593 10.5542C15.0241 10.9847 14.7722 11.655 14.7722 12.523V43.484C14.7722 44.352 15.0241 45.0222 15.4593 45.4527L15.5667 45.5472L33.9259 28.2047V27.7952L15.5667 10.4527L15.4593 10.5542Z" fill="url(#paint0_linear_34_955)"/>
<path d="M40.0389 33.9885L33.9259 28.2047V27.7952L40.0463 22.0115L40.1833 22.0867L47.4315 25.984C49.5 27.09 49.5 28.91 47.4315 30.023L40.1833 33.9132L40.0389 33.9885Z" fill="url(#paint1_linear_34_955)"/>
<path d="M40.1833 33.9132L33.9259 28L15.4592 45.4527C16.1463 46.1352 17.2666 46.2175 18.5407 45.535L40.1833 33.9132Z" fill="url(#paint2_linear_34_955)"/>
<path d="M40.1833 22.0868L18.5407 10.465C17.2666 9.78951 16.1463 9.87175 15.4592 10.5543L33.9259 28L40.1833 22.0868Z" fill="url(#paint3_linear_34_955)"/>
<defs>
<linearGradient id="paint0_linear_34_955" x1="32.2958" y1="43.8064" x2="8.83802" y2="18.9833" gradientUnits="userSpaceOnUse">
<stop stop-color="#00A0FF"/>
<stop offset="0.0066" stop-color="#00A1FF"/>
<stop offset="0.2601" stop-color="#00BEFF"/>
<stop offset="0.5122" stop-color="#00D2FF"/>
<stop offset="0.7604" stop-color="#00DFFF"/>
<stop offset="1" stop-color="#00E3FF"/>
</linearGradient>
<linearGradient id="paint1_linear_34_955" x1="50.125" y1="27.998" x2="14.2778" y2="27.998" gradientUnits="userSpaceOnUse">
<stop stop-color="#FFE000"/>
<stop offset="0.4087" stop-color="#FFBD00"/>
<stop offset="0.7754" stop-color="#FFA500"/>
<stop offset="1" stop-color="#FF9C00"/>
</linearGradient>
<linearGradient id="paint2_linear_34_955" x1="36.7807" y1="24.7855" x2="4.97001" y2="-8.87667" gradientUnits="userSpaceOnUse">
<stop stop-color="#FF3A44"/>
<stop offset="1" stop-color="#C31162"/>
</linearGradient>
<linearGradient id="paint3_linear_34_955" x1="10.8108" y1="55.7533" x2="25.0157" y2="40.7218" gradientUnits="userSpaceOnUse">
<stop stop-color="#32A071"/>
<stop offset="0.0685" stop-color="#2DA771"/>
<stop offset="0.4762" stop-color="#15CF74"/>
<stop offset="0.8009" stop-color="#06E775"/>
<stop offset="1" stop-color="#00F076"/>
</linearGradient>
</defs>
</svg>
