<svg width="350" height="350" viewBox="0 0 350 350" fill="none" xmlns="http://www.w3.org/2000/svg">
<g clip-path="url(#clip0_1297_881)">
<path d="M14 175.353L128.75 77L243.5 175.353" stroke="#61D16A" stroke-width="2" stroke-linecap="round" stroke-linejoin="round"/>
<path d="M30.3965 161.303V306.5H227.104V77H177.927V119.152" stroke="#61D16A" stroke-width="2" stroke-linecap="round" stroke-linejoin="round"/>
<path d="M95.9697 306.5V250.03C95.9697 235.941 107.381 224.53 121.47 224.53H136.043C150.132 224.53 161.543 235.941 161.543 250.03V306.5" stroke="#61D16A" stroke-width="2" stroke-linecap="round" stroke-linejoin="round"/>
<path d="M200.731 279.178L210.933 259.067H186.453L196.655 238.961" stroke="#61D16A" stroke-width="2" stroke-linecap="round" stroke-linejoin="round"/>
<path d="M267.937 232.807C265.589 232.298 262.692 233.227 260.466 235.454C258.239 237.68 257.311 240.577 257.808 242.936" stroke="#61D16A" stroke-width="2" stroke-linecap="round" stroke-linejoin="round"/>
<path d="M269.203 221.757C263.86 221.354 257.877 223.569 253.227 228.219C248.571 232.875 246.359 238.865 246.764 244.21" stroke="#61D16A" stroke-width="2" stroke-linecap="round" stroke-linejoin="round"/>
<path d="M251 293.737V275.736C251 270.027 255.624 265.403 261.333 265.403H323.333C329.043 265.403 333.667 270.027 333.667 275.736V293.737V301.167C333.667 304.019 331.352 306.333 328.5 306.333H318.167C315.315 306.333 313 304.019 313 301.167V296H271.667V301.167C271.667 304.019 269.352 306.333 266.5 306.333H256.167C253.315 306.333 251 304.019 251 301.167V293.737V293.737Z" stroke="#61D16A" stroke-width="2" stroke-linecap="round" stroke-linejoin="round"/>
<path d="M261.333 265.403L265.601 247.144C266.696 242.473 270.866 239.167 275.666 239.167H309.451C314.343 239.167 318.565 242.597 319.567 247.382L323.333 265.403" stroke="#61D16A" stroke-width="2" stroke-linecap="round" stroke-linejoin="round"/>
<path d="M317.857 280.5H307.523" stroke="#61D16A" stroke-width="2" stroke-linecap="round" stroke-linejoin="round"/>
<path d="M276.833 280.5H266.5" stroke="#61D16A" stroke-width="2" stroke-linecap="round" stroke-linejoin="round"/>
<path d="M323.333 265L333.667 259.834" stroke="#61D16A" stroke-width="2" stroke-linecap="round" stroke-linejoin="round"/>
<path d="M261.333 265L251 259.834" stroke="#61D16A" stroke-width="2" stroke-linecap="round" stroke-linejoin="round"/>
</g>
<defs>
<clipPath id="clip0_1297_881">
<rect width="350" height="350" fill="white"/>
</clipPath>
</defs>
</svg>
