<svg width="32" height="32" viewBox="0 0 32 32" fill="none" xmlns="http://www.w3.org/2000/svg">
<path d="M4 8.00002C4 7.26365 4.59696 6.66669 5.33333 6.66669H26.6667C27.4031 6.66669 28 7.26365 28 8.00002C28 8.73639 27.4031 9.33335 26.6667 9.33335H5.33333C4.59696 9.33335 4 8.73639 4 8.00002Z" fill="white"/>
<path d="M4 16C4 15.2636 4.59696 14.6667 5.33333 14.6667H26.6667C27.4031 14.6667 28 15.2636 28 16C28 16.7364 27.4031 17.3334 26.6667 17.3334H5.33333C4.59696 17.3334 4 16.7364 4 16Z" fill="white"/>
<path d="M5.33333 22.6667C4.59696 22.6667 4 23.2636 4 24C4 24.7364 4.59696 25.3334 5.33333 25.3334H26.6667C27.4031 25.3334 28 24.7364 28 24C28 23.2636 27.4031 22.6667 26.6667 22.6667H5.33333Z" fill="white"/>
</svg>
