<svg width="450" height="350" viewBox="0 0 450 350" fill="none" xmlns="http://www.w3.org/2000/svg">
<path d="M310.711 132.413V69.0434C310.711 62.9319 308.285 57.0707 303.967 52.7493C299.65 48.4278 293.794 46 287.688 46H149.555C143.45 46 137.594 48.4278 133.276 52.7493C128.959 57.0707 126.533 62.9319 126.533 69.0434V253.391C126.533 259.502 128.959 265.363 133.276 269.685C137.594 274.006 143.45 276.434 149.555 276.434H241.644L276.177 310.999V276.434H287.688C291.688 276.433 295.618 275.389 299.092 273.405C302.566 271.421 305.463 268.566 307.499 265.12" stroke="#61D16A" stroke-width="2" stroke-linecap="round" stroke-linejoin="round"/>
<path d="M103.58 83.6074C100.061 85.625 97.1364 88.5373 95.1029 92.0496C93.0694 95.562 91.999 99.5496 92 103.609V287.956C92 294.068 94.4255 299.929 98.743 304.25C103.061 308.572 108.916 311 115.022 311H207.111C211.076 310.999 214.974 309.972 218.427 308.02C221.879 306.068 224.77 303.257 226.818 299.858" stroke="#61D16A" stroke-width="2" stroke-linecap="round" stroke-linejoin="round"/>
<path d="M149.556 80.5664H195.6" stroke="#61D16A" stroke-width="2" stroke-linecap="round" stroke-linejoin="round"/>
<path d="M172.578 132.414V80.5664" stroke="#61D16A" stroke-width="2" stroke-linecap="round" stroke-linejoin="round"/>
<path d="M267.21 123.435L218.864 109.609L232.677 158.001L315.315 240.715C319.894 245.298 326.105 247.874 332.581 247.874C339.058 247.874 345.269 245.298 349.848 240.715C354.427 236.131 357 229.914 357 223.432C357 216.95 354.427 210.733 349.848 206.15L267.21 123.435Z" stroke="#61D16A" stroke-width="2" stroke-linecap="round" stroke-linejoin="round"/>
<path d="M304.955 230.348L339.488 195.783" stroke="#61D16A" stroke-width="2" stroke-linecap="round" stroke-linejoin="round"/>
<path d="M232.677 158.001L267.21 123.436" stroke="#61D16A" stroke-width="2" stroke-linecap="round" stroke-linejoin="round"/>
<path d="M230.133 80.5664H276.177" stroke="#61D16A" stroke-width="2" stroke-linecap="round" stroke-linejoin="round"/>
<path d="M161.066 172.74H207.111" stroke="#61D16A" stroke-width="2" stroke-linecap="round" stroke-linejoin="round"/>
<path d="M161.066 207.307H235.888" stroke="#61D16A" stroke-width="2" stroke-linecap="round" stroke-linejoin="round"/>
<path d="M161.066 241.871H264.666" stroke="#61D16A" stroke-width="2" stroke-linecap="round" stroke-linejoin="round"/>
</svg>
