<svg width="201" height="56" viewBox="0 0 201 56" fill="none" xmlns="http://www.w3.org/2000/svg">
<path d="M200.5 50.3865C200.5 53.4879 197.925 56 194.741 56H6.26678C3.08371 56 0.5 53.4879 0.5 50.3865V5.62081C0.5 2.52094 3.08371 0 6.26678 0H194.739C197.925 0 200.499 2.52094 200.499 5.62081L200.5 50.3865Z" fill="#0F0F0F"/>
<path d="M44.512 27.6859C44.4685 22.9968 48.4655 20.7155 48.6483 20.6093C46.3846 17.4041 42.876 16.9662 41.643 16.9313C38.6962 16.6301 35.8378 18.6437 34.3367 18.6437C32.8056 18.6437 30.494 16.9604 28.0026 17.0098C24.7966 17.0579 21.7974 18.8605 20.1524 21.6597C16.7577 27.3673 19.2895 35.7548 22.5419 40.3683C24.1689 42.6278 26.07 45.1506 28.5584 45.0618C30.9929 44.9643 31.9022 43.5545 34.8401 43.5545C37.7509 43.5545 38.6048 45.0618 41.1427 45.0051C43.7554 44.9643 45.4003 42.7354 46.9704 40.4556C48.8505 37.8659 49.6056 35.3154 49.6356 35.1845C49.5741 35.1641 44.5614 33.3062 44.512 27.6859Z" fill="white"/>
<path d="M39.718 13.8964C41.0273 12.3062 41.9232 10.1427 41.6745 7.94727C39.7794 8.02874 37.4093 9.22031 36.0445 10.7756C34.8371 12.1461 33.7584 14.3925 34.0371 16.505C36.1659 16.6592 38.3517 15.4618 39.718 13.8964Z" fill="white"/>
<path d="M79.7433 44.7368H76.3411L74.4774 39.0496H67.9995L66.2242 44.7368H62.9119L69.3298 25.375H73.2939L79.7433 44.7368ZM73.9156 36.6636L72.2302 31.6078C72.0519 31.0913 71.7179 29.875 71.225 27.9604H71.165C70.9688 28.7838 70.6527 30.0001 70.2182 31.6078L68.5628 36.6636H73.9156Z" fill="white"/>
<path d="M96.2483 37.5858C96.2483 39.9602 95.5876 41.837 94.2662 43.2148C93.0827 44.4413 91.613 45.0538 89.8587 45.0538C87.9651 45.0538 86.6048 44.3933 85.7763 43.0722H85.7164V50.4268H82.5224V35.3729C82.5224 33.8802 82.482 32.3481 82.4041 30.7769H85.213L85.3913 32.9898H85.4512C86.5164 31.3224 88.1329 30.4902 90.3022 30.4902C91.9981 30.4902 93.4138 31.1406 94.5464 32.4427C95.682 33.7463 96.2483 35.4602 96.2483 37.5858ZM92.9943 37.6993C92.9943 36.3404 92.6797 35.2201 92.0475 34.3385C91.3569 33.419 90.4295 32.9592 89.267 32.9592C88.479 32.9592 87.7629 33.2153 87.1232 33.7201C86.482 34.2293 86.0625 34.8942 85.8662 35.7177C85.7673 36.1018 85.7179 36.416 85.7179 36.6634V38.9912C85.7179 40.0067 86.0385 40.8637 86.6797 41.5635C87.3209 42.2633 88.1539 42.6125 89.1786 42.6125C90.3816 42.6125 91.3179 42.1615 91.9876 41.2623C92.6587 40.3617 92.9943 39.1745 92.9943 37.6993Z" fill="white"/>
<path d="M112.783 37.5858C112.783 39.9602 112.122 41.837 110.8 43.2148C109.618 44.4413 108.148 45.0538 106.394 45.0538C104.5 45.0538 103.14 44.3933 102.313 43.0722H102.253V50.4268H99.0588V35.3729C99.0588 33.8802 99.0183 32.3481 98.9404 30.7769H101.749L101.928 32.9898H101.988C103.051 31.3224 104.668 30.4902 106.839 30.4902C108.533 30.4902 109.949 31.1406 111.084 32.4427C112.215 33.7463 112.783 35.4602 112.783 37.5858ZM109.529 37.6993C109.529 36.3404 109.213 35.2201 108.581 34.3385C107.89 33.419 106.966 32.9592 105.802 32.9592C105.012 32.9592 104.298 33.2153 103.657 33.7201C103.015 34.2293 102.597 34.8942 102.401 35.7177C102.304 36.1018 102.253 36.416 102.253 36.6634V38.9912C102.253 40.0067 102.573 40.8637 103.212 41.5635C103.853 42.2618 104.686 42.6125 105.713 42.6125C106.916 42.6125 107.853 42.1615 108.522 41.2623C109.194 40.3617 109.529 39.1745 109.529 37.6993Z" fill="white"/>
<path d="M131.27 39.3076C131.27 40.9546 130.681 42.2946 129.499 43.329C128.2 44.4595 126.392 45.024 124.068 45.024C121.923 45.024 120.203 44.6224 118.901 43.8178L119.641 41.2325C121.044 42.056 122.582 42.4691 124.259 42.4691C125.462 42.4691 126.398 42.2044 127.071 41.6777C127.74 41.151 128.074 40.4439 128.074 39.5623C128.074 38.7766 127.799 38.1146 127.246 37.5778C126.696 37.0409 125.778 36.5419 124.495 36.0807C121.005 34.8164 119.261 32.9643 119.261 30.5288C119.261 28.9371 119.872 27.6321 121.096 26.6165C122.316 25.5996 123.943 25.0918 125.977 25.0918C127.791 25.0918 129.298 25.3988 130.501 26.0113L129.703 28.5399C128.579 27.9463 127.309 27.6495 125.887 27.6495C124.764 27.6495 123.886 27.9187 123.256 28.4541C122.725 28.9327 122.458 29.5162 122.458 30.2072C122.458 30.9725 122.762 31.6054 123.373 32.103C123.905 32.5627 124.871 33.0603 126.274 33.5972C127.989 34.2679 129.249 35.0521 130.059 35.9512C130.867 36.8474 131.27 37.9691 131.27 39.3076Z" fill="white"/>
<path d="M141.83 33.1034H138.31V39.8818C138.31 41.6058 138.93 42.4671 140.173 42.4671C140.744 42.4671 141.218 42.4191 141.592 42.3231L141.68 44.6786C141.051 44.907 140.223 45.0219 139.197 45.0219C137.935 45.0219 136.949 44.648 136.238 43.9017C135.529 43.1539 135.173 41.8997 135.173 40.1378V33.1005H133.075V30.7726H135.173V28.2164L138.31 27.2969V30.7726H141.83V33.1034Z" fill="white"/>
<path d="M157.715 37.6411C157.715 39.7871 157.083 41.5489 155.821 42.9267C154.498 44.3453 152.743 45.0523 150.554 45.0523C148.445 45.0523 146.765 44.3729 145.513 43.014C144.26 41.6552 143.634 39.9398 143.634 37.8724C143.634 35.709 144.278 33.9369 145.571 32.5591C146.861 31.1799 148.602 30.4902 150.791 30.4902C152.9 30.4902 154.597 31.1697 155.878 32.53C157.104 33.8496 157.715 35.5533 157.715 37.6411ZM154.401 37.7415C154.401 36.4539 154.118 35.3496 153.544 34.4287C152.874 33.3142 151.917 32.7584 150.677 32.7584C149.393 32.7584 148.418 33.3157 147.748 34.4287C147.174 35.3511 146.891 36.4728 146.891 37.7997C146.891 39.0872 147.174 40.1915 147.748 41.111C148.439 42.2255 149.403 42.7812 150.648 42.7812C151.868 42.7812 152.825 42.2138 153.516 41.0819C154.104 40.1435 154.401 39.0276 154.401 37.7415Z" fill="white"/>
<path d="M168.097 33.5048C167.781 33.4481 167.444 33.419 167.09 33.419C165.967 33.419 165.098 33.8307 164.486 34.6556C163.955 35.3831 163.688 36.3026 163.688 37.4127V44.7381H160.495L160.525 35.1736C160.525 33.5644 160.485 32.0994 160.406 30.7783H163.188L163.304 33.4495H163.393C163.73 32.5315 164.262 31.7924 164.99 31.2381C165.701 30.739 166.47 30.4902 167.298 30.4902C167.594 30.4902 167.86 30.5106 168.097 30.547V33.5048Z" fill="white"/>
<path d="M182.381 37.0958C182.381 37.6516 182.344 38.12 182.265 38.5027H172.683C172.72 39.8819 173.183 40.9367 174.073 41.6642C174.88 42.3145 175.925 42.6404 177.207 42.6404C178.626 42.6404 179.92 42.4207 181.084 41.9799L181.584 44.1331C180.224 44.7093 178.618 44.9959 176.765 44.9959C174.536 44.9959 172.786 44.3587 171.513 43.0856C170.242 41.8126 169.605 40.1031 169.605 37.9585C169.605 35.8533 170.197 34.1001 171.382 32.702C172.623 31.2093 174.299 30.4629 176.408 30.4629C178.48 30.4629 180.049 31.2093 181.114 32.702C181.958 33.8877 182.381 35.3543 182.381 37.0958ZM179.336 36.2912C179.357 35.3717 179.149 34.5774 178.716 33.9066C178.163 33.0439 177.313 32.6132 176.17 32.6132C175.126 32.6132 174.277 33.0337 173.628 33.8775C173.096 34.5483 172.78 35.3528 172.683 36.2898H179.336V36.2912Z" fill="white"/>
<path d="M72.8595 13.4632C72.8595 15.1756 72.3307 16.4646 71.2745 17.3303C70.2962 18.1291 68.906 18.5292 67.1052 18.5292C66.2123 18.5292 65.4483 18.4913 64.8086 18.4157V9.05919C65.6431 8.92825 66.5419 8.86133 67.5127 8.86133C69.2281 8.86133 70.521 9.2236 71.3929 9.94814C72.3696 10.7672 72.8595 11.9384 72.8595 13.4632ZM71.2041 13.5054C71.2041 12.3953 70.9015 11.5442 70.2962 10.9506C69.691 10.3584 68.8071 10.0616 67.6431 10.0616C67.1487 10.0616 66.7277 10.0936 66.3786 10.1606V17.2736C66.5719 17.3027 66.9255 17.3158 67.4393 17.3158C68.6408 17.3158 69.5682 16.9913 70.2213 16.3424C70.8745 15.6935 71.2041 14.7479 71.2041 13.5054Z" fill="white"/>
<path d="M81.6371 14.9594C81.6371 16.0142 81.327 16.8784 80.7067 17.5564C80.0565 18.2533 79.1951 18.601 78.1195 18.601C77.0828 18.601 76.2573 18.2678 75.6416 17.5986C75.0273 16.9308 74.7202 16.0884 74.7202 15.0729C74.7202 14.0108 75.0363 13.1393 75.6715 12.4628C76.3067 11.7863 77.1607 11.4473 78.2363 11.4473C79.273 11.4473 80.106 11.7804 80.7367 12.4482C81.3359 13.0971 81.6371 13.9351 81.6371 14.9594ZM80.0086 15.0089C80.0086 14.376 79.8678 13.8333 79.5876 13.3808C79.258 12.8338 78.7891 12.5603 78.1794 12.5603C77.5487 12.5603 77.0693 12.8338 76.7397 13.3808C76.458 13.8333 76.3187 14.3847 76.3187 15.0365C76.3187 15.6694 76.4595 16.2121 76.7397 16.6645C77.0798 17.2116 77.5532 17.4851 78.1644 17.4851C78.7637 17.4851 79.2341 17.2072 79.5727 16.65C79.8633 16.1888 80.0086 15.6417 80.0086 15.0089Z" fill="white"/>
<path d="M93.4063 11.5859L91.1965 18.4443H89.7583L88.843 15.4662C88.6108 14.7227 88.422 13.9836 88.2752 13.2503H88.2467C88.1104 14.004 87.9216 14.7416 87.6789 15.4662L86.7067 18.4443H85.252L83.1741 11.5859H84.7876L85.5861 14.8464C85.7793 15.6175 85.9381 16.3522 86.0655 17.0476H86.0939C86.2108 16.4744 86.404 15.744 86.6767 14.8609L87.6789 11.5874H88.9583L89.9186 14.7911C90.1508 15.5724 90.3396 16.3246 90.4849 17.0491H90.5284C90.6347 16.3435 90.795 15.5913 91.0078 14.7911L91.8647 11.5874H93.4063V11.5859Z" fill="white"/>
<path d="M101.546 18.4458H99.9757V14.5176C99.9757 13.3071 99.5023 12.7018 98.5525 12.7018C98.0865 12.7018 97.7105 12.8677 97.4184 13.2009C97.1292 13.5341 96.9824 13.9269 96.9824 14.3764V18.4444H95.4124V13.5471C95.4124 12.9448 95.3929 12.2916 95.3555 11.5845H96.7352L96.8087 12.6567H96.8521C97.0349 12.3236 97.3075 12.0486 97.6656 11.8289C98.091 11.5728 98.5674 11.4434 99.0888 11.4434C99.748 11.4434 100.296 11.65 100.732 12.0646C101.275 12.5724 101.546 13.3304 101.546 14.3372V18.4458Z" fill="white"/>
<path d="M105.875 18.4448H104.307V8.43945H105.875V18.4448Z" fill="white"/>
<path d="M115.119 14.9594C115.119 16.0142 114.809 16.8784 114.188 17.5564C113.538 18.2533 112.675 18.601 111.601 18.601C110.563 18.601 109.737 18.2678 109.123 17.5986C108.509 16.9308 108.202 16.0884 108.202 15.0729C108.202 14.0108 108.518 13.1393 109.153 12.4628C109.788 11.7863 110.642 11.4473 111.717 11.4473C112.755 11.4473 113.586 11.7804 114.218 12.4482C114.818 13.0971 115.119 13.9351 115.119 14.9594ZM113.489 15.0089C113.489 14.376 113.348 13.8333 113.068 13.3808C112.74 12.8338 112.269 12.5603 111.661 12.5603C111.029 12.5603 110.549 12.8338 110.221 13.3808C109.94 13.8333 109.8 14.3847 109.8 15.0365C109.8 15.6694 109.941 16.2121 110.221 16.6645C110.561 17.2116 111.035 17.4851 111.646 17.4851C112.245 17.4851 112.714 17.2072 113.053 16.65C113.345 16.1888 113.489 15.6417 113.489 15.0089Z" fill="white"/>
<path d="M122.717 18.4453H121.307L121.191 17.6553H121.147C120.665 18.2853 119.977 18.601 119.084 18.601C118.418 18.601 117.878 18.393 117.472 17.9798C117.104 17.6044 116.919 17.1374 116.919 16.5831C116.919 15.745 117.279 15.1063 118.003 14.6641C118.725 14.2218 119.74 14.005 121.048 14.0152V13.8871C121.048 12.9836 120.56 12.5326 119.582 12.5326C118.885 12.5326 118.271 12.7028 117.74 13.0404L117.421 12.0394C118.077 11.6451 118.888 11.4473 119.844 11.4473C121.689 11.4473 122.615 12.393 122.615 14.2843V16.81C122.615 17.4953 122.65 18.0409 122.717 18.4453ZM121.087 16.0884V15.0307C119.355 15.0016 118.489 15.4628 118.489 16.4128C118.489 16.7708 118.588 17.0385 118.791 17.2174C118.993 17.3964 119.251 17.4851 119.558 17.4851C119.902 17.4851 120.224 17.3789 120.518 17.1679C120.813 16.9555 120.994 16.6864 121.062 16.3561C121.078 16.2819 121.087 16.1917 121.087 16.0884Z" fill="white"/>
<path d="M131.639 18.4448H130.245L130.172 17.3435H130.128C129.683 18.1815 128.925 18.6005 127.86 18.6005C127.009 18.6005 126.301 18.276 125.739 17.6272C125.177 16.9783 124.897 16.1359 124.897 15.1014C124.897 13.9914 125.201 13.0922 125.812 12.4055C126.404 11.7654 127.129 11.4453 127.992 11.4453C128.94 11.4453 129.604 11.7552 129.982 12.3764H130.012V8.43945H131.583V16.5971C131.583 17.2649 131.601 17.8803 131.639 18.4448ZM130.012 15.5525V14.4089C130.012 14.211 129.997 14.051 129.968 13.9288C129.88 13.5622 129.689 13.2537 129.4 13.0049C129.108 12.7561 128.756 12.631 128.35 12.631C127.764 12.631 127.306 12.8565 126.969 13.309C126.635 13.7615 126.466 14.3391 126.466 15.0447C126.466 15.7227 126.626 16.2726 126.948 16.696C127.288 17.147 127.746 17.3726 128.32 17.3726C128.836 17.3726 129.248 17.1849 129.561 16.808C129.863 16.4603 130.012 16.0413 130.012 15.5525Z" fill="white"/>
<path d="M145.066 14.9594C145.066 16.0142 144.756 16.8784 144.136 17.5564C143.486 18.2533 142.626 18.601 141.549 18.601C140.513 18.601 139.688 18.2678 139.071 17.5986C138.457 16.9308 138.149 16.0884 138.149 15.0729C138.149 14.0108 138.466 13.1393 139.101 12.4628C139.736 11.7863 140.59 11.4473 141.667 11.4473C142.702 11.4473 143.537 11.7804 144.166 12.4482C144.765 13.0971 145.066 13.9351 145.066 14.9594ZM143.439 15.0089C143.439 14.376 143.298 13.8333 143.018 13.3808C142.687 12.8338 142.22 12.5603 141.609 12.5603C140.979 12.5603 140.5 12.8338 140.169 13.3808C139.887 13.8333 139.748 14.3847 139.748 15.0365C139.748 15.6694 139.889 16.2121 140.169 16.6645C140.509 17.2116 140.982 17.4851 141.594 17.4851C142.193 17.4851 142.665 17.2072 143.003 16.65C143.292 16.1888 143.439 15.6417 143.439 15.0089Z" fill="white"/>
<path d="M153.508 18.4458H151.94V14.5176C151.94 13.3071 151.466 12.7018 150.515 12.7018C150.049 12.7018 149.673 12.8677 149.382 13.2009C149.092 13.5341 148.947 13.9269 148.947 14.3764V18.4444H147.375V13.5471C147.375 12.9448 147.357 12.2916 147.32 11.5845H148.698L148.771 12.6567H148.815C148.999 12.3236 149.272 12.0486 149.628 11.8289C150.055 11.5728 150.53 11.4434 151.053 11.4434C151.711 11.4434 152.259 11.65 152.695 12.0646C153.239 12.5724 153.508 13.3304 153.508 14.3372V18.4458Z" fill="white"/>
<path d="M164.075 12.7291H162.346V16.0608C162.346 16.9075 162.653 17.3309 163.261 17.3309C163.543 17.3309 163.776 17.3076 163.961 17.2596L164.001 18.4163C163.691 18.5298 163.284 18.5865 162.782 18.5865C162.161 18.5865 161.679 18.4032 161.33 18.0365C160.979 17.6699 160.806 17.053 160.806 16.1874V12.7291H159.773V11.587H160.806V10.3299L162.344 9.87891V11.5855H164.073V12.7291H164.075Z" fill="white"/>
<path d="M172.386 18.4448H170.815V14.5457C170.815 13.3163 170.341 12.7009 169.393 12.7009C168.665 12.7009 168.167 13.0573 167.895 13.7702C167.848 13.9201 167.821 14.1034 167.821 14.3187V18.4434H166.253V8.43945H167.821V12.5728H167.851C168.346 11.8206 169.054 11.4453 169.973 11.4453C170.623 11.4453 171.161 11.6519 171.588 12.0665C172.119 12.583 172.386 13.3512 172.386 14.3667V18.4448Z" fill="white"/>
<path d="M180.96 14.6911C180.96 14.9646 180.939 15.1945 180.901 15.3822H176.193C176.214 16.0602 176.438 16.5767 176.874 16.9346C177.273 17.2547 177.787 17.4147 178.416 17.4147C179.113 17.4147 179.748 17.307 180.32 17.0903L180.566 18.1494C179.896 18.4317 179.108 18.5728 178.196 18.5728C177.102 18.5728 176.241 18.26 175.617 17.6344C174.991 17.0088 174.681 16.1693 174.681 15.116C174.681 14.0815 174.97 13.2202 175.553 12.5335C176.161 11.8002 176.984 11.4336 178.022 11.4336C179.038 11.4336 179.809 11.8002 180.331 12.5335C180.752 13.1155 180.96 13.8356 180.96 14.6911ZM179.462 14.2968C179.474 13.8444 179.37 13.4545 179.158 13.1256C178.885 12.7023 178.47 12.4899 177.908 12.4899C177.396 12.4899 176.978 12.6964 176.659 13.1111C176.398 13.4414 176.244 13.8356 176.193 14.2968H179.462Z" fill="white"/>
</svg>
