<svg width="110" height="33" viewBox="0 0 110 33" fill="none" xmlns="http://www.w3.org/2000/svg">
<path d="M17.8973 1.24286C19.2141 1.51096 23.095 2.68259 24.4373 8.04875C25.7796 13.4149 20.7523 15.9391 20.7523 15.9391L21.1183 16.037C22.8268 16.7073 24.0833 18.0129 25.0099 19.1591C25.9741 20.3414 27.3647 23.8429 25.2298 28.1474C23.095 32.4518 16.567 32.8312 16.567 32.8312H0.0727539V0.913086C0.0727539 0.913086 16.5683 0.986815 17.8973 1.24286ZM7.35704 6.97498V13.9511H13.8233C14.5193 13.9511 15.1898 13.6575 15.6538 13.1334C16.7145 11.951 18.081 9.66946 15.3615 7.58493C15.0195 7.31682 14.5931 7.1707 14.1787 7.1573L7.35704 6.97498ZM7.35704 19.3789V26.8068H15.0074C15.8254 26.8068 16.618 26.4891 17.1664 25.9409C18.4471 24.6607 20.0576 22.2329 16.8245 20.0251C16.4101 19.7328 15.9341 19.5975 15.4084 19.5733L7.35704 19.3789Z" fill="#61D16A"/>
<path d="M65.3337 0.913086V32.917H86.4048V26.4529L72.8862 26.2827V0.913086H65.3337Z" fill="#61D16A"/>
<path d="M84.5742 0.913086V7.35301H93.5911V32.917H100.96V7.35301H109.927V0.913086H84.5742Z" fill="#61D16A"/>
<path d="M43.8214 7.64377L39.7407 18.6482H44.0225L40.5064 27.7236L51.685 14.5676L46.8319 14.5797L52.0497 7.625L43.8214 7.64377Z" fill="#61D16A"/>
<path d="M61.1966 16.8172C61.1966 8.00189 54.0451 0.876953 45.2509 0.876953C36.4566 0.876953 29.3171 8.01396 29.3171 16.8172C29.3171 16.8374 29.3185 16.8575 29.3185 16.8776C29.3185 16.8977 29.3171 16.9178 29.3171 16.9379C29.3171 25.705 36.4325 32.8299 45.2026 32.8299C49.4871 32.8299 53.3759 31.1315 56.2336 28.3727C59.2897 25.4691 61.1966 21.3657 61.1966 16.8172ZM35.7754 26.3632C33.257 23.8457 31.8704 20.5024 31.8704 16.9392C31.8704 13.3761 33.257 10.0328 35.7754 7.51528C38.2938 4.99776 41.6503 3.61164 45.2026 3.61164C48.7669 3.61164 52.1114 4.99776 54.6298 7.51528C57.1482 10.0328 58.5348 13.3761 58.5348 16.9392C58.5348 20.5024 57.1482 23.8457 54.6298 26.3632C52.1114 28.8807 48.7669 30.2668 45.2026 30.2668C41.6382 30.2655 38.2924 28.8794 35.7754 26.3632Z" fill="#61D16A"/>
</svg>
