<svg width="25" height="24" viewBox="0 0 25 24" fill="none" xmlns="http://www.w3.org/2000/svg">
<path fill-rule="evenodd" clip-rule="evenodd" d="M0.5 12C0.5 5.37258 5.87258 0 12.5 0C19.1274 0 24.5 5.37258 24.5 12C24.5 18.6274 19.1274 24 12.5 24C5.87258 24 0.5 18.6274 0.5 12ZM12.4827 8.81067C13.4577 8.81067 14.1154 9.23244 14.4904 9.58489L15.9559 8.152C15.0559 7.31422 13.8847 6.8 12.4827 6.8C10.4518 6.8 8.69793 7.96711 7.84405 9.66578L9.52296 10.9716C9.94413 9.71778 11.1096 8.81067 12.4827 8.81067ZM17.4675 12.1156C17.4675 11.688 17.4329 11.376 17.3579 11.0524H12.4827V12.9822H15.3443C15.2866 13.4618 14.9751 14.184 14.2827 14.6693L15.9213 15.9404C16.9021 15.0333 17.4675 13.6987 17.4675 12.1156ZM9.52873 13.0284C9.41911 12.7049 9.35565 12.3582 9.35565 12C9.35565 11.6418 9.41911 11.2951 9.52296 10.9716L7.84405 9.66578C7.49212 10.3707 7.29019 11.1622 7.29019 12C7.29019 12.8378 7.49212 13.6293 7.84405 14.3342L9.52873 13.0284ZM12.4827 17.2C13.8847 17.2 15.0616 16.7378 15.9213 15.9404L14.2827 14.6693C13.8443 14.9756 13.2558 15.1893 12.4827 15.1893C11.1096 15.1893 9.94413 14.2822 9.52873 13.0284L7.84982 14.3342C8.7037 16.0329 10.4518 17.2 12.4827 17.2Z" fill="black"/>
</svg>
