<svg width="112" height="60" viewBox="0 0 112 60" fill="none" xmlns="http://www.w3.org/2000/svg">
<path d="M18.8973 2.24286C20.2142 2.51096 24.095 3.68259 25.4373 9.04875C26.7797 14.4149 21.7523 16.9391 21.7523 16.9391L22.1184 17.037C23.8268 17.7073 25.0833 19.0129 26.0099 20.1591C26.9741 21.3414 28.3647 24.8429 26.2299 29.1474C24.095 33.4518 17.567 33.8312 17.567 33.8312H1.07278V1.91309C1.07278 1.91309 17.5684 1.98682 18.8973 2.24286ZM8.35708 7.97498V14.9511H14.8234C15.5193 14.9511 16.1898 14.6575 16.6538 14.1334C17.7145 12.951 19.081 10.6695 16.3615 8.58493C16.0195 8.31682 15.5931 8.1707 15.1787 8.1573L8.35708 7.97498ZM8.35708 20.3789V27.8068H16.0075C16.8255 27.8068 17.618 27.4891 18.1665 26.9409C19.4471 25.6607 21.0576 23.2329 17.8245 21.0251C17.4101 20.7328 16.9341 20.5975 16.4084 20.5733L8.35708 20.3789Z" fill="#61D16A"/>
<path d="M66.3337 1.91309V33.917H87.4048V27.4529L73.8862 27.2827V1.91309H66.3337Z" fill="#61D16A"/>
<path d="M85.5743 1.91309V8.35301H94.5912V33.917H101.96V8.35301H110.927V1.91309H85.5743Z" fill="#61D16A"/>
<path d="M44.8214 8.64377L40.7408 19.6482H45.0226L41.5065 28.7236L52.685 15.5676L47.832 15.5797L53.0498 8.625L44.8214 8.64377Z" fill="#61D16A"/>
<path d="M62.1967 17.8172C62.1967 9.00189 55.0452 1.87695 46.2509 1.87695C37.4567 1.87695 30.3172 9.01396 30.3172 17.8172C30.3172 17.8374 30.3186 17.8575 30.3186 17.8776C30.3186 17.8977 30.3172 17.9178 30.3172 17.9379C30.3172 26.705 37.4326 33.8299 46.2027 33.8299C50.4871 33.8299 54.376 32.1315 57.2337 29.3727C60.2898 26.4691 62.1967 22.3657 62.1967 17.8172ZM36.7755 27.3632C34.2571 24.8457 32.8705 21.5024 32.8705 17.9392C32.8705 14.3761 34.2571 11.0328 36.7755 8.51528C39.2939 5.99776 42.6504 4.61164 46.2027 4.61164C49.767 4.61164 53.1115 5.99776 55.6299 8.51528C58.1483 11.0328 59.5349 14.3761 59.5349 17.9392C59.5349 21.5024 58.1483 24.8457 55.6299 27.3632C53.1115 29.8807 49.767 31.2668 46.2027 31.2668C42.6383 31.2655 39.2925 29.8794 36.7755 27.3632Z" fill="#61D16A"/>
<path d="M1.07281 47.8953V41.9978H2.16825V47.8953H1.07281Z" fill="white"/>
<path d="M3.76366 47.8953V41.9978H4.66529L8.36447 46.5389H7.91787V41.9978H9.00488V47.8953H8.10325L4.40407 43.3542H4.85067V47.8953H3.76366Z" fill="white"/>
<path d="M10.5854 47.8953V41.9978H13.1639C13.8043 41.9978 14.3661 42.1214 14.8492 42.3685C15.3323 42.6156 15.7087 42.9582 15.9783 43.3963C16.248 43.8345 16.3828 44.3512 16.3828 44.9466C16.3828 45.5363 16.248 46.053 15.9783 46.4968C15.7087 46.9349 15.3323 47.2775 14.8492 47.5246C14.3661 47.7718 13.8043 47.8953 13.1639 47.8953H10.5854ZM11.6809 46.9686H13.1133C13.5571 46.9686 13.9391 46.8843 14.2593 46.7158C14.5851 46.5473 14.8351 46.3114 15.0093 46.0081C15.189 45.7048 15.2789 45.351 15.2789 44.9466C15.2789 44.5365 15.189 44.1827 15.0093 43.885C14.8351 43.5817 14.5851 43.3458 14.2593 43.1773C13.9391 43.0088 13.5571 42.9245 13.1133 42.9245H11.6809V46.9686Z" fill="white"/>
<path d="M17.5471 47.8953V41.9978H18.6425V47.8953H17.5471Z" fill="white"/>
<path d="M19.4037 47.8953L22.058 41.9978H23.1366L25.7993 47.8953H24.6533L22.3698 42.5791H22.808L20.5328 47.8953H19.4037ZM20.6255 46.5305L20.9205 45.6711H24.1056L24.4006 46.5305H20.6255Z" fill="white"/>
<path d="M25.8741 44.1967L26.3628 42.3264L26.506 42.9582C26.3094 42.9582 26.1437 42.8965 26.0089 42.7729C25.8797 42.6493 25.8151 42.4836 25.8151 42.2758C25.8151 42.068 25.8797 41.9023 26.0089 41.7787C26.1437 41.6496 26.3066 41.585 26.4976 41.585C26.6942 41.585 26.8571 41.6496 26.9863 41.7787C27.1155 41.9079 27.1801 42.0736 27.1801 42.2758C27.1801 42.3376 27.1745 42.4022 27.1633 42.4696C27.1577 42.5314 27.1408 42.6044 27.1127 42.6886C27.0903 42.7673 27.0509 42.8712 26.9948 43.0004L26.5566 44.1967H25.8741Z" fill="white"/>
<path d="M30.2213 47.9796C29.7606 47.9796 29.3197 47.915 28.8983 47.7858C28.477 47.651 28.1428 47.4797 27.8956 47.2719L28.2748 46.4209C28.5107 46.6063 28.8028 46.7608 29.1511 46.8843C29.4994 47.0079 29.8561 47.0697 30.2213 47.0697C30.5302 47.0697 30.7802 47.036 30.9712 46.9686C31.1622 46.9012 31.3027 46.8113 31.3925 46.699C31.4824 46.581 31.5274 46.449 31.5274 46.303C31.5274 46.1233 31.4628 45.98 31.3336 45.8733C31.2044 45.761 31.0358 45.6739 30.828 45.6121C30.6257 45.5447 30.3982 45.483 30.1454 45.4268C29.8983 45.3706 29.6483 45.306 29.3955 45.233C29.1483 45.1544 28.9208 45.0561 28.713 44.9381C28.5107 44.8146 28.345 44.6517 28.2158 44.4495C28.0866 44.2473 28.022 43.9889 28.022 43.6744C28.022 43.3542 28.1063 43.0622 28.2748 42.7982C28.4489 42.5286 28.7101 42.3151 29.0584 42.1579C29.4123 41.995 29.8589 41.9135 30.3982 41.9135C30.7521 41.9135 31.1032 41.9585 31.4515 42.0483C31.7998 42.1382 32.1032 42.2674 32.3616 42.4359L32.0161 43.2868C31.7521 43.1296 31.4796 43.0144 31.1987 42.9414C30.9179 42.8628 30.6482 42.8234 30.3898 42.8234C30.0865 42.8234 29.8393 42.86 29.6483 42.933C29.4629 43.006 29.3253 43.1015 29.2354 43.2194C29.1511 43.3374 29.109 43.4722 29.109 43.6238C29.109 43.8036 29.1708 43.9496 29.2944 44.0619C29.4236 44.1686 29.5893 44.2529 29.7915 44.3147C29.9994 44.3765 30.2297 44.4382 30.4825 44.5C30.7353 44.5562 30.9853 44.6208 31.2324 44.6938C31.4852 44.7668 31.7128 44.8623 31.915 44.9803C32.1228 45.0982 32.2886 45.2583 32.4121 45.4605C32.5413 45.6627 32.6059 45.9182 32.6059 46.2272C32.6059 46.5417 32.5189 46.8338 32.3447 47.1034C32.1762 47.3674 31.915 47.5808 31.5611 47.7437C31.2072 47.9009 30.7606 47.9796 30.2213 47.9796Z" fill="white"/>
<path d="M36.0209 47.8953V41.9978H37.1164V46.9686H40.2004V47.8953H36.0209Z" fill="white"/>
<path d="M40.2393 47.8953L42.8936 41.9978H43.9722L46.6349 47.8953H45.4889L43.2054 42.5791H43.6435L41.3684 47.8953H40.2393ZM41.4611 46.5305L41.756 45.6711H44.9412L45.2361 46.5305H41.4611Z" fill="white"/>
<path d="M47.385 47.8953V41.9978H49.8118C50.3343 41.9978 50.7809 42.082 51.1516 42.2505C51.528 42.419 51.8173 42.6606 52.0196 42.9751C52.2218 43.2896 52.3229 43.6631 52.3229 44.0956C52.3229 44.5281 52.2218 44.9016 52.0196 45.2162C51.8173 45.5251 51.528 45.7638 51.1516 45.9323C50.7809 46.0952 50.3343 46.1766 49.8118 46.1766H47.9917L48.4805 45.6795V47.8953H47.385ZM51.2443 47.8953L49.7529 45.7554H50.9241L52.424 47.8953H51.2443ZM48.4805 45.7975L47.9917 45.2751H49.7613C50.2444 45.2751 50.6067 45.1712 50.8483 44.9634C51.0955 44.7556 51.2191 44.4663 51.2191 44.0956C51.2191 43.7193 51.0955 43.43 50.8483 43.2278C50.6067 43.0256 50.2444 42.9245 49.7613 42.9245H47.9917L48.4805 42.3853V45.7975Z" fill="white"/>
<path d="M56.3039 47.9796C55.8433 47.9796 55.4191 47.9066 55.0315 47.7605C54.6495 47.6089 54.3153 47.3982 54.0288 47.1286C53.7423 46.8534 53.5204 46.5305 53.3631 46.1598C53.2058 45.7891 53.1272 45.3847 53.1272 44.9466C53.1272 44.5085 53.2058 44.1041 53.3631 43.7333C53.5204 43.3626 53.7423 43.0425 54.0288 42.7729C54.3209 42.4977 54.6608 42.287 55.0484 42.141C55.436 41.9894 55.8601 41.9135 56.3208 41.9135C56.8207 41.9135 57.2701 41.995 57.669 42.1579C58.0735 42.3207 58.4133 42.5595 58.6886 42.874L57.9976 43.548C57.7673 43.3177 57.5173 43.1492 57.2477 43.0425C56.9837 42.9302 56.6915 42.874 56.3713 42.874C56.0624 42.874 55.7759 42.9245 55.5118 43.0256C55.2478 43.1267 55.0203 43.27 54.8293 43.4553C54.6383 43.6407 54.4894 43.8597 54.3827 44.1125C54.2816 44.3652 54.231 44.6433 54.231 44.9466C54.231 45.2442 54.2816 45.5195 54.3827 45.7722C54.4894 46.025 54.6383 46.2468 54.8293 46.4378C55.0203 46.6231 55.245 46.7664 55.5034 46.8675C55.7618 46.9686 56.0483 47.0191 56.3629 47.0191C56.655 47.0191 56.9359 46.9742 57.2055 46.8843C57.4808 46.7888 57.742 46.6316 57.9892 46.4125L58.6127 47.2297C58.3038 47.4769 57.9443 47.665 57.5342 47.7942C57.1297 47.9178 56.7196 47.9796 56.3039 47.9796ZM57.5763 47.0865V44.8792H58.6127V47.2297L57.5763 47.0865Z" fill="white"/>
<path d="M61.0687 44.4495H64.0011V45.351H61.0687V44.4495ZM61.153 46.977H64.4814V47.8953H60.0575V41.9978H64.3634V42.9161H61.153V46.977Z" fill="white"/>
<path d="M67.5311 47.9796C67.0705 47.9796 66.6295 47.915 66.2082 47.7858C65.7868 47.651 65.4526 47.4797 65.2054 47.2719L65.5846 46.4209C65.8205 46.6063 66.1127 46.7608 66.4609 46.8843C66.8092 47.0079 67.166 47.0697 67.5311 47.0697C67.8401 47.0697 68.09 47.036 68.2811 46.9686C68.472 46.9012 68.6125 46.8113 68.7024 46.699C68.7923 46.581 68.8372 46.449 68.8372 46.303C68.8372 46.1233 68.7726 45.98 68.6434 45.8733C68.5142 45.761 68.3456 45.6739 68.1378 45.6121C67.9356 45.5447 67.7081 45.483 67.4553 45.4268C67.2081 45.3706 66.9581 45.306 66.7053 45.233C66.4581 45.1544 66.2306 45.0561 66.0228 44.9381C65.8205 44.8146 65.6548 44.6517 65.5256 44.4495C65.3964 44.2473 65.3318 43.9889 65.3318 43.6744C65.3318 43.3542 65.4161 43.0622 65.5846 42.7982C65.7588 42.5286 66.02 42.3151 66.3683 42.1579C66.7222 41.995 67.1688 41.9135 67.7081 41.9135C68.062 41.9135 68.4131 41.9585 68.7614 42.0483C69.1096 42.1382 69.413 42.2674 69.6714 42.4359L69.3259 43.2868C69.0619 43.1296 68.7894 43.0144 68.5086 42.9414C68.2277 42.8628 67.958 42.8234 67.6996 42.8234C67.3963 42.8234 67.1491 42.86 66.9581 42.933C66.7727 43.006 66.6351 43.1015 66.5452 43.2194C66.461 43.3374 66.4188 43.4722 66.4188 43.6238C66.4188 43.8036 66.4806 43.9496 66.6042 44.0619C66.7334 44.1686 66.8991 44.2529 67.1013 44.3147C67.3092 44.3765 67.5395 44.4382 67.7923 44.5C68.0451 44.5562 68.2951 44.6208 68.5423 44.6938C68.7951 44.7668 69.0226 44.8623 69.2248 44.9803C69.4327 45.0982 69.5984 45.2583 69.722 45.4605C69.8512 45.6627 69.9158 45.9182 69.9158 46.2272C69.9158 46.5417 69.8287 46.8338 69.6545 47.1034C69.486 47.3674 69.2248 47.5808 68.8709 47.7437C68.517 47.9009 68.0704 47.9796 67.5311 47.9796Z" fill="white"/>
<path d="M72.1162 47.8953V42.9245H70.1613V41.9978H75.1666V42.9245H73.2117V47.8953H72.1162Z" fill="white"/>
<path d="M2.08394 54.5615H5.01621V55.462H2.08394V54.5615ZM2.1682 57.0863H5.4965V58.0036H1.07281V52.1125H5.37853V53.0298H2.1682V57.0863Z" fill="white"/>
<path d="M8.37952 58.0036L5.80115 52.1125H6.98922L9.28954 57.4398H8.60703L10.9326 52.1125H12.028L9.45806 58.0036H8.37952Z" fill="white"/>
<path d="M17.8326 58.0878C17.3832 58.0878 16.9647 58.0148 16.5771 57.869C16.1951 57.7175 15.8609 57.5071 15.5744 57.2378C15.2935 56.9629 15.0744 56.6402 14.9172 56.2699C14.7599 55.8996 14.6812 55.4957 14.6812 55.0581C14.6812 54.6204 14.7599 54.2165 14.9172 53.8462C15.0744 53.4759 15.2963 53.1561 15.5828 52.8867C15.8693 52.6118 16.2035 52.4014 16.5855 52.2556C16.9675 52.1041 17.386 52.0283 17.841 52.0283C18.3241 52.0283 18.7651 52.1125 19.1639 52.2808C19.5627 52.4435 19.8998 52.6876 20.175 53.013L19.4672 53.6778C19.2538 53.4478 19.015 53.2767 18.751 53.1645C18.487 53.0466 18.2005 52.9877 17.8916 52.9877C17.5826 52.9877 17.2989 53.0382 17.0405 53.1392C16.7877 53.2402 16.5659 53.3833 16.3749 53.5684C16.1895 53.7536 16.0434 53.9724 15.9367 54.2249C15.8356 54.4774 15.785 54.7551 15.785 55.0581C15.785 55.361 15.8356 55.6388 15.9367 55.8912C16.0434 56.1437 16.1895 56.3625 16.3749 56.5477C16.5659 56.7328 16.7877 56.8759 17.0405 56.9769C17.2989 57.0779 17.5826 57.1284 17.8916 57.1284C18.2005 57.1284 18.487 57.0723 18.751 56.9601C19.015 56.8422 19.2538 56.6655 19.4672 56.4299L20.175 57.1031C19.8998 57.4229 19.5627 57.667 19.1639 57.8353C18.7651 58.0036 18.3213 58.0878 17.8326 58.0878Z" fill="white"/>
<path d="M25.3702 52.1125H26.4656V58.0036H25.3702V52.1125ZM22.32 58.0036H21.2246V52.1125H22.32V58.0036ZM25.4545 55.4789H22.2273V54.5447H25.4545V55.4789Z" fill="white"/>
<path d="M27.2119 58.0036L29.8661 52.1125H30.9446L33.6073 58.0036H32.4613L30.1779 52.6932H30.616L28.341 58.0036H27.2119ZM28.4337 56.6402L28.7286 55.7818H31.9136L32.2085 56.6402H28.4337Z" fill="white"/>
<path d="M34.3574 58.0036V52.1125H36.7841C37.3065 52.1125 37.7531 52.1966 38.1238 52.365C38.5002 52.5333 38.7895 52.7745 38.9917 53.0887C39.194 53.4029 39.2951 53.776 39.2951 54.208C39.2951 54.6401 39.194 55.0132 38.9917 55.3274C38.7895 55.6359 38.5002 55.8744 38.1238 56.0427C37.7531 56.2054 37.3065 56.2868 36.7841 56.2868H34.9641L35.4528 55.7902V58.0036H34.3574ZM38.2165 58.0036L36.7251 55.866H37.8963L39.3962 58.0036H38.2165ZM35.4528 55.9081L34.9641 55.3863H36.7335C37.2166 55.3863 37.579 55.2825 37.8205 55.0749C38.0677 54.8673 38.1912 54.5783 38.1912 54.208C38.1912 53.8321 38.0677 53.5432 37.8205 53.3412C37.579 53.1392 37.2166 53.0382 36.7335 53.0382H34.9641L35.4528 52.4996V55.9081Z" fill="white"/>
<path d="M43.2759 58.0878C42.8153 58.0878 42.3912 58.0148 42.0036 57.869C41.6216 57.7175 41.2874 57.5071 41.0009 57.2378C40.7144 56.9629 40.4925 56.6402 40.3352 56.2699C40.1779 55.8996 40.0993 55.4957 40.0993 55.0581C40.0993 54.6204 40.1779 54.2165 40.3352 53.8462C40.4925 53.4759 40.7144 53.1561 41.0009 52.8867C41.293 52.6118 41.6328 52.4014 42.0204 52.2556C42.408 52.1041 42.8321 52.0283 43.2928 52.0283C43.7927 52.0283 44.2421 52.1097 44.6409 52.2724C45.0454 52.4351 45.3852 52.6735 45.6605 52.9877L44.9696 53.661C44.7392 53.431 44.4893 53.2627 44.2196 53.1561C43.9556 53.0438 43.6635 52.9877 43.3433 52.9877C43.0344 52.9877 42.7479 53.0382 42.4839 53.1392C42.2198 53.2402 41.9923 53.3833 41.8014 53.5684C41.6104 53.7536 41.4615 53.9724 41.3548 54.2249C41.2537 54.4774 41.2031 54.7551 41.2031 55.0581C41.2031 55.3554 41.2537 55.6303 41.3548 55.8828C41.4615 56.1353 41.6104 56.3569 41.8014 56.5477C41.9923 56.7328 42.217 56.8759 42.4754 56.9769C42.7338 57.0779 43.0203 57.1284 43.3349 57.1284C43.627 57.1284 43.9079 57.0835 44.1775 56.9937C44.4528 56.8983 44.714 56.7412 44.9611 56.5224L45.5847 57.3388C45.2757 57.5856 44.9162 57.7736 44.5061 57.9026C44.1017 58.0261 43.6916 58.0878 43.2759 58.0878ZM44.5483 57.1957V54.9907H45.5847V57.3388L44.5483 57.1957Z" fill="white"/>
<path d="M47.0294 58.0036V52.1125H48.1248V58.0036H47.0294Z" fill="white"/>
<path d="M49.7201 58.0036V52.1125H50.6217L54.3208 56.6487H53.8742V52.1125H54.9611V58.0036H54.0596L50.3605 53.4674H50.8071V58.0036H49.7201Z" fill="white"/>
<path d="M59.2969 58.0878C58.8363 58.0878 58.4122 58.0148 58.0246 57.869C57.6426 57.7175 57.3084 57.5071 57.0219 57.2378C56.7354 56.9629 56.5135 56.6402 56.3563 56.2699C56.199 55.8996 56.1203 55.4957 56.1203 55.0581C56.1203 54.6204 56.199 54.2165 56.3563 53.8462C56.5135 53.4759 56.7354 53.1561 57.0219 52.8867C57.314 52.6118 57.6539 52.4014 58.0415 52.2556C58.4291 52.1041 58.8532 52.0283 59.3138 52.0283C59.8137 52.0283 60.2631 52.1097 60.662 52.2724C61.0664 52.4351 61.4063 52.6735 61.6815 52.9877L60.9906 53.661C60.7603 53.431 60.5103 53.2627 60.2407 53.1561C59.9767 53.0438 59.6845 52.9877 59.3643 52.9877C59.0554 52.9877 58.7689 53.0382 58.5049 53.1392C58.2409 53.2402 58.0134 53.3833 57.8224 53.5684C57.6314 53.7536 57.4825 53.9724 57.3758 54.2249C57.2747 54.4774 57.2241 54.7551 57.2241 55.0581C57.2241 55.3554 57.2747 55.6303 57.3758 55.8828C57.4825 56.1353 57.6314 56.3569 57.8224 56.5477C58.0134 56.7328 58.2381 56.8759 58.4965 56.9769C58.7549 57.0779 59.0414 57.1284 59.3559 57.1284C59.648 57.1284 59.9289 57.0835 60.1985 56.9937C60.4738 56.8983 60.735 56.7412 60.9822 56.5224L61.6057 57.3388C61.2967 57.5856 60.9372 57.7736 60.5271 57.9026C60.1227 58.0261 59.7126 58.0878 59.2969 58.0878ZM60.5693 57.1957V54.9907H61.6057V57.3388L60.5693 57.1957Z" fill="white"/>
<path d="M65.3791 58.0036V52.1125H66.2807L69.9797 56.6487H69.5332V52.1125H70.6201V58.0036H69.7185L66.0195 53.4674H66.4661V58.0036H65.3791Z" fill="white"/>
<path d="M73.2117 54.5615H76.144V55.462H73.2117V54.5615ZM73.296 57.0863H76.6243V58.0036H72.2006V52.1125H76.5063V53.0298H73.296V57.0863Z" fill="white"/>
<path d="M79.0419 58.0036V53.0382H77.0871V52.1125H82.0921V53.0382H80.1373V58.0036H79.0419Z" fill="white"/>
<path d="M84.214 58.0036L82.2591 52.1125H83.3967L85.1409 57.4398H84.5763L86.3879 52.1125H87.399L89.1601 57.4398H88.6124L90.3987 52.1125H91.4436L89.4887 58.0036H88.3259L86.7165 53.1981H87.0199L85.3852 58.0036H84.214Z" fill="white"/>
<path d="M95.0421 58.0878C94.5814 58.0878 94.1573 58.012 93.7697 57.8606C93.3821 57.7091 93.0451 57.4987 92.7586 57.2294C92.4721 56.9544 92.2502 56.6346 92.0929 56.2699C91.9357 55.8996 91.857 55.4957 91.857 55.0581C91.857 54.6204 91.9357 54.2193 92.0929 53.8546C92.2502 53.4843 92.4721 53.1645 92.7586 52.8952C93.0451 52.6202 93.3821 52.407 93.7697 52.2556C94.1573 52.1041 94.5786 52.0283 95.0336 52.0283C95.4943 52.0283 95.9156 52.1041 96.2975 52.2556C96.6851 52.407 97.0222 52.6202 97.3087 52.8952C97.5952 53.1645 97.817 53.4843 97.9743 53.8546C98.1316 54.2193 98.2103 54.6204 98.2103 55.0581C98.2103 55.4957 98.1316 55.8996 97.9743 56.2699C97.817 56.6402 97.5952 56.9601 97.3087 57.2294C97.0222 57.4987 96.6851 57.7091 96.2975 57.8606C95.9156 58.012 95.4971 58.0878 95.0421 58.0878ZM95.0336 57.1284C95.3314 57.1284 95.6066 57.0779 95.8594 56.9769C96.1122 56.8759 96.3313 56.7328 96.5166 56.5477C96.702 56.3569 96.8452 56.1381 96.9464 55.8912C97.0531 55.6388 97.1065 55.361 97.1065 55.0581C97.1065 54.7551 97.0531 54.4802 96.9464 54.2333C96.8452 53.9808 96.702 53.762 96.5166 53.5769C96.3313 53.3861 96.1122 53.2402 95.8594 53.1392C95.6066 53.0382 95.3314 52.9877 95.0336 52.9877C94.7359 52.9877 94.4607 53.0382 94.2079 53.1392C93.9607 53.2402 93.7416 53.3861 93.5507 53.5769C93.3653 53.762 93.2192 53.9808 93.1125 54.2333C93.0114 54.4802 92.9608 54.7551 92.9608 55.0581C92.9608 55.3554 93.0114 55.6303 93.1125 55.8828C93.2192 56.1353 93.3653 56.3569 93.5507 56.5477C93.736 56.7328 93.9551 56.8759 94.2079 56.9769C94.4607 57.0779 94.7359 57.1284 95.0336 57.1284Z" fill="white"/>
<path d="M99.3713 58.0036V52.1125H101.798C102.32 52.1125 102.767 52.1966 103.138 52.365C103.514 52.5333 103.803 52.7745 104.006 53.0887C104.208 53.4029 104.309 53.776 104.309 54.208C104.309 54.6401 104.208 55.0132 104.006 55.3274C103.803 55.6359 103.514 55.8744 103.138 56.0427C102.767 56.2054 102.32 56.2868 101.798 56.2868H99.978L100.467 55.7902V58.0036H99.3713ZM103.23 58.0036L101.739 55.866H102.91L104.41 58.0036H103.23ZM100.467 55.9081L99.978 55.3863H101.747C102.231 55.3863 102.593 55.2825 102.834 55.0749C103.082 54.8673 103.205 54.5783 103.205 54.208C103.205 53.8321 103.082 53.5432 102.834 53.3412C102.593 53.1392 102.231 53.0382 101.747 53.0382H99.978L100.467 52.4996V55.9081Z" fill="white"/>
<path d="M106.512 56.615L106.453 55.3189L109.545 52.1125H110.776L108.206 54.8392L107.599 55.5041L106.512 56.615ZM105.535 58.0036V52.1125H106.63V58.0036H105.535ZM109.646 58.0036L107.388 55.3189L108.113 54.5194L110.927 58.0036H109.646Z" fill="white"/>
</svg>
