<svg width="147" height="146" viewBox="0 0 147 146" fill="none" xmlns="http://www.w3.org/2000/svg">
<g clip-path="url(#clip0_1722_5001)">
<path d="M146.5 0H0.5V146H146.5V0Z" fill="white"/>
<path d="M13.0777 9.125H9.625V12.5777H13.0777V9.125Z" fill="black"/>
<path d="M16.5304 9.125H13.0777V12.5777H16.5304V9.125Z" fill="black"/>
<path d="M19.9831 9.125H16.5304V12.5777H19.9831V9.125Z" fill="black"/>
<path d="M23.4358 9.125H19.9831V12.5777H23.4358V9.125Z" fill="black"/>
<path d="M26.8885 9.125H23.4358V12.5777H26.8885V9.125Z" fill="black"/>
<path d="M30.3412 9.125H26.8885V12.5777H30.3412V9.125Z" fill="black"/>
<path d="M33.7939 9.125H30.3412V12.5777H33.7939V9.125Z" fill="black"/>
<path d="M40.6993 9.125H37.2466V12.5777H40.6993V9.125Z" fill="black"/>
<path d="M47.6047 9.125H44.152V12.5777H47.6047V9.125Z" fill="black"/>
<path d="M54.5101 9.125H51.0574V12.5777H54.5101V9.125Z" fill="black"/>
<path d="M57.9628 9.125H54.5101V12.5777H57.9628V9.125Z" fill="black"/>
<path d="M61.4155 9.125H57.9628V12.5777H61.4155V9.125Z" fill="black"/>
<path d="M64.8682 9.125H61.4155V12.5777H64.8682V9.125Z" fill="black"/>
<path d="M75.2264 9.125H71.7737V12.5777H75.2264V9.125Z" fill="black"/>
<path d="M78.6791 9.125H75.2264V12.5777H78.6791V9.125Z" fill="black"/>
<path d="M82.1318 9.125H78.6791V12.5777H82.1318V9.125Z" fill="black"/>
<path d="M102.848 9.125H99.3953V12.5777H102.848V9.125Z" fill="black"/>
<path d="M109.753 9.125H106.301V12.5777H109.753V9.125Z" fill="black"/>
<path d="M116.659 9.125H113.206V12.5777H116.659V9.125Z" fill="black"/>
<path d="M120.111 9.125H116.659V12.5777H120.111V9.125Z" fill="black"/>
<path d="M123.564 9.125H120.111V12.5777H123.564V9.125Z" fill="black"/>
<path d="M127.017 9.125H123.564V12.5777H127.017V9.125Z" fill="black"/>
<path d="M130.47 9.125H127.017V12.5777H130.47V9.125Z" fill="black"/>
<path d="M133.922 9.125H130.47V12.5777H133.922V9.125Z" fill="black"/>
<path d="M137.375 9.125H133.922V12.5777H137.375V9.125Z" fill="black"/>
<path d="M13.0777 12.5777H9.625V16.0304H13.0777V12.5777Z" fill="black"/>
<path d="M33.7939 12.5777H30.3412V16.0304H33.7939V12.5777Z" fill="black"/>
<path d="M47.6047 12.5777H44.152V16.0304H47.6047V12.5777Z" fill="black"/>
<path d="M71.7737 12.5777H68.321V16.0304H71.7737L71.7737 12.5777Z" fill="black"/>
<path d="M78.6791 12.5777H75.2264V16.0304H78.6791V12.5777Z" fill="black"/>
<path d="M85.5845 12.5777H82.1318V16.0304H85.5845V12.5777Z" fill="black"/>
<path d="M89.0372 12.5777H85.5845V16.0304H89.0372V12.5777Z" fill="black"/>
<path d="M99.3953 12.5777H95.9426V16.0304H99.3953V12.5777Z" fill="black"/>
<path d="M102.848 12.5777H99.3953V16.0304H102.848V12.5777Z" fill="black"/>
<path d="M109.753 12.5777H106.301V16.0304H109.753V12.5777Z" fill="black"/>
<path d="M116.659 12.5777H113.206V16.0304H116.659V12.5777Z" fill="black"/>
<path d="M137.375 12.5777H133.922V16.0304H137.375V12.5777Z" fill="black"/>
<path d="M13.0777 16.0304H9.625V19.4831H13.0777V16.0304Z" fill="black"/>
<path d="M19.9831 16.0304H16.5304V19.4831H19.9831V16.0304Z" fill="black"/>
<path d="M23.4358 16.0304H19.9831V19.4831H23.4358V16.0304Z" fill="black"/>
<path d="M26.8885 16.0304H23.4358V19.4831H26.8885V16.0304Z" fill="black"/>
<path d="M33.7939 16.0304H30.3412V19.4831H33.7939V16.0304Z" fill="black"/>
<path d="M40.6993 16.0304H37.2466V19.4831H40.6993V16.0304Z" fill="black"/>
<path d="M44.152 16.0304H40.6993V19.4831H44.152V16.0304Z" fill="black"/>
<path d="M51.0574 16.0304H47.6047V19.4831H51.0574V16.0304Z" fill="black"/>
<path d="M54.5101 16.0304H51.0574V19.4831H54.5101V16.0304Z" fill="black"/>
<path d="M57.9628 16.0304H54.5101V19.4831H57.9628V16.0304Z" fill="black"/>
<path d="M61.4155 16.0304H57.9628V19.4831H61.4155V16.0304Z" fill="black"/>
<path d="M78.6791 16.0304H75.2264V19.4831H78.6791V16.0304Z" fill="black"/>
<path d="M85.5845 16.0304H82.1318V19.4831H85.5845V16.0304Z" fill="black"/>
<path d="M89.0372 16.0304H85.5845V19.4831H89.0372V16.0304Z" fill="black"/>
<path d="M92.4899 16.0304H89.0372V19.4831H92.4899V16.0304Z" fill="black"/>
<path d="M95.9426 16.0304H92.4899V19.4831H95.9426V16.0304Z" fill="black"/>
<path d="M99.3953 16.0304H95.9426V19.4831H99.3953V16.0304Z" fill="black"/>
<path d="M102.848 16.0304H99.3953V19.4831H102.848V16.0304Z" fill="black"/>
<path d="M106.301 16.0304H102.848V19.4831H106.301V16.0304Z" fill="black"/>
<path d="M116.659 16.0304H113.206V19.4831H116.659V16.0304Z" fill="black"/>
<path d="M123.564 16.0304H120.111V19.4831H123.564V16.0304Z" fill="black"/>
<path d="M127.017 16.0304H123.564V19.4831H127.017V16.0304Z" fill="black"/>
<path d="M130.47 16.0304H127.017V19.4831H130.47V16.0304Z" fill="black"/>
<path d="M137.375 16.0304H133.922V19.4831H137.375V16.0304Z" fill="black"/>
<path d="M13.0777 19.4831H9.625V22.9358H13.0777V19.4831Z" fill="black"/>
<path d="M19.9831 19.4831H16.5304V22.9358H19.9831V19.4831Z" fill="black"/>
<path d="M23.4358 19.4831H19.9831V22.9358H23.4358V19.4831Z" fill="black"/>
<path d="M26.8885 19.4831H23.4358V22.9358H26.8885V19.4831Z" fill="black"/>
<path d="M33.7939 19.4831H30.3412V22.9358H33.7939V19.4831Z" fill="black"/>
<path d="M44.152 19.4831H40.6993V22.9358H44.152V19.4831Z" fill="black"/>
<path d="M47.6047 19.4831H44.152V22.9358H47.6047V19.4831Z" fill="black"/>
<path d="M51.0574 19.4831H47.6047V22.9358H51.0574V19.4831Z" fill="black"/>
<path d="M54.5101 19.4831H51.0574V22.9358H54.5101V19.4831Z" fill="black"/>
<path d="M61.4155 19.4831H57.9628V22.9358H61.4155V19.4831Z" fill="black"/>
<path d="M64.8682 19.4831H61.4155V22.9358H64.8682V19.4831Z" fill="black"/>
<path d="M71.7737 19.4831H68.321V22.9358H71.7737V19.4831Z" fill="black"/>
<path d="M82.1318 19.4831H78.6791V22.9358H82.1318V19.4831Z" fill="black"/>
<path d="M89.0372 19.4831H85.5845V22.9358H89.0372V19.4831Z" fill="black"/>
<path d="M95.9426 19.4831H92.4899V22.9358H95.9426V19.4831Z" fill="black"/>
<path d="M106.301 19.4831H102.848V22.9358H106.301V19.4831Z" fill="black"/>
<path d="M109.753 19.4831H106.301V22.9358H109.753V19.4831Z" fill="black"/>
<path d="M116.659 19.4831H113.206V22.9358H116.659V19.4831Z" fill="black"/>
<path d="M123.564 19.4831H120.111V22.9358H123.564V19.4831Z" fill="black"/>
<path d="M127.017 19.4831H123.564V22.9358H127.017V19.4831Z" fill="black"/>
<path d="M130.47 19.4831H127.017V22.9358H130.47V19.4831Z" fill="black"/>
<path d="M137.375 19.4831H133.922V22.9358H137.375V19.4831Z" fill="black"/>
<path d="M13.0777 22.9358H9.625V26.3885H13.0777V22.9358Z" fill="black"/>
<path d="M19.9831 22.9358H16.5304V26.3885H19.9831V22.9358Z" fill="black"/>
<path d="M23.4358 22.9358H19.9831V26.3885H23.4358V22.9358Z" fill="black"/>
<path d="M26.8885 22.9358H23.4358V26.3885H26.8885V22.9358Z" fill="black"/>
<path d="M33.7939 22.9358H30.3412V26.3885H33.7939V22.9358Z" fill="black"/>
<path d="M44.152 22.9358H40.6993V26.3885H44.152V22.9358Z" fill="black"/>
<path d="M47.6047 22.9358H44.152V26.3885H47.6047V22.9358Z" fill="black"/>
<path d="M57.9628 22.9358H54.5101L54.5101 26.3885H57.9628V22.9358Z" fill="black"/>
<path d="M61.4155 22.9358H57.9628V26.3885H61.4155V22.9358Z" fill="black"/>
<path d="M64.8682 22.9358H61.4155V26.3885H64.8682V22.9358Z" fill="black"/>
<path d="M68.321 22.9358H64.8682V26.3885H68.3209L68.321 22.9358Z" fill="black"/>
<path d="M78.6791 22.9358H75.2264V26.3885H78.6791V22.9358Z" fill="black"/>
<path d="M92.4899 22.9358H89.0372V26.3885H92.4899V22.9358Z" fill="black"/>
<path d="M95.9426 22.9358H92.4899V26.3885H95.9426V22.9358Z" fill="black"/>
<path d="M99.3953 22.9358H95.9426V26.3885H99.3953V22.9358Z" fill="black"/>
<path d="M116.659 22.9358H113.206V26.3885H116.659V22.9358Z" fill="black"/>
<path d="M123.564 22.9358H120.111V26.3885H123.564V22.9358Z" fill="black"/>
<path d="M127.017 22.9358H123.564V26.3885H127.017V22.9358Z" fill="black"/>
<path d="M130.47 22.9358H127.017V26.3885H130.47V22.9358Z" fill="black"/>
<path d="M137.375 22.9358H133.922V26.3885H137.375V22.9358Z" fill="black"/>
<path d="M13.0777 26.3885H9.625V29.8412H13.0777V26.3885Z" fill="black"/>
<path d="M33.7939 26.3885H30.3412V29.8412H33.7939V26.3885Z" fill="black"/>
<path d="M44.152 26.3885H40.6993V29.8412H44.152V26.3885Z" fill="black"/>
<path d="M51.0574 26.3885H47.6047V29.8412H51.0574V26.3885Z" fill="black"/>
<path d="M57.9628 26.3885H54.5101V29.8412H57.9628V26.3885Z" fill="black"/>
<path d="M85.5845 26.3885H82.1318V29.8412H85.5845V26.3885Z" fill="black"/>
<path d="M102.848 26.3885H99.3953V29.8412H102.848V26.3885Z" fill="black"/>
<path d="M106.301 26.3885H102.848V29.8412H106.301V26.3885Z" fill="black"/>
<path d="M116.659 26.3885H113.206V29.8412H116.659V26.3885Z" fill="black"/>
<path d="M137.375 26.3885H133.922V29.8412H137.375V26.3885Z" fill="black"/>
<path d="M13.0777 29.8412H9.625V33.2939H13.0777V29.8412Z" fill="black"/>
<path d="M16.5304 29.8412H13.0777V33.2939H16.5304V29.8412Z" fill="black"/>
<path d="M19.9831 29.8412H16.5304V33.2939H19.9831V29.8412Z" fill="black"/>
<path d="M23.4358 29.8412H19.9831V33.2939H23.4358V29.8412Z" fill="black"/>
<path d="M26.8885 29.8412H23.4358V33.2939H26.8885V29.8412Z" fill="black"/>
<path d="M30.3412 29.8412H26.8885V33.2939H30.3412V29.8412Z" fill="black"/>
<path d="M33.7939 29.8412H30.3412V33.2939H33.7939V29.8412Z" fill="black"/>
<path d="M40.6993 29.8412H37.2466V33.2939H40.6993V29.8412Z" fill="black"/>
<path d="M47.6047 29.8412H44.152V33.2939H47.6047V29.8412Z" fill="black"/>
<path d="M54.5101 29.8412H51.0574L51.0574 33.2939H54.5101L54.5101 29.8412Z" fill="black"/>
<path d="M61.4155 29.8412H57.9628V33.2939H61.4155V29.8412Z" fill="black"/>
<path d="M68.3209 29.8412H64.8682V33.2939H68.3209V29.8412Z" fill="black"/>
<path d="M75.2264 29.8412H71.7737V33.2939H75.2264V29.8412Z" fill="black"/>
<path d="M82.1318 29.8412H78.6791V33.2939H82.1318V29.8412Z" fill="black"/>
<path d="M89.0372 29.8412H85.5845V33.2939H89.0372V29.8412Z" fill="black"/>
<path d="M95.9426 29.8412H92.4899V33.2939H95.9426V29.8412Z" fill="black"/>
<path d="M102.848 29.8412H99.3953V33.2939H102.848V29.8412Z" fill="black"/>
<path d="M109.753 29.8412H106.301V33.2939H109.753V29.8412Z" fill="black"/>
<path d="M116.659 29.8412H113.206V33.2939H116.659V29.8412Z" fill="black"/>
<path d="M120.111 29.8412H116.659V33.2939H120.111V29.8412Z" fill="black"/>
<path d="M123.564 29.8412H120.111V33.2939H123.564V29.8412Z" fill="black"/>
<path d="M127.017 29.8412H123.564V33.2939H127.017V29.8412Z" fill="black"/>
<path d="M130.47 29.8412H127.017V33.2939H130.47V29.8412Z" fill="black"/>
<path d="M133.922 29.8412H130.47V33.2939H133.922V29.8412Z" fill="black"/>
<path d="M137.375 29.8412H133.922V33.2939H137.375V29.8412Z" fill="black"/>
<path d="M40.6993 33.2939H37.2466V36.7466H40.6993V33.2939Z" fill="black"/>
<path d="M44.152 33.2939H40.6993V36.7466H44.152V33.2939Z" fill="black"/>
<path d="M51.0574 33.2939H47.6047V36.7466H51.0574L51.0574 33.2939Z" fill="black"/>
<path d="M57.9628 33.2939H54.5101L54.5101 36.7466H57.9628V33.2939Z" fill="black"/>
<path d="M61.4155 33.2939H57.9628V36.7466H61.4155V33.2939Z" fill="black"/>
<path d="M68.3209 33.2939H64.8682V36.7466H68.3209V33.2939Z" fill="black"/>
<path d="M75.2264 33.2939H71.7737V36.7466H75.2264V33.2939Z" fill="black"/>
<path d="M78.6791 33.2939H75.2264V36.7466H78.6791V33.2939Z" fill="black"/>
<path d="M85.5845 33.2939H82.1318V36.7466H85.5845V33.2939Z" fill="black"/>
<path d="M92.4899 33.2939H89.0372V36.7466H92.4899V33.2939Z" fill="black"/>
<path d="M99.3953 33.2939H95.9426V36.7466H99.3953V33.2939Z" fill="black"/>
<path d="M106.301 33.2939H102.848V36.7466H106.301V33.2939Z" fill="black"/>
<path d="M13.0777 36.7466H9.625V40.1993H13.0777V36.7466Z" fill="black"/>
<path d="M19.9831 36.7466H16.5304V40.1993H19.9831V36.7466Z" fill="black"/>
<path d="M30.3412 36.7466H26.8885V40.1993H30.3412V36.7466Z" fill="black"/>
<path d="M33.7939 36.7466H30.3412V40.1993H33.7939V36.7466Z" fill="black"/>
<path d="M44.152 36.7466H40.6993V40.1993H44.152V36.7466Z" fill="black"/>
<path d="M47.6047 36.7466H44.152V40.1993H47.6047V36.7466Z" fill="black"/>
<path d="M57.9628 36.7466H54.5101V40.1993H57.9628V36.7466Z" fill="black"/>
<path d="M64.8682 36.7466H61.4155L61.4155 40.1993H64.8682L64.8682 36.7466Z" fill="black"/>
<path d="M75.2264 36.7466H71.7737V40.1993H75.2264V36.7466Z" fill="black"/>
<path d="M78.6791 36.7466H75.2264V40.1993H78.6791V36.7466Z" fill="black"/>
<path d="M89.0372 36.7466H85.5845V40.1993H89.0372V36.7466Z" fill="black"/>
<path d="M95.9426 36.7466H92.4899V40.1993H95.9426V36.7466Z" fill="black"/>
<path d="M102.848 36.7466H99.3953V40.1993H102.848V36.7466Z" fill="black"/>
<path d="M106.301 36.7466H102.848V40.1993H106.301V36.7466Z" fill="black"/>
<path d="M109.753 36.7466H106.301V40.1993H109.753V36.7466Z" fill="black"/>
<path d="M113.206 36.7466H109.753V40.1993H113.206V36.7466Z" fill="black"/>
<path d="M116.659 36.7466H113.206V40.1993H116.659V36.7466Z" fill="black"/>
<path d="M130.47 36.7466H127.017V40.1993H130.47V36.7466Z" fill="black"/>
<path d="M137.375 36.7466H133.922V40.1993H137.375V36.7466Z" fill="black"/>
<path d="M30.3412 40.1993H26.8885V43.652H30.3412V40.1993Z" fill="black"/>
<path d="M40.6993 40.1993H37.2466V43.652H40.6993V40.1993Z" fill="black"/>
<path d="M47.6047 40.1993H44.152V43.652H47.6047V40.1993Z" fill="black"/>
<path d="M54.5101 40.1993H51.0574V43.652H54.5101L54.5101 40.1993Z" fill="black"/>
<path d="M61.4155 40.1993H57.9628V43.652H61.4155L61.4155 40.1993Z" fill="black"/>
<path d="M64.8682 40.1993H61.4155L61.4155 43.652H64.8682V40.1993Z" fill="black"/>
<path d="M85.5845 40.1993H82.1318V43.652H85.5845V40.1993Z" fill="black"/>
<path d="M92.4899 40.1993H89.0372V43.652H92.4899V40.1993Z" fill="black"/>
<path d="M106.301 40.1993H102.848V43.652H106.301V40.1993Z" fill="black"/>
<path d="M113.206 40.1993H109.753V43.652H113.206V40.1993Z" fill="black"/>
<path d="M116.659 40.1993H113.206V43.652H116.659V40.1993Z" fill="black"/>
<path d="M120.111 40.1993H116.659V43.652H120.111V40.1993Z" fill="black"/>
<path d="M123.564 40.1993H120.111V43.652H123.564V40.1993Z" fill="black"/>
<path d="M130.47 40.1993H127.017V43.652H130.47V40.1993Z" fill="black"/>
<path d="M137.375 40.1993H133.922V43.652H137.375V40.1993Z" fill="black"/>
<path d="M13.0777 43.652H9.625V47.1047H13.0777V43.652Z" fill="black"/>
<path d="M19.9831 43.652H16.5304V47.1047H19.9831V43.652Z" fill="black"/>
<path d="M23.4358 43.652H19.9831V47.1047H23.4358V43.652Z" fill="black"/>
<path d="M26.8885 43.652H23.4358V47.1047H26.8885V43.652Z" fill="black"/>
<path d="M33.7939 43.652H30.3412V47.1047H33.7939V43.652Z" fill="black"/>
<path d="M47.6047 43.652H44.152V47.1047H47.6047V43.652Z" fill="black"/>
<path d="M57.9628 43.652H54.5101L54.5101 47.1047H57.9628V43.652Z" fill="black"/>
<path d="M64.8682 43.652H61.4155L61.4155 47.1047H64.8682V43.652Z" fill="black"/>
<path d="M71.7737 43.652H68.321V47.1047H71.7737V43.652Z" fill="black"/>
<path d="M78.6791 43.652H75.2264V47.1047H78.6791V43.652Z" fill="black"/>
<path d="M85.5845 43.652H82.1318V47.1047H85.5845V43.652Z" fill="black"/>
<path d="M92.4899 43.652H89.0372V47.1047H92.4899V43.652Z" fill="black"/>
<path d="M95.9426 43.652H92.4899V47.1047H95.9426V43.652Z" fill="black"/>
<path d="M109.753 43.652H106.301V47.1047H109.753V43.652Z" fill="black"/>
<path d="M113.206 43.652H109.753V47.1047H113.206V43.652Z" fill="black"/>
<path d="M116.659 43.652H113.206V47.1047H116.659V43.652Z" fill="black"/>
<path d="M120.111 43.652H116.659V47.1047H120.111V43.652Z" fill="black"/>
<path d="M123.564 43.652H120.111V47.1047H123.564V43.652Z" fill="black"/>
<path d="M133.922 43.652H130.47V47.1047H133.922V43.652Z" fill="black"/>
<path d="M19.9831 47.1047H16.5304V50.5574H19.9831V47.1047Z" fill="black"/>
<path d="M37.2466 47.1047H33.7939V50.5574H37.2466V47.1047Z" fill="black"/>
<path d="M44.152 47.1047H40.6993V50.5574H44.152V47.1047Z" fill="black"/>
<path d="M47.6047 47.1047H44.152V50.5574H47.6047V47.1047Z" fill="black"/>
<path d="M57.9628 47.1047H54.5101V50.5574H57.9628V47.1047Z" fill="black"/>
<path d="M61.4155 47.1047H57.9628V50.5574H61.4155L61.4155 47.1047Z" fill="black"/>
<path d="M68.321 47.1047H64.8682L64.8682 50.5574H68.3209L68.321 47.1047Z" fill="black"/>
<path d="M78.6791 47.1047H75.2264V50.5574H78.6791V47.1047Z" fill="black"/>
<path d="M89.0372 47.1047H85.5845V50.5574H89.0372V47.1047Z" fill="black"/>
<path d="M99.3953 47.1047H95.9426V50.5574H99.3953V47.1047Z" fill="black"/>
<path d="M102.848 47.1047H99.3953V50.5574H102.848V47.1047Z" fill="black"/>
<path d="M106.301 47.1047H102.848V50.5574H106.301V47.1047Z" fill="black"/>
<path d="M109.753 47.1047H106.301V50.5574H109.753V47.1047Z" fill="black"/>
<path d="M113.206 47.1047H109.753V50.5574H113.206V47.1047Z" fill="black"/>
<path d="M120.111 47.1047H116.659V50.5574H120.111V47.1047Z" fill="black"/>
<path d="M127.017 47.1047H123.564V50.5574H127.017V47.1047Z" fill="black"/>
<path d="M130.47 47.1047H127.017V50.5574H130.47V47.1047Z" fill="black"/>
<path d="M133.922 47.1047H130.47V50.5574H133.922V47.1047Z" fill="black"/>
<path d="M137.375 47.1047H133.922V50.5574H137.375V47.1047Z" fill="black"/>
<path d="M19.9831 50.5574H16.5304V54.0101H19.9831V50.5574Z" fill="black"/>
<path d="M23.4358 50.5574L19.9831 50.5574V54.0101H23.4358V50.5574Z" fill="black"/>
<path d="M26.8885 50.5574H23.4358V54.0101H26.8885V50.5574Z" fill="black"/>
<path d="M30.3412 50.5574H26.8885V54.0101H30.3412V50.5574Z" fill="black"/>
<path d="M33.7939 50.5574L30.3412 50.5574V54.0101H33.7939V50.5574Z" fill="black"/>
<path d="M37.2466 50.5574H33.7939V54.0101H37.2466V50.5574Z" fill="black"/>
<path d="M44.152 50.5574H40.6993V54.0101H44.152V50.5574Z" fill="black"/>
<path d="M47.6047 50.5574H44.152V54.0101H47.6047V50.5574Z" fill="black"/>
<path d="M54.5101 50.5574L51.0574 50.5574V54.0101H54.5101L54.5101 50.5574Z" fill="black"/>
<path d="M57.9628 50.5574H54.5101L54.5101 54.0101H57.9628V50.5574Z" fill="black"/>
<path d="M64.8682 50.5574H61.4155L61.4155 54.0101H64.8682L64.8682 50.5574Z" fill="black"/>
<path d="M68.3209 50.5574H64.8682L64.8682 54.0101H68.3209V50.5574Z" fill="black"/>
<path d="M71.7737 50.5574L68.3209 50.5574V54.0101H71.7737V50.5574Z" fill="black"/>
<path d="M75.2264 50.5574L71.7737 50.5574V54.0101H75.2264V50.5574Z" fill="black"/>
<path d="M78.6791 50.5574H75.2264V54.0101H78.6791V50.5574Z" fill="black"/>
<path d="M85.5845 50.5574L82.1318 50.5574V54.0101H85.5845V50.5574Z" fill="black"/>
<path d="M89.0372 50.5574H85.5845V54.0101H89.0372V50.5574Z" fill="black"/>
<path d="M92.4899 50.5574L89.0372 50.5574V54.0101H92.4899V50.5574Z" fill="black"/>
<path d="M113.206 50.5574H109.753V54.0101H113.206V50.5574Z" fill="black"/>
<path d="M120.111 50.5574H116.659V54.0101H120.111V50.5574Z" fill="black"/>
<path d="M127.017 50.5574H123.564V54.0101H127.017V50.5574Z" fill="black"/>
<path d="M130.47 50.5574H127.017V54.0101H130.47V50.5574Z" fill="black"/>
<path d="M19.9831 54.0101H16.5304V57.4628H19.9831V54.0101Z" fill="black"/>
<path d="M26.8885 54.0101H23.4358V57.4628H26.8885V54.0101Z" fill="black"/>
<path d="M30.3412 54.0101H26.8885V57.4628H30.3412V54.0101Z" fill="black"/>
<path d="M40.6993 54.0101H37.2466V57.4628H40.6993V54.0101Z" fill="black"/>
<path d="M44.152 54.0101H40.6993V57.4628H44.152V54.0101Z" fill="black"/>
<path d="M51.0574 54.0101H47.6047V57.4628H51.0574L51.0574 54.0101Z" fill="black"/>
<path d="M57.9628 54.0101H54.5101L54.5101 57.4628H57.9628V54.0101Z" fill="black"/>
<path d="M64.8682 54.0101H61.4155V57.4628H64.8682V54.0101Z" fill="black"/>
<path d="M68.3209 54.0101H64.8682V57.4628H68.3209V54.0101Z" fill="black"/>
<path d="M75.2264 54.0101H71.7737L71.7737 57.4628H75.2264V54.0101Z" fill="black"/>
<path d="M78.6791 54.0101H75.2264V57.4628H78.6791V54.0101Z" fill="black"/>
<path d="M82.1318 54.0101H78.6791V57.4628H82.1318V54.0101Z" fill="black"/>
<path d="M99.3953 54.0101H95.9426V57.4628H99.3953V54.0101Z" fill="black"/>
<path d="M113.206 54.0101H109.753V57.4628H113.206V54.0101Z" fill="black"/>
<path d="M120.111 54.0101H116.659V57.4628H120.111V54.0101Z" fill="black"/>
<path d="M123.564 54.0101H120.111V57.4628H123.564V54.0101Z" fill="black"/>
<path d="M130.47 54.0101H127.017V57.4628H130.47V54.0101Z" fill="black"/>
<path d="M137.375 54.0101H133.922V57.4628H137.375V54.0101Z" fill="black"/>
<path d="M13.0777 57.4628H9.625V60.9155H13.0777V57.4628Z" fill="black"/>
<path d="M16.5304 57.4628H13.0777V60.9155H16.5304V57.4628Z" fill="black"/>
<path d="M23.4358 57.4628H19.9831V60.9155H23.4358V57.4628Z" fill="black"/>
<path d="M26.8885 57.4628H23.4358V60.9155H26.8885V57.4628Z" fill="black"/>
<path d="M30.3412 57.4628H26.8885V60.9155H30.3412V57.4628Z" fill="black"/>
<path d="M33.7939 57.4628H30.3412V60.9155H33.7939V57.4628Z" fill="black"/>
<path d="M37.2466 57.4628H33.7939V60.9155H37.2466V57.4628Z" fill="black"/>
<path d="M40.6993 57.4628H37.2466V60.9155H40.6993V57.4628Z" fill="black"/>
<path d="M47.6047 57.4628H44.152V60.9155H47.6047V57.4628Z" fill="black"/>
<path d="M61.4155 57.4628H57.9628V60.9155H61.4155L61.4155 57.4628Z" fill="black"/>
<path d="M68.3209 57.4628H64.8682L64.8682 60.9155H68.3209V57.4628Z" fill="black"/>
<path d="M78.6791 57.4628H75.2264V60.9155H78.6791V57.4628Z" fill="black"/>
<path d="M82.1318 57.4628H78.6791V60.9155H82.1318V57.4628Z" fill="black"/>
<path d="M85.5845 57.4628H82.1318V60.9155H85.5845V57.4628Z" fill="black"/>
<path d="M89.0372 57.4628H85.5845V60.9155H89.0372V57.4628Z" fill="black"/>
<path d="M92.4899 57.4628H89.0372V60.9155H92.4899V57.4628Z" fill="black"/>
<path d="M102.848 57.4628H99.3953V60.9155H102.848V57.4628Z" fill="black"/>
<path d="M106.301 57.4628H102.848V60.9155H106.301V57.4628Z" fill="black"/>
<path d="M109.753 57.4628H106.301V60.9155H109.753V57.4628Z" fill="black"/>
<path d="M123.564 57.4628H120.111V60.9155H123.564V57.4628Z" fill="black"/>
<path d="M16.5304 60.9155H13.0777V64.3682H16.5304V60.9155Z" fill="black"/>
<path d="M19.9831 60.9155H16.5304V64.3682H19.9831V60.9155Z" fill="black"/>
<path d="M40.6993 60.9155H37.2466V64.3682H40.6993V60.9155Z" fill="black"/>
<path d="M47.6047 60.9155H44.152V64.3682H47.6047V60.9155Z" fill="black"/>
<path d="M54.5101 60.9155H51.0574V64.3682H54.5101V60.9155Z" fill="black"/>
<path d="M57.9628 60.9155L54.5101 60.9155V64.3682H57.9628V60.9155Z" fill="black"/>
<path d="M61.4155 60.9155H57.9628V64.3682H61.4155V60.9155Z" fill="black"/>
<path d="M64.8682 60.9155H61.4155V64.3682H64.8682L64.8682 60.9155Z" fill="black"/>
<path d="M78.6791 60.9155H75.2264V64.3682H78.6791V60.9155Z" fill="black"/>
<path d="M85.5845 60.9155H82.1318V64.3682H85.5845V60.9155Z" fill="black"/>
<path d="M89.0372 60.9155H85.5845V64.3682H89.0372V60.9155Z" fill="black"/>
<path d="M92.4899 60.9155H89.0372V64.3682H92.4899V60.9155Z" fill="black"/>
<path d="M95.9426 60.9155L92.4899 60.9155V64.3682H95.9426V60.9155Z" fill="black"/>
<path d="M102.848 60.9155H99.3953V64.3682H102.848V60.9155Z" fill="black"/>
<path d="M109.753 60.9155H106.301V64.3682H109.753V60.9155Z" fill="black"/>
<path d="M113.206 60.9155L109.753 60.9155V64.3682H113.206V60.9155Z" fill="black"/>
<path d="M116.659 60.9155H113.206V64.3682H116.659V60.9155Z" fill="black"/>
<path d="M133.922 60.9155H130.47V64.3682H133.922V60.9155Z" fill="black"/>
<path d="M13.0777 64.3682L9.625 64.3682V67.8209H13.0777V64.3682Z" fill="black"/>
<path d="M16.5304 64.3682H13.0777V67.8209H16.5304V64.3682Z" fill="black"/>
<path d="M19.9831 64.3682H16.5304V67.8209H19.9831V64.3682Z" fill="black"/>
<path d="M23.4358 64.3682L19.9831 64.3682V67.8209H23.4358V64.3682Z" fill="black"/>
<path d="M30.3412 64.3682H26.8885V67.8209H30.3412V64.3682Z" fill="black"/>
<path d="M33.7939 64.3682H30.3412V67.8209H33.7939V64.3682Z" fill="black"/>
<path d="M37.2466 64.3682L33.7939 64.3682V67.8209H37.2466V64.3682Z" fill="black"/>
<path d="M54.5101 64.3682H51.0574V67.8209H54.5101V64.3682Z" fill="black"/>
<path d="M57.9628 64.3682H54.5101V67.8209H57.9628V64.3682Z" fill="black"/>
<path d="M64.8682 64.3682H61.4155L61.4155 67.8209H64.8682V64.3682Z" fill="black"/>
<path d="M68.3209 64.3682L64.8682 64.3682V67.8209H68.3209V64.3682Z" fill="black"/>
<path d="M71.7737 64.3682H68.3209V67.8209H71.7737V64.3682Z" fill="black"/>
<path d="M75.2264 64.3682L71.7737 64.3682V67.8209H75.2264V64.3682Z" fill="black"/>
<path d="M78.6791 64.3682H75.2264V67.8209H78.6791V64.3682Z" fill="black"/>
<path d="M82.1318 64.3682H78.6791V67.8209H82.1318V64.3682Z" fill="black"/>
<path d="M85.5845 64.3682H82.1318V67.8209H85.5845V64.3682Z" fill="black"/>
<path d="M89.0372 64.3682H85.5845V67.8209H89.0372V64.3682Z" fill="black"/>
<path d="M113.206 64.3682H109.753V67.8209H113.206V64.3682Z" fill="black"/>
<path d="M116.659 64.3682H113.206V67.8209H116.659V64.3682Z" fill="black"/>
<path d="M123.564 64.3682H120.111V67.8209H123.564V64.3682Z" fill="black"/>
<path d="M127.017 64.3682H123.564V67.8209H127.017V64.3682Z" fill="black"/>
<path d="M130.47 64.3682L127.017 64.3682V67.8209H130.47V64.3682Z" fill="black"/>
<path d="M133.922 64.3682H130.47V67.8209H133.922V64.3682Z" fill="black"/>
<path d="M137.375 64.3682L133.922 64.3682V67.8209H137.375V64.3682Z" fill="black"/>
<path d="M13.0777 67.8209H9.625V71.2737H13.0777V67.8209Z" fill="black"/>
<path d="M16.5304 67.8209H13.0777V71.2737H16.5304V67.8209Z" fill="black"/>
<path d="M19.9831 67.8209H16.5304V71.2737H19.9831V67.8209Z" fill="black"/>
<path d="M23.4358 67.8209H19.9831V71.2737H23.4358V67.8209Z" fill="black"/>
<path d="M30.3412 67.8209H26.8885V71.2737H30.3412V67.8209Z" fill="black"/>
<path d="M37.2466 67.8209H33.7939V71.2737H37.2466V67.8209Z" fill="black"/>
<path d="M40.6993 67.821L37.2466 67.8209V71.2737H40.6993V67.821Z" fill="black"/>
<path d="M44.152 67.821H40.6993V71.2737H44.152V67.821Z" fill="black"/>
<path d="M47.6047 67.821H44.152V71.2737H47.6047V67.821Z" fill="black"/>
<path d="M61.4155 67.8209H57.9628V71.2737H61.4155L61.4155 67.8209Z" fill="black"/>
<path d="M68.3209 67.8209H64.8682L64.8682 71.2737H68.3209V67.8209Z" fill="black"/>
<path d="M75.2264 67.8209H71.7737L71.7737 71.2737H75.2264V67.8209Z" fill="black"/>
<path d="M85.5845 67.8209H82.1318V71.2737H85.5845V67.8209Z" fill="black"/>
<path d="M92.4899 67.821L89.0372 67.8209V71.2737H92.4899V67.821Z" fill="black"/>
<path d="M95.9426 67.821H92.4899V71.2737H95.9426V67.821Z" fill="black"/>
<path d="M99.3953 67.821H95.9426V71.2737H99.3953V67.821Z" fill="black"/>
<path d="M102.848 67.821H99.3953V71.2737H102.848V67.821Z" fill="black"/>
<path d="M116.659 67.8209H113.206V71.2737H116.659V67.8209Z" fill="black"/>
<path d="M123.564 67.8209H120.111V71.2737H123.564V67.8209Z" fill="black"/>
<path d="M16.5304 71.2737H13.0777V74.7264H16.5304V71.2737Z" fill="black"/>
<path d="M23.4358 71.2737H19.9831V74.7264H23.4358V71.2737Z" fill="black"/>
<path d="M26.8885 71.2737H23.4358V74.7264H26.8885V71.2737Z" fill="black"/>
<path d="M30.3412 71.2737H26.8885V74.7264H30.3412V71.2737Z" fill="black"/>
<path d="M33.7939 71.2737H30.3412V74.7264H33.7939V71.2737Z" fill="black"/>
<path d="M61.4155 71.2737H57.9628V74.7264H61.4155V71.2737Z" fill="black"/>
<path d="M64.8682 71.2737H61.4155V74.7264H64.8682L64.8682 71.2737Z" fill="black"/>
<path d="M68.3209 71.2737H64.8682L64.8682 74.7264H68.3209V71.2737Z" fill="black"/>
<path d="M71.7737 71.2737H68.3209V74.7264H71.7737L71.7737 71.2737Z" fill="black"/>
<path d="M78.6791 71.2737L75.2264 71.2737V74.7264H78.6791V71.2737Z" fill="black"/>
<path d="M82.1318 71.2737L78.6791 71.2737V74.7264H82.1318V71.2737Z" fill="black"/>
<path d="M106.301 71.2737L102.848 71.2737V74.7264H106.301V71.2737Z" fill="black"/>
<path d="M116.659 71.2737H113.206V74.7264H116.659V71.2737Z" fill="black"/>
<path d="M120.111 71.2737H116.659V74.7264H120.111V71.2737Z" fill="black"/>
<path d="M123.564 71.2737H120.111V74.7264H123.564V71.2737Z" fill="black"/>
<path d="M127.017 71.2737L123.564 71.2737V74.7264H127.017V71.2737Z" fill="black"/>
<path d="M130.47 71.2737H127.017V74.7264H130.47V71.2737Z" fill="black"/>
<path d="M133.922 71.2737H130.47V74.7264H133.922V71.2737Z" fill="black"/>
<path d="M13.0777 74.7264H9.625V78.1791H13.0777V74.7264Z" fill="black"/>
<path d="M19.9831 74.7264H16.5304V78.1791H19.9831V74.7264Z" fill="black"/>
<path d="M37.2466 74.7264H33.7939V78.1791H37.2466V74.7264Z" fill="black"/>
<path d="M51.0574 74.7264H47.6047V78.1791H51.0574V74.7264Z" fill="black"/>
<path d="M57.9628 74.7264H54.5101V78.1791H57.9628V74.7264Z" fill="black"/>
<path d="M61.4155 74.7264H57.9628V78.1791H61.4155V74.7264Z" fill="black"/>
<path d="M64.8682 74.7264H61.4155V78.1791H64.8682V74.7264Z" fill="black"/>
<path d="M75.2264 74.7264H71.7737L71.7737 78.1791H75.2264V74.7264Z" fill="black"/>
<path d="M82.1318 74.7264H78.6791V78.1791H82.1318V74.7264Z" fill="black"/>
<path d="M85.5845 74.7264H82.1318V78.1791H85.5845V74.7264Z" fill="black"/>
<path d="M89.0372 74.7264H85.5845V78.1791H89.0372V74.7264Z" fill="black"/>
<path d="M92.4899 74.7264H89.0372V78.1791H92.4899V74.7264Z" fill="black"/>
<path d="M95.9426 74.7264H92.4899V78.1791H95.9426V74.7264Z" fill="black"/>
<path d="M106.301 74.7264H102.848V78.1791H106.301V74.7264Z" fill="black"/>
<path d="M113.206 74.7264H109.753V78.1791H113.206V74.7264Z" fill="black"/>
<path d="M116.659 74.7264H113.206V78.1791H116.659V74.7264Z" fill="black"/>
<path d="M120.111 74.7264H116.659V78.1791H120.111V74.7264Z" fill="black"/>
<path d="M130.47 74.7264H127.017V78.1791H130.47V74.7264Z" fill="black"/>
<path d="M137.375 74.7264H133.922V78.1791H137.375V74.7264Z" fill="black"/>
<path d="M13.0777 78.1791H9.625V81.6318H13.0777V78.1791Z" fill="black"/>
<path d="M16.5304 78.1791H13.0777V81.6318H16.5304V78.1791Z" fill="black"/>
<path d="M19.9831 78.1791H16.5304V81.6318H19.9831V78.1791Z" fill="black"/>
<path d="M30.3412 78.1791H26.8885V81.6318H30.3412V78.1791Z" fill="black"/>
<path d="M33.7939 78.1791H30.3412V81.6318H33.7939V78.1791Z" fill="black"/>
<path d="M37.2466 78.1791H33.7939V81.6318H37.2466V78.1791Z" fill="black"/>
<path d="M40.6993 78.1791H37.2466V81.6318H40.6993V78.1791Z" fill="black"/>
<path d="M44.152 78.1791H40.6993V81.6318H44.152V78.1791Z" fill="black"/>
<path d="M47.6047 78.1791H44.152V81.6318H47.6047V78.1791Z" fill="black"/>
<path d="M51.0574 78.1791H47.6047V81.6318H51.0574V78.1791Z" fill="black"/>
<path d="M54.5101 78.1791H51.0574V81.6318H54.5101L54.5101 78.1791Z" fill="black"/>
<path d="M57.9628 78.1791H54.5101L54.5101 81.6318H57.9628V78.1791Z" fill="black"/>
<path d="M64.8682 78.1791H61.4155L61.4155 81.6318H64.8682V78.1791Z" fill="black"/>
<path d="M82.1318 78.1791H78.6791V81.6318H82.1318V78.1791Z" fill="black"/>
<path d="M85.5845 78.1791H82.1318V81.6318H85.5845V78.1791Z" fill="black"/>
<path d="M92.4899 78.1791H89.0372V81.6318H92.4899V78.1791Z" fill="black"/>
<path d="M95.9426 78.1791H92.4899V81.6318H95.9426V78.1791Z" fill="black"/>
<path d="M99.3953 78.1791H95.9426V81.6318H99.3953V78.1791Z" fill="black"/>
<path d="M102.848 78.1791H99.3953V81.6318H102.848V78.1791Z" fill="black"/>
<path d="M106.301 78.1791H102.848V81.6318H106.301V78.1791Z" fill="black"/>
<path d="M109.753 78.1791H106.301V81.6318H109.753V78.1791Z" fill="black"/>
<path d="M113.206 78.1791H109.753V81.6318H113.206V78.1791Z" fill="black"/>
<path d="M120.111 78.1791H116.659V81.6318H120.111V78.1791Z" fill="black"/>
<path d="M137.375 78.1791H133.922V81.6318H137.375V78.1791Z" fill="black"/>
<path d="M13.0777 81.6318H9.625V85.0845H13.0777V81.6318Z" fill="black"/>
<path d="M19.9831 81.6318H16.5304V85.0845H19.9831V81.6318Z" fill="black"/>
<path d="M23.4358 81.6318H19.9831V85.0845H23.4358V81.6318Z" fill="black"/>
<path d="M26.8885 81.6318H23.4358V85.0845H26.8885V81.6318Z" fill="black"/>
<path d="M40.6993 81.6318H37.2466V85.0845H40.6993V81.6318Z" fill="black"/>
<path d="M44.152 81.6318H40.6993V85.0845H44.152V81.6318Z" fill="black"/>
<path d="M57.9628 81.6318H54.5101L54.5101 85.0845H57.9628V81.6318Z" fill="black"/>
<path d="M64.8682 81.6318H61.4155V85.0845H64.8682V81.6318Z" fill="black"/>
<path d="M68.3209 81.6318H64.8682V85.0845H68.3209V81.6318Z" fill="black"/>
<path d="M75.2264 81.6318H71.7737V85.0845H75.2264V81.6318Z" fill="black"/>
<path d="M89.0372 81.6318H85.5845V85.0845H89.0372V81.6318Z" fill="black"/>
<path d="M95.9426 81.6318H92.4899V85.0845H95.9426V81.6318Z" fill="black"/>
<path d="M102.848 81.6318H99.3953V85.0845H102.848V81.6318Z" fill="black"/>
<path d="M113.206 81.6318H109.753V85.0845H113.206V81.6318Z" fill="black"/>
<path d="M120.111 81.6318H116.659V85.0845H120.111V81.6318Z" fill="black"/>
<path d="M123.564 81.6318H120.111V85.0845H123.564V81.6318Z" fill="black"/>
<path d="M130.47 81.6318H127.017V85.0845H130.47V81.6318Z" fill="black"/>
<path d="M13.0777 85.0845H9.625V88.5372H13.0777V85.0845Z" fill="black"/>
<path d="M16.5304 85.0845H13.0777V88.5372H16.5304V85.0845Z" fill="black"/>
<path d="M26.8885 85.0845H23.4358V88.5372H26.8885V85.0845Z" fill="black"/>
<path d="M33.7939 85.0845H30.3412V88.5372H33.7939V85.0845Z" fill="black"/>
<path d="M37.2466 85.0845H33.7939V88.5372H37.2466V85.0845Z" fill="black"/>
<path d="M40.6993 85.0845H37.2466V88.5372H40.6993V85.0845Z" fill="black"/>
<path d="M44.152 85.0845H40.6993V88.5372H44.152V85.0845Z" fill="black"/>
<path d="M51.0574 85.0845H47.6047V88.5372H51.0574V85.0845Z" fill="black"/>
<path d="M75.2264 85.0845H71.7737V88.5372H75.2264V85.0845Z" fill="black"/>
<path d="M78.6791 85.0845H75.2264V88.5372H78.6791V85.0845Z" fill="black"/>
<path d="M85.5845 85.0845H82.1318V88.5372H85.5845V85.0845Z" fill="black"/>
<path d="M89.0372 85.0845H85.5845V88.5372H89.0372V85.0845Z" fill="black"/>
<path d="M92.4899 85.0845H89.0372V88.5372H92.4899V85.0845Z" fill="black"/>
<path d="M95.9426 85.0845H92.4899V88.5372H95.9426V85.0845Z" fill="black"/>
<path d="M99.3953 85.0845H95.9426V88.5372H99.3953V85.0845Z" fill="black"/>
<path d="M102.848 85.0845H99.3953V88.5372H102.848V85.0845Z" fill="black"/>
<path d="M113.206 85.0845H109.753V88.5372H113.206V85.0845Z" fill="black"/>
<path d="M130.47 85.0845H127.017V88.5372H130.47V85.0845Z" fill="black"/>
<path d="M137.375 85.0845H133.922V88.5372H137.375V85.0845Z" fill="black"/>
<path d="M13.0777 88.5372H9.625V91.9899H13.0777V88.5372Z" fill="black"/>
<path d="M16.5304 88.5372H13.0777V91.9899H16.5304V88.5372Z" fill="black"/>
<path d="M23.4358 88.5372H19.9831V91.9899H23.4358V88.5372Z" fill="black"/>
<path d="M37.2466 88.5372H33.7939V91.9899H37.2466V88.5372Z" fill="black"/>
<path d="M40.6993 88.5372H37.2466V91.9899H40.6993V88.5372Z" fill="black"/>
<path d="M47.6047 88.5372H44.152V91.9899H47.6047V88.5372Z" fill="black"/>
<path d="M54.5101 88.5372H51.0574L51.0574 91.9899H54.5101V88.5372Z" fill="black"/>
<path d="M57.9628 88.5372H54.5101V91.9899H57.9628V88.5372Z" fill="black"/>
<path d="M61.4155 88.5372H57.9628V91.9899H61.4155V88.5372Z" fill="black"/>
<path d="M64.8682 88.5372H61.4155V91.9899H64.8682V88.5372Z" fill="black"/>
<path d="M78.6791 88.5372H75.2264V91.9899H78.6791V88.5372Z" fill="black"/>
<path d="M85.5845 88.5372H82.1318V91.9899H85.5845V88.5372Z" fill="black"/>
<path d="M89.0372 88.5372H85.5845V91.9899H89.0372V88.5372Z" fill="black"/>
<path d="M102.848 88.5372H99.3953V91.9899H102.848V88.5372Z" fill="black"/>
<path d="M109.753 88.5372H106.301V91.9899H109.753V88.5372Z" fill="black"/>
<path d="M113.206 88.5372H109.753V91.9899H113.206V88.5372Z" fill="black"/>
<path d="M116.659 88.5372H113.206V91.9899H116.659V88.5372Z" fill="black"/>
<path d="M120.111 88.5372H116.659V91.9899H120.111V88.5372Z" fill="black"/>
<path d="M133.922 88.5372H130.47V91.9899H133.922V88.5372Z" fill="black"/>
<path d="M23.4358 91.9899H19.9831V95.4426H23.4358V91.9899Z" fill="black"/>
<path d="M33.7939 91.9899H30.3412V95.4426H33.7939V91.9899Z" fill="black"/>
<path d="M57.9628 91.9899H54.5101L54.5101 95.4426H57.9628V91.9899Z" fill="black"/>
<path d="M64.8682 91.9899H61.4155L61.4155 95.4426H64.8682V91.9899Z" fill="black"/>
<path d="M68.3209 91.9899H64.8682V95.4426H68.3209V91.9899Z" fill="black"/>
<path d="M71.7737 91.9899H68.3209V95.4426H71.7737V91.9899Z" fill="black"/>
<path d="M75.2264 91.9899H71.7737V95.4426H75.2264V91.9899Z" fill="black"/>
<path d="M78.6791 91.9899H75.2264V95.4426H78.6791V91.9899Z" fill="black"/>
<path d="M82.1318 91.9899H78.6791V95.4426H82.1318V91.9899Z" fill="black"/>
<path d="M92.4899 91.9899H89.0372V95.4426H92.4899V91.9899Z" fill="black"/>
<path d="M109.753 91.9899H106.301V95.4426H109.753V91.9899Z" fill="black"/>
<path d="M113.206 91.9899H109.753V95.4426H113.206V91.9899Z" fill="black"/>
<path d="M120.111 91.9899H116.659V95.4426H120.111V91.9899Z" fill="black"/>
<path d="M123.564 91.9899H120.111V95.4426H123.564V91.9899Z" fill="black"/>
<path d="M127.017 91.9899H123.564V95.4426H127.017V91.9899Z" fill="black"/>
<path d="M130.47 91.9899H127.017V95.4426H130.47V91.9899Z" fill="black"/>
<path d="M133.922 91.9899H130.47V95.4426H133.922V91.9899Z" fill="black"/>
<path d="M137.375 91.9899H133.922V95.4426H137.375V91.9899Z" fill="black"/>
<path d="M13.0777 95.4426H9.625V98.8953H13.0777V95.4426Z" fill="black"/>
<path d="M19.9831 95.4426H16.5304V98.8953H19.9831V95.4426Z" fill="black"/>
<path d="M23.4358 95.4426H19.9831V98.8953H23.4358V95.4426Z" fill="black"/>
<path d="M26.8885 95.4426H23.4358V98.8953H26.8885V95.4426Z" fill="black"/>
<path d="M44.152 95.4426H40.6993V98.8953H44.152V95.4426Z" fill="black"/>
<path d="M47.6047 95.4426H44.152V98.8953H47.6047V95.4426Z" fill="black"/>
<path d="M57.9628 95.4426H54.5101V98.8953H57.9628V95.4426Z" fill="black"/>
<path d="M68.3209 95.4426H64.8682L64.8682 98.8953H68.3209V95.4426Z" fill="black"/>
<path d="M75.2264 95.4426H71.7737L71.7737 98.8953H75.2264V95.4426Z" fill="black"/>
<path d="M85.5845 95.4426H82.1318V98.8953H85.5845V95.4426Z" fill="black"/>
<path d="M92.4899 95.4426H89.0372V98.8953H92.4899V95.4426Z" fill="black"/>
<path d="M95.9426 95.4426H92.4899V98.8953H95.9426V95.4426Z" fill="black"/>
<path d="M99.3953 95.4426H95.9426V98.8953H99.3953V95.4426Z" fill="black"/>
<path d="M116.659 95.4426H113.206V98.8953H116.659V95.4426Z" fill="black"/>
<path d="M123.564 95.4426H120.111V98.8953H123.564V95.4426Z" fill="black"/>
<path d="M13.0777 98.8953H9.625V102.348H13.0777V98.8953Z" fill="black"/>
<path d="M19.9831 98.8953H16.5304V102.348H19.9831V98.8953Z" fill="black"/>
<path d="M23.4358 98.8953H19.9831V102.348H23.4358V98.8953Z" fill="black"/>
<path d="M26.8885 98.8953H23.4358V102.348H26.8885V98.8953Z" fill="black"/>
<path d="M30.3412 98.8953H26.8885V102.348H30.3412V98.8953Z" fill="black"/>
<path d="M33.7939 98.8953H30.3412V102.348H33.7939V98.8953Z" fill="black"/>
<path d="M37.2466 98.8953H33.7939V102.348H37.2466V98.8953Z" fill="black"/>
<path d="M68.3209 98.8953H64.8682V102.348H68.3209V98.8953Z" fill="black"/>
<path d="M78.6791 98.8953H75.2264V102.348H78.6791V98.8953Z" fill="black"/>
<path d="M82.1318 98.8953H78.6791V102.348H82.1318V98.8953Z" fill="black"/>
<path d="M116.659 98.8953H113.206V102.348H116.659V98.8953Z" fill="black"/>
<path d="M120.111 98.8953H116.659V102.348H120.111V98.8953Z" fill="black"/>
<path d="M123.564 98.8953H120.111V102.348H123.564V98.8953Z" fill="black"/>
<path d="M127.017 98.8953H123.564V102.348H127.017V98.8953Z" fill="black"/>
<path d="M130.47 98.8953H127.017V102.348H130.47V98.8953Z" fill="black"/>
<path d="M133.922 98.8953H130.47V102.348H133.922V98.8953Z" fill="black"/>
<path d="M19.9831 102.348H16.5304V105.801H19.9831V102.348Z" fill="black"/>
<path d="M23.4358 102.348H19.9831V105.801H23.4358V102.348Z" fill="black"/>
<path d="M40.6993 102.348H37.2466V105.801H40.6993V102.348Z" fill="black"/>
<path d="M44.152 102.348H40.6993V105.801H44.152V102.348Z" fill="black"/>
<path d="M47.6047 102.348H44.152V105.801H47.6047V102.348Z" fill="black"/>
<path d="M57.9628 102.348H54.5101V105.801H57.9628V102.348Z" fill="black"/>
<path d="M61.4155 102.348H57.9628V105.801H61.4155V102.348Z" fill="black"/>
<path d="M68.3209 102.348H64.8682V105.801H68.3209V102.348Z" fill="black"/>
<path d="M71.7737 102.348H68.3209V105.801H71.7737V102.348Z" fill="black"/>
<path d="M75.2264 102.348H71.7737V105.801H75.2264V102.348Z" fill="black"/>
<path d="M78.6791 102.348H75.2264V105.801H78.6791V102.348Z" fill="black"/>
<path d="M85.5845 102.348H82.1318V105.801H85.5845V102.348Z" fill="black"/>
<path d="M89.0372 102.348H85.5845V105.801H89.0372V102.348Z" fill="black"/>
<path d="M92.4899 102.348H89.0372V105.801H92.4899V102.348Z" fill="black"/>
<path d="M99.3953 102.348H95.9426V105.801H99.3953V102.348Z" fill="black"/>
<path d="M102.848 102.348H99.3953V105.801H102.848V102.348Z" fill="black"/>
<path d="M106.301 102.348H102.848V105.801H106.301V102.348Z" fill="black"/>
<path d="M109.753 102.348H106.301V105.801H109.753V102.348Z" fill="black"/>
<path d="M123.564 102.348H120.111V105.801H123.564V102.348Z" fill="black"/>
<path d="M127.017 102.348H123.564V105.801H127.017V102.348Z" fill="black"/>
<path d="M130.47 102.348H127.017V105.801H130.47V102.348Z" fill="black"/>
<path d="M133.922 102.348H130.47V105.801H133.922V102.348Z" fill="black"/>
<path d="M137.375 102.348H133.922V105.801H137.375V102.348Z" fill="black"/>
<path d="M16.5304 105.801H13.0777V109.253H16.5304V105.801Z" fill="black"/>
<path d="M23.4358 105.801H19.9831V109.253H23.4358V105.801Z" fill="black"/>
<path d="M33.7939 105.801H30.3412V109.253H33.7939V105.801Z" fill="black"/>
<path d="M47.6047 105.801H44.152V109.253H47.6047V105.801Z" fill="black"/>
<path d="M51.0574 105.801H47.6047V109.253H51.0574V105.801Z" fill="black"/>
<path d="M57.9628 105.801H54.5101V109.253H57.9628V105.801Z" fill="black"/>
<path d="M68.3209 105.801H64.8682V109.253H68.3209V105.801Z" fill="black"/>
<path d="M71.7737 105.801H68.3209V109.253H71.7737V105.801Z" fill="black"/>
<path d="M78.6791 105.801H75.2264V109.253H78.6791V105.801Z" fill="black"/>
<path d="M82.1318 105.801H78.6791V109.253H82.1318V105.801Z" fill="black"/>
<path d="M85.5845 105.801H82.1318V109.253H85.5845V105.801Z" fill="black"/>
<path d="M89.0372 105.801H85.5845V109.253H89.0372V105.801Z" fill="black"/>
<path d="M92.4899 105.801H89.0372V109.253H92.4899V105.801Z" fill="black"/>
<path d="M109.753 105.801H106.301V109.253H109.753V105.801Z" fill="black"/>
<path d="M113.206 105.801H109.753V109.253H113.206V105.801Z" fill="black"/>
<path d="M116.659 105.801H113.206V109.253H116.659V105.801Z" fill="black"/>
<path d="M120.111 105.801H116.659V109.253H120.111V105.801Z" fill="black"/>
<path d="M123.564 105.801H120.111V109.253H123.564V105.801Z" fill="black"/>
<path d="M127.017 105.801H123.564V109.253H127.017V105.801Z" fill="black"/>
<path d="M130.47 105.801H127.017V109.253H130.47V105.801Z" fill="black"/>
<path d="M133.922 105.801H130.47V109.253H133.922V105.801Z" fill="black"/>
<path d="M137.375 105.801H133.922V109.253H137.375V105.801Z" fill="black"/>
<path d="M44.152 109.253H40.6993V112.706H44.152V109.253Z" fill="black"/>
<path d="M47.6047 109.253H44.152V112.706H47.6047V109.253Z" fill="black"/>
<path d="M51.0574 109.253H47.6047V112.706H51.0574V109.253Z" fill="black"/>
<path d="M57.9628 109.253H54.5101V112.706H57.9628V109.253Z" fill="black"/>
<path d="M68.3209 109.253H64.8682V112.706H68.3209V109.253Z" fill="black"/>
<path d="M71.7737 109.253H68.3209V112.706H71.7737V109.253Z" fill="black"/>
<path d="M75.2264 109.253H71.7737V112.706H75.2264V109.253Z" fill="black"/>
<path d="M85.5845 109.253H82.1318V112.706H85.5845V109.253Z" fill="black"/>
<path d="M89.0372 109.253H85.5845V112.706H89.0372V109.253Z" fill="black"/>
<path d="M95.9426 109.253H92.4899V112.706H95.9426V109.253Z" fill="black"/>
<path d="M99.3953 109.253H95.9426V112.706H99.3953V109.253Z" fill="black"/>
<path d="M102.848 109.253H99.3953V112.706H102.848V109.253Z" fill="black"/>
<path d="M109.753 109.253H106.301V112.706H109.753V109.253Z" fill="black"/>
<path d="M123.564 109.253H120.111V112.706H123.564V109.253Z" fill="black"/>
<path d="M127.017 109.253H123.564V112.706H127.017V109.253Z" fill="black"/>
<path d="M137.375 109.253H133.922V112.706H137.375V109.253Z" fill="black"/>
<path d="M13.0777 112.706H9.625V116.159H13.0777V112.706Z" fill="black"/>
<path d="M16.5304 112.706H13.0777V116.159H16.5304V112.706Z" fill="black"/>
<path d="M19.9831 112.706H16.5304V116.159H19.9831V112.706Z" fill="black"/>
<path d="M23.4358 112.706H19.9831V116.159H23.4358V112.706Z" fill="black"/>
<path d="M26.8885 112.706H23.4358V116.159H26.8885V112.706Z" fill="black"/>
<path d="M30.3412 112.706H26.8885V116.159H30.3412V112.706Z" fill="black"/>
<path d="M33.7939 112.706H30.3412V116.159H33.7939V112.706Z" fill="black"/>
<path d="M44.152 112.706H40.6993V116.159H44.152V112.706Z" fill="black"/>
<path d="M47.6047 112.706H44.152V116.159H47.6047V112.706Z" fill="black"/>
<path d="M54.5101 112.706H51.0574L51.0574 116.159H54.5101L54.5101 112.706Z" fill="black"/>
<path d="M57.9628 112.706H54.5101L54.5101 116.159H57.9628V112.706Z" fill="black"/>
<path d="M61.4155 112.706H57.9628V116.159H61.4155V112.706Z" fill="black"/>
<path d="M64.8682 112.706H61.4155V116.159H64.8682L64.8682 112.706Z" fill="black"/>
<path d="M68.3209 112.706H64.8682L64.8682 116.159H68.3209V112.706Z" fill="black"/>
<path d="M71.7737 112.706H68.3209V116.159H71.7737V112.706Z" fill="black"/>
<path d="M75.2264 112.706H71.7737V116.159H75.2264V112.706Z" fill="black"/>
<path d="M82.1318 112.706H78.6791V116.159H82.1318V112.706Z" fill="black"/>
<path d="M85.5845 112.706H82.1318V116.159H85.5845V112.706Z" fill="black"/>
<path d="M95.9426 112.706H92.4899V116.159H95.9426V112.706Z" fill="black"/>
<path d="M99.3953 112.706H95.9426V116.159H99.3953V112.706Z" fill="black"/>
<path d="M102.848 112.706H99.3953V116.159H102.848V112.706Z" fill="black"/>
<path d="M109.753 112.706H106.301V116.159H109.753V112.706Z" fill="black"/>
<path d="M116.659 112.706H113.206V116.159H116.659V112.706Z" fill="black"/>
<path d="M123.564 112.706H120.111V116.159H123.564V112.706Z" fill="black"/>
<path d="M13.0777 116.159H9.625V119.611H13.0777V116.159Z" fill="black"/>
<path d="M33.7939 116.159H30.3412V119.611H33.7939V116.159Z" fill="black"/>
<path d="M40.6993 116.159H37.2466V119.611H40.6993V116.159Z" fill="black"/>
<path d="M47.6047 116.159H44.152V119.611H47.6047V116.159Z" fill="black"/>
<path d="M54.5101 116.159H51.0574V119.611H54.5101V116.159Z" fill="black"/>
<path d="M57.9628 116.159H54.5101V119.611H57.9628V116.159Z" fill="black"/>
<path d="M64.8682 116.159H61.4155L61.4155 119.611H64.8682V116.159Z" fill="black"/>
<path d="M75.2264 116.159H71.7737L71.7737 119.611H75.2264V116.159Z" fill="black"/>
<path d="M82.1318 116.159H78.6791V119.611H82.1318V116.159Z" fill="black"/>
<path d="M92.4899 116.159H89.0372V119.611H92.4899V116.159Z" fill="black"/>
<path d="M106.301 116.159H102.848V119.611H106.301V116.159Z" fill="black"/>
<path d="M109.753 116.159H106.301V119.611H109.753V116.159Z" fill="black"/>
<path d="M123.564 116.159H120.111V119.611H123.564V116.159Z" fill="black"/>
<path d="M130.47 116.159H127.017V119.611H130.47V116.159Z" fill="black"/>
<path d="M137.375 116.159H133.922V119.611H137.375V116.159Z" fill="black"/>
<path d="M13.0777 119.611H9.625V123.064H13.0777V119.611Z" fill="black"/>
<path d="M19.9831 119.611H16.5304V123.064H19.9831V119.611Z" fill="black"/>
<path d="M23.4358 119.611H19.9831V123.064H23.4358V119.611Z" fill="black"/>
<path d="M26.8885 119.611H23.4358V123.064H26.8885V119.611Z" fill="black"/>
<path d="M33.7939 119.611H30.3412V123.064H33.7939V119.611Z" fill="black"/>
<path d="M47.6047 119.611H44.152V123.064H47.6047V119.611Z" fill="black"/>
<path d="M51.0574 119.611H47.6047V123.064H51.0574L51.0574 119.611Z" fill="black"/>
<path d="M64.8682 119.611H61.4155V123.064H64.8682V119.611Z" fill="black"/>
<path d="M75.2264 119.611H71.7737V123.064H75.2264V119.611Z" fill="black"/>
<path d="M78.6791 119.611H75.2264V123.064H78.6791V119.611Z" fill="black"/>
<path d="M92.4899 119.611H89.0372V123.064H92.4899V119.611Z" fill="black"/>
<path d="M102.848 119.611H99.3953V123.064H102.848V119.611Z" fill="black"/>
<path d="M109.753 119.611H106.301V123.064H109.753V119.611Z" fill="black"/>
<path d="M113.206 119.611H109.753V123.064H113.206V119.611Z" fill="black"/>
<path d="M116.659 119.611H113.206V123.064H116.659V119.611Z" fill="black"/>
<path d="M120.111 119.611H116.659V123.064H120.111V119.611Z" fill="black"/>
<path d="M123.564 119.611H120.111V123.064H123.564V119.611Z" fill="black"/>
<path d="M127.017 119.611H123.564V123.064H127.017V119.611Z" fill="black"/>
<path d="M130.47 119.611H127.017V123.064H130.47V119.611Z" fill="black"/>
<path d="M133.922 119.611H130.47V123.064H133.922V119.611Z" fill="black"/>
<path d="M13.0777 123.064H9.625V126.517H13.0777V123.064Z" fill="black"/>
<path d="M19.9831 123.064H16.5304V126.517H19.9831V123.064Z" fill="black"/>
<path d="M23.4358 123.064H19.9831V126.517H23.4358V123.064Z" fill="black"/>
<path d="M26.8885 123.064H23.4358V126.517H26.8885V123.064Z" fill="black"/>
<path d="M33.7939 123.064H30.3412V126.517H33.7939V123.064Z" fill="black"/>
<path d="M51.0574 123.064H47.6047V126.517H51.0574V123.064Z" fill="black"/>
<path d="M54.5101 123.064H51.0574V126.517H54.5101V123.064Z" fill="black"/>
<path d="M57.9628 123.064H54.5101V126.517H57.9628V123.064Z" fill="black"/>
<path d="M61.4155 123.064H57.9628V126.517H61.4155L61.4155 123.064Z" fill="black"/>
<path d="M64.8682 123.064H61.4155L61.4155 126.517H64.8682V123.064Z" fill="black"/>
<path d="M71.7737 123.064H68.321V126.517H71.7737L71.7737 123.064Z" fill="black"/>
<path d="M75.2264 123.064H71.7737L71.7737 126.517H75.2264V123.064Z" fill="black"/>
<path d="M89.0372 123.064H85.5845V126.517H89.0372V123.064Z" fill="black"/>
<path d="M92.4899 123.064H89.0372V126.517H92.4899V123.064Z" fill="black"/>
<path d="M99.3953 123.064H95.9426V126.517H99.3953V123.064Z" fill="black"/>
<path d="M13.0777 126.517H9.625V129.97H13.0777V126.517Z" fill="black"/>
<path d="M19.9831 126.517H16.5304V129.97H19.9831V126.517Z" fill="black"/>
<path d="M23.4358 126.517H19.9831V129.97H23.4358V126.517Z" fill="black"/>
<path d="M26.8885 126.517H23.4358V129.97H26.8885V126.517Z" fill="black"/>
<path d="M33.7939 126.517H30.3412V129.97H33.7939V126.517Z" fill="black"/>
<path d="M40.6993 126.517H37.2466V129.97H40.6993V126.517Z" fill="black"/>
<path d="M44.152 126.517H40.6993V129.97H44.152V126.517Z" fill="black"/>
<path d="M47.6047 126.517H44.152V129.97H47.6047V126.517Z" fill="black"/>
<path d="M61.4155 126.517H57.9628V129.97H61.4155V126.517Z" fill="black"/>
<path d="M75.2264 126.517H71.7737L71.7737 129.97H75.2264V126.517Z" fill="black"/>
<path d="M89.0372 126.517H85.5845V129.97H89.0372V126.517Z" fill="black"/>
<path d="M102.848 126.517H99.3953V129.97H102.848V126.517Z" fill="black"/>
<path d="M13.0777 129.97H9.625V133.422H13.0777V129.97Z" fill="black"/>
<path d="M33.7939 129.97H30.3412V133.422H33.7939V129.97Z" fill="black"/>
<path d="M44.152 129.97H40.6993V133.422H44.152V129.97Z" fill="black"/>
<path d="M64.8682 129.97H61.4155L61.4155 133.422H64.8682V129.97Z" fill="black"/>
<path d="M71.7737 129.97H68.321V133.422H71.7737L71.7737 129.97Z" fill="black"/>
<path d="M82.1318 129.97H78.6791V133.422H82.1318V129.97Z" fill="black"/>
<path d="M89.0372 129.97H85.5845V133.422H89.0372V129.97Z" fill="black"/>
<path d="M92.4899 129.97H89.0372V133.422H92.4899V129.97Z" fill="black"/>
<path d="M120.111 129.97H116.659V133.422H120.111V129.97Z" fill="black"/>
<path d="M127.017 129.97H123.564V133.422H127.017V129.97Z" fill="black"/>
<path d="M130.47 129.97H127.017V133.422H130.47V129.97Z" fill="black"/>
<path d="M13.0777 133.422H9.625V136.875H13.0777V133.422Z" fill="black"/>
<path d="M16.5304 133.422H13.0777V136.875H16.5304V133.422Z" fill="black"/>
<path d="M19.9831 133.422H16.5304V136.875H19.9831V133.422Z" fill="black"/>
<path d="M23.4358 133.422H19.9831V136.875H23.4358V133.422Z" fill="black"/>
<path d="M26.8885 133.422H23.4358V136.875H26.8885V133.422Z" fill="black"/>
<path d="M30.3412 133.422H26.8885V136.875H30.3412V133.422Z" fill="black"/>
<path d="M33.7939 133.422H30.3412V136.875H33.7939V133.422Z" fill="black"/>
<path d="M40.6993 133.422H37.2466V136.875H40.6993V133.422Z" fill="black"/>
<path d="M44.152 133.422H40.6993V136.875H44.152V133.422Z" fill="black"/>
<path d="M47.6047 133.422H44.152V136.875H47.6047V133.422Z" fill="black"/>
<path d="M54.5101 133.422H51.0574V136.875H54.5101V133.422Z" fill="black"/>
<path d="M57.9628 133.422H54.5101V136.875H57.9628V133.422Z" fill="black"/>
<path d="M61.4155 133.422H57.9628V136.875H61.4155L61.4155 133.422Z" fill="black"/>
<path d="M64.8682 133.422H61.4155L61.4155 136.875H64.8682V133.422Z" fill="black"/>
<path d="M71.7737 133.422H68.321V136.875H71.7737V133.422Z" fill="black"/>
<path d="M75.2264 133.422H71.7737V136.875H75.2264V133.422Z" fill="black"/>
<path d="M85.5845 133.422H82.1318V136.875H85.5845V133.422Z" fill="black"/>
<path d="M89.0372 133.422H85.5845V136.875H89.0372V133.422Z" fill="black"/>
<path d="M95.9426 133.422H92.4899V136.875H95.9426V133.422Z" fill="black"/>
<path d="M99.3953 133.422H95.9426V136.875H99.3953V133.422Z" fill="black"/>
<path d="M102.848 133.422H99.3953V136.875H102.848V133.422Z" fill="black"/>
<path d="M113.206 133.422H109.753V136.875H113.206V133.422Z" fill="black"/>
<path d="M116.659 133.422H113.206V136.875H116.659V133.422Z" fill="black"/>
<path d="M127.017 133.422H123.564V136.875H127.017V133.422Z" fill="black"/>
<path d="M130.47 133.422H127.017V136.875H130.47V133.422Z" fill="black"/>
<path d="M137.375 133.422H133.922V136.875H137.375V133.422Z" fill="black"/>
</g>
<defs>
<clipPath id="clip0_1722_5001">
<rect width="146" height="146" fill="white" transform="translate(0.5)"/>
</clipPath>
</defs>
</svg>
