<svg width="720" height="350" viewBox="0 0 720 350" fill="none" xmlns="http://www.w3.org/2000/svg">
<path d="M720 142.626C720 142.626 507.65 110.624 369 110.009C223.397 109.364 0 142.626 0 142.626V350H720V142.626Z" fill="#E0F4E4"/>
<path fill-rule="evenodd" clip-rule="evenodd" d="M252.465 153.512C225.327 153.512 226.589 193.278 252.465 193.278C278.34 193.278 280.865 153.512 252.465 153.512Z" fill="#61D16A"/>
<path d="M254.989 161.718H245.522L250.571 170.554H245.522L258.776 186.334L254.989 174.973H260.669L254.989 161.718Z" fill="#61D16A"/>
<path d="M422.206 45.1858C419.05 45.1858 412.739 47.5844 412.739 57.1787C412.739 69.1715 410.215 79.2707 418.419 93.7884C422.443 100.909 428.096 102.225 432.935 101.401L436.091 119.036L437.759 118.722L426.521 129.136C420.454 132.292 404.66 134.059 390.018 115.881C371.716 93.1575 396.961 71.6963 402.641 62.8597C408.321 54.0232 403.272 57.1787 408.321 42.0298C413.37 26.881 422.206 19.3065 448.082 18.0441C468.782 17.0342 480.268 33.6138 483.423 42.0298C485.731 52.5498 493.002 75.9885 503.619 85.5828C516.891 97.5756 516.872 107.044 506.775 118.722C498.696 128.064 486.344 126.611 481.177 124.717C476.995 118.586 472.431 114.549 469.54 112.724L461.477 85.5828C463.878 84.8491 466.072 82.502 465.753 76.7459C465.121 65.3843 459.441 66.6467 457.548 71.6963C455.655 76.7459 427.886 66.6467 422.206 45.1858Z" fill="#61D16A"/>
<path d="M412.739 57.1787C412.739 47.5844 419.05 45.1858 422.206 45.1858C427.886 66.6467 455.655 76.7459 457.548 71.6963C459.441 66.6467 465.121 65.3843 465.753 76.7459C466.072 82.502 463.878 84.8491 461.477 85.5828C460.087 86.0076 458.628 85.8914 457.548 85.5828C454.519 91.1373 444.926 96.3132 440.508 98.2068C438.717 99.5093 435.988 100.881 432.935 101.401C428.096 102.225 422.443 100.909 418.419 93.7884C410.215 79.2707 412.739 69.1715 412.739 57.1787Z" fill="#61D16A"/>
<path d="M440.508 98.2068C444.926 96.3132 454.519 91.1373 457.548 85.5828C458.628 85.8914 460.087 86.0076 461.477 85.5828L469.54 112.724L437.759 118.722L436.091 119.036L432.935 101.401C435.988 100.881 438.717 99.5093 440.508 98.2068Z" fill="#61D16A"/>
<path d="M437.759 118.722L469.54 112.724C472.431 114.549 476.995 118.586 481.177 124.717C485.193 130.605 488.856 138.425 490.347 148.072C485.013 136.687 477.137 128.736 465.753 129.136C436.974 130.146 441.981 183.84 448.082 210.561H459.442L467.646 240.227C466.132 253.861 461.545 279.572 459.442 290.724H419.709H398.223H395.068C403.147 250.327 405.166 222.133 405.166 213.086C402.137 170.669 413.599 143.653 419.709 135.448L426.521 129.136L437.759 118.722Z" fill="#61D16A"/>
<path d="M459.442 210.561H448.082C441.981 183.84 436.974 130.146 465.753 129.136C477.137 128.736 485.013 136.687 490.347 148.072C498.498 165.466 500.718 190.878 500.464 206.774L498.57 206.948L459.442 210.561Z" fill="#61D16A"/>
<path d="M459.442 290.724C461.545 279.572 466.132 253.861 467.646 240.227L459.442 210.561L498.57 206.948L500.464 244.646C498.933 255.362 494.99 274.06 488.52 290.724C484.32 301.543 479.055 311.504 472.695 317.865C472.865 322.801 467.682 351.079 466 357L430.41 355.5L419.709 290.724H459.442Z" fill="#61D16A"/>
<path d="M488.52 290.724C494.99 274.06 498.933 255.362 500.464 244.646L506.144 290.724H500.464H488.52Z" fill="#61D16A"/>
<path d="M472.695 317.865C479.055 311.504 484.32 301.543 488.52 290.724H500.464L503.619 363L466 357C467.682 351.079 472.865 322.801 472.695 317.865Z" fill="#61D16A"/>
<path d="M398.223 290.724H419.709L430.41 355.5L395.068 353L398.223 290.724Z" fill="#61D16A"/>
<path d="M384.97 167.639L419.709 135.448C413.599 143.653 402.137 170.669 405.166 213.086C401.824 212.496 398.5 207.675 395.502 201.151C395.494 201.131 395.485 201.112 395.475 201.093C391.107 191.568 387.431 178.438 385.393 169.533C385.243 168.878 385.102 168.245 384.97 167.639Z" fill="#61D16A"/>
<path d="M376.765 163.221C381.309 170.795 384.411 170.585 385.393 169.533C387.431 178.438 391.107 191.568 395.475 201.093C395.485 201.112 395.494 201.131 395.502 201.151C396.041 202.431 393.93 204.88 381.183 204.88C368.242 204.88 358.54 190.152 355.307 182.788L332.587 117.143C325.014 113.103 323.12 102.836 323.12 98.2068C325.645 105.276 330.483 105.781 332.587 105.15C336.121 104.645 338.688 107.886 339.529 109.569C338.52 105.529 339.95 101.153 340.792 99.4695C333.723 90.3802 336.163 86.4245 338.267 85.5828L346.472 98.2068V115.881C354.676 128.505 372.221 155.646 376.765 163.221Z" fill="#61D16A"/>
<path d="M338.267 85.5828C336.163 86.4245 333.723 90.3802 340.792 99.4695C339.95 101.153 338.52 105.529 339.529 109.569C338.688 107.886 336.121 104.645 332.587 105.15C336.121 102.625 334.06 93.9991 332.587 90.0014C328.41 81.9914 323.732 81.1403 320.596 82.2032L316.178 67.9094H333.849L338.267 85.5828Z" fill="#61D16A"/>
<path d="M332.587 105.15C330.483 105.781 325.645 105.276 323.12 98.2068C320.596 91.1376 318.703 85.583 318.072 83.6894C318.697 83.1113 319.563 82.5534 320.596 82.2032C323.732 81.1403 328.41 81.9914 332.587 90.0014C334.06 93.9991 336.121 102.625 332.587 105.15Z" fill="#61D16A"/>
<path fill-rule="evenodd" clip-rule="evenodd" d="M292.856 158.562C291.804 148.042 283.137 127.001 256.882 127.001C224.065 127.001 217.122 153.512 216.491 158.562C215.986 162.601 216.281 215.37 216.491 241.249C218.595 252.611 228.735 275.334 252.465 275.334C282.127 275.334 292.856 252.611 292.856 241.249V158.562ZM247.416 202.746H258.776V213.476H247.416V202.746ZM252.465 153.512C225.327 153.512 226.589 193.278 252.465 193.278C278.34 193.278 280.865 153.512 252.465 153.512Z" fill="#61D16A"/>
<path d="M258.776 202.746H247.416V213.476H258.776V202.746Z" fill="#61D16A"/>
<path fill-rule="evenodd" clip-rule="evenodd" d="M256.882 111.853C291.72 111.853 303.795 142.992 305.478 158.562V243.143C305.478 261.34 294.749 279.921 273.291 287.24C267.211 289.313 260.268 290.483 252.465 290.483C246.857 290.483 241.822 289.609 237.318 288.088C213.435 280.023 204.5 253.764 204.5 243.143V158.562C204.5 149.725 213.336 111.853 256.882 111.853ZM256.882 127.001C283.137 127.001 291.804 148.042 292.856 158.562V241.249C292.856 252.611 282.127 275.334 252.465 275.334C228.735 275.334 218.595 252.611 216.491 241.249C216.281 215.37 215.986 162.601 216.491 158.562C217.122 153.512 224.065 127.001 256.882 127.001Z" fill="#61D16A"/>
<path d="M252.465 290.483C260.268 290.483 267.211 289.313 273.291 287.24V394H237.318V288.088C241.822 289.609 246.857 290.483 252.465 290.483Z" fill="#61D16A"/>
<path d="M461.477 85.5828C460.087 86.0076 458.628 85.8914 457.548 85.5828C454.519 91.1373 444.926 96.3132 440.508 98.2068C438.717 99.5093 435.988 100.881 432.935 101.401M461.477 85.5828C463.878 84.8491 466.072 82.502 465.753 76.7459C465.121 65.3843 459.441 66.6467 457.548 71.6963C455.655 76.7459 427.886 66.6467 422.206 45.1858C419.05 45.1858 412.739 47.5844 412.739 57.1787C412.739 69.1715 410.215 79.2707 418.419 93.7884C422.443 100.909 428.096 102.225 432.935 101.401M461.477 85.5828L469.54 112.724M469.54 112.724L437.759 118.722M469.54 112.724C472.431 114.549 476.995 118.586 481.177 124.717M432.935 101.401L436.091 119.036L437.759 118.722M437.759 118.722L426.521 129.136M405.166 213.086C402.137 170.669 413.599 143.653 419.709 135.448M405.166 213.086C405.166 222.133 403.147 250.327 395.068 290.724H398.223M405.166 213.086C401.824 212.496 398.5 207.675 395.502 201.151M419.709 135.448L384.97 167.639C385.102 168.245 385.243 168.878 385.393 169.533M419.709 135.448L426.521 129.136M459.442 290.724C461.545 279.572 466.132 253.861 467.646 240.227L459.442 210.561M459.442 290.724L456.917 314.078C451.363 316.098 448.713 322.073 448.082 324.808L439.877 338.064L438.5 341.851C437.833 341.851 437.175 341.981 439.877 342.5C442.578 343.019 446.472 339.759 448.082 338.064C453.131 329.479 454.813 334.487 455.023 338.064L453.5 349.5M459.442 290.724H419.709M459.442 210.561H448.082C441.981 183.84 436.974 130.146 465.753 129.136C477.137 128.736 485.013 136.687 490.347 148.072M459.442 210.561L498.57 206.948M498.57 206.948L500.464 206.774C500.718 190.878 498.498 165.466 490.347 148.072M498.57 206.948L500.464 244.646M500.464 244.646C498.933 255.362 494.99 274.06 488.52 290.724M500.464 244.646L506.144 290.724H500.464M469.54 341.851C470.118 340.983 465.603 358.399 466 357M419.709 290.724H398.223M419.709 290.724L430.41 355.5M430.41 347.532V355.5M398.223 290.724L395.068 353L430.41 355.5M488.52 290.724C484.32 301.543 479.055 311.504 472.695 317.865C472.865 322.801 467.682 351.079 466 357M488.52 290.724H500.464M500.464 290.724L503.619 363L466 357M490.347 148.072C488.856 138.425 485.193 130.605 481.177 124.717M481.177 124.717C486.344 126.611 498.696 128.064 506.775 118.722C516.872 107.044 516.891 97.5756 503.619 85.5828C493.002 75.9885 485.731 52.5498 483.423 42.0298C480.268 33.6138 468.782 17.0342 448.082 18.0441C422.206 19.3065 413.37 26.881 408.321 42.0298C403.272 57.1787 408.321 54.0232 402.641 62.8597C396.961 71.6963 371.716 93.1575 390.018 115.881C404.66 134.059 420.454 132.292 426.521 129.136M385.393 169.533C384.411 170.585 381.309 170.795 376.765 163.221C372.221 155.646 354.676 128.505 346.472 115.881V98.2068L338.267 85.5828M385.393 169.533C387.431 178.438 391.107 191.568 395.475 201.093C395.485 201.112 395.494 201.131 395.502 201.151M338.267 85.5828C336.163 86.4245 333.723 90.3802 340.792 99.4695C339.95 101.153 338.52 105.529 339.529 109.569C338.688 107.886 336.121 104.645 332.587 105.15M338.267 85.5828L333.849 67.9094H316.178L320.596 82.2032M332.587 105.15C330.483 105.781 325.645 105.276 323.12 98.2068M332.587 105.15C336.121 102.625 334.06 93.9991 332.587 90.0014C328.41 81.9914 323.732 81.1403 320.596 82.2032M323.12 98.2068C320.596 91.1375 318.703 85.583 318.072 83.6894C318.697 83.1113 319.563 82.5534 320.596 82.2032M323.12 98.2068C323.12 102.836 325.014 113.103 332.587 117.143L355.307 182.788C358.54 190.152 368.242 204.88 381.183 204.88C393.93 204.88 396.041 202.431 395.502 201.151M292.856 158.562C291.804 148.042 283.137 127.001 256.882 127.001C224.064 127.001 217.122 153.512 216.491 158.562C215.986 162.601 216.281 215.37 216.491 241.249C218.595 252.611 228.735 275.334 252.465 275.334C282.127 275.334 292.856 252.611 292.856 241.249M292.856 158.562C292.856 182.337 292.856 232.16 292.856 241.249M292.856 158.562V241.249M305.478 158.562C303.795 142.992 291.72 111.853 256.882 111.853C213.336 111.853 204.5 149.725 204.5 158.562M305.478 158.562C305.478 178.97 305.478 224.459 305.478 243.143M305.478 158.562V243.143M204.5 158.562C204.5 167.398 204.5 230.519 204.5 243.143M204.5 158.562V243.143M204.5 243.143C204.5 253.764 213.435 280.023 237.318 288.088M305.478 243.143C305.478 261.34 294.749 279.921 273.291 287.24M273.291 287.24C267.211 289.313 260.268 290.483 252.465 290.483C246.857 290.483 241.822 289.609 237.318 288.088M273.291 287.24V394H237.318V288.088M466 357L430.41 355.5M258.776 202.746H247.416V213.476H258.776V202.746ZM254.989 161.718H245.522L250.571 170.554H245.522L258.776 186.334L254.989 174.973H260.669L254.989 161.718ZM252.465 153.512C225.327 153.512 226.589 193.278 252.465 193.278C278.34 193.278 280.865 153.512 252.465 153.512Z" stroke="white" stroke-width="2"/>
</svg>
