<svg width="56" height="56" viewBox="0 0 56 56" fill="none" xmlns="http://www.w3.org/2000/svg">
<path d="M39.9636 31.9453L31.4172 33.626" stroke="#61D16A" stroke-width="3" stroke-linecap="round" stroke-linejoin="round"/>
<path d="M32.3505 24.1366L28.3177 25.7639C27.6917 26.0124 26.9921 26.0128 26.3658 25.7651C25.7395 25.5174 25.2353 25.0407 24.9588 24.4353C24.6824 23.8298 24.6554 23.1426 24.8834 22.518C25.1114 21.8933 25.5767 21.3798 26.1816 21.0852L30.2122 19.1608C30.6508 18.946 31.1293 18.8214 31.6185 18.7946C32.1076 18.7677 32.5973 18.8392 33.0574 19.0047L40.4161 21.7716" stroke="#61D16A" stroke-width="3" stroke-linecap="round" stroke-linejoin="round"/>
<path d="M16.0364 33.7579H19.0816L24.1498 37.6774C24.4055 37.9588 24.762 38.1321 25.1446 38.1612C25.5273 38.1903 25.9065 38.0729 26.2032 37.8335L33.8164 31.7008C34.1161 31.4586 34.3077 31.1109 34.3503 30.7318C34.393 30.3528 34.2833 29.9723 34.0448 29.6715L29.864 25.1426" stroke="#61D16A" stroke-width="3" stroke-linecap="round" stroke-linejoin="round"/>
<path d="M25.8465 21.3038L25.3027 20.8633C24.7539 20.4675 24.091 20.254 23.4103 20.2539C23.0041 20.2531 22.6016 20.3294 22.2248 20.4784L16.0364 23.0679" stroke="#61D16A" stroke-width="3" stroke-linecap="round" stroke-linejoin="round"/>
<path d="M10.5984 35.8979H13.8612C14.4381 35.8979 14.9913 35.6726 15.3993 35.2716C15.8072 34.8706 16.0364 34.3267 16.0364 33.7596V23.068C16.0364 22.5009 15.8072 21.957 15.3993 21.556C14.9913 21.155 14.4381 20.9297 13.8612 20.9297H10.5984" stroke="#61D16A" stroke-width="3" stroke-linecap="round" stroke-linejoin="round"/>
<path d="M45.4016 35.8979H42.1388C41.5619 35.8979 41.0086 35.6726 40.6007 35.2716C40.1928 34.8706 39.9636 34.3267 39.9636 33.7596V23.068C39.9636 22.5009 40.1928 21.957 40.6007 21.556C41.0086 21.155 41.5619 20.9297 42.1388 20.9297H45.4016" stroke="#61D16A" stroke-width="3" stroke-linecap="round" stroke-linejoin="round"/>
<path d="M28 53.0036C41.8152 53.0036 53.0147 41.994 53.0147 28.413C53.0147 14.8319 41.8152 3.82227 28 3.82227C14.1848 3.82227 2.98535 14.8319 2.98535 28.413C2.98535 41.994 14.1848 53.0036 28 53.0036Z" stroke="#61D16A" stroke-width="5" stroke-linecap="round" stroke-linejoin="round"/>
</svg>
