<svg width="450" height="350" viewBox="0 0 450 350" fill="none" xmlns="http://www.w3.org/2000/svg">
<g clip-path="url(#clip0_1705_13515)">
<path d="M113.954 108.417C115.318 108.833 116.749 108.719 117.809 108.417C120.781 113.86 130.191 118.932 134.525 120.788C136.282 122.064 138.959 123.409 141.954 123.918M113.954 108.417C111.599 107.698 109.447 105.397 109.76 99.7564C110.379 88.6221 115.952 89.8592 117.809 94.8078C119.666 99.7564 146.908 89.8592 152.48 68.8276C155.575 68.8276 161.767 71.1782 161.767 80.5806C161.767 92.3335 164.243 102.231 156.194 116.458C152.247 123.436 146.701 124.725 141.954 123.918M113.954 108.417L106.045 135.015M106.045 135.015L137.222 140.893M106.045 135.015C103.209 136.804 98.7314 140.759 94.6289 146.768M141.954 123.918L138.859 141.201L137.222 140.893M137.222 140.893L148.247 151.098M169.196 233.369C172.167 191.801 160.923 165.326 154.929 157.284M169.196 233.369C169.196 242.235 171.177 269.865 179.102 309.454H176.007M169.196 233.369C172.484 232.789 175.754 228.039 178.702 221.616M154.929 157.284L189.008 188.832C188.878 189.426 188.74 190.045 188.593 190.688M154.929 157.284L148.247 151.098M115.951 309.454C113.887 298.526 109.388 273.329 107.903 259.968L115.951 230.895M115.951 309.454L118.428 332.341C123.876 334.321 126.476 340.177 127.095 342.857L135.145 355.847M115.951 309.454H154.929M115.951 230.895H127.095C133.08 204.708 137.992 152.088 109.76 151.098C98.5918 150.707 90.8661 158.498 85.6327 169.656M115.951 230.895L77.5661 227.355M77.5661 227.355L75.7082 227.183C75.4588 211.605 77.6369 186.702 85.6327 169.656M77.5661 227.355L75.7082 264.298M75.7082 264.298C77.2099 274.8 81.0787 293.124 87.4251 309.454M75.7082 264.298L70.1367 309.454H75.7082M106.045 359.559C103.073 355.105 102.743 342.032 102.95 336.053C96.7106 329.819 91.5456 320.057 87.4251 309.454M120.286 355.847C120.492 352.342 122.142 347.435 127.095 355.847M154.929 309.454L144.431 365.126M154.929 309.454H176.007M176.007 309.454L181.579 361.415M87.4251 309.454H75.7082M75.7082 309.454L72.6132 353.992M85.6327 169.656C87.0955 160.201 90.6893 152.538 94.6289 146.768M94.6289 146.768C89.5604 148.625 77.4423 150.048 69.5176 140.893C59.6116 129.448 59.5936 120.169 72.6132 108.417C83.0288 99.0142 90.1612 76.0443 92.4254 65.7347C95.5206 57.487 106.788 41.2391 127.095 42.2288C152.48 43.4659 161.148 50.8889 166.101 65.7347C171.054 80.5806 166.101 77.4882 171.673 86.148C177.245 94.8078 202.01 115.84 184.056 138.108C169.692 155.924 154.198 154.191 148.247 151.098M188.593 190.688C189.557 191.718 192.599 191.925 197.057 184.502C201.515 177.079 218.726 150.48 226.775 138.108V120.788L234.824 108.417M188.593 190.688C186.594 199.415 182.988 212.282 178.702 221.616M234.824 108.417C236.887 109.241 239.281 113.118 232.347 122.025C233.173 123.675 234.576 127.964 233.585 131.923C234.411 130.273 236.929 127.098 240.396 127.593M234.824 108.417L239.157 91.0966H256.493L252.159 105.105M240.396 127.593C242.459 128.211 247.206 127.716 249.682 120.788M240.396 127.593C236.929 125.118 238.951 116.664 240.396 112.747C244.494 104.897 249.083 104.063 252.159 105.105M249.682 120.788C252.159 113.86 254.016 108.417 254.635 106.561C254.022 105.995 253.172 105.448 252.159 105.105M249.682 120.788C249.682 125.324 247.825 135.387 240.396 139.346L218.107 203.678C214.936 210.894 205.418 225.328 192.723 225.328C180.028 225.328 178.086 222.854 178.702 221.616M371.65 269.78C377.615 271.812 384.425 272.958 392.081 272.958C397.581 272.958 402.521 272.102 406.94 270.611M371.65 269.78C350.599 262.608 340.074 244.399 340.074 226.565C340.074 208.255 340.074 163.676 340.074 143.676C341.725 128.417 353.571 97.901 387.747 97.901C430.466 97.901 439.134 135.016 439.134 143.676C439.134 152.336 439.134 214.193 439.134 226.565C439.134 236.974 430.369 262.708 406.94 270.611M371.65 269.78V374.405M406.94 270.611V374.405M352.457 143.676C353.489 133.366 361.991 112.747 387.747 112.747C419.941 112.747 426.751 138.727 427.371 143.676C427.866 147.635 427.577 199.348 427.371 224.709C425.307 235.844 415.36 258.112 392.081 258.112C362.982 258.112 352.457 235.844 352.457 224.709C352.457 215.802 352.457 166.975 352.457 143.676ZM385.889 186.976H397.034V197.492H385.889V186.976ZM389.604 146.769H398.891L393.938 155.429H398.891L385.889 170.893L389.604 159.759H384.032L389.604 146.769ZM392.081 138.727C418.703 138.727 417.465 177.697 392.081 177.697C366.697 177.697 364.22 138.727 392.081 138.727Z" stroke="#61D16A" stroke-width="2"/>
</g>
<path d="M52 57.7923C57.9601 57.7923 62.7917 52.9607 62.7917 47.0007C62.7917 41.0406 57.9601 36.209 52 36.209C46.04 36.209 41.2084 41.0406 41.2084 47.0007C41.2084 52.9607 46.04 57.7923 52 57.7923Z" stroke="#61D16A" stroke-width="2" stroke-linecap="round" stroke-linejoin="round"/>
<path d="M56.9466 50.5938C56.7483 50.8504 54.9983 53.0087 52 52.9971C49.1183 52.9737 47.4266 50.9554 47.205 50.6754" stroke="#61D16A" stroke-width="2" stroke-linecap="round" stroke-linejoin="round"/>
<path d="M47.7999 43.1973C46.9833 43.1973 46.33 43.8623 46.33 44.6673C46.33 45.4723 46.9949 46.1373 47.7999 46.1373C48.6166 46.1373 49.27 45.4723 49.27 44.6673C49.27 43.8623 48.6166 43.1973 47.7999 43.1973Z" fill="#61D16A"/>
<path d="M56.2 43.1973C55.3833 43.1973 54.73 43.8623 54.73 44.6673C54.73 45.4723 55.395 46.1373 56.2 46.1373C57.0166 46.1373 57.67 45.4723 57.67 44.6673C57.67 43.8623 57.005 43.1973 56.2 43.1973Z" fill="#61D16A"/>
<path d="M48.2681 64.6715L62.4318 75.7274V64.6715H65.9727C69.8854 64.6715 73.0545 61.3731 73.0545 57.3009V35.189C73.0545 31.1167 69.8854 27.8184 65.9727 27.8184H37.6454C33.7327 27.8184 30.5636 31.1167 30.5636 35.189V57.3009C30.5636 61.3731 33.7327 64.6715 37.6454 64.6715H48.2681Z" stroke="#61D16A" stroke-width="2" stroke-linecap="round" stroke-linejoin="round"/>
<path d="M30.2769 53.6752L19.6112 61.0458V49.9899H16.0559C12.1274 49.9899 8.94543 46.6915 8.94543 42.6192V20.5073C8.94543 16.4351 12.1274 13.1367 16.0559 13.1367H48.0531C51.9817 13.1367 55.1636 16.4351 55.1636 20.5073V27.878" stroke="#61D16A" stroke-width="2" stroke-linecap="round" stroke-linejoin="round"/>
<path d="M450 349H0V351H450V349Z" fill="#61D16A" mask="url(#path-1-inside-1_1705_13515)"/>
<defs>
<clipPath id="clip0_1705_13515">
<rect width="395" height="313" fill="white" transform="translate(55 36)"/>
</clipPath>
</defs>
</svg>
