<svg width="177" height="51" viewBox="0 0 177 51" fill="none" xmlns="http://www.w3.org/2000/svg">
<path d="M39.5104 25.2249C39.4724 21.1219 42.9697 19.1258 43.1297 19.0329C41.149 16.2284 38.0789 15.8452 37.0001 15.8146C34.4216 15.5511 31.9205 17.313 30.607 17.313C29.2673 17.313 27.2446 15.8401 25.0647 15.8834C22.2594 15.9254 19.6351 17.5027 18.1958 19.952C15.2254 24.9461 17.4407 32.2852 20.2866 36.322C21.7102 38.299 23.3737 40.5065 25.551 40.4288C27.6812 40.3435 28.4769 39.11 31.0475 39.11C33.5945 39.11 34.3417 40.4288 36.5623 40.3792C38.8484 40.3435 40.2877 38.3933 41.6615 36.3984C43.3066 34.1324 43.9673 31.9008 43.9935 31.7862C43.9398 31.7684 39.5536 30.1427 39.5104 25.2249Z" fill="white"/>
<path d="M35.3156 13.1591C36.4613 11.7676 37.2452 9.87463 37.0276 7.95361C35.3694 8.0249 33.2956 9.06752 32.1014 10.4284C31.0448 11.6276 30.101 13.5932 30.3448 15.4416C32.2076 15.5766 34.1201 14.5289 35.3156 13.1591Z" fill="white"/>
<path d="M70.3379 40.1447H67.3609L65.7302 35.1684H60.062L58.5087 40.1447H55.6104L61.2261 23.2031H64.6946L70.3379 40.1447ZM65.2386 33.0806L63.7639 28.6568C63.6079 28.2049 63.3156 27.1406 62.8843 25.4653H62.8319C62.6602 26.1859 62.3836 27.2501 62.0034 28.6568L60.5549 33.0806H65.2386Z" fill="white"/>
<path d="M84.7797 33.8868C84.7797 35.9644 84.2016 37.6067 83.0454 38.8122C82.0098 39.8854 80.7239 40.4213 79.1889 40.4213C77.5319 40.4213 76.3417 39.8434 75.6168 38.6875H75.5643V45.1227H72.7696V31.9505C72.7696 30.6444 72.7342 29.3039 72.666 27.929H75.1239L75.2799 29.8653H75.3323C76.2643 28.4064 77.6788 27.6782 79.5769 27.6782C81.0608 27.6782 82.2995 28.2473 83.2906 29.3866C84.2842 30.5273 84.7797 32.0269 84.7797 33.8868ZM81.9325 33.9861C81.9325 32.7971 81.6572 31.8169 81.104 31.0454C80.4997 30.2409 79.6883 29.8386 78.6711 29.8386C77.9816 29.8386 77.355 30.0626 76.7952 30.5044C76.2342 30.9499 75.8671 31.5317 75.6954 32.2523C75.6089 32.5883 75.5656 32.8633 75.5656 33.0797V35.1166C75.5656 36.0052 75.8462 36.755 76.4072 37.3673C76.9683 37.9797 77.6971 38.2852 78.5937 38.2852C79.6464 38.2852 80.4656 37.8905 81.0516 37.1038C81.6389 36.3158 81.9325 35.277 81.9325 33.9861Z" fill="white"/>
<path d="M99.2476 33.8868C99.2476 35.9644 98.6695 37.6067 97.512 38.8122C96.4778 39.8854 95.1918 40.4213 93.6568 40.4213C91.9999 40.4213 90.8096 39.8434 90.086 38.6875H90.0336V45.1227H87.2388V31.9505C87.2388 30.6444 87.2034 29.3039 87.1353 27.929H89.5931L89.7491 29.8653H89.8015C90.7323 28.4064 92.1467 27.6782 94.0461 27.6782C95.5287 27.6782 96.7675 28.2473 97.7611 29.3866C98.7508 30.5273 99.2476 32.0269 99.2476 33.8868ZM96.4004 33.9861C96.4004 32.7971 96.1238 31.8169 95.5707 31.0454C94.9663 30.2409 94.1575 29.8386 93.139 29.8386C92.4482 29.8386 91.8229 30.0626 91.2619 30.5044C90.7008 30.9499 90.3351 31.5317 90.1633 32.2523C90.0781 32.5883 90.0336 32.8633 90.0336 33.0797V35.1166C90.0336 36.0052 90.3141 36.755 90.8725 37.3673C91.4336 37.9784 92.1624 38.2852 93.0617 38.2852C94.1143 38.2852 94.9336 37.8905 95.5195 37.1038C96.1068 36.3158 96.4004 35.277 96.4004 33.9861Z" fill="white"/>
<path d="M115.424 35.3939C115.424 36.835 114.908 38.0075 113.874 38.9126C112.738 39.9018 111.155 40.3957 109.122 40.3957C107.245 40.3957 105.74 40.0444 104.601 39.3404L105.249 37.0782C106.476 37.7987 107.822 38.1603 109.289 38.1603C110.341 38.1603 111.161 37.9286 111.749 37.4677C112.335 37.0069 112.627 36.3882 112.627 35.6167C112.627 34.9293 112.386 34.3501 111.903 33.8803C111.421 33.4106 110.618 32.9739 109.496 32.5703C106.442 31.4641 104.916 29.8435 104.916 27.7124C104.916 26.3197 105.451 25.1778 106.521 24.2892C107.589 23.3994 109.012 22.9551 110.792 22.9551C112.38 22.9551 113.698 23.2237 114.751 23.7596L114.052 25.9722C113.069 25.4528 111.958 25.1931 110.714 25.1931C109.73 25.1931 108.962 25.4286 108.412 25.8971C107.946 26.3159 107.713 26.8264 107.713 27.4311C107.713 28.1007 107.979 28.6545 108.514 29.0899C108.979 29.4921 109.825 29.9275 111.052 30.3973C112.553 30.9841 113.655 31.6703 114.364 32.457C115.071 33.2412 115.424 34.2227 115.424 35.3939Z" fill="white"/>
<path d="M124.664 29.9655H121.584V35.8966C121.584 37.4051 122.126 38.1587 123.214 38.1587C123.714 38.1587 124.128 38.1167 124.456 38.0327L124.533 40.0938C123.982 40.2936 123.258 40.3942 122.36 40.3942C121.256 40.3942 120.393 40.067 119.771 39.414C119.151 38.7596 118.839 37.6623 118.839 36.1206V29.9629H117.003V27.9261H118.839V25.6893L121.584 24.8848V27.9261H124.664V29.9655Z" fill="white"/>
<path d="M138.563 33.9362C138.563 35.8139 138.01 37.3556 136.906 38.5611C135.749 39.8024 134.212 40.421 132.297 40.421C130.451 40.421 128.982 39.8265 127.886 38.6375C126.79 37.4485 126.242 35.9476 126.242 34.1386C126.242 32.2456 126.806 30.695 127.937 29.4895C129.066 28.2826 130.589 27.6792 132.504 27.6792C134.35 27.6792 135.835 28.2737 136.956 29.464C138.028 30.6186 138.563 32.1094 138.563 33.9362ZM135.663 34.024C135.663 32.8974 135.416 31.9312 134.914 31.1253C134.328 30.1502 133.49 29.6639 132.405 29.6639C131.281 29.6639 130.428 30.1514 129.842 31.1253C129.34 31.9324 129.092 32.9139 129.092 34.0749C129.092 35.2016 129.34 36.1678 129.842 36.9724C130.446 37.9475 131.29 38.4338 132.38 38.4338C133.447 38.4338 134.284 37.9373 134.889 36.9469C135.404 36.1258 135.663 35.1494 135.663 34.024Z" fill="white"/>
<path d="M147.647 30.316C147.371 30.2663 147.076 30.2409 146.767 30.2409C145.783 30.2409 145.023 30.6011 144.488 31.3229C144.023 31.9595 143.79 32.764 143.79 33.7353V40.1451H140.996L141.022 31.7761C141.022 30.3682 140.987 29.0862 140.917 27.9303H143.352L143.454 30.2676H143.531C143.826 29.4643 144.292 28.8176 144.929 28.3326C145.551 27.8959 146.224 27.6782 146.949 27.6782C147.207 27.6782 147.44 27.696 147.647 27.7279V30.316Z" fill="white"/>
<path d="M160.146 33.4591C160.146 33.9454 160.114 34.3553 160.044 34.6901H151.66C151.693 35.8969 152.098 36.8199 152.876 37.4564C153.583 38.0254 154.497 38.3106 155.619 38.3106C156.86 38.3106 157.993 38.1184 159.011 37.7326L159.449 39.6167C158.259 40.1209 156.853 40.3717 155.232 40.3717C153.281 40.3717 151.75 39.8141 150.636 38.7002C149.524 37.5863 148.967 36.0904 148.967 34.214C148.967 32.3719 149.485 30.8379 150.522 29.6145C151.607 28.3083 153.074 27.6553 154.92 27.6553C156.733 27.6553 158.105 28.3083 159.037 29.6145C159.775 30.652 160.146 31.9352 160.146 33.4591ZM157.481 32.7551C157.5 31.9505 157.317 31.2554 156.939 30.6686C156.455 29.9136 155.712 29.5368 154.711 29.5368C153.798 29.5368 153.055 29.9047 152.487 30.6431C152.022 31.23 151.745 31.934 151.66 32.7538H157.481V32.7551Z" fill="white"/>
<path d="M64.3146 12.781C64.3146 14.2794 63.8519 15.4073 62.9277 16.1648C62.0717 16.8637 60.8552 17.2137 59.2796 17.2137C58.4983 17.2137 57.8298 17.1806 57.27 17.1144V8.92753C58.0002 8.81295 58.7867 8.75439 59.6361 8.75439C61.1371 8.75439 62.2683 9.07138 63.0313 9.70535C63.8859 10.4221 64.3146 11.4469 64.3146 12.781ZM62.8661 12.8179C62.8661 11.8466 62.6013 11.1019 62.0717 10.5825C61.5421 10.0644 60.7687 9.80465 59.7502 9.80465C59.3176 9.80465 58.9492 9.83266 58.6438 9.89122V16.1151C58.8129 16.1406 59.1223 16.152 59.5719 16.152C60.6232 16.152 61.4346 15.8681 62.0062 15.3004C62.5777 14.7326 62.8661 13.9051 62.8661 12.8179Z" fill="white"/>
<path d="M71.9951 14.0897C71.9951 15.0127 71.7238 15.7689 71.1811 16.3621C70.6122 16.9719 69.8584 17.2761 68.9172 17.2761C68.0101 17.2761 67.2878 16.9846 66.7491 16.399C66.2116 15.8147 65.9429 15.0776 65.9429 14.189C65.9429 13.2597 66.2195 12.4971 66.7753 11.9052C67.3311 11.3132 68.0783 11.0166 69.0195 11.0166C69.9266 11.0166 70.6554 11.3081 71.2073 11.8925C71.7316 12.4602 71.9951 13.1935 71.9951 14.0897ZM70.5702 14.133C70.5702 13.5792 70.447 13.1044 70.2019 12.7085C69.9135 12.2298 69.5032 11.9905 68.9697 11.9905C68.4178 11.9905 67.9983 12.2298 67.7099 12.7085C67.4635 13.1044 67.3416 13.5869 67.3416 14.1572C67.3416 14.711 67.4648 15.1858 67.7099 15.5817C68.0075 16.0604 68.4217 16.2997 68.9565 16.2997C69.4809 16.2997 69.8925 16.0566 70.1888 15.569C70.4431 15.1654 70.5702 14.6868 70.5702 14.133Z" fill="white"/>
<path d="M82.293 11.1387L80.3595 17.1398H79.1011L78.3001 14.5339C78.097 13.8833 77.9318 13.2366 77.8033 12.595H77.7784C77.6591 13.2545 77.494 13.8999 77.2816 14.5339L76.4309 17.1398H75.158L73.3398 11.1387H74.7516L75.4503 13.9916C75.6194 14.6663 75.7584 15.3091 75.8698 15.9177H75.8947C75.997 15.4161 76.1661 14.777 76.4046 14.0043L77.2816 11.1399H78.4011L79.2413 13.9432C79.4445 14.6268 79.6097 15.285 79.7368 15.9189H79.7749C79.8679 15.3015 80.0082 14.6433 80.1943 13.9432L80.9441 11.1399H82.293V11.1387Z" fill="white"/>
<path d="M89.415 17.1398H88.0412V13.7026C88.0412 12.6435 87.627 12.1139 86.7959 12.1139C86.3882 12.1139 86.0592 12.259 85.8036 12.5505C85.5506 12.8421 85.4221 13.1858 85.4221 13.5791V17.1386H84.0483V12.8535C84.0483 12.3265 84.0313 11.7549 83.9985 11.1362H85.2058L85.2701 12.0744H85.3081C85.468 11.7829 85.7066 11.5423 86.0199 11.3501C86.3922 11.126 86.809 11.0127 87.2652 11.0127C87.842 11.0127 88.3217 11.1935 88.7032 11.5563C89.1777 12.0006 89.415 12.6638 89.415 13.5448V17.1398Z" fill="white"/>
<path d="M93.2035 17.1399H91.8311V8.38525H93.2035V17.1399Z" fill="white"/>
<path d="M101.292 14.0897C101.292 15.0127 101.02 15.7689 100.477 16.3621C99.9085 16.9719 99.1535 17.2761 98.2136 17.2761C97.3052 17.2761 96.5829 16.9846 96.0454 16.399C95.508 15.8147 95.2393 15.0776 95.2393 14.189C95.2393 13.2597 95.5159 12.4971 96.0717 11.9052C96.6275 11.3132 97.3747 11.0166 98.3145 11.0166C99.223 11.0166 99.9505 11.3081 100.504 11.8925C101.028 12.4602 101.292 13.1935 101.292 14.0897ZM99.8653 14.133C99.8653 13.5792 99.7421 13.1044 99.4969 12.7085C99.2099 12.2298 98.7982 11.9905 98.266 11.9905C97.7129 11.9905 97.2934 12.2298 97.0063 12.7085C96.7599 13.1044 96.6379 13.5869 96.6379 14.1572C96.6379 14.711 96.7612 15.1858 97.0063 15.5817C97.3039 16.0604 97.7181 16.2997 98.2529 16.2997C98.7773 16.2997 99.1876 16.0566 99.4838 15.569C99.7394 15.1654 99.8653 14.6868 99.8653 14.133Z" fill="white"/>
<path d="M107.94 17.1399H106.707L106.604 16.4487H106.566C106.144 16.9999 105.543 17.2761 104.761 17.2761C104.178 17.2761 103.706 17.0941 103.351 16.7325C103.028 16.4041 102.867 15.9955 102.867 15.5104C102.867 14.7772 103.182 14.2183 103.815 13.8313C104.447 13.4443 105.336 13.2546 106.48 13.2635V13.1515C106.48 12.3609 106.053 11.9663 105.197 11.9663C104.587 11.9663 104.05 12.1152 103.586 12.4106L103.306 11.5347C103.88 11.1897 104.59 11.0166 105.426 11.0166C107.041 11.0166 107.851 11.8441 107.851 13.499V15.709C107.851 16.3086 107.881 16.786 107.94 17.1399ZM106.514 15.0776V14.1521C104.999 14.1266 104.241 14.5302 104.241 15.3615C104.241 15.6747 104.327 15.9089 104.504 16.0655C104.681 16.2221 104.907 16.2997 105.176 16.2997C105.477 16.2997 105.759 16.2068 106.016 16.0222C106.274 15.8363 106.433 15.6008 106.492 15.3118C106.506 15.2469 106.514 15.168 106.514 15.0776Z" fill="white"/>
<path d="M115.746 17.1399H114.527L114.463 16.1763H114.425C114.035 16.9095 113.372 17.2762 112.44 17.2762C111.695 17.2762 111.075 16.9923 110.584 16.4245C110.092 15.8567 109.847 15.1196 109.847 14.2145C109.847 13.2432 110.113 12.4564 110.648 11.8556C111.166 11.2954 111.8 11.0154 112.555 11.0154C113.385 11.0154 113.966 11.2865 114.296 11.8301H114.322V8.38525H115.698V15.5232C115.698 16.1075 115.713 16.646 115.746 17.1399ZM114.322 14.6091V13.6085C114.322 13.4354 114.309 13.2954 114.284 13.1884C114.207 12.8676 114.041 12.5977 113.788 12.3801C113.532 12.1624 113.224 12.0529 112.869 12.0529C112.356 12.0529 111.955 12.2502 111.66 12.6461C111.368 13.042 111.22 13.5474 111.22 14.1649C111.22 14.7581 111.36 15.2393 111.642 15.6098C111.939 16.0044 112.34 16.2017 112.842 16.2017C113.293 16.2017 113.654 16.0375 113.928 15.7078C114.193 15.4035 114.322 15.0369 114.322 14.6091Z" fill="white"/>
<path d="M127.496 14.0897C127.496 15.0127 127.224 15.7689 126.682 16.3621C126.113 16.9719 125.36 17.2761 124.418 17.2761C123.512 17.2761 122.79 16.9846 122.25 16.399C121.712 15.8147 121.443 15.0776 121.443 14.189C121.443 13.2597 121.72 12.4971 122.276 11.9052C122.832 11.3132 123.579 11.0166 124.521 11.0166C125.427 11.0166 126.157 11.3081 126.708 11.8925C127.232 12.4602 127.496 13.1935 127.496 14.0897ZM126.072 14.133C126.072 13.5792 125.949 13.1044 125.704 12.7085C125.414 12.2298 125.005 11.9905 124.47 11.9905C123.92 11.9905 123.5 12.2298 123.21 12.7085C122.964 13.1044 122.842 13.5869 122.842 14.1572C122.842 14.711 122.965 15.1858 123.21 15.5817C123.508 16.0604 123.922 16.2997 124.457 16.2997C124.981 16.2997 125.394 16.0566 125.691 15.569C125.944 15.1654 126.072 14.6868 126.072 14.133Z" fill="white"/>
<path d="M134.882 17.1398H133.509V13.7026C133.509 12.6435 133.095 12.1139 132.263 12.1139C131.855 12.1139 131.526 12.259 131.272 12.5505C131.018 12.8421 130.89 13.1858 130.89 13.5791V17.1386H129.515V12.8535C129.515 12.3265 129.5 11.7549 129.467 11.1362H130.673L130.737 12.0744H130.775C130.936 11.7829 131.175 11.5423 131.487 11.3501C131.86 11.126 132.276 11.0127 132.733 11.0127C133.309 11.0127 133.789 11.1935 134.17 11.5563C134.646 12.0006 134.882 12.6638 134.882 13.5448V17.1398Z" fill="white"/>
<path d="M144.128 12.1384H142.615V15.0537C142.615 15.7946 142.884 16.165 143.416 16.165C143.662 16.165 143.867 16.1447 144.028 16.1027L144.064 17.1147C143.792 17.214 143.436 17.2637 142.996 17.2637C142.454 17.2637 142.032 17.1033 141.726 16.7825C141.419 16.4617 141.267 15.9219 141.267 15.1644V12.1384H140.364V11.1391H141.267V10.0392L142.614 9.64453V11.1378H144.126V12.1384H144.128Z" fill="white"/>
<path d="M151.4 17.1399H150.025V13.7282C150.025 12.6525 149.611 12.114 148.781 12.114C148.144 12.114 147.709 12.4259 147.47 13.0497C147.43 13.1808 147.406 13.3412 147.406 13.5296V17.1387H146.034V8.38525H147.406V12.002H147.432C147.865 11.3438 148.485 11.0154 149.289 11.0154C149.857 11.0154 150.328 11.1961 150.702 11.5589C151.167 12.0109 151.4 12.683 151.4 13.5716V17.1399Z" fill="white"/>
<path d="M158.903 13.8557C158.903 14.095 158.884 14.2962 158.851 14.4604H154.731C154.75 15.0536 154.946 15.5056 155.328 15.8187C155.676 16.0988 156.126 16.2388 156.677 16.2388C157.286 16.2388 157.842 16.1446 158.343 15.9549L158.558 16.8817C157.972 17.1287 157.282 17.2522 156.484 17.2522C155.527 17.2522 154.773 16.9785 154.228 16.4311C153.68 15.8837 153.409 15.1491 153.409 14.2274C153.409 13.3223 153.662 12.5687 154.172 11.9678C154.704 11.3262 155.423 11.0054 156.332 11.0054C157.221 11.0054 157.896 11.3262 158.352 11.9678C158.72 12.477 158.903 13.1072 158.903 13.8557ZM157.592 13.5107C157.602 13.1148 157.512 12.7736 157.326 12.4859C157.087 12.1155 156.724 11.9296 156.232 11.9296C155.784 11.9296 155.418 12.1104 155.139 12.4732C154.911 12.7622 154.776 13.1072 154.731 13.5107H157.592Z" fill="white"/>
<rect x="0.5" y="0.5" width="176" height="50" rx="8.5" stroke="#808080"/>
</svg>
