<svg width="177" height="51" viewBox="0 0 177 51" fill="none" xmlns="http://www.w3.org/2000/svg">
<path d="M62.467 13.5486C62.467 14.5715 62.1429 15.3907 61.5045 16.0017C60.7705 16.726 59.8145 17.0904 58.6429 17.0904C57.5233 17.0904 56.5672 16.7199 55.783 15.9894C54.9971 15.2483 54.605 14.3388 54.605 13.25C54.605 12.1613 54.9971 11.2518 55.783 10.5168C56.5672 9.78023 57.5233 9.40967 58.6429 9.40967C59.2004 9.40967 59.7318 9.51839 60.239 9.72051C60.7446 9.92417 61.1561 10.1998 61.4543 10.5397L60.777 11.1859C60.2568 10.6056 59.5487 10.3192 58.6429 10.3192C57.8263 10.3192 57.1182 10.5887 56.517 11.1323C55.9223 11.6774 55.6242 12.3834 55.6242 13.25C55.6242 14.1167 55.9223 14.8288 56.517 15.3739C57.1182 15.9114 57.8263 16.187 58.6429 16.187C59.5098 16.187 60.239 15.9114 60.8142 15.3678C61.1934 15.0079 61.4089 14.5118 61.4656 13.8779H58.6429V12.9928H62.4087C62.4541 13.1842 62.467 13.3695 62.467 13.5486Z" fill="white" stroke="white" stroke-width="0.16" stroke-miterlimit="10"/>
<path d="M68.4415 10.48H64.9042V12.8075H68.0931V13.6926H64.9042V16.0201H68.4415V16.922H63.9028V9.57812H68.4415V10.48Z" fill="white" stroke="white" stroke-width="0.16" stroke-miterlimit="10"/>
<path d="M72.6574 16.922H71.656V10.48H69.4863V9.57812H74.8287V10.48H72.6574V16.922Z" fill="white" stroke="white" stroke-width="0.16" stroke-miterlimit="10"/>
<path d="M78.6953 16.922V9.57812H79.6951V16.922H78.6953Z" fill="white" stroke="white" stroke-width="0.16" stroke-miterlimit="10"/>
<path d="M84.1266 16.922H83.1333V10.48H80.9556V9.57812H86.3044V10.48H84.1266V16.922Z" fill="white" stroke="white" stroke-width="0.16" stroke-miterlimit="10"/>
<path d="M96.4187 15.9772C95.6522 16.7199 94.7027 17.0904 93.57 17.0904C92.4309 17.0904 91.4814 16.7199 90.7149 15.9772C89.9501 15.2361 89.5693 14.3265 89.5693 13.25C89.5693 12.1736 89.9501 11.264 90.7149 10.5229C91.4814 9.78023 92.4309 9.40967 93.57 9.40967C94.6962 9.40967 95.6457 9.78023 96.4122 10.529C97.1835 11.2763 97.5643 12.1797 97.5643 13.25C97.5643 14.3265 97.1835 15.2361 96.4187 15.9772ZM91.4555 15.3616C92.0323 15.9114 92.7339 16.187 93.57 16.187C94.3997 16.187 95.1078 15.9114 95.6781 15.3616C96.2534 14.8119 96.545 14.106 96.545 13.25C96.545 12.3941 96.2534 11.6882 95.6781 11.1384C95.1078 10.5887 94.3997 10.3131 93.57 10.3131C92.7339 10.3131 92.0323 10.5887 91.4555 11.1384C90.8802 11.6882 90.5886 12.3941 90.5886 13.25C90.5886 14.106 90.8802 14.8119 91.4555 15.3616Z" fill="white" stroke="white" stroke-width="0.16" stroke-miterlimit="10"/>
<path d="M98.9692 16.922V9.57812H100.185L103.963 15.2897H104.007L103.963 13.8779V9.57812H104.963V16.922H103.919L99.9625 10.9287H99.9188L99.9625 12.3466V16.922H98.9692Z" fill="white" stroke="white" stroke-width="0.16" stroke-miterlimit="10"/>
<path d="M89.3233 27.647C86.2787 27.647 83.7914 29.8367 83.7914 32.8578C83.7914 35.8545 86.2787 38.0671 89.3233 38.0671C92.3745 38.0671 94.8618 35.8545 94.8618 32.8578C94.8618 29.8367 92.3745 27.647 89.3233 27.647ZM89.3233 36.0153C87.6527 36.0153 86.2155 34.7122 86.2155 32.8578C86.2155 30.979 87.6527 29.6989 89.3233 29.6989C90.9939 29.6989 92.4377 30.979 92.4377 32.8578C92.4377 34.7122 90.9939 36.0153 89.3233 36.0153ZM77.2532 27.647C74.202 27.647 71.7213 29.8367 71.7213 32.8578C71.7213 35.8545 74.202 38.0671 77.2532 38.0671C80.3027 38.0671 82.7851 35.8545 82.7851 32.8578C82.7851 29.8367 80.3027 27.647 77.2532 27.647ZM77.2532 36.0153C75.581 36.0153 74.1388 34.7122 74.1388 32.8578C74.1388 30.979 75.581 29.6989 77.2532 29.6989C78.9238 29.6989 80.3611 30.979 80.3611 32.8578C80.3611 34.7122 78.9238 36.0153 77.2532 36.0153ZM62.8902 29.2441V31.4583H68.4854C68.3217 32.6955 67.8842 33.6051 67.2134 34.239C66.3967 35.0047 65.1247 35.8545 62.8902 35.8545C59.447 35.8545 56.7507 33.2284 56.7507 29.9745C56.7507 26.7206 59.447 24.0945 62.8902 24.0945C64.752 24.0945 66.1067 24.782 67.1064 25.6732L68.7576 24.1129C67.3592 22.8511 65.499 21.8818 62.8902 21.8818C58.1685 21.8818 54.2002 25.5124 54.2002 29.9745C54.2002 34.4366 58.1685 38.0671 62.8902 38.0671C65.4423 38.0671 67.3592 37.277 68.8662 35.7948C70.4104 34.3355 70.8916 32.2836 70.8916 30.6268C70.8916 30.1123 70.8463 29.6392 70.7652 29.2441H62.8902ZM121.622 30.9606C121.167 29.7953 119.762 27.647 116.9 27.647C114.065 27.647 111.704 29.7586 111.704 32.8578C111.704 35.7764 114.04 38.0671 117.173 38.0671C119.705 38.0671 121.167 36.6079 121.768 35.758L119.888 34.5744C119.261 35.4411 118.407 36.0153 117.173 36.0153C115.946 36.0153 115.066 35.4839 114.502 34.4366L121.877 31.5532L121.622 30.9606ZM114.104 32.6955C114.04 30.6865 115.755 29.6575 116.983 29.6575C117.946 29.6575 118.762 30.1123 119.034 30.7631L114.104 32.6955ZM108.11 37.7502H110.534V22.4377H108.11V37.7502ZM104.14 28.8077H104.059C103.515 28.1982 102.476 27.647 101.16 27.647C98.399 27.647 95.8745 29.9377 95.8745 32.8747C95.8745 35.7948 98.399 38.0671 101.16 38.0671C102.476 38.0671 103.515 37.5113 104.059 36.8835H104.14V37.6307C104.14 39.6229 103.014 40.6932 101.197 40.6932C99.7164 40.6932 98.7976 39.6826 98.4185 38.8328L96.3104 39.6642C96.918 41.0454 98.527 42.7451 101.197 42.7451C104.04 42.7451 106.438 41.1649 106.438 37.3199V27.964H104.14V28.8077ZM101.368 36.0153C99.6969 36.0153 98.2986 34.6938 98.2986 32.8747C98.2986 31.0387 99.6969 29.6989 101.368 29.6989C103.014 29.6989 104.312 31.0387 104.312 32.8747C104.312 34.6938 103.014 36.0153 101.368 36.0153ZM132.971 22.4377H127.174V37.7502H129.591V31.9483H132.971C135.656 31.9483 138.289 30.1123 138.289 27.1922C138.289 24.2737 135.65 22.4377 132.971 22.4377ZM133.034 29.8183H129.591V24.5677H133.034C134.84 24.5677 135.87 25.9841 135.87 27.1922C135.87 28.3774 134.84 29.8183 133.034 29.8183ZM147.979 27.6179C146.232 27.6179 144.416 28.3468 143.669 29.9622L145.814 30.8121C146.276 29.9622 147.125 29.6866 148.023 29.6866C149.277 29.6866 150.549 30.3987 150.568 31.6558V31.8166C150.131 31.5777 149.194 31.224 148.042 31.224C145.732 31.224 143.377 32.426 143.377 34.6693C143.377 36.7212 145.27 38.0426 147.397 38.0426C149.024 38.0426 149.922 37.349 150.486 36.542H150.568V37.7257H152.903V31.8518C152.903 29.1369 150.758 27.6179 147.979 27.6179ZM147.687 36.0092C146.897 36.0092 145.795 35.6386 145.795 34.7122C145.795 33.527 147.169 33.0722 148.358 33.0722C149.423 33.0722 149.922 33.2942 150.568 33.5867C150.379 35.0047 149.087 36.0092 147.687 36.0092ZM161.41 27.9532L158.631 34.5912H158.549L155.676 27.9532H153.069L157.385 37.2296L154.922 42.3914H157.449L164.1 27.9532H161.41ZM139.618 37.7502H142.042V22.4377H139.618V37.7502Z" fill="white"/>
<path d="M14.5269 10.2351C14.1462 10.6118 13.9258 11.1983 13.9258 11.9578V39.0487C13.9258 39.8082 14.1462 40.3946 14.5269 40.7713L14.6209 40.854L30.6853 25.6793V25.321L14.6209 10.1463L14.5269 10.2351Z" fill="url(#paint0_linear_213_6636)"/>
<path d="M36.0339 30.7397L30.6851 25.679V25.3207L36.0404 20.2599L36.1603 20.3257L42.5024 23.7358C44.3124 24.7036 44.3124 26.2961 42.5024 27.2699L36.1603 30.6739L36.0339 30.7397Z" fill="url(#paint1_linear_213_6636)"/>
<path d="M36.1604 30.6743L30.6852 25.5002L14.5269 40.7713C15.128 41.3685 16.1083 41.4405 17.2232 40.8433L36.1604 30.6743Z" fill="url(#paint2_linear_213_6636)"/>
<path d="M36.1604 20.3259L17.2232 10.1569C16.1083 9.56582 15.128 9.63778 14.5269 10.235L30.6852 25.5L36.1604 20.3259Z" fill="url(#paint3_linear_213_6636)"/>
<rect x="0.5" y="0.5" width="176" height="50" rx="8.5" stroke="#808080"/>
<defs>
<linearGradient id="paint0_linear_213_6636" x1="29.2589" y1="39.3308" x2="8.73336" y2="17.6106" gradientUnits="userSpaceOnUse">
<stop stop-color="#00A0FF"/>
<stop offset="0.0066" stop-color="#00A1FF"/>
<stop offset="0.2601" stop-color="#00BEFF"/>
<stop offset="0.5122" stop-color="#00D2FF"/>
<stop offset="0.7604" stop-color="#00DFFF"/>
<stop offset="1" stop-color="#00E3FF"/>
</linearGradient>
<linearGradient id="paint1_linear_213_6636" x1="44.8593" y1="25.4981" x2="13.4929" y2="25.4981" gradientUnits="userSpaceOnUse">
<stop stop-color="#FFE000"/>
<stop offset="0.4087" stop-color="#FFBD00"/>
<stop offset="0.7754" stop-color="#FFA500"/>
<stop offset="1" stop-color="#FF9C00"/>
</linearGradient>
<linearGradient id="paint2_linear_213_6636" x1="33.1832" y1="22.6875" x2="5.34878" y2="-6.7669" gradientUnits="userSpaceOnUse">
<stop stop-color="#FF3A44"/>
<stop offset="1" stop-color="#C31162"/>
</linearGradient>
<linearGradient id="paint3_linear_213_6636" x1="10.4595" y1="49.7842" x2="22.8888" y2="36.6316" gradientUnits="userSpaceOnUse">
<stop stop-color="#32A071"/>
<stop offset="0.0685" stop-color="#2DA771"/>
<stop offset="0.4762" stop-color="#15CF74"/>
<stop offset="0.8009" stop-color="#06E775"/>
<stop offset="1" stop-color="#00F076"/>
</linearGradient>
</defs>
</svg>
