<svg width="112" height="60" viewBox="0 0 112 60" fill="none" xmlns="http://www.w3.org/2000/svg">
<path d="M18.8973 2.24409C20.2141 2.51235 24.095 3.68467 25.4373 9.054C26.7796 14.4233 21.7523 16.949 21.7523 16.949L22.1183 17.047C23.8268 17.7176 25.0833 19.0241 26.0099 20.1709C26.9741 21.354 28.3647 24.8575 26.2298 29.1645C24.095 33.4715 17.567 33.8511 17.567 33.8511H1.07275V1.91412C1.07275 1.91412 17.5683 1.9879 18.8973 2.24409ZM8.35704 7.9796V14.9599H14.8233C15.5193 14.9599 16.1898 14.6661 16.6538 14.1416C17.7145 12.9586 19.081 10.6757 16.3615 8.5899C16.0195 8.32164 15.5931 8.17543 15.1787 8.16202L8.35704 7.9796ZM8.35704 20.3909V27.8232H16.0074C16.8254 27.8232 17.618 27.5053 18.1664 26.9567C19.4471 25.6757 21.0576 23.2466 17.8245 21.0374C17.4101 20.745 16.9341 20.6095 16.4084 20.5854L8.35704 20.3909Z" fill="#61D16A"/>
<path d="M66.3337 1.91412V33.9369H87.4048V27.4691L73.8862 27.2987V1.91412H66.3337Z" fill="#61D16A"/>
<path d="M85.5742 1.91412V8.35785H94.5911V33.9369H101.96V8.35785H110.927V1.91412H85.5742Z" fill="#61D16A"/>
<path d="M44.8214 8.64897L40.7407 19.6599H45.0225L41.5064 28.7407L52.685 15.5769L47.8319 15.589L53.0497 8.63019L44.8214 8.64897Z" fill="#61D16A"/>
<path d="M62.1966 17.8276C62.1966 9.00708 55.0451 1.87793 46.2509 1.87793C37.4566 1.87793 30.3171 9.01915 30.3171 17.8276C30.3171 17.8478 30.3185 17.8679 30.3185 17.888C30.3185 17.9081 30.3171 17.9282 30.3171 17.9484C30.3171 26.7206 37.4325 33.8498 46.2026 33.8498C50.4871 33.8498 54.3759 32.1503 57.2336 29.3899C60.2897 26.4845 62.1966 22.3787 62.1966 17.8276ZM36.7754 27.3792C34.257 24.8602 32.8704 21.5149 32.8704 17.9497C32.8704 14.3844 34.257 11.0392 36.7754 8.52017C39.2938 6.00116 42.6503 4.61423 46.2026 4.61423C49.7669 4.61423 53.1114 6.00116 55.6298 8.52017C58.1482 11.0392 59.5348 14.3844 59.5348 17.9497C59.5348 21.5149 58.1482 24.8602 55.6298 27.3792C53.1114 29.8982 49.7669 31.2852 46.2026 31.2852C42.6382 31.2838 39.2924 29.8969 36.7754 27.3792Z" fill="#61D16A"/>
<path d="M1.07275 47.9237V42.0227H2.16818V47.9237H1.07275Z" fill="white"/>
<path d="M3.7636 47.9237V42.0227H4.66523L8.36441 46.5665H7.91781V42.0227H9.00482V47.9237H8.10319L4.40401 43.3799H4.85061V47.9237H3.7636Z" fill="white"/>
<path d="M10.5854 47.9237V42.0227H13.1638C13.8042 42.0227 14.366 42.1463 14.8491 42.3936C15.3322 42.6409 15.7086 42.9837 15.9782 43.4221C16.2479 43.8604 16.3827 44.3775 16.3827 44.9732C16.3827 45.5633 16.2479 46.0803 15.9782 46.5243C15.7086 46.9627 15.3322 47.3055 14.8491 47.5528C14.366 47.8001 13.8042 47.9237 13.1638 47.9237H10.5854ZM11.6808 46.9964H13.1133C13.5571 46.9964 13.9391 46.9121 14.2593 46.7435C14.5851 46.5749 14.8351 46.3389 15.0092 46.0354C15.189 45.7319 15.2789 45.3778 15.2789 44.9732C15.2789 44.5629 15.189 44.2089 15.0092 43.911C14.8351 43.6075 14.5851 43.3715 14.2593 43.2029C13.9391 43.0343 13.5571 42.95 13.1133 42.95H11.6808V46.9964Z" fill="white"/>
<path d="M17.547 47.9237V42.0227H18.6424V47.9237H17.547Z" fill="white"/>
<path d="M19.4036 47.9237L22.058 42.0227H23.1365L25.7993 47.9237H24.6533L22.3697 42.6044H22.8079L20.5328 47.9237H19.4036ZM20.6255 46.558L20.9204 45.6982H24.1056L24.4005 46.558H20.6255Z" fill="white"/>
<path d="M25.874 44.2229L26.3627 42.3515L26.506 42.9837C26.3094 42.9837 26.1436 42.9219 26.0088 42.7983C25.8796 42.6746 25.815 42.5088 25.815 42.3009C25.815 42.0929 25.8796 41.9271 26.0088 41.8035C26.1436 41.6742 26.3065 41.6096 26.4975 41.6096C26.6942 41.6096 26.8571 41.6742 26.9863 41.8035C27.1155 41.9328 27.1801 42.0986 27.1801 42.3009C27.1801 42.3627 27.1745 42.4273 27.1632 42.4948C27.1576 42.5566 27.1408 42.6297 27.1127 42.714C27.0902 42.7926 27.0509 42.8966 26.9947 43.0259L26.5565 44.2229H25.874Z" fill="white"/>
<path d="M30.2212 48.008C29.7606 48.008 29.3196 47.9434 28.8983 47.8141C28.477 47.6792 28.1427 47.5078 27.8955 47.2999L28.2747 46.4485C28.5107 46.6339 28.8028 46.7885 29.1511 46.9121C29.4994 47.0357 29.8561 47.0976 30.2212 47.0976C30.5302 47.0976 30.7802 47.0638 30.9712 46.9964C31.1622 46.929 31.3026 46.839 31.3925 46.7266C31.4824 46.6086 31.5273 46.4766 31.5273 46.3304C31.5273 46.1506 31.4627 46.0073 31.3335 45.9005C31.2043 45.7881 31.0358 45.701 30.8279 45.6392C30.6257 45.5717 30.3982 45.5099 30.1454 45.4537C29.8982 45.3975 29.6482 45.3329 29.3954 45.2598C29.1483 45.1811 28.9207 45.0828 28.7129 44.9648C28.5107 44.8411 28.3449 44.6781 28.2157 44.4758C28.0865 44.2735 28.0219 44.015 28.0219 43.7003C28.0219 43.3799 28.1062 43.0877 28.2747 42.8235C28.4489 42.5538 28.7101 42.3402 29.0584 42.1829C29.4123 42.0199 29.8589 41.9384 30.3982 41.9384C30.7521 41.9384 31.1032 41.9834 31.4515 42.0733C31.7998 42.1632 32.1031 42.2925 32.3615 42.4611L32.016 43.3125C31.752 43.1551 31.4796 43.0399 31.1987 42.9669C30.9178 42.8882 30.6482 42.8488 30.3897 42.8488C30.0864 42.8488 29.8392 42.8854 29.6482 42.9584C29.4628 43.0315 29.3252 43.127 29.2353 43.245C29.1511 43.3631 29.1089 43.4979 29.1089 43.6497C29.1089 43.8295 29.1707 43.9756 29.2943 44.088C29.4235 44.1948 29.5892 44.2791 29.7915 44.3409C29.9993 44.4028 30.2296 44.4646 30.4824 44.5264C30.7352 44.5826 30.9852 44.6472 31.2324 44.7203C31.4852 44.7934 31.7127 44.8889 31.9149 45.0069C32.1228 45.1249 32.2885 45.2851 32.4121 45.4874C32.5413 45.6898 32.6059 45.9455 32.6059 46.2546C32.6059 46.5693 32.5188 46.8615 32.3447 47.1313C32.1761 47.3954 31.9149 47.609 31.561 47.772C31.2071 47.9293 30.7605 48.008 30.2212 48.008Z" fill="white"/>
<path d="M36.0209 47.9237V42.0227H37.1163V46.9964H40.2004V47.9237H36.0209Z" fill="white"/>
<path d="M40.2392 47.9237L42.8935 42.0227H43.9721L46.6348 47.9237H45.4889L43.2053 42.6044H43.6435L41.3683 47.9237H40.2392ZM41.461 46.558L41.756 45.6982H44.9411L45.2361 46.558H41.461Z" fill="white"/>
<path d="M47.385 47.9237V42.0227H49.8118C50.3342 42.0227 50.7808 42.107 51.1516 42.2756C51.528 42.4442 51.8173 42.6859 52.0195 43.0006C52.2217 43.3153 52.3228 43.689 52.3228 44.1218C52.3228 44.5545 52.2217 44.9282 52.0195 45.243C51.8173 45.5521 51.528 45.7909 51.1516 45.9595C50.7808 46.1225 50.3342 46.204 49.8118 46.204H47.9917L48.4804 45.7066V47.9237H47.385ZM51.2443 47.9237L49.7528 45.7825H50.9241L52.424 47.9237H51.2443ZM48.4804 45.8246L47.9917 45.302H49.7612C50.2443 45.302 50.6067 45.198 50.8482 44.9901C51.0954 44.7821 51.219 44.4927 51.219 44.1218C51.219 43.7452 51.0954 43.4558 50.8482 43.2535C50.6067 43.0512 50.2443 42.95 49.7612 42.95H47.9917L48.4804 42.4105V45.8246Z" fill="white"/>
<path d="M56.3039 48.008C55.8432 48.008 55.4191 47.935 55.0315 47.7888C54.6495 47.6371 54.3152 47.4263 54.0287 47.1566C53.7422 46.8812 53.5203 46.558 53.363 46.1871C53.2058 45.8162 53.1271 45.4116 53.1271 44.9732C53.1271 44.5348 53.2058 44.1302 53.363 43.7593C53.5203 43.3884 53.7422 43.068 54.0287 42.7983C54.3208 42.5229 54.6607 42.3121 55.0483 42.166C55.4359 42.0143 55.8601 41.9384 56.3207 41.9384C56.8207 41.9384 57.2701 42.0199 57.6689 42.1829C58.0734 42.3458 58.4133 42.5847 58.6885 42.8994L57.9976 43.5738C57.7672 43.3434 57.5173 43.1748 57.2476 43.068C56.9836 42.9556 56.6915 42.8994 56.3713 42.8994C56.0623 42.8994 55.7758 42.95 55.5118 43.0512C55.2478 43.1523 55.0202 43.2956 54.8292 43.4811C54.6382 43.6665 54.4894 43.8857 54.3826 44.1386C54.2815 44.3915 54.231 44.6697 54.231 44.9732C54.231 45.2711 54.2815 45.5464 54.3826 45.7993C54.4894 46.0522 54.6382 46.2742 54.8292 46.4653C55.0202 46.6508 55.2449 46.7941 55.5034 46.8952C55.7618 46.9964 56.0483 47.047 56.3628 47.047C56.655 47.047 56.9358 47.002 57.2055 46.9121C57.4807 46.8166 57.742 46.6592 57.9891 46.44L58.6127 47.2577C58.3037 47.505 57.9442 47.6933 57.5341 47.8226C57.1296 47.9462 56.7196 48.008 56.3039 48.008ZM57.5762 47.1144V44.9058H58.6127V47.2577L57.5762 47.1144Z" fill="white"/>
<path d="M61.0687 44.4758H64.001V45.3778H61.0687V44.4758ZM61.1529 47.0048H64.4813V47.9237H60.0575V42.0227H64.3634V42.9416H61.1529V47.0048Z" fill="white"/>
<path d="M67.531 48.008C67.0704 48.008 66.6294 47.9434 66.2081 47.8141C65.7868 47.6792 65.4525 47.5078 65.2054 47.2999L65.5845 46.4485C65.8205 46.6339 66.1126 46.7885 66.4609 46.9121C66.8092 47.0357 67.1659 47.0976 67.531 47.0976C67.84 47.0976 68.09 47.0638 68.281 46.9964C68.472 46.929 68.6124 46.839 68.7023 46.7266C68.7922 46.6086 68.8371 46.4766 68.8371 46.3304C68.8371 46.1506 68.7725 46.0073 68.6433 45.9005C68.5141 45.7881 68.3456 45.701 68.1377 45.6392C67.9355 45.5717 67.708 45.5099 67.4552 45.4537C67.208 45.3975 66.958 45.3329 66.7053 45.2598C66.4581 45.1811 66.2306 45.0828 66.0227 44.9648C65.8205 44.8411 65.6548 44.6781 65.5256 44.4758C65.3964 44.2735 65.3317 44.015 65.3317 43.7003C65.3317 43.3799 65.416 43.0877 65.5845 42.8235C65.7587 42.5538 66.0199 42.3402 66.3682 42.1829C66.7221 42.0199 67.1687 41.9384 67.708 41.9384C68.0619 41.9384 68.413 41.9834 68.7613 42.0733C69.1096 42.1632 69.4129 42.2925 69.6713 42.4611L69.3259 43.3125C69.0618 43.1551 68.7894 43.0399 68.5085 42.9669C68.2276 42.8882 67.958 42.8488 67.6996 42.8488C67.3962 42.8488 67.149 42.8854 66.958 42.9584C66.7727 43.0315 66.635 43.127 66.5452 43.245C66.4609 43.3631 66.4188 43.4979 66.4188 43.6497C66.4188 43.8295 66.4805 43.9756 66.6041 44.088C66.7333 44.1948 66.8991 44.2791 67.1013 44.3409C67.3091 44.4028 67.5395 44.4646 67.7923 44.5264C68.045 44.5826 68.295 44.6472 68.5422 44.7203C68.795 44.7934 69.0225 44.8889 69.2247 45.0069C69.4326 45.1249 69.5983 45.2851 69.7219 45.4874C69.8511 45.6898 69.9157 45.9455 69.9157 46.2546C69.9157 46.5693 69.8286 46.8615 69.6545 47.1313C69.486 47.3954 69.2247 47.609 68.8708 47.772C68.5169 47.9293 68.0703 48.008 67.531 48.008Z" fill="white"/>
<path d="M72.1162 47.9237V42.95H70.1613V42.0227H75.1665V42.95H73.2116V47.9237H72.1162Z" fill="white"/>
<path d="M2.08388 54.5938H5.01615V55.4948H2.08388V54.5938ZM2.16814 57.12H5.49643V58.0379H1.07275V52.1433H5.37847V53.0612H2.16814V57.12Z" fill="white"/>
<path d="M8.37946 58.0379L5.80109 52.1433H6.98916L9.28948 57.4737H8.60697L10.9326 52.1433H12.0279L9.458 58.0379H8.37946Z" fill="white"/>
<path d="M17.8325 58.1221C17.3831 58.1221 16.9646 58.0491 16.577 57.9032C16.1951 57.7516 15.8608 57.5411 15.5743 57.2716C15.2935 56.9965 15.0744 56.6737 14.9171 56.3032C14.7598 55.9327 14.6812 55.5285 14.6812 55.0906C14.6812 54.6527 14.7598 54.2485 14.9171 53.878C15.0744 53.5075 15.2963 53.1875 15.5828 52.918C15.8692 52.6429 16.2035 52.4324 16.5855 52.2864C16.9674 52.1349 17.3859 52.0591 17.8409 52.0591C18.324 52.0591 18.765 52.1433 19.1638 52.3117C19.5627 52.4745 19.8997 52.7187 20.175 53.0443L19.4672 53.7096C19.2537 53.4794 19.015 53.3082 18.751 53.1959C18.4869 53.078 18.2005 53.0191 17.8915 53.0191C17.5825 53.0191 17.2989 53.0696 17.0405 53.1706C16.7877 53.2717 16.5658 53.4148 16.3748 53.6001C16.1894 53.7854 16.0434 54.0043 15.9367 54.2569C15.8355 54.5096 15.785 54.7875 15.785 55.0906C15.785 55.3938 15.8355 55.6716 15.9367 55.9243C16.0434 56.1769 16.1894 56.3958 16.3748 56.5811C16.5658 56.7664 16.7877 56.9095 17.0405 57.0106C17.2989 57.1116 17.5825 57.1621 17.8915 57.1621C18.2005 57.1621 18.4869 57.106 18.751 56.9937C19.015 56.8758 19.2537 56.699 19.4672 56.4632L20.175 57.1369C19.8997 57.4569 19.5627 57.7011 19.1638 57.8695C18.765 58.0379 18.3212 58.1221 17.8325 58.1221Z" fill="white"/>
<path d="M25.3702 52.1433H26.4655V58.0379H25.3702V52.1433ZM22.3199 58.0379H21.2245V52.1433H22.3199V58.0379ZM25.4544 55.5116H22.2272V54.5769H25.4544V55.5116Z" fill="white"/>
<path d="M27.2118 58.0379L29.866 52.1433H30.9446L33.6072 58.0379H32.4613L30.1778 52.7243H30.616L28.3409 58.0379H27.2118ZM28.4336 56.6737L28.7285 55.8148H31.9136L32.2085 56.6737H28.4336Z" fill="white"/>
<path d="M34.3573 58.0379V52.1433H36.784C37.3065 52.1433 37.753 52.2275 38.1238 52.3959C38.5001 52.5643 38.7894 52.8057 38.9917 53.1201C39.1939 53.4345 39.295 53.8078 39.295 54.2401C39.295 54.6724 39.1939 55.0457 38.9917 55.3601C38.7894 55.6688 38.5001 55.9074 38.1238 56.0758C37.753 56.2387 37.3065 56.3201 36.784 56.3201H34.964L35.4527 55.8232V58.0379H34.3573ZM38.2165 58.0379L36.7251 55.899H37.8963L39.3961 58.0379H38.2165ZM35.4527 55.9411L34.964 55.419H36.7335C37.2166 55.419 37.5789 55.3152 37.8204 55.1074C38.0676 54.8997 38.1912 54.6106 38.1912 54.2401C38.1912 53.864 38.0676 53.5748 37.8204 53.3727C37.5789 53.1706 37.2166 53.0696 36.7335 53.0696H34.964L35.4527 52.5307V55.9411Z" fill="white"/>
<path d="M43.2759 58.1221C42.8152 58.1221 42.3911 58.0491 42.0035 57.9032C41.6215 57.7516 41.2873 57.5411 41.0008 57.2716C40.7143 56.9965 40.4924 56.6737 40.3352 56.3032C40.1779 55.9327 40.0992 55.5285 40.0992 55.0906C40.0992 54.6527 40.1779 54.2485 40.3352 53.878C40.4924 53.5075 40.7143 53.1875 41.0008 52.918C41.2929 52.6429 41.6328 52.4324 42.0204 52.2864C42.408 52.1349 42.8321 52.0591 43.2927 52.0591C43.7927 52.0591 44.242 52.1405 44.6409 52.3033C45.0453 52.4661 45.3852 52.7047 45.6604 53.0191L44.9695 53.6927C44.7392 53.4626 44.4892 53.2941 44.2196 53.1875C43.9556 53.0752 43.6635 53.0191 43.3433 53.0191C43.0343 53.0191 42.7478 53.0696 42.4838 53.1706C42.2198 53.2717 41.9923 53.4148 41.8013 53.6001C41.6103 53.7854 41.4614 54.0043 41.3547 54.2569C41.2536 54.5096 41.203 54.7875 41.203 55.0906C41.203 55.3881 41.2536 55.6632 41.3547 55.9159C41.4614 56.1685 41.6103 56.3902 41.8013 56.5811C41.9923 56.7664 42.217 56.9095 42.4754 57.0106C42.7338 57.1116 43.0203 57.1621 43.3348 57.1621C43.6269 57.1621 43.9078 57.1172 44.1774 57.0274C44.4527 56.932 44.7139 56.7748 44.9611 56.5558L45.5846 57.3727C45.2756 57.6197 44.9161 57.8077 44.5061 57.9369C44.1016 58.0604 43.6915 58.1221 43.2759 58.1221ZM44.5482 57.2295V55.0232H45.5846V57.3727L44.5482 57.2295Z" fill="white"/>
<path d="M47.0293 58.0379V52.1433H48.1247V58.0379H47.0293Z" fill="white"/>
<path d="M49.7201 58.0379V52.1433H50.6217L54.3207 56.6822H53.8741V52.1433H54.9611V58.0379H54.0595L50.3605 53.4991H50.807V58.0379H49.7201Z" fill="white"/>
<path d="M59.2969 58.1221C58.8363 58.1221 58.4121 58.0491 58.0245 57.9032C57.6426 57.7516 57.3083 57.5411 57.0219 57.2716C56.7354 56.9965 56.5135 56.6737 56.3562 56.3032C56.1989 55.9327 56.1203 55.5285 56.1203 55.0906C56.1203 54.6527 56.1989 54.2485 56.3562 53.878C56.5135 53.5075 56.7354 53.1875 57.0219 52.918C57.314 52.6429 57.6538 52.4324 58.0414 52.2864C58.429 52.1349 58.8531 52.0591 59.3137 52.0591C59.8137 52.0591 60.2631 52.1405 60.6619 52.3033C61.0664 52.4661 61.4062 52.7047 61.6815 53.0191L60.9905 53.6927C60.7602 53.4626 60.5102 53.2941 60.2406 53.1875C59.9766 53.0752 59.6845 53.0191 59.3643 53.0191C59.0553 53.0191 58.7689 53.0696 58.5048 53.1706C58.2408 53.2717 58.0133 53.4148 57.8223 53.6001C57.6313 53.7854 57.4825 54.0043 57.3757 54.2569C57.2746 54.5096 57.2241 54.7875 57.2241 55.0906C57.2241 55.3881 57.2746 55.6632 57.3757 55.9159C57.4825 56.1685 57.6313 56.3902 57.8223 56.5811C58.0133 56.7664 58.238 56.9095 58.4964 57.0106C58.7548 57.1116 59.0413 57.1621 59.3559 57.1621C59.648 57.1621 59.9288 57.1172 60.1985 57.0274C60.4737 56.932 60.7349 56.7748 60.9821 56.5558L61.6056 57.3727C61.2967 57.6197 60.9372 57.8077 60.5271 57.9369C60.1226 58.0604 59.7126 58.1221 59.2969 58.1221ZM60.5692 57.2295V55.0232H61.6056V57.3727L60.5692 57.2295Z" fill="white"/>
<path d="M65.3791 58.0379V52.1433H66.2806L69.9797 56.6822H69.5331V52.1433H70.6201V58.0379H69.7185L66.0194 53.4991H66.466V58.0379H65.3791Z" fill="white"/>
<path d="M73.2117 54.5938H76.1439V55.4948H73.2117V54.5938ZM73.2959 57.12H76.6242V58.0379H72.2005V52.1433H76.5062V53.0612H73.2959V57.12Z" fill="white"/>
<path d="M79.0418 58.0379V53.0696H77.087V52.1433H82.0921V53.0696H80.1372V58.0379H79.0418Z" fill="white"/>
<path d="M84.2139 58.0379L82.2591 52.1433H83.3966L85.1408 57.4737H84.5762L86.3878 52.1433H87.399L89.16 57.4737H88.6123L90.3987 52.1433H91.4435L89.4886 58.0379H88.3258L86.7165 53.2296H87.0198L85.3851 58.0379H84.2139Z" fill="white"/>
<path d="M95.042 58.1221C94.5814 58.1221 94.1573 58.0463 93.7697 57.8948C93.3821 57.7432 93.045 57.5327 92.7585 57.2632C92.4721 56.9881 92.2502 56.6681 92.0929 56.3032C91.9356 55.9327 91.857 55.5285 91.857 55.0906C91.857 54.6527 91.9356 54.2513 92.0929 53.8864C92.2502 53.5159 92.4721 53.1959 92.7585 52.9264C93.045 52.6514 93.3821 52.438 93.7697 52.2864C94.1573 52.1349 94.5786 52.0591 95.0336 52.0591C95.4942 52.0591 95.9155 52.1349 96.2975 52.2864C96.6851 52.438 97.0221 52.6514 97.3086 52.9264C97.5951 53.1959 97.817 53.5159 97.9743 53.8864C98.1316 54.2513 98.2102 54.6527 98.2102 55.0906C98.2102 55.5285 98.1316 55.9327 97.9743 56.3032C97.817 56.6737 97.5951 56.9937 97.3086 57.2632C97.0221 57.5327 96.6851 57.7432 96.2975 57.8948C95.9155 58.0463 95.497 58.1221 95.042 58.1221ZM95.0336 57.1621C95.3313 57.1621 95.6066 57.1116 95.8593 57.0106C96.1121 56.9095 96.3312 56.7664 96.5166 56.5811C96.7019 56.3902 96.8452 56.1713 96.9463 55.9243C97.053 55.6716 97.1064 55.3938 97.1064 55.0906C97.1064 54.7875 97.053 54.5124 96.9463 54.2654C96.8452 54.0127 96.7019 53.7938 96.5166 53.6085C96.3312 53.4177 96.1121 53.2717 95.8593 53.1706C95.6066 53.0696 95.3313 53.0191 95.0336 53.0191C94.7359 53.0191 94.4606 53.0696 94.2078 53.1706C93.9607 53.2717 93.7416 53.4177 93.5506 53.6085C93.3652 53.7938 93.2192 54.0127 93.1124 54.2654C93.0113 54.5124 92.9608 54.7875 92.9608 55.0906C92.9608 55.3881 93.0113 55.6632 93.1124 55.9159C93.2192 56.1685 93.3652 56.3902 93.5506 56.5811C93.736 56.7664 93.955 56.9095 94.2078 57.0106C94.4606 57.1116 94.7359 57.1621 95.0336 57.1621Z" fill="white"/>
<path d="M99.3713 58.0379V52.1433H101.798C102.32 52.1433 102.767 52.2275 103.138 52.3959C103.514 52.5643 103.803 52.8057 104.006 53.1201C104.208 53.4345 104.309 53.8078 104.309 54.2401C104.309 54.6724 104.208 55.0457 104.006 55.3601C103.803 55.6688 103.514 55.9074 103.138 56.0758C102.767 56.2387 102.32 56.3201 101.798 56.3201H99.978L100.467 55.8232V58.0379H99.3713ZM103.23 58.0379L101.739 55.899H102.91L104.41 58.0379H103.23ZM100.467 55.9411L99.978 55.419H101.747C102.231 55.419 102.593 55.3152 102.834 55.1074C103.082 54.8997 103.205 54.6106 103.205 54.2401C103.205 53.864 103.082 53.5748 102.834 53.3727C102.593 53.1706 102.231 53.0696 101.747 53.0696H99.978L100.467 52.5307V55.9411Z" fill="white"/>
<path d="M106.512 56.6485L106.453 55.3517L109.545 52.1433H110.776L108.206 54.8717L107.599 55.5369L106.512 56.6485ZM105.534 58.0379V52.1433H106.63V58.0379H105.534ZM109.646 58.0379L107.388 55.3517L108.113 54.5517L110.927 58.0379H109.646Z" fill="white"/>
</svg>
