<svg width="24" height="24" viewBox="0 0 24 24" fill="none" xmlns="http://www.w3.org/2000/svg">
<path fill-rule="evenodd" clip-rule="evenodd" d="M21.6 0H2.4C1.07452 0 0 1.07452 0 2.4V21.6C0 22.9255 1.07452 24 2.4 24H12V14.9647H8.4V11.5765H12V9.75699C12 6.31228 13.7876 4.8 16.71 4.8C18.082 4.8 18.8203 4.89771 19.179 4.94517L19.2 4.94795V8.18824H17.2068C15.9664 8.18824 15.6 8.82974 15.6 10.1286V11.5765H19.1689L18.6755 14.9647H15.6V24H21.6C22.9255 24 24 22.9255 24 21.6V2.4C24 1.07452 22.9255 0 21.6 0Z" fill="white"/>
</svg>
