<svg width="24" height="24" viewBox="0 0 24 24" fill="none" xmlns="http://www.w3.org/2000/svg">
<path fill-rule="evenodd" clip-rule="evenodd" d="M7.2 0H16.8C20.7765 0 24 3.22355 24 7.2V16.8C24 20.7765 20.7765 24 16.8 24H7.2C3.22355 24 0 20.7765 0 16.8V7.2C0 3.22355 3.22355 0 7.2 0ZM19.2 3.6C19.8 3.6 20.4 4.2 20.4 4.8C20.4 5.4 19.8 6 19.2 6C18.6 6 18 5.4 18 4.8C18 4.2 18.6 3.6 19.2 3.6ZM18 12C18 8.691 15.309 6 12 6C8.691 6 6 8.691 6 12C6 15.309 8.691 18 12 18C15.309 18 18 15.309 18 12ZM12 8.4C10.0118 8.4 8.4 10.0118 8.4 12C8.4 13.9882 10.0118 15.6 12 15.6C13.9882 15.6 15.6 13.9882 15.6 12C15.6 10.0118 13.9882 8.4 12 8.4Z" fill="white"/>
</svg>
