<svg width="24" height="24" viewBox="0 0 24 24" fill="none" xmlns="http://www.w3.org/2000/svg">
<path fill-rule="evenodd" clip-rule="evenodd" d="M21.6 0H2.4C1.07452 0 0 1.07452 0 2.4V21.6C0 22.9255 1.07452 24 2.4 24H21.6C22.9255 24 24 22.9255 24 21.6V2.4C24 1.07452 22.9255 0 21.6 0ZM4.8 5.47685C4.8 6.51299 5.64038 7.35479 6.67965 7.35479C7.71564 7.35479 8.55821 6.51299 8.55821 5.47685C8.55821 4.4418 7.71564 3.6 6.67965 3.6C5.64147 3.6 4.8 4.44071 4.8 5.47685ZM5.10053 19.2H8.32434V8.83639H5.10053V19.2ZM20.4 19.2H17.1784V14.1601C17.1784 12.958 17.1565 11.412 15.5031 11.412C13.8256 11.412 13.5677 12.7211 13.5677 14.0728V19.2H10.3461V8.8364H13.4387V10.2525H13.4825C13.913 9.43799 14.9643 8.57872 16.5325 8.57872C19.7968 8.57872 20.4 10.7253 20.4 13.516V19.2Z" fill="white"/>
</svg>
