<svg width="24" height="24" viewBox="0 0 24 24" fill="none" xmlns="http://www.w3.org/2000/svg">
<path fill-rule="evenodd" clip-rule="evenodd" d="M21.6 0H2.4C1.07452 0 0 1.07452 0 2.4V21.6C0 22.9255 1.07452 24 2.4 24H21.6C22.9255 24 24 22.9255 24 21.6V2.4C24 1.07452 22.9255 0 21.6 0ZM18.4203 7.48724C19.1174 7.40665 19.7817 7.22797 20.4 6.96246C19.938 7.6303 19.3533 8.21692 18.6794 8.68735C18.6858 8.83041 18.689 8.9741 18.689 9.11842C18.689 13.5222 15.2232 18.6 8.8834 18.6C6.93661 18.6 5.12551 18.0484 3.6 17.1031C3.87008 17.1344 4.14469 17.15 4.42252 17.15C6.03784 17.15 7.52394 16.6171 8.70313 15.7231C7.19506 15.6962 5.92219 14.7323 5.48347 13.4085C5.69346 13.4466 5.90991 13.4678 6.13153 13.4678C6.4462 13.4678 6.75117 13.4272 7.03999 13.351C5.46279 13.0455 4.2752 11.6986 4.2752 10.0836V10.0418C4.73977 10.291 5.27154 10.441 5.83625 10.4585C4.91164 9.86122 4.30363 8.84103 4.30363 7.68528C4.30363 7.07366 4.47357 6.50141 4.76949 6.00912C6.4701 8.02576 9.00939 9.35269 11.8737 9.49138C11.8155 9.24836 11.7845 8.99347 11.7845 8.73233C11.7845 6.89249 13.3275 5.4 15.231 5.4C16.2221 5.4 17.1177 5.80483 17.7463 6.45268C18.532 6.30274 19.2699 6.02536 19.9354 5.64365C19.6783 6.42206 19.1323 7.07491 18.4203 7.48724Z" fill="white"/>
</svg>
