<svg width="436" height="300" viewBox="0 0 436 300" fill="none" xmlns="http://www.w3.org/2000/svg">
<path d="M303.96 183.14C305.982 161.524 269.256 112.549 257.463 117.278C255.996 118.183 254.681 119.542 253.643 121.331M303.96 183.14C299.58 186.743 286.911 202.122 271.277 234.816C271.667 235.533 272.33 236.229 273.299 236.764M303.96 183.14C328.489 189.085 337.991 194.849 339.676 196.988C346.414 202.932 346.078 210.498 345.067 213.538C342.378 211.657 336.541 210.049 328.22 211.931M302.95 225.483C303.284 225.222 303.62 224.955 303.96 224.684C313.398 217.139 321.596 213.429 328.22 211.931M302.95 225.483L316.09 251.028C316.652 252.154 317.438 254.676 316.09 255.757C314.742 256.838 312.384 258.009 311.373 258.459C310.924 258.459 309.688 258.189 308.341 257.108C306.993 256.027 298.941 239.32 295.083 231.101M302.95 225.483C300.113 227.705 297.495 229.561 295.083 231.101M295.083 231.101C283.424 238.543 276.593 238.584 273.299 236.764M328.22 211.931C339.226 216.182 359.892 232.249 354.501 262.512C347.762 300.34 303.623 303.38 287.45 291.897C271.278 280.413 263.528 267.116 265.887 246.3M265.887 246.3L273.299 236.764M265.887 246.3C263.977 253.393 247.961 265.89 199.173 259.134C183.023 256.898 168.691 254.378 156.382 251.869M97.7549 227.386C113.928 227.386 141.894 231.101 151.665 233.127M97.7549 227.386L29.3566 221.648M97.7549 227.386C98.9594 230.404 100.702 232.861 102.472 234.755M13.1836 216.915C13.1836 220.158 15.8791 220.743 17.2269 220.631L25.3134 221.309M13.1836 216.915C13.4884 214.987 13.9901 212.685 14.7119 210.16M13.1836 216.915C10.7128 215.902 6.31015 216.307 8.46654 226.035C8.35423 227.611 7.38835 231.506 4.4233 234.478C1.45825 237.451 0.941617 242.247 1.05393 244.273C0.829307 245.737 1.18871 248.056 4.4233 245.624C7.65789 243.192 19.6978 228.401 25.3134 221.309M151.665 233.127C159.482 234.749 163.008 229.975 163.795 227.386C167.725 220.18 174.981 203 172.555 191.921C170.111 180.76 173.795 171.135 150.265 166.228M151.665 233.127C155.488 234.046 161.132 235.357 167.487 236.764M252.663 123.357C251.306 126.771 250.811 131.311 251.735 136.868C253.42 147 261.137 159.497 265.887 171.994C269.994 182.802 277.342 207.12 259.148 227.386C240.953 247.651 221.074 246.3 202.542 243.598C192.974 242.203 179.054 239.325 167.487 236.764M252.663 123.357L235.225 128.424C234.804 128.466 234.319 128.752 234.02 129.437M252.663 123.357C252.952 122.63 253.281 121.954 253.643 121.331M184.685 225.483C196.006 228.825 221.523 226.876 232.867 225.483C236.011 218.912 242.84 201.716 244.996 185.504C247.692 165.239 238.595 144.974 235.225 136.868C233.542 132.817 233.523 130.576 234.02 129.437M184.685 225.483C181.828 229.893 174.388 238.323 167.487 236.764M184.685 225.483C185.862 216.968 187.488 197.146 185.072 183.14M150.265 166.228C144.601 165.047 137.361 164.14 128.079 163.55C118.1 162.916 109.718 162.679 102.472 162.774M150.265 166.228C171.518 167.02 182.067 176.481 184.685 181.113C184.824 181.773 184.953 182.45 185.072 183.14M185.072 183.14C190.367 180.888 197.781 172.129 185.072 155.106C169.186 133.828 161.773 146.325 143.915 141.596C126.058 136.868 120.667 135.179 112.917 131.801C106.717 129.099 103.37 134.053 102.472 136.868H52.9422C51.5945 138.219 49.1011 141.934 49.9098 145.987M49.9098 145.987H52.9422L55.3008 151.729M49.9098 145.987C40.1386 144.523 19.9224 142.474 17.2269 145.987C14.5314 149.5 14.3068 152.855 14.5314 154.093C22.5283 152.271 34.3445 151.678 43.8449 151.588M55.3008 151.729L102.472 162.774M55.3008 151.729C52.4838 151.619 48.4346 151.545 43.8449 151.588M102.472 162.774C78.9696 163.082 67.4208 166.888 52.0689 171.994M43.8449 151.588C47.306 156.363 53.7962 167.13 52.0689 171.994M52.0689 171.994C49.4629 172.861 46.7472 173.765 43.8449 174.696C39.4657 176.101 35.6292 178.344 32.2877 181.113M32.2877 181.113C30.1875 180.1 24.8417 178.276 20.2593 179.087C14.5314 180.1 8.96812 196.988 11.162 206.445C11.507 208.134 12.6998 211.241 14.7119 210.16M32.2877 181.113C22.8193 188.959 17.3243 201.021 14.7119 210.16M25.3134 221.309L29.3566 221.648M29.3566 221.648C20.3717 229.19 6.98401 251.569 25.3134 280.751C48.2251 317.228 100.787 291.897 104.494 266.565C104.789 264.544 105.025 262.631 105.208 260.823M102.472 234.755C104.663 237.1 106.895 238.584 108.2 239.207C114.887 241.768 131.506 246.797 156.382 251.869M102.472 234.755C104.191 236.699 106.856 244.5 105.208 260.823M105.208 260.823C110.81 259.585 124.306 256.77 133.47 255.419C144.926 253.73 150.317 250.664 156.382 251.869M239.268 98.3635C239.381 98.8139 238.864 99.7146 235.899 99.7146C233.874 99.7146 228.485 99.7146 223.769 99.7146M239.268 98.3635C246.007 101.403 246.007 106.807 246.007 108.158C246.007 109.509 245.67 109.847 244.996 111.536C244.457 112.887 246.12 113.225 247.018 113.225C252.409 101.066 242.301 94.6482 236.573 92.9595M239.268 98.3635L236.573 96.6748C235.899 96.2244 234.956 94.8509 236.573 92.9595M236.573 92.9595H223.769M234.02 129.437C230.491 125.384 223.5 113.765 223.769 99.7146M223.769 99.7146C221.581 99.7146 219.537 99.7146 218.041 99.7146C217.143 99.8271 215.279 99.7146 215.009 98.3635C214.739 97.0125 214.897 94.1979 215.009 92.9595H223.769M223.769 92.9595C223.946 91.6085 225.273 88.4336 229.16 86.5421C233.048 84.6507 238.193 85.7541 240.279 86.5421M240.279 86.5421V90.5951C241.052 91.8544 242.939 93.647 244.996 92.23M240.279 86.5421C239.136 80.4623 240.336 72.0189 241.412 66.9522M241.412 66.9522C241.605 66.0449 241.793 65.2458 241.964 64.588C244.659 61.6158 246.456 64.0251 247.018 65.6013C246.678 66.7743 246.401 68.0227 246.176 69.3165M241.412 66.9522C235.899 62.2236 239.268 45.336 244.996 45.3359C253.527 45.3358 252.746 69.3165 246.176 69.3165M246.176 69.3165C244.798 77.2615 245.428 86.9138 246.007 91.2706C245.669 91.6856 245.33 92.0001 244.996 92.23M244.996 92.23L263.191 113.225M263.191 113.225C259.597 112.774 252.274 112.481 251.735 114.913C251.196 117.345 252.782 120.205 253.643 121.331M263.191 113.225C263.357 113.502 263.702 113.833 264.202 113.937M271.951 91.2706C275.186 92.8919 274.872 95.5489 274.31 96.6748C272.288 101.628 267.841 111.874 266.223 113.225C265.401 113.911 264.719 114.045 264.202 113.937M271.951 91.2706C271.076 90.8319 269.933 90.2825 268.582 89.7079M271.951 91.2706L263.716 110.522M264.202 113.937C264.163 112.85 263.992 111.703 263.716 110.522M262.013 105.456C258.747 97.7823 252.743 90.2217 250.387 89.244C247.783 88.1631 248.179 86.9924 248.703 86.5421C256.095 85.2191 263.694 87.6281 268.582 89.7079M262.013 105.456L268.582 89.7079M262.013 105.456C262.74 107.163 263.331 108.876 263.716 110.522" stroke="#3FD18E" stroke-width="2"/>
<path d="M254.55 172.946C259.213 172.945 259.213 164.552 253.618 165.019L230.303 165.951C229.06 165.951 226.666 166.791 227.039 170.148C227.412 173.505 230.614 174.034 232.168 173.878L254.55 172.946Z" fill="#61D16A" stroke="#3FD18E"/>
<path d="M230.533 171.296L231.526 171.179L231.291 169.192L230.298 169.31L230.533 171.296ZM199.64 211.803L198.642 211.866L199.64 211.803ZM390.82 215.533L391.734 215.94L390.82 215.533ZM404.41 85C404.41 84.4477 403.962 84 403.41 84C402.858 84 402.41 84.4477 402.41 85H404.41ZM230.298 169.31C224.291 170.021 215.829 172.164 209.129 178.432C202.389 184.738 197.58 195.078 198.642 211.866L200.638 211.74C199.606 195.421 204.277 185.711 210.496 179.893C216.754 174.038 224.728 171.984 230.533 171.296L230.298 169.31ZM198.642 211.866C199.844 230.852 216.38 245.538 235.969 255.42C255.616 265.332 278.735 270.623 293.831 270.623V268.623C279.085 268.623 256.274 263.423 236.87 253.634C217.406 243.815 201.768 229.591 200.638 211.74L198.642 211.866ZM293.831 270.623C319.978 270.623 369.084 266.902 391.734 215.94L389.906 215.127C367.792 264.884 319.909 268.623 293.831 268.623V270.623ZM391.734 215.94C405.922 184.016 404.41 160.504 404.41 146.988H402.41C402.41 160.518 403.903 183.635 389.906 215.127L391.734 215.94ZM404.41 146.988V85H402.41V146.988H404.41Z" fill="#3FD18E"/>
<path d="M392.152 109.405C395.915 110.687 400.211 111.41 405.039 111.41C408.509 111.41 411.625 110.87 414.412 109.93M392.152 109.405C378.875 104.882 372.236 93.3973 372.236 82.1494C372.236 70.6012 372.236 42.485 372.236 29.8705C373.277 20.247 380.749 1 402.306 1C429.252 1 434.719 24.4085 434.719 29.8705C434.719 35.3324 434.719 74.3466 434.719 82.1494C434.719 88.7143 429.19 104.945 414.412 109.93M392.152 109.405V299M414.412 109.93V299M380.046 29.8705C380.697 23.3681 386.06 10.3634 402.306 10.3634C422.613 10.3634 426.909 26.7493 427.299 29.8705C427.612 32.3674 427.429 64.9832 427.299 80.979C425.997 88.0015 419.723 102.047 405.039 102.047C386.685 102.047 380.046 88.0015 380.046 80.979C380.046 75.361 380.046 44.5658 380.046 29.8705ZM401.134 57.1804H408.164V63.8128H401.134V57.1804ZM403.477 31.8212H409.335L406.211 37.2831H409.335L401.134 47.0367L403.477 40.0141H399.963L403.477 31.8212ZM405.039 26.7493C421.832 26.7493 421.051 51.3282 405.039 51.3282C389.028 51.3282 387.466 26.7493 405.039 26.7493ZM398.084 90.0618H408.871C410.528 90.0618 411.871 88.7186 411.871 87.0618V73.4775C411.871 71.8207 410.528 70.4775 408.871 70.4775H398.084C396.427 70.4775 395.084 71.8207 395.084 73.4775V87.0618C395.084 88.7186 396.427 90.0618 398.084 90.0618Z" stroke="#3FD18E" stroke-width="2"/>
</svg>
